<svg width="1439" height="820" viewBox="0 0 1439 820" fill="none" xmlns="http://www.w3.org/2000/svg">
<path d="M405 253.979C405 324.869 163.843 294.725 126.5 340.798C89.9525 385.89 167.316 495 112 495C0.162338 495 0 394.248 0 253.979C0 113.71 90.6623 0 202.5 0C314.338 0 405 113.71 405 253.979Z" fill="#0D81EB"/>
<path d="M1316 265C1316 403.623 1169.82 516 989.5 516C809.179 516 663 403.623 663 265C663 126.377 809.179 14 989.5 14C1169.82 14 1316 126.377 1316 265Z" fill="#F7F97B"/>
<path d="M1052.58 595.269C1029.27 592.102 989.652 574.267 1017.62 528.262C1052.58 470.757 1049.27 484.758 1087.54 464.256C1125.8 443.755 1145.17 464.256 1176.82 464.256C1208.47 464.256 1281.7 454.256 1307.21 427.253C1332.72 400.251 1376.65 376.249 1408.78 366.248C1440.9 356.247 1447.52 652.274 1428.15 699.779C1408.78 747.283 1370.51 892.297 1351.62 743.783C1332.72 595.269 1364.37 510.761 1281.7 595.269C1199.03 679.777 1199.03 622.272 1199.03 575.267C1127.6 537.663 1071.63 572.933 1052.58 595.269Z" fill="#59DED0"/>
<path d="M925 396.585C925 486.822 852.786 294.269 785.803 191.603C739.428 170.961 723.463 461.16 684.334 284.608C645.206 108.056 580.876 127.498 516.546 379.715C486.702 -31.7144 366 346.78 366 254.86C366 121.837 508.523 14 684.334 14C860.145 14 809.397 158.032 925 396.585Z" fill="#EB58DC"/>
<path fill-rule="evenodd" clip-rule="evenodd" d="M446.77 820C430.34 809.343 412.182 797.268 392.154 783.95L392.149 783.946C378.338 774.762 363.638 764.986 348 754.675C316.361 780.266 288.619 802.046 264.35 820H108.581C108.187 813.272 108 806.003 108 798.193C108 671.613 215.452 569 348 569C383.06 569 376.804 595.845 369.469 627.319C362.907 655.476 355.482 687.338 376 707C394.176 724.418 434.505 732.15 475.163 739.945C531.269 750.702 588 761.579 588 798.193C588 806.137 587.791 813.398 587.354 820H446.77Z" fill="#EB58DC"/>
<path fill-rule="evenodd" clip-rule="evenodd" d="M1184.1 409.561C1220.43 403.189 1211.75 452.117 1202.28 505.56C1192.51 560.632 1181.9 620.498 1218.8 629.589L1229.5 680C1195.92 746.007 1216.21 731.54 1242.19 713.016C1265.66 696.275 1293.78 676.221 1291 709.248C1288.59 737.814 1324.83 744.122 1362.04 750.6C1398.67 756.978 1436.24 763.519 1438.81 791.624C1441.69 823.064 1399.07 817.036 1356.62 811.03C1335.91 808.101 1315.24 805.178 1299.91 806.609C1292.97 807.257 1284.11 805.498 1275.35 803.759C1258.93 800.502 1242.87 797.314 1240.44 810.144C1239.82 813.414 1239.33 816.7 1238.94 820H998.406C1018.84 802.186 1033.69 783.243 1029.67 763.092C1023.81 733.669 989.391 728.944 953.841 724.063C920.942 719.546 887.074 714.897 873.976 690.416C863.181 670.24 883.624 653.833 905.261 636.467C919.923 624.699 935.133 612.491 941.543 598.373C948.193 583.726 947.49 560.839 946.826 539.225C945.839 507.109 944.939 477.802 968.371 482.506C1005.55 489.969 1031.39 530.029 1056.1 568.349C1084.83 612.905 1112.05 655.109 1153.82 640.986C1190.93 628.437 1179.27 574.111 1167.9 521.164C1156.5 468.062 1145.4 416.348 1184.1 409.561Z" fill="#F66A69"/>
</svg>
