<svg width="371" height="420" viewBox="0 0 371 420" fill="none" xmlns="http://www.w3.org/2000/svg">
<path d="M18.5585 261.889L18.2629 261.389L17.8962 261.402L17.4203 261.596L16.7859 261.625L16.2752 261.465L15.7854 261.247L14.8685 260.682L14.1536 260.505L13.9408 260.423L13.728 260.225L13.1183 259.502L12.6478 259.614L12.2718 259.903L11.8973 259.89L11.43 259.108L11.1568 257.948L11.1336 255.61L10.934 254.474L10.1726 253L9.10252 251.785L6.65128 249.603L6.0052 248.619L5.73285 247.467L5.6129 244.975V244.939L5.66629 242.675L5.57422 241.554L5.23454 240.618L4.79582 240.048L4.19539 239.425L2.97519 238.443L2.49856 238.273L0.942552 238.065L0.879883 238.056L1.39675 237.248L1.86796 235.49L2.20222 234.802L2.33685 234.76L2.85759 234.675L3.04251 234.616L4.67822 233.114L5.61368 232.476L6.43927 232.149L7.30665 231.985L8.11522 231.677L8.76362 230.922L8.90754 230.421L8.76362 230.222L8.5431 230.124L8.44483 229.94L8.53458 229.633L8.72957 229.424L10.0264 228.649L10.3854 228.224L11.1878 226.47L14.2596 223.183L14.6774 222.513L15.2523 220.806L15.5339 220.355L16.0175 220.052L17.1008 219.947L17.6617 219.81L19.4243 218.89L19.9312 218.508L20.4325 217.852L20.8009 217.37L19.99 216.228L19.8391 215.703L19.9141 214.721L19.8762 212.879L19.9389 212.236L20.2097 211.689L21.0012 210.701L22.011 210.183L25.4163 208.821L26.0925 207.743L25.7853 206.893L25.089 206.418L23.5128 205.78L22.2795 204.416L21.5978 203.996L20.7467 204.282L19.7609 203.973L19.4336 203.943L19.1025 204.06L18.516 204.515L18.174 204.662H17.3979L16.6752 204.418L16.0222 204.008L15.4589 203.523L14.4066 202.192L13.7265 200.474L12.442 197.228L11.1537 193.987L9.86853 190.747L8.57869 187.506L8.21194 186.577L8.04016 185.636L8.30788 184.698L10.2686 181.716L10.4287 181.103L10.5069 180.473L10.6616 179.857L11.0562 179.292L11.3619 179.124L12.189 178.842L12.401 178.702L12.4165 178.43L12.0668 177.496L12.2416 176.99L12.7244 176.345L13.3086 175.814L14.3168 175.464L14.7246 174.255L15.3119 174.216L16.026 174.265L16.5019 173.879L16.5723 173.305L15.8558 172.599L15.1076 171.527L14.6178 171.047L12.8165 169.697L12.3205 169.189L10.5796 166.512L10.0736 166.036L9.42286 165.424L9.23019 164.881L9.36482 164.298L9.8608 163.124L9.92424 162.881L9.7958 160.319L9.83991 159.783L10.1161 159.359L10.7932 158.945L12.4737 158.474L12.955 158.192L13.3728 157.29L13.5647 153.284L13.9532 152.677L14.5497 152.616L15.2368 152.761L15.8976 152.78L16.0756 152.431L15.9873 150.991L16.0825 150.452L16.2667 150.309L16.7828 150.174L16.9986 150.067L18.1925 148.682L18.7806 148.246L20.7475 147.143L21.3494 146.578L21.2171 145.952L20.8024 145.33L20.5649 144.772L20.5331 143.565L20.5796 142.962L20.7475 142.423L21.5112 141.875L22.5279 141.613L24.5737 141.349L25.1571 140.717L25.0224 139.624L24.2711 137.536L24.0815 136.462L23.9067 135.979L23.5918 135.531L21.9715 134.458L21.5707 133.888L21.3874 132.887L21.3827 131.753L21.2682 130.697L20.749 129.905L20.3575 128.711L20.3211 128.29L20.4256 127.788L20.5726 127.421V127.064L20.2368 126.601L18.6026 125.268L17.9813 124.37L18.4053 123.663L18.7999 123.624L19.723 123.791L20.0681 123.727L20.3343 123.386L20.3412 123.022L20.2832 122.63L20.3536 122.203L20.5896 121.845L21.2295 121.148L21.4903 120.749L21.758 120.003L21.9421 119.231L21.8299 118.527L22.1828 112.457L21.7518 110.013L21.6721 108.76L21.8996 105.081L21.8454 104.635L21.4655 101.574L21.4547 100.243L21.6249 99.544L22.5789 98.7969L22.9023 98.0468L23.2691 97.4668L23.9345 97.5596L24.3168 96.6842L24.7833 96.04L25.3992 95.6201L27.8954 94.9372L28.1252 94.6619L28.8262 93.2746L28.5229 92.932L27.5441 92.6598L27.2632 92.3682L27.2996 91.8625L27.5882 91.4139L28.0052 91.0613L28.9082 90.571L29.3384 90.1805L29.6874 89.7226L29.9373 89.2517L30.1199 88.6338L30.2963 88.3492L30.6027 88.2146L30.4449 87.9332L30.7869 87.9842L31.7726 88.0321L32.0636 87.9842L32.2539 87.8527L32.616 87.4537L32.7591 87.3686L33.3503 85.6882L33.6985 85.2543L34.4173 85.1105L34.9365 85.3556L35.3806 85.7075L35.8781 85.8885L36.5026 85.8049L36.8794 85.5567L37.438 84.638L38.8424 81.1054L39.5039 80.1619L43.0872 78.2696L43.8617 77.4143L44.0985 76.3834L44.3205 74.1361L44.801 73.2777L45.7272 72.833L48.0059 72.5229L48.8207 72.1154L49.4389 72.1541L50.1972 72.0102L50.9229 71.7341L51.4406 71.3684L51.8785 70.6894L52.1269 69.8812L52.1122 69.7196L52.6561 69.8573L83.7586 84.4903L83.5203 85.0502L83.4421 85.6603L83.4808 87.5511L83.5458 87.9494L83.7841 88.4281L83.764 88.923L83.3949 89.5602L82.584 90.6638L83.0583 91.9962L83.1945 92.642L83.131 93.4316L81.4505 100.574L79.9927 104.138L79.5733 104.267L79.0635 104.204L78.453 104.316L77.9446 104.801L76.76 106.982L76.5163 107.174L75.9561 107.467L75.7278 107.671L75.5885 107.955L75.4593 108.573L75.3409 108.856L72.875 111.767L71.8258 112.592L71.3855 113.101L70.0802 115.113L69.602 116.149L69.6268 117.229L70.1328 120.069L70.6559 120.875L70.6466 121.481L70.3905 122.01L69.1331 123.623L68.5404 124.622L68.1822 125.029L67.6831 125.348L67.3001 125.734L67.0208 126.365L66.6649 127.628L66.6378 128.229L67.0541 129.04L66.9659 129.661L66.6982 130.156L66.4119 130.552L66.1643 131.01L65.3541 134.7L65.3704 135.198L65.748 136.59L65.7836 136.973L66.0993 139.391L65.9801 141.262L66.2765 142.283L66.3337 142.818L66.2022 143.32L65.8184 143.755L64.8504 144.192L64.493 144.485L64.38 145.054L64.4574 145.645L64.6075 146.266L65.047 147.403L65.1251 147.51L65.3286 147.697L65.4044 147.807L65.4524 147.996L65.4439 148.38L65.4632 148.576L65.601 148.89L66.261 149.549L66.627 150.121L66.808 150.718L66.7755 151.333L66.5078 151.958L66.302 152.213L65.8223 152.64L65.6064 152.882L65.4323 153.205L65.3534 153.436L65.5151 153.697L66.3175 155.633L66.9009 156.459L68.3695 157.797L68.6364 158.3L68.7826 158.982L68.8051 160.273L68.6789 161.457L68.5288 162.076L68.4321 162.749L68.4615 163.233L68.5598 163.871L68.9366 165.007L69.3823 165.578L69.8326 165.853L70.2682 166.198L70.5607 166.372L70.8934 166.474L71.2733 166.503L71.9945 166.413L72.355 166.406L72.7156 166.476L73.0615 166.734L73.3872 167.135L73.9544 168.287L74.2175 168.723L74.6175 169.106L75.3402 169.954L76.1549 171.169L78.0785 175.077L78.1752 175.506L78.1806 175.887L77.9539 177.204L77.9423 177.527L77.9848 177.858L78.1063 178.19L78.3214 178.538L78.6309 178.873L79.0665 179.122L79.6964 179.389L79.8836 179.53L80.149 179.802L80.799 180.942L86.8474 186.665L88.0993 187.929L85.5838 190.089L84.4882 191.494L83.5582 192.5L83.6263 192.608L83.7562 192.707L83.8901 192.78L83.9976 192.892L84.0495 193.106L83.993 193.592L83.8158 193.924L83.5791 194.229L83.3477 194.628L83.2587 194.989L83.2657 195.355L83.3748 196.098L83.3779 196.891L83.0901 199.205L83.1233 199.522L83.2216 199.755L83.7671 200.456L84.2313 201.263L85.1242 202.236L85.4461 202.771L85.5119 203.459L85.4492 203.956L85.4918 204.161L86.4404 204.502L86.5712 204.608L86.8195 205.027L87.4571 205.856L87.6389 206.305L87.5004 210.216L87.0942 211.81L87.1367 212.6L87.4873 213.452L88.3895 215.058L88.6579 215.962L88.6278 218.351L88.637 218.767L88.8638 220.227L88.8847 220.749L88.7949 221.274L88.3848 221.9L87.6815 222.458L86.8799 222.888L86.1711 223.131L84.3536 223.362L83.6232 223.719L83.025 224.599L82.4517 225.679L82.2366 226.231L82.1732 226.874L82.2544 227.495L82.2428 227.787L82.1205 228.129L81.5921 228.831L81.442 229.089L81.2013 229.761L81.1139 230.414L81.2601 230.989L81.7259 231.426L83.1233 231.984L83.4514 232.507L83.9064 232.993L84.2924 233.577L84.5014 233.979L84.6847 234.468L85.1335 236.766L85.0322 237.749L85.0523 238.159L85.1869 238.483L85.4105 238.897L85.6457 239.193L86.0999 240.883L85.508 242.083L85.6326 242.404L85.8198 242.748L86.1015 243.025L86.2763 243.322L86.3584 243.754L86.1378 244.028L85.7734 244.293L81.8791 246.393L81.1781 245.731L81.0783 245.592L80.351 244.753L79.8457 244.013L79.448 243.145L79.253 242.812L79.0402 242.522L78.7903 242.252L78.3539 241.89L78.1597 241.79L77.94 241.704L77.5608 241.63L77.2823 241.608L77.0099 241.629L73.0638 242.774L72.42 243.027L68.8476 245.142L65.1545 247.809L64.4287 248.377L59.4195 251.523L58.8454 251.963L58.7347 252.13L58.6976 252.342L58.7386 252.794L58.8152 253.061L58.9119 253.278L59.2005 253.749L59.38 254.186L59.4125 254.338L59.4203 254.539L59.3994 254.742L59.3073 255.071L59.2214 255.294L59.0589 255.623L58.8485 255.859L58.2031 256.282L57.7946 256.349L57.4201 256.32L57.2445 256.277L57.0789 256.21L51.1334 251.702L50.4633 251.387L49.4621 251.033L47.0557 249.816L46.152 249.529L41.4159 249.324L37.7916 249.605L36.7919 249.878L34.8947 250.748L34.5999 250.951L32.9069 252.383L30.2329 255.79L29.1628 256.785L26.5893 258.753L25.0487 259.593L21.0655 260.687L18.8649 261.797L18.5585 261.889Z" fill="white" stroke="#9E9E9E" stroke-width="0.5" stroke-linecap="round" stroke-linejoin="round"/>
<path d="M21.3631 290.831L22.2637 289.595L22.5074 289.004L22.5175 288.3L22.4208 287.97L20.741 284.4L20.7294 284.377L20.7255 284.351L20.7294 284.327L20.9522 283.898L21.0149 283.472L20.9429 283.04L20.741 282.628L20.0237 281.341L19.7514 279.777L19.7877 278.131L19.992 276.605L20.0075 275.879L19.7862 275.224L18.6929 273.345L18.5698 272.825L18.648 271.089L18.5954 270.806L18.1497 269.455L18.1172 269.175L18.1141 268.843L18.0112 268.102L17.6994 267.582L16.7747 266.592L16.3438 265.108L17.2367 264.18L18.3478 263.288L18.5745 261.917L18.5575 261.888L18.8677 261.792L21.0683 260.683L25.0515 259.588L26.5921 258.749L29.1656 256.78L30.2357 255.785L32.9097 252.379L34.6027 250.946L34.8975 250.743L36.7947 249.874L37.7944 249.6L41.4187 249.319L46.1548 249.524L47.0585 249.811L49.4649 251.028L50.4661 251.383L51.1362 251.697L57.0817 256.205L57.2473 256.272L57.4229 256.315L57.7974 256.344L58.2059 256.277L58.8512 255.855L59.0617 255.618L59.2242 255.289L59.3101 255.066L59.4022 254.737L59.4231 254.534L59.4153 254.334L59.3828 254.181L59.2033 253.744L58.9147 253.273L58.818 253.057L58.7414 252.789L58.7004 252.338L58.7375 252.126L58.8482 251.959L59.4223 251.519L64.4315 248.372L65.1573 247.804L68.8504 245.137L72.4228 243.023L73.0666 242.769L77.0127 241.624L77.2851 241.604L77.5636 241.625L77.9428 241.699L78.1625 241.785L78.3567 241.885L78.7931 242.247L79.043 242.518L79.2558 242.808L79.4508 243.14L79.8485 244.009L80.3538 244.748L81.0811 245.587L81.1809 245.726L81.8819 246.388L86.8409 250.193L87.3771 250.724L88.9517 252.734L91.2466 256.316L92.928 260.362L92.6788 260.986L92.3786 261.267L92.0428 261.508L91.6753 261.686L89.6039 262.356L89.3819 262.867L89.1931 265.816L89.248 266.535L89.3772 266.93L89.5606 267.266L89.8005 267.521L90.0984 267.74L91.1236 268.196L91.4927 268.282L91.8757 268.266L92.6657 268.117L93.465 268.107L93.7837 268.176L94.412 268.423L94.703 268.477L95.3568 268.467L96.0547 268.681L95.3591 269.463L94.4832 270.031L93.1183 270.7L92.36 271.205L91.707 271.529L91.3905 271.823L91.2667 272.038L91.2505 272.23L91.3124 273.279L91.2985 273.807L91.2474 274.197L90.9387 275.613L90.9201 275.978L90.9418 276.382L90.975 276.51L90.9936 276.56L91.372 277.142L92.4343 279.468L92.6742 279.847L92.8568 280.055L93.1965 280.335L95.7351 282.342L96.6172 282.897L99.3083 283.867L101.23 284.062L102.779 284.688L103.228 285.047L103.584 285.418L103.746 285.753L105.101 290.008L105.168 290.18L106.329 292.403L107.824 294.434L110.069 297.044L110.613 298.07L110.577 298.385L110.443 298.668L110.146 298.896L109.792 299.055L108.902 299.229L105.201 299.531L98.8247 299.993L98.1028 300.269L96.8362 300.974L93.205 304.312L91.0037 305.994L89.8051 306.68L83.513 309.543L74.2814 313.555L64.8749 317.626L60.7717 319.029L59.194 318.994L56.4 318.446L42.5584 313.808L33.9891 310.693L33.8591 310.63L35.2093 308.588V308.584L35.8724 307.646L36.2918 307.221L37.5105 306.67L37.7666 306.459L37.543 305.842L37.0114 305.203L36.3877 304.61L33.1535 302.251L32.0741 301.84L31.2392 301.297L30.1753 299.44L29.4859 298.675L26.6362 296.163L25.669 295.482L24.2337 294.985L23.8182 294.711L23.4793 294.258L22.769 292.574L22.2072 291.56L21.8358 291.137L21.3631 290.831Z" fill="white" stroke="#9E9E9E" stroke-width="0.5" stroke-linecap="round" stroke-linejoin="round"/>
<path d="M35.226 354.582L34.5126 354.135L34.0027 352.791L33.9779 348.6L34.2108 347.844L34.6611 347.182L36.7363 345.371L36.7564 344.78L35.8713 344.042L35.0813 343.715L33.6583 342.787L30.5649 341.294L29.8987 340.78L29.2294 340.079L28.5926 339.195L28.1477 338.208L28.0386 337.217L28.3821 336.37L29.0638 335.831L30.7777 335.22L29.5815 333.071L29.2356 331.998L29.2712 330.739L29.4228 329.816L29.3323 329.493L28.3404 329.273L27.4196 328.684L27.3252 328.065L27.8413 327.519L31.553 326.377L32.4838 326.285L32.9186 326.358L33.239 326.458L33.5067 326.421L33.779 326.095L33.9245 325.766L34.1791 324.661L34.2147 324.033L34.829 322.532L34.9211 322.07L34.8801 321.87L34.7578 321.678L34.6186 321.235L34.5892 320.285L34.5598 320.059L34.33 319.624L34.0359 319.408L33.1051 319.016L32.5813 318.63L31.6288 317.607L30.1741 316.474L29.9614 316.072L30.0287 315.484L30.4194 314.837L31.6814 313.712L32.2145 313.121L33.8556 310.638L33.9856 310.7L42.5549 313.815L56.3965 318.454L59.1905 319.002L60.7682 319.037L64.8714 317.633L74.2779 313.563L83.5095 309.551L89.8016 306.687L91.0002 306.002L93.2015 304.32L96.8327 300.982L98.0993 300.277L98.8213 300L105.198 299.539L108.899 299.237L109.788 299.063L110.143 298.904L110.44 298.676L110.574 298.393L110.609 298.078L110.065 297.052L107.821 294.442L106.326 292.411L105.164 290.188L105.097 290.016L103.742 285.761L103.581 285.426L103.225 285.055L102.776 284.695L101.226 284.07L99.3049 283.875L96.6138 282.904L95.7317 282.35L93.193 280.342L92.8533 280.063L92.6707 279.855L92.4309 279.475L91.3685 277.149L90.9901 276.568L90.9715 276.518L90.9383 276.39L90.9166 275.986L90.9352 275.62L91.2439 274.205L91.295 273.815L91.3089 273.287L91.247 272.238L91.2633 272.045L91.3871 271.831L91.7035 271.536L92.3566 271.212L93.1149 270.708L94.4798 270.038L95.3556 269.471L96.0512 268.689L95.3533 268.475L94.6995 268.485L94.4086 268.431L93.7803 268.184L93.4615 268.115L92.6622 268.125L91.8722 268.274L91.4892 268.29L91.1201 268.204L90.0949 267.748L89.797 267.529L89.5572 267.274L89.3738 266.938L89.2445 266.543L89.1896 265.824L89.3784 262.875L89.6005 262.364L91.6718 261.693L92.0393 261.516L92.3752 261.274L92.6754 260.994L92.9245 260.37L94.9811 259.979L95.6643 259.915L95.9545 259.956L96.1982 260.02L97.3713 260.153L99.1888 260.083L100.727 260.339H101.077L101.353 260.287L101.683 260.104L103.427 258.667L104.089 258.146L106.536 256.415L106.926 256.282L107.733 256.094L108.953 256.026L109.988 256.115L110.342 256.179L110.651 256.269L111.277 256.268L111.436 256.887L111.821 257.688L112.268 258.378L112.62 258.674L112.958 258.752L113.25 258.967L113.454 259.273L113.646 260.055L113.923 260.134L115.929 259.633L116.58 259.642L117.12 260.465L118.943 261.478L120.821 263.116L121.053 263.667L121.593 264.108L122.661 264.756L123.385 265.644L123.746 266.209L124.083 267.132L124.527 267.599L125.075 267.983L125.572 268.254L126.657 269.138L127.965 271.43L128.898 272.407L129.072 272.476L129.524 272.559L129.724 272.624L129.867 272.734L130.138 273.06L131.185 273.631L131.48 273.714L131.594 273.829L131.692 274.109L130.698 274.341L130.242 274.286L129.542 273.962L127.247 273.197L127.01 273.054L126.951 273.026L126.874 273.004L126.724 273.024L126.53 273.088L125.68 273.508L125.504 273.557L125.328 273.552L125.156 273.487L125.021 273.363L124.928 273.198L124.859 273.02L124.785 272.87L124.689 272.754L124.562 272.66L124.384 272.589L124.168 272.546L123.276 272.58L123.077 272.55L122.91 272.463L122.763 272.356L122.583 272.29L122.218 272.248L122.097 272.172L122.022 272.054L121.949 271.812L121.874 271.7L121.74 271.644L121.58 271.669L121.415 271.733L121.257 271.833L121.147 271.952L121.087 272.248L121.265 273.386L121.266 273.676L121.312 273.856L121.414 274.061L121.69 274.401L121.902 274.584L122.11 274.718L122.767 275.026L123.078 275.247L123.175 275.484L123.209 275.825L123.013 277.348L123.079 278.675L123.709 282.134L123.686 282.278L123.552 282.578L123.314 282.865L122.611 283.464L122.477 283.607L122.373 283.762L122.288 283.938L122.245 284.132L122.278 284.354L122.364 284.516L122.584 284.65L122.739 284.676L122.89 284.656L123.045 284.606L126.331 282.959L126.939 282.737L128.258 282.42L128.436 282.415L128.583 282.444L128.766 282.5L128.936 282.579L129.086 282.691L129.204 282.845L129.275 283.04L129.334 283.348L129.292 283.682L129.174 284.054L128.87 284.599L128.657 284.868L128.464 285.045L127.992 285.342L126.893 286.305L126.841 286.379L126.775 286.567L126.745 286.849L126.816 287.191L126.898 287.373L126.96 287.463L127.209 287.678L127.445 287.926L127.535 288.069L127.611 288.223L127.673 288.408L127.719 288.605L127.763 289.025L127.828 289.37L127.877 289.511L127.849 289.67L127.765 289.851L127.382 290.195L127.166 290.429L126.408 291.692L125.899 292.559L125.831 292.722L125.769 292.832L125.735 292.963L125.728 293.039L125.743 293.146L126.305 294.704L126.782 295.544L127.749 296.194L127.951 296.381L128.13 296.648L128.261 297.047L128.386 297.898L128.567 298.277L128.99 298.7L129.8 299.29L130.469 300.316L130.818 300.689L132.31 301.717L132.739 302.148L133.24 302.486L134.596 302.743L135.089 303.034L135.569 303.394L137.41 304.444L138.15 304.696L138.749 304.504L138.967 304.354L139.098 304.411L139.182 304.54L139.264 304.613L139.938 304.618L142.291 303.844L143.199 303.773L144.007 303.989L144.522 304.419L144.999 305.06L145.345 305.783L145.477 306.454L145.566 306.442L145.765 306.641L145.967 306.906L146.076 307.095L146.101 307.385L146.053 307.656L145.899 308.192L145.808 308.868L145.844 309.484L146.011 310.082L146.316 310.71L148.878 314.1L149.531 315.371L149.761 316.034L149.482 316.459L148.466 317.895L146.104 320.406L140.393 323.631L139.883 323.766L136.781 324.035L136.118 324.224L135.194 324.36L134.61 324.589L134.497 324.644L133.888 325.116L133.379 325.63L133.254 325.725L133.108 325.799L132.773 325.89L132.62 326.003L132.518 326.199L132.513 326.887L132.536 327.057L132.693 327.618L132.564 328.142L131.761 329.279L131.564 329.539L131.395 329.809L131.25 330.116L130.937 331.182L130.912 331.488L130.934 332.637L131.022 333.307L133.143 341.851L130.832 347.387L130.692 347.868L130.332 349.725L130.101 350.292L129.307 351.648L129.108 355.721L127.815 360.215L127.756 360.892L127.773 361.32L127.836 361.683L127.931 362.016L127.958 362.203L127.636 365.592L127.667 366.405L127.707 366.58L128.225 367.801L132.494 372.442L134.989 374.31L135.004 375.356L134.972 375.662L134.883 376.067L134.374 377.466L133.967 378.184L133.567 378.65L133.443 378.749L133.341 378.964L133.262 379.267L133.173 380.209L133.091 380.498L132.903 380.73L132.624 381.021L132.424 381.526L132.156 383.017L132.459 383.184L132.574 383.265L132.727 383.396L132.863 383.551L133.013 383.801L133.19 384.044L133.52 384.339L133.731 384.575L134.221 385.325L134.989 386.825L135.348 387.368L135.591 387.577L135.697 387.696L136.012 388.691L136.819 392.555L136.862 392.644L136.334 392.65L136.333 392.657L128.257 392.754L126.649 392.572L124.548 392.265L124.287 392.292L124.138 392.416L124.004 392.565L123.779 392.676L119.563 393.165L118.634 392.872L117.749 392.244L113.871 387.635L113.211 387.26L110.425 386.768L110.267 386.593L109.909 385.01L108.974 383.996L107.662 383.329L105.1 382.498L104.569 382.677L103.131 388.04L102.84 391.084L102.709 391.563L102.524 391.958L102.456 391.995L102.328 391.917L101.946 391.968L101.686 392.129L101.452 392.396L101.265 392.713L101.142 393.02L100.408 393.591L96.387 394.762L92.8634 395.731L92.7473 395.886L92.6661 396.133L92.574 396.342L92.4301 396.373L91.9325 396.205L91.3399 396.13L91.0056 396.019L90.6775 395.989L90.2675 396.174L89.5703 396.782L89.178 397.431L88.959 398.194L88.6008 400.624L88.3818 401.364L87.9926 401.852L87.9176 402.122L88.1009 403.069L88.0824 403.407L87.7381 403.643L84.3428 404.712L83.5358 405.138L82.923 405.798L82.6305 406.245L82.2398 406.512L81.774 406.621L81.1047 406.557L80.5886 406.58L80.8416 409.627L80.7728 410.342L80.4377 410.84L78.1513 412.66L77.2599 413.731L75.7101 416.338L66.1357 418.425L65.0208 418.645L62.9107 418.8L58.2296 418.518L57.257 418.189L57.024 417.959L56.3656 416.924L56.217 416.948L55.0548 416.71L54.7299 416.222L54.5968 415.374L54.6014 412.841L55.588 407.964L55.574 407.324L54.651 405.487L54.3933 403.86L54.1287 403.16L52.9681 401.006L52.7677 400.347L52.7584 399.696L53.2853 397.655L53.2489 397.02L52.9766 396.236L52.127 395.004L52.0194 394.653L52.1192 394.346L52.5023 393.799L52.6067 393.502L52.5023 392.793L52.1394 392.008L51.6078 391.316L51.0012 390.902L49.5326 389.462L48.8068 388.795L48.5252 388.407L48.3983 387.935L48.054 382.579L47.4257 380.062L45.5424 376.615L45.3048 375.492L45.4472 367.582L45.0294 366.149L38.7109 355.626L38.2335 355.147L37.572 354.976L36.2992 355.036L35.8689 354.989L35.226 354.582Z" fill="white" stroke="#9E9E9E" stroke-width="0.5" stroke-linecap="round" stroke-linejoin="round"/>
<path d="M213.214 397.089L212.953 396.998L212.867 396.765L212.824 396.471L212.696 396.178L212.337 395.793L211.044 394.861L209.612 394.158L209.184 393.706L208.959 393.129L208.955 392.097L208.751 391.698L208.834 391.429L208.836 391.105L208.643 389.873L208.552 389.566L208.122 389.462L206.807 389.212L202.331 389.455L202.315 389.458L192.798 389.404L183.281 389.35L182.117 389.552L181.632 389.827L180.225 391.085L179.88 390.927L178.632 389.811L178.024 389.535L175.201 389.342L174.391 389.494L173.955 389.682L173.853 389.787L173.838 389.979L173.549 390.711L173.44 391.345L173.335 391.605L173.102 391.845L172.871 391.959L172.661 392.023L172.502 392.142L172.237 392.674L171.771 394.507L170.826 396.918L170.591 397.283L169.983 397.617L169.76 397.857L167.511 403.762L166.78 404.834L165.218 406.323L164.779 407.108L163.473 412.029L163.454 414.391L163.185 415.028L162.475 417.552L162.525 417.969L161.962 417.698L161.846 416.164L161.474 415.707L161.706 414.923L161.603 414.032L161.203 413.303L160.543 413.001L160.212 412.734L159.408 410.985L159.107 410.752L158.835 410.647L158.638 410.457L158.562 409.969L158.593 409.596L158.737 408.956L158.768 408.628L158.885 408.272L159.136 407.98L159.36 407.645L159.408 407.161L157.729 405.486L157.294 404.884L157.115 404.136L157 403.94L156.458 403.581L156.289 403.341L156.297 403.009L156.532 402.377L156.494 402.022L156.091 401.66L155.455 401.214L155.058 400.642L155.359 399.878L155.749 399.405L155.958 398.952L155.943 398.429L155.668 397.76L155.415 397.372L154.608 396.379L154.326 396.176L153.718 396.035L153.04 395.69L152.462 395.258L151.819 395.16L151.565 395.076L151.329 395.12L150.77 395.366L150.492 395.417L149.299 395.127L147.175 393.922L141.489 392.585L136.341 392.647L136.341 392.64L136.869 392.634L136.826 392.544L136.019 388.681L135.705 387.686L135.598 387.567L135.355 387.358L134.997 386.815L134.228 385.315L133.738 384.564L133.527 384.329L133.198 384.034L133.02 383.791L132.87 383.541L132.734 383.386L132.581 383.254L132.466 383.174L132.163 383.007L132.431 381.516L132.631 381.011L132.911 380.72L133.099 380.488L133.18 380.199L133.27 379.257L133.348 378.954L133.451 378.739L133.574 378.64L133.974 378.174L134.381 377.456L134.89 376.057L134.979 375.652L135.011 375.346L134.997 374.3L135.123 372.432L135.958 365.917L135.9 365.25V363.945L135.943 363.622L136.45 361.815L136.832 355.893L136.904 355.692L137.011 355.496L137.191 355.254L137.367 355.165L137.539 355.17L137.676 355.25L137.935 355.442L138.088 355.515L138.607 355.683L138.783 355.708L138.967 355.68L139.374 355.52L139.558 355.466L139.73 355.469L139.874 355.531L140.11 355.741L141.05 356.915L141.061 356.925L141.083 356.935L141.156 356.949L141.3 356.951L141.499 356.904L141.71 356.911L141.737 356.929L141.912 357.155L142.012 357.249L142.137 357.27L142.298 357.245L142.563 357.134L142.756 357.087L142.924 357.119L143.055 357.205L143.286 357.42L143.418 357.509L143.57 357.567L143.751 357.575L144.122 357.545L144.311 357.565L144.466 357.627L144.593 357.727L144.678 357.861L144.734 358.025L144.774 358.198L144.832 358.359L144.963 358.454L145.308 358.568L145.463 358.64L145.592 358.735L145.698 358.847L145.789 358.968L145.859 359.095L145.945 359.222L146.057 359.332L146.193 359.421L146.651 359.644L146.779 359.739L146.89 359.856L146.988 359.977L147.114 360.059L147.264 360.082L147.632 359.916L148.201 359.745L148.693 359.505L148.911 359.311L149.033 359.1L149.111 358.718L149.166 358.543L149.389 358.087L149.436 357.913L149.442 357.727L149.425 357.341L149.48 356.924L149.671 356.462L150.109 355.77L150.363 355.283L150.66 354.844L150.884 354.682L151.107 354.617L151.278 354.654L151.426 354.708L151.836 354.93L152.002 354.991L152.175 355.031L152.548 355.029L152.719 355.046L152.872 355.107L152.981 355.212L153.056 355.359L153.226 355.837L153.311 355.977L153.419 356.089L153.993 356.417L154.119 356.514L154.326 356.738L154.449 356.916L155.042 357.593L155.124 357.728L155.849 359.402L155.934 359.538L156.035 359.655L156.162 359.757L156.302 359.839L156.522 359.875L156.799 359.863L157.73 359.615L158.293 359.545L158.501 359.55L158.884 359.621L159.04 359.694L159.307 359.878L160.394 360.801L161.507 361.291L162.066 361.402L163.884 361.201L164.276 361.251L165.082 361.508L165.341 361.528L165.547 361.491L165.697 361.397L165.844 361.286L166.008 361.12L166.126 360.978L166.225 360.829L166.297 360.672L166.352 360.496L166.387 360.302L166.42 359.66L166.402 359.467L166.247 358.995L166.269 358.831L166.405 358.55L166.444 358.406L166.466 358.238L166.518 358.037L166.733 357.754L166.846 357.548L166.904 357.355L166.911 357.19L166.73 355.25L166.751 354.449L166.794 354.143L166.841 353.979L167.074 353.407L167.269 353.507L167.64 353.927L168.06 354.213L168.421 354.16L168.878 354.003L169.534 354.013L170.126 354.148L170.383 354.373L170.484 354.962L170.755 355.152L171.624 355.167L171.799 355.108L172.148 355.041L172.363 355.118L172.14 355.498L172.074 355.81L172.287 356.149L172.882 356.715L172.889 356.817L173.516 356.82L176.332 356.902L224.657 356.938H224.674V356.955L224.558 359.082L223.584 362.412L222.601 365.772L221.539 369.397L220.435 373.179L219.4 376.627L217.989 381.344L216.886 385.034L215.566 389.459L214.762 392.367L213.912 395.458L213.214 397.089Z" fill="#CFCFCF" stroke="#9E9E9E" stroke-width="0.5" stroke-linecap="round" stroke-linejoin="round"/>
<path d="M349.145 329.949L349.124 329.11L349.571 327.406L349.62 326.734L349.579 325.376L349.658 324.661L349.559 323.653L349.043 321.811L348.981 320.78L349.074 319.716L348.975 319.257L348.647 318.885L347.462 318.144L344.638 316.387L341.817 314.627L338.994 312.871L336.173 311.113L333.349 309.358L330.526 307.603L327.702 305.846L324.881 304.09L323.354 303.143L322.489 302.523L321.582 301.877L320.98 301.725L318.524 301.758L312.823 301.835L307.122 301.908L301.421 301.984L295.718 302.057L293.234 302.09L288.676 303.081L278.432 305.307L268.19 307.535L257.947 309.767L247.704 311.996L247.055 312.096L245.625 312.315L244.197 312.534L243.546 312.634L240.852 313.045L240.369 313.248L240.123 313.627L239.551 315.207L238.7 317.565L237.849 319.928L236.998 322.295L236.145 324.66L235.753 325.492L235.364 326.324L235.173 326.728L234.972 327.153L234.582 327.985L234.077 328.755L233.574 329.52L233.071 330.29L232.568 331.059L231.215 333.022L229.863 334.981L228.509 336.946L227.156 338.907L226.523 339.826H226.499L193.98 339.95L193.698 339.87L193.458 339.747L193.199 339.337L192.275 337.102L191.869 336.453L191.479 336.15L191.219 336.278L191.009 336.508L190.651 337.063L190.458 337.298L190.065 337.629L189.895 337.722L189.648 337.817L189.057 337.912L188.741 337.999L188.496 338.181L188.284 338.416L187.759 339.19L187.578 339.38L187.427 339.472L187.177 339.547L186.857 339.542L185.48 339.226L183.588 339.216L182.904 339.141L182.514 337.763L181.239 324.755L181.181 324.633L180.793 323.769L180.682 323.439L179.401 301.229L179.476 299.293L180.197 293.962L179.919 293.448L178.02 293.668L177.385 293.641L176.578 293.38L176.223 293.383L175.846 293.666L175.498 294.33L175.216 296.667L175.071 297.104L174.862 297.465L174.574 297.751L174.191 297.96L173.727 298.079L173.171 298.125L172.617 298.086L172.159 297.94L171.875 297.682L171.735 297.338L171.667 296.954L170.412 292.537L170.224 292.294L170.025 292.215L169.813 292.19L169.591 292.112L169.239 291.78L169.001 291.415L168.725 291.113L168.258 290.97L167.374 290.914L166.93 290.806L166.558 290.598L166.342 290.264L166.254 289.837L166.21 289.386L166.128 288.971L165.69 288.244L165.105 287.843L164.459 287.507L163.84 286.987L163.62 286.602L163.401 285.746L163.241 285.32L162.807 284.498L162.7 284.084L162.713 283.566L162.782 283.09L162.794 282.674L162.688 282.283L162.394 281.895L162.073 281.578L162.601 280.615L163.378 279.711L163.494 279.473L163.504 279.28L163.301 278.782L163.258 278.539L163.239 278.213L163.312 276.945L163.274 276.715L163.234 276.575L163.226 276.557L163.131 276.439L163.018 276.33L162.879 276.231L162.197 275.881L161.907 275.664L161.4 275.145L160.969 274.801L160.641 274.617L160.093 274.438L159.971 274.385L159.817 274.262L159.657 274.049L159.437 273.668L159.367 273.387L159.352 273.146L159.391 272.664L159.3 272.466L158.945 272.145L158.883 271.992L158.904 271.819L158.972 271.606L159.023 271.376L159.017 271.027L158.923 270.829L158.772 270.686L158.368 270.401L157.916 269.561L157.59 268.294L157.115 267.458L156.49 266.635L156.076 265.87L155.826 265.51L155.624 265.273L155.224 265.01L154.97 264.781L154.536 264.301L153.965 262.742L152.964 260.812L152.56 260.192L151.188 258.748L151.002 258.426L150.863 257.807L151.06 256.933L151.492 256.415L152.16 255.854L154.662 253.337L155.292 252.562L160.094 245.411L160.203 245.111L160.272 244.795L160.231 244.064L160.248 243.756L160.374 243.379L160.612 243.151L161.75 242.388L162.094 242.25L162.378 242.234L162.973 242.304L163.261 242.28L163.915 242.116L164.181 242.106L164.529 242.215L165.086 242.142L165.573 242.101L165.801 241.508L165.95 240.92L165.826 240.318L165.577 239.831L165.299 239.014L165.159 238.772L164.978 238.558L163.59 237.426L161.001 234.454L159.998 233.661L159.719 233.51L158.913 233.253L157.134 232.192L156.675 231.84L154.769 229.793L154.469 229.568L154.16 229.42L153.496 229.194L152.776 228.802L149.925 225.715L149.486 224.952L148.831 222.431L148.767 221.827L148.697 221.54L148.522 221.241L148.066 220.694L147.925 220.383L147.943 219.996L148.308 219.404L148.466 218.697L149.556 216.873L149.64 216.643L149.545 216.341L149.318 216.219L149.046 216.118L148.814 215.888L148.694 215.413L148.767 214.906L148.967 214.407L149.227 213.949L149.519 213.627L150.212 213.147L150.485 212.854L150.648 211.977L150.673 211.894L150.729 211.825L151.663 209.614L151.725 209.172L151.649 208.865L151.358 208.473L151.294 208.214L151.371 207.923L151.913 207.02L151.192 206.976L151.243 206.61L151.913 205.73L151.975 205.109L151.9 204.556L151.887 203.997L152.138 203.363L151.872 202.704L151.977 202.12L152.213 201.59L152.344 201.097L152.211 200.614L151.632 199.815L151.499 199.162V198.068L151.549 197.866L151.654 197.707L151.736 197.484L151.724 197.092L151.527 196.436L151.188 195.852L150.751 195.351L150.258 194.943L150.658 194.635L151.065 194.601L151.483 194.739L151.911 194.944L151.934 194.43L151.756 194.073L151.066 193.443L151.91 193.438L152.262 193.372L152.47 192.68L192.316 194.792L192.93 194.76L193.027 194.68L192.733 194.521L192.412 194.388L191.334 194.123L190.986 193.965L190.69 193.757L189.9 192.871L189.624 192.462L189.445 191.843L189.382 191.372L189.352 190.599L189.289 190.283L189.129 189.985L188.491 189.162L188.113 188.395L187.803 187.977L187.54 187.701L187.324 187.577L186.341 187.128L186.011 186.923L185.106 186.146L184.789 185.995L184.437 185.976L184.1 185.893L183.753 185.669L182.35 184.187L182.138 183.776L181.983 182.248L181.807 181.824L181.427 181.338L181.032 181.082L180.281 180.795L179.973 180.592L179.693 180.291L176.51 175.335L175.391 172.203L174.423 170.671L174.221 170.177L173.89 168.676L174.039 167.922L174.218 167.467L174.344 166.869L174.365 166.001L174.199 164.376L174.18 160.746L173.489 157.776L174.921 157.109L185.371 154.059L202.244 144.281L229.004 128.797L245.196 119.405L245.213 119.392L245.364 119.419L246.187 120.197L246.491 120.364L247.925 120.68L249.277 120.542L250.587 120.056L252.637 118.985L253.101 119.02L253.563 119.21L254.65 119.406L255.291 119.805L255.639 119.941H255.961L256.652 119.725L258.648 119.799L258.944 119.619L259.117 118.996L259.567 118.699L260.86 118.507L260.976 118.385L261.341 118.16L261.731 118.079L261.911 118.391V119.655L262.494 120.279L263.829 120.52L265.3 120.62L266.285 120.828L266.845 121.372L267.074 121.53L269.153 122.424L271.465 124.25L273.67 125.991L274.718 126.554L275.413 126.702L275.609 126.792L275.722 126.934L275.882 127.307L276.017 127.449L276.291 127.584L278.575 128.138L279.119 128.453L279.342 129.036L279.407 129.873L279.582 130.729L279.84 131.534L280.15 132.207L280.395 132.468L281.055 133.022L281.113 133.205L280.966 133.52L281.153 133.714L281.446 133.846L281.63 133.968L281.705 134.229L281.682 134.419L281.424 135.012L281.034 136.475L280.73 137.149L280.192 137.619L279.461 137.826L279.253 137.983L279.094 138.406L278.969 139.115L278.93 139.824L279.028 140.24L279.43 140.94L279.441 141.733L279.332 142.582L279.372 143.433L279.675 144.004L281.321 145.381L281.581 145.891L282.024 147.853L283.02 150.07L283.183 151.372L282.251 151.691L282.75 152.709L284.223 153.733L284.596 154.418L284.684 156.315L284.804 158.879L284.924 161.443L285.046 164.008L285.166 166.574L285.26 168.604L285.104 168.973L281.644 169.015L275.805 169.089L277.402 170.494L279.499 173.018L282.769 176.948L285.544 180.288L285.97 180.986L286.224 181.752L286.622 186.422L287.161 192.759L287.561 197.428L287.767 200.804L287.984 204.372L288.562 205.72L289.496 205.98L291.597 206.055L297.359 206.267L303.123 206.476L308.887 206.685L314.649 206.897L320.412 207.105L326.177 207.317L331.937 207.529L337.701 207.738L339.888 207.816L340.568 207.728L341.191 207.412L341.415 207.112L341.836 206.334L342.059 206.18L343.367 206.213L343.675 206.493L343.827 209.561L343.697 209.998L342.986 210.592L342.948 211.139L343.581 212.29L343.175 213.437L340.155 216.894L339.647 217.857L339.417 218.934L339.526 220.302L340.144 222.685L340.243 223.913L340.178 224.135L339.907 224.697L339.829 224.994L339.84 225.367L340.14 226.938L340.659 227.896L340.863 228.468L341.034 230.678L341.191 231.165L341.512 231.721L341.655 232.415L341.699 235.248L341.871 236.446L342.415 237.389L343.548 238.015L344.502 238.139L344.806 238.23L345.104 238.417L345.645 238.872L345.944 239.063L346.197 239.141L346.688 239.227L346.941 239.37L347.284 239.832L347.774 240.88L348.247 241.233L348.667 241.345L349.011 241.387L349.343 241.482L349.732 241.741L350.559 242.659L350.889 242.905L351.96 243.37L352.325 243.573L353.642 244.665L354.51 245.045L355.658 245.334L356.805 245.412L357.673 245.156L358.365 245.038L358.891 245.117L359.566 245.392L359.981 245.828L360.283 246.537L360.358 247.324L360.318 248.072L360.38 248.59L360.367 249.81L360.43 250.401L360.67 250.972L360.985 251.392L361.368 251.769L361.807 252.075L362.288 252.278L362.031 253.289L362.141 253.634L362.685 254.317L363.125 255.088L363.065 255.66L362.117 255.755L364.937 260.683L366.493 264.554L367.534 266.492L368.741 267.189H369.36L369.85 267.268L370.12 267.578L370.085 268.272L367.999 268.302L367.45 268.43L367.061 268.799L366.568 270.379L365.145 274.929L363.724 279.479L362.302 284.032L360.878 288.589L360.537 289.68L361.75 289.782L362.066 290.049L362.194 290.687L362.369 292.581L362.548 293.97L360.852 294.102L360.334 294.439L359.637 295.905L358.697 297.884L356.623 302.242L354.552 306.602L353.609 308.585V308.588L353.608 308.591L353.236 309.387L352.421 311.136L351.604 312.888L351.232 313.682L350.177 315.946L350.41 316.849L352.704 318.952L355.145 321.192L358.193 323.992L357.89 324.405L357.545 324.927L357.107 325.409L356.432 325.732L355.667 325.535L355.184 325.475L354.966 325.631L354.888 325.91L354.68 326.16L354.381 326.339L354.036 326.409L353.271 326.722L352.328 328.097L351.539 328.41L351.337 328.523L350.973 329.079L350.814 329.269L350.428 329.475L349.145 329.949Z" fill="white" stroke="#9E9E9E" stroke-width="0.5" stroke-linecap="round" stroke-linejoin="round"/>
<path d="M226.523 339.825L225.862 340.785L224.759 342.467L224.503 343.329L224.537 346.268L224.571 349.113L224.609 352.223L224.666 356.939H224.649L176.323 356.903L173.508 356.821L172.88 356.818L172.873 356.716L172.278 356.15L172.065 355.81L172.131 355.499L172.355 355.119L172.14 355.042L171.791 355.109L171.615 355.168L170.747 355.152L170.475 354.963L170.375 354.374L170.118 354.149L169.526 354.014L168.869 354.004L168.413 354.161L168.052 354.214L167.631 353.928L167.26 353.508L167.065 353.408L166.833 353.98L166.785 354.144L166.743 354.45L166.721 355.25L166.902 357.191L166.896 357.356L166.838 357.549L166.725 357.755L166.51 358.038L166.457 358.239L166.436 358.406L166.396 358.55L166.261 358.832L166.238 358.996L166.393 359.468L166.412 359.661L166.378 360.303L166.344 360.497L166.289 360.673L166.217 360.829L166.118 360.979L166 361.121L165.835 361.287L165.689 361.398L165.538 361.491L165.333 361.528L165.074 361.508L164.268 361.252L163.876 361.201L162.058 361.402L161.498 361.292L160.386 360.802L159.299 359.879L159.032 359.695L158.875 359.621L158.492 359.551L158.285 359.546L157.722 359.616L156.79 359.864L156.514 359.876L156.293 359.84L156.153 359.758L156.026 359.656L155.926 359.539L155.841 359.402L155.116 357.729L155.034 357.594L154.441 356.917L154.317 356.739L154.111 356.515L153.984 356.417L153.41 356.09L153.303 355.977L153.218 355.838L153.047 355.36L152.972 355.213L152.864 355.107L152.711 355.047L152.54 355.03L152.167 355.032L151.994 354.991L151.828 354.931L151.418 354.708L151.269 354.655L151.098 354.618L150.876 354.683L150.651 354.845L150.355 355.284L150.101 355.771L149.662 356.462L149.471 356.925L149.416 357.342L149.433 357.728L149.427 357.914L149.381 358.088L149.158 358.543L149.103 358.719L149.025 359.101L148.902 359.312L148.685 359.506L148.193 359.746L147.623 359.917L147.256 360.083L147.106 360.06L146.98 359.978L146.881 359.857L146.771 359.74L146.642 359.645L146.185 359.422L146.049 359.333L145.937 359.222L145.851 359.096L145.78 358.969L145.689 358.848L145.583 358.736L145.455 358.641L145.299 358.569L144.955 358.455L144.823 358.359L144.765 358.198L144.726 358.026L144.669 357.862L144.585 357.728L144.457 357.628L144.303 357.566L144.114 357.546L143.742 357.576L143.562 357.567L143.41 357.51L143.278 357.421L143.047 357.205L142.915 357.12L142.748 357.088L142.555 357.135L142.29 357.246L142.129 357.271L142.004 357.25L141.904 357.156L141.729 356.93L141.701 356.912L141.491 356.905L141.291 356.952L141.147 356.95L141.074 356.936L141.053 356.926L141.042 356.915L140.102 355.742L139.865 355.532L139.722 355.47L139.549 355.467L139.366 355.52L138.959 355.681L138.775 355.708L138.598 355.684L138.079 355.516L137.927 355.442L137.668 355.251L137.531 355.171L137.358 355.165L137.182 355.254L137.002 355.497L136.895 355.693L136.823 355.894L136.442 361.815L135.934 363.623L135.891 363.946V365.25L135.949 365.918L135.114 372.432L134.988 374.301L132.493 372.432L128.223 367.792L127.706 366.571L127.665 366.396L127.635 365.582L127.957 362.193L127.929 362.007L127.835 361.674L127.771 361.31L127.755 360.883L127.814 360.206L129.107 355.711L129.306 351.639L130.1 350.283L130.331 349.716L130.691 347.859L130.831 347.378L133.142 341.842L131.02 333.298L130.933 332.628L130.91 331.479L130.936 331.173L131.249 330.107L131.394 329.799L131.563 329.529L131.76 329.27L132.562 328.133L132.692 327.608L132.535 327.048L132.512 326.878L132.517 326.19L132.619 325.994L132.771 325.881L133.107 325.79L133.253 325.716L133.378 325.621L133.887 325.107L134.495 324.634L134.608 324.579L135.192 324.351L136.116 324.215L136.779 324.026L139.882 323.756L140.392 323.622L146.103 320.396L148.465 317.885L149.48 316.45L149.76 316.025L149.53 315.362L148.877 314.091L146.315 310.7L146.01 310.073L145.842 309.475L145.807 308.859L145.897 308.182L146.052 307.646L146.1 307.376L146.075 307.086L145.966 306.897L145.763 306.632L145.565 306.433L145.476 306.445L145.344 305.773L144.997 305.051L144.521 304.41L144.006 303.979L143.198 303.763L142.289 303.835L139.937 304.609L139.263 304.603L139.181 304.531L139.097 304.401L138.971 304.347L138.752 304.496L138.154 304.688L137.414 304.436L135.572 303.386L135.093 303.026L134.599 302.735L133.243 302.478L132.742 302.14L132.313 301.71L130.822 300.681L130.473 300.308L129.803 299.282L128.993 298.693L128.57 298.269L128.39 297.89L128.264 297.039L128.134 296.64L127.954 296.374L127.753 296.186L126.786 295.536L126.308 294.696L125.746 293.139L125.732 293.031L125.739 292.955L125.773 292.825L125.835 292.714L125.903 292.552L126.411 291.684L127.169 290.421L127.385 290.187L127.768 289.843L127.853 289.662L127.88 289.503L127.832 289.362L127.766 289.017L127.723 288.597L127.676 288.4L127.614 288.216L127.538 288.062L127.448 287.918L127.212 287.67L126.964 287.455L126.901 287.365L126.819 287.183L126.748 286.841L126.779 286.559L126.844 286.371L126.896 286.297L127.995 285.334L128.468 285.037L128.66 284.86L128.873 284.591L129.177 284.047L129.295 283.674L129.337 283.341L129.279 283.032L129.207 282.837L129.089 282.683L128.94 282.571L128.77 282.492L128.586 282.436L128.439 282.407L128.261 282.412L126.942 282.729L126.335 282.952L123.048 284.599L122.893 284.648L122.742 284.668L122.587 284.642L122.368 284.508L122.282 284.347L122.248 284.124L122.292 283.931L122.376 283.754L122.48 283.599L122.614 283.457L123.318 282.857L123.555 282.57L123.689 282.27L123.712 282.126L123.082 278.667L123.017 277.34L123.212 275.818L123.178 275.476L123.081 275.239L122.771 275.018L122.113 274.71L121.906 274.576L121.694 274.393L121.417 274.054L121.315 273.848L121.27 273.668L121.268 273.378L121.091 272.24L121.15 271.944L121.26 271.826L121.418 271.725L121.583 271.661L121.743 271.636L121.877 271.692L121.952 271.804L122.026 272.046L122.101 272.164L122.221 272.24L122.586 272.283L122.766 272.348L122.914 272.455L123.08 272.542L123.279 272.572L124.171 272.539L124.387 272.581L124.565 272.652L124.693 272.746L124.789 272.863L124.862 273.013L124.931 273.191L125.025 273.355L125.159 273.479L125.331 273.545L125.507 273.549L125.684 273.5L126.533 273.08L126.728 273.016L126.877 272.996L126.954 273.018L127.013 273.046L127.25 273.189L129.546 273.955L130.245 274.278L130.702 274.334L131.696 274.102L131.766 274.428L131.793 274.695L131.906 275.034H132.18L132.525 274.947L132.845 275.033L133.032 276.121L133.222 276.421L133.511 276.782L133.851 277.083L134.189 277.21L134.532 277.534L134.622 278.288L134.624 279.156L134.705 279.804L135.102 280.279L135.64 280.362L136.803 280.129L137.345 280.195L137.884 280.445L139.263 281.379L139.678 281.542L140.083 281.507L140.444 281.167L140.625 280.741L140.842 279.817L141.059 279.37L141.355 278.999L142.045 278.353L143.175 277.568L144.819 276.783L146.983 276.15L147.67 276.079L148.24 276.232L148.475 276.446L148.817 276.997L149.012 277.244L149.626 277.482L151.085 277.464L151.635 277.848L151.994 278.54L152.254 278.836L152.632 278.953L152.678 279.108L153.112 280.046L153.372 280.338L153.958 280.802L154.221 281.074L154.701 281.714L154.979 281.889L155.394 281.949L156.929 281.952L157.418 281.874L157.784 281.73L159.839 280.069L160.523 279.817L161.171 280.045L161.332 280.263L161.614 281.044L161.779 281.289L162.072 281.577L162.394 281.894L162.688 282.282L162.794 282.673L162.781 283.089L162.712 283.565L162.7 284.083L162.807 284.497L163.241 285.319L163.4 285.746L163.62 286.601L163.84 286.986L164.459 287.506L165.105 287.842L165.69 288.243L166.128 288.97L166.21 289.385L166.254 289.836L166.341 290.263L166.558 290.597L166.93 290.805L167.373 290.913L168.258 290.969L168.724 291.112L169.001 291.414L169.239 291.779L169.59 292.112L169.813 292.189L170.024 292.214L170.224 292.293L170.411 292.536L171.666 296.954L171.734 297.337L171.875 297.681L172.158 297.94L172.617 298.085L173.171 298.124L173.727 298.078L174.19 297.959L174.573 297.75L174.862 297.464L175.071 297.104L175.215 296.667L175.498 294.33L175.845 293.665L176.223 293.382L176.577 293.379L177.385 293.641L178.019 293.667L179.919 293.447L180.197 293.961L179.476 299.292L179.401 301.228L180.682 323.439L180.793 323.768L181.18 324.633L181.239 324.754L182.513 337.762L182.903 339.14L183.587 339.215L185.479 339.225L186.856 339.541L187.177 339.546L187.427 339.471L187.578 339.379L187.759 339.189L188.284 338.415L188.495 338.18L188.741 337.998L189.056 337.912L189.648 337.816L189.894 337.721L190.064 337.628L190.458 337.298L190.65 337.062L191.008 336.507L191.219 336.278L191.479 336.149L191.869 336.452L192.275 337.101L193.199 339.336L193.458 339.747L193.698 339.869L193.98 339.949L226.499 339.826L226.523 339.825Z" fill="white" stroke="#9E9E9E" stroke-width="0.5" stroke-linecap="round" stroke-linejoin="round"/>
<path d="M130.161 23.0791L130.14 23.0822L128.55 23.3459L128.054 23.5207L127.622 23.8532L127.072 24.4347L126.602 25.1122L126.4 25.7254L126.177 25.9861L123.55 27.2721L122.967 27.6998L122.362 28.2566L121.708 28.5999L121.048 28.5094L120.396 28.2628L119.769 28.1421L119.059 28.371L118.982 28.8605L119.191 29.49L119.338 30.1566L119.359 30.9331L119.311 31.5378L119.021 32.0583L118.323 32.5926L117.007 33.0814L116.19 33.2631L115.825 33.1201L115.679 32.8069L115.333 32.349L114.923 31.9322L114.584 31.7544L114.205 32.0134L113.782 32.5841L113.58 33.1556L113.861 33.4162L114.434 33.5833L114.923 33.9986L115.267 34.5507L115.411 35.1168L115.015 35.9953L113.953 35.9334L112.638 35.5104L111.486 35.3086L110.792 35.5854L109.546 36.5815L108.573 36.887L108.578 37.0857L108.754 37.2991L108.969 37.4298L109.285 37.4136L109.916 37.1592L110.227 37.2195L110.467 37.7144L110.222 38.3594L109.831 39.0438L109.477 40.2889L109.105 40.8704L108.627 41.1333L108.161 40.8147L107.886 41.2354L107.561 42.1588L107.539 43.267L107.384 44.28L106.659 44.9026L106.157 44.8546L105.632 44.7015L105.247 44.8067L105.162 45.5297L105.414 46.648L105.437 47.1769L105.216 47.7477L104.109 49.1226L103.846 49.623L103.736 50.3437L103.953 50.7227L104.274 51.008L104.48 51.4434L104.133 52.0203L102.49 52.4155L102.405 53.0612L102.249 53.6946L101.31 53.9289L99.2279 54.1539L97.5736 55.1662L96.7975 55.4338L94.7463 55.1964L91.984 55.3689L91.2907 55.6527L90.9859 56.2505L90.9394 57.0145L91.0277 57.7933L90.9325 58.3756L90.2005 59.2162L90.0241 59.7939L90.2369 61.3096L90.1928 62.018L89.7765 62.6104L89.279 62.8207L88.2414 62.8145L87.7261 62.9498L87.3021 63.3504L86.9515 63.8616L86.5507 64.2498L85.9727 64.2916L85.4427 64.1972L84.8531 64.2258L84.4415 64.4841L84.4461 65.075L84.7827 65.5637L85.1572 65.9179L85.3027 66.3425L84.9537 67.04L84.563 67.4475L84.0685 67.7716L83.5207 67.9394L82.9621 67.8791L82.4646 67.9943L82.3446 68.6191L82.4785 69.3762L82.7454 69.8967L82.9451 69.9686L83.1416 69.8982L83.3079 69.7962L83.4178 69.7737L83.6012 69.9354L84.043 70.4581L84.6937 71.612L85.1209 73.1223L85.2849 74.6743L85.1464 75.948L84.686 77.3725L84.6404 78.0391L84.8554 78.8279L84.9243 79.5688L84.6311 80.2516L84.2419 80.9167L84.0182 81.598L84.1119 82.1981L84.3332 82.7193L84.4438 83.2359L84.2094 83.8298L83.7606 84.4926L52.6582 69.8596L52.1142 69.7219L52.1289 69.8836L51.8805 70.6917L51.4426 71.3707L50.925 71.7365L50.1992 72.0125L49.4409 72.1564L48.8227 72.1177L48.0079 72.5253L45.7292 72.8354L44.8031 73.28L44.3226 74.1384L44.1005 76.3857L43.8637 77.4166L43.0892 78.2719L39.506 80.1642L38.8444 81.1077L37.44 84.6403L36.8814 85.559L36.5046 85.8073L35.8802 85.8908L35.3826 85.7098L34.9385 85.3579L34.4193 85.1128L33.7005 85.2566L33.3523 85.6905L32.7612 87.3709L32.618 87.456L32.2559 87.855L32.0656 87.9865L31.7747 88.0345L30.7889 87.9865L30.4469 87.9355L29.6979 86.5999L26.5402 80.9933L23.3833 75.3905L20.2233 69.7907L17.0664 64.1949L13.908 58.6029L10.7488 53.0117L7.59418 47.4267L4.43497 41.8487L4.32819 41.6608L4.21909 41.4697L4.10999 41.2756L4.00244 41.0846L3.89489 40.8936L3.78424 40.7057L3.67823 40.5178L3.56836 40.3268L5.83081 40.4188L7.02626 40.2943L9.06741 39.7947L10.0624 39.9509L11.0761 40.2378L12.1678 40.4095L13.884 40.3461L16.2532 40.6291L17.3736 40.8905L18.4205 40.7853L18.8917 40.8712L21.1402 41.8487L21.2764 41.8711H21.5526L21.6873 41.8487L22.3991 41.8108L23.8306 42.209L24.5602 42.3011L25.32 42.1193L26.1441 41.8069L26.9619 41.6314L27.8726 41.902L28.3848 42.1634L27.8896 42.8772L27.5368 43.6227L27.3697 44.4192L27.4958 45.6805L27.5871 45.9674L27.8308 46.1298L28.3632 46.1461L32.6792 45.2637L33.5171 44.8368L35.0886 43.6931L36.3839 43.2569L36.8907 43.1773H37.4021L37.9244 43.2662L38.3546 43.1417L39.3164 42.24L39.8658 41.95L41.2918 41.81L41.8156 41.5935L42.4361 41.148L43.0103 40.5649L43.5202 39.9091L43.9365 39.2371L44.7295 37.4221L45.1536 36.8336L46.8566 35.007L47.922 32.9894L48.3522 32.4867L49.0579 31.9933L49.9903 31.5386L50.494 31.3793L51.0054 31.3159L51.8658 31.4589L55.4723 31.2873L55.9226 31.3538L56.359 31.4775L56.9362 31.8147L58.1263 32.7566L58.7066 32.9917L59.7372 32.7241L60.2394 31.8363L60.5148 30.7227L60.8591 29.8001L61.1872 29.4568L62.1049 28.6935L62.4879 28.2326L63.0837 27.2853L63.4218 26.8754L63.886 26.4555L64.4772 26.2745L65.5597 25.7401L66.8046 25.3171L67.4143 24.9328L67.9444 24.4301L68.3653 23.8609L68.4984 23.5114L68.5092 23.2601L68.5874 23.0281L68.9185 22.7543L69.1955 22.6716L70.5326 22.6491L70.8815 22.5919L71.2034 22.4774L71.4317 22.2864L71.4804 21.991L71.3071 21.3205L71.3558 21.0506L71.7891 20.8279L72.4801 20.7135L73.7359 20.6694L74.2853 20.7521L75.4737 21.0731L75.9898 21.07L76.3651 20.8504L76.5902 20.5101L76.7651 20.1605L76.9872 19.9092L77.2889 19.8048L77.9257 19.7731L78.2492 19.7128L79.6334 18.9247L84.5251 13.8904L88.5207 10.8009L89.0964 10.4962L91.5654 9.54035L91.8656 9.35011L92.025 9.09955L92.0954 8.76006L92.203 8.44608L92.3941 8.20171L92.7191 8.09035L96.2907 7.4655L98.1361 7.61166L98.7458 7.532L99.3339 7.31934L100.591 6.60555L101.09 6.41222L104.054 5.95827L104.609 5.75179L105.548 5.13622L106.072 4.91427L107.742 4.7395L107.857 4.79673L107.971 4.92355L108.103 5.04419L108.266 5.0728L108.419 4.96144L108.633 4.59334L108.757 4.50131L109.21 4.41238L109.369 4.44718L109.745 4.58328L110.548 5.03723L110.95 5.14163L111.528 5.01171L112.881 4.17419L113.448 4.00947L113.981 3.97467L114.407 4.01875L115.643 4.31339L116.005 4.32963L116.37 4.13011L116.865 3.60656L116.937 3.82232L117.067 4.08912L117.226 4.3304L117.396 4.45723L117.701 4.40929L117.783 4.1363L117.778 3.80608L117.816 3.57795L118.062 2.97553L118.241 2.83246L118.434 3.23846L118.502 3.53696L118.581 3.7651L118.729 3.92982L119.01 4.03731L120.151 3.56171L120.62 3.53619L120.506 4.23374L120.398 4.61731L120.525 4.70934L120.769 4.68072L121.01 4.71243L121.092 4.6931L121.417 4.57555L121.558 4.55931L121.75 4.65752L122.02 4.97459L122.178 5.1107L123.074 5.71003L123.513 5.92579L124.066 6.04952L124.434 6.0271L124.573 5.89099L124.643 5.68761L124.8 5.46257L124.837 5.37054L124.858 5.06894L124.917 4.9483L125.073 4.85936L125.437 4.79286L125.558 4.73563L125.906 4.3451L126.205 3.89811L126.328 3.61275L126.457 3.14024L126.65 2.86107L128.028 1.70649L128.433 1.24326L128.712 1.19995L129.507 1.20923L130.059 1.41184L130.891 2.14419L131.328 3.09539L131.399 3.19979L131.813 4.57014L132.108 4.90963L132.523 5.27155L132.893 5.67446L133.052 6.15315L132.917 6.86694L132.262 8.11433L132.018 8.78094L131.911 10.0221L132.029 11.2858L132.296 12.4543L132.858 14.0512L132.983 14.7054L133.054 16.0364L133.124 16.3542L133.425 17.0657L133.486 17.3835L133.388 17.6727L132.865 18.47L132.555 19.9788L132.186 20.6903L131.06 21.237L130.63 21.8278L130.299 22.5238L130.161 23.0791Z" fill="white" stroke="#9E9E9E" stroke-width="0.5" stroke-linecap="round" stroke-linejoin="round"/>
<path d="M130.161 23.0791L130.158 23.0907L130.208 23.3289L130.258 23.431L130.384 23.5292L129.668 24.8353L129.231 25.2645L128.486 25.4169V25.6265L128.851 26.1701L128.919 26.3735L128.888 26.5228L128.744 26.8089L128.713 26.9929L128.738 27.2536L128.809 27.5714L128.912 27.8421L129.03 27.9565L129.114 28.2875L128.92 29.8079L128.918 30.2688L129.435 30.8441L129.974 31.1813L130.399 31.6136L130.571 32.4913L130.534 33.0319L130.307 34.2058L129.854 35.6063L130.007 36.0077L131.199 36.3263L131.747 36.7052L132.203 37.1862L132.449 37.6448L132.636 40.2811L132.716 40.4528L132.886 40.6214L133.034 40.8573L133.049 41.2393L132.931 41.5069L132.729 41.6886L132.482 41.8541L132.221 42.0799L131.751 42.803L131.73 43.3505L131.901 43.8794L132.014 44.5198L131.779 45.0773L130.61 45.9953L130.154 46.5212L130.052 47.2798L130.443 47.7608L130.954 48.1243L131.205 48.5388L131.023 49.0074L130.643 49.2526L130.34 49.5967L130.38 50.3492L130.767 50.9137L131.389 51.37L131.967 51.6947L132.22 51.8989L132.111 52.291L131.584 52.9158L131.395 53.2762L131.364 53.5825L131.417 53.8377L132.43 56.4848L133.249 57.3586L134.306 57.0686L135.048 57.4708L135.362 57.7515L135.564 58.1436V58.4467L135.333 59.002L135.339 59.4072L135.465 59.8217L135.608 59.9145L135.825 59.9176L136.186 60.0584L136.836 60.5022L137.034 60.7799L136.323 61.0157L136.249 61.2995L136.373 62.0621L136.31 62.3652L136.04 62.8315L135.978 63.1254L135.992 64.2521L136.163 64.6798L136.579 65.1399L137.123 65.5452L137.515 65.6472L137.756 65.3595L137.923 63.8585L138.045 63.4688L138.231 63.2197L138.668 63.0952L138.757 63.386L138.663 64.0851L139.098 64.5066L139.648 64.7301L140.116 65.027L140.397 66.0331L140.79 66.7137L140.937 67.0555L140.967 67.3555L140.913 67.9819L140.936 68.2851L141.081 68.9432L141.249 69.2247L141.556 69.3716L141.659 69.3778L141.96 69.5185L142.156 69.8441L142.206 70.2246L142.073 70.5277L141.656 71.1224L141.604 71.6846L141.813 72.1734L142.176 72.5438L142.6 72.7805L143.08 72.905L144.364 72.9653L144.99 73.0929L145.626 73.3195L146.274 73.4246L146.947 73.1756L147.317 73.3481L147.871 73.4571L148.379 73.6651L148.601 74.1253L148.743 74.7517L149.104 75.3332L150.065 76.3625L149.842 76.791L149.983 77.1297L150.32 77.2929L150.687 77.1908L150.766 76.941L150.868 76.1189L150.986 75.9403L151.484 75.8862L151.589 76.0586L151.737 76.5737V76.8296L151.525 77.2101L151.512 77.4181L151.604 77.5813L151.87 77.8435L151.925 77.9486L152.243 78.2557L152.978 78.6941L154.405 79.3399L154.779 79.3847L155.571 79.394L155.766 79.4358L156.261 79.8418L156.884 80.165L156.918 80.0691L156.922 79.9988L156.964 79.9601L157.406 80.0212L157.553 80.066L158.048 80.4914L158.169 80.7342L158.196 81.0922L158.16 81.7797L158.006 82.4487L157.461 83.6899L157.541 84.2181L157.728 84.3426L158.393 84.5792L158.669 84.7362L158.926 85.0277L159.28 85.6843L159.507 86.0075L159.917 86.4337L160.389 86.8118L160.963 87.0778L161.676 87.1799L162.903 86.9526L163.356 87.0709L163.663 88.0445L163.945 88.1118L164.233 88.0476L164.38 87.9865L164.593 87.8489L164.93 87.4962L165.207 87.3717L165.853 87.3207L166.388 87.4746L166.825 87.7591L167.667 88.6585L167.984 88.7645L168.287 88.4698L168.739 87.8133L169.204 88.3546L171.02 88.4157L171.675 89.3058L172.239 89.2324L173.2 88.8735L173.597 89.0019L173.878 89.2741L174.209 89.5015L174.749 89.5077L175.115 89.1968L175.317 88.9215L175.485 88.6206L176.505 87.3524L176.514 87.1791L177.038 87.1088L177.964 86.8079L178.376 86.7376L182.724 87.3717L182.811 87.4614L184.458 88.3229L185.72 89.37L186.22 89.6198L186.885 89.7188L187.27 89.7319L187.614 89.786L187.928 89.9144L188.217 90.1418L188.443 90.4813L188.496 90.7922L188.515 91.0868L188.632 91.3915L188.882 91.6057L189.151 91.6923L189.369 91.8269L189.458 92.1726L189.572 92.3775L190.727 93.2328L191.399 93.3991L191.751 93.5468L192.63 94.2389L193.008 94.3928L195.145 94.3735L195.489 94.2869L195.608 94.0564L195.891 93.7904L196.522 93.3357L196.66 93.3032L197.015 93.3542L197.162 93.3349L197.301 93.2034L197.436 92.8539L197.575 92.7L198.41 92.335L198.494 92.277L198.846 92.3442L199.447 92.6327L200.36 92.8631L200.671 93.2831L200.881 94.392L201.009 94.5908L201.206 94.7508L201.316 94.9241L201.085 95.286L201.052 95.4623L201.085 95.6386L201.182 95.7794L201.854 96.3694L202.185 96.7414L202.327 97.0585L202.416 97.7413L202.656 98.3345L202.993 98.7931L203.377 99.0722L203.704 99.1875L203.987 99.2161L204.249 99.1457L204.506 98.9663L204.783 98.8604L204.937 99.0722L205.037 99.3638L206.628 101.436L206.714 101.637L206.864 101.785L207.201 101.843L207.505 101.862L207.732 101.93L207.876 102.087L207.925 102.356L208.073 102.859L208.459 103.292L208.991 103.658L209.578 103.963L209.632 103.346L209.957 103.176L210.46 103.183L211.043 103.096L211.432 102.849L211.74 102.603L212.114 102.551L212.694 102.904L212.984 103.161L213.182 103.404L213.299 103.687L213.369 104.424L213.476 104.569L216.111 105.711L217.985 105.656L218.607 105.762L219.02 106.058L219.854 107.046L219.921 107.194L219.958 107.505L220.06 107.567L220.479 107.541L220.586 107.567L221.101 107.894L221.339 107.98L222.755 108.144L223.162 108.099L223.497 107.798L224.108 108.048L224.613 107.936L225.051 107.699L226.186 107.403L226.492 107.375L226.813 107.449L227.629 108.01L227.675 107.298L227.98 107.388L228.661 108.203L228.985 108.325L229.248 108.258L229.423 108.303L229.488 108.755L229.49 110.838L229.582 111.371L229.89 111.794L230.541 112.27L231.876 113.751L232.297 113.97L232.329 114.101L232.795 114.837L232.96 114.949L233.639 115.26L234.153 115.614L235.622 117.057L235.935 117.285L236.527 117.594L236.757 117.809L236.87 118.054L237.494 120.134L237.846 120.439L238.523 120.552L239.119 120.43L239.725 120.214L240.327 120.118L240.909 120.359L241.495 120.003L242.186 119.736L242.937 119.566L245.085 119.366L245.208 119.388L245.191 119.4L228.999 128.792L202.239 144.276L185.366 154.055L174.916 157.104L173.484 157.771L174.175 160.741L174.194 164.372L174.36 165.997L174.339 166.864L174.216 167.467L174.037 167.921L173.888 168.675L174.219 170.176L174.421 170.671L175.389 172.202L176.508 175.334L179.691 180.29L179.971 180.592L180.279 180.794L181.03 181.081L181.425 181.337L181.805 181.824L181.981 182.247L182.136 183.775L182.349 184.186L183.751 185.668L184.098 185.892L184.435 185.975L184.787 185.994L185.104 186.145L186.009 186.922L186.339 187.127L187.322 187.576L187.538 187.7L187.801 187.976L188.111 188.394L188.489 189.162L189.127 189.984L189.287 190.282L189.35 190.598L189.38 191.371L189.443 191.842L189.622 192.461L189.898 192.871L190.688 193.756L190.984 193.964L191.332 194.122L192.41 194.387L192.731 194.52L193.025 194.679L192.928 194.759L192.314 194.792L152.468 192.679L152.077 192.656L151.663 192.442L148.678 193.089L137.142 194.462L136.234 195.091L134.779 197.606L133.833 199.645L133.727 200.096L133.738 201.07L132.09 206.171L131.635 207.041L131.221 207.592L128.316 209.001L117.76 212.055L116.787 212.144L115.285 212.074L112.094 211.401L109.734 210.616L108.221 209.885L105.252 207.908L104.6 207.364L99.6439 202.036L97.8945 199.719L97.7235 199.391L97.3769 198.453L96.9203 197.094L96.6015 196.501L88.1011 187.928L86.8492 186.664L80.8008 180.941L80.1509 179.801L79.8855 179.529L79.6982 179.388L79.0684 179.121L78.6328 178.872L78.3233 178.537L78.1082 178.19L77.9867 177.857L77.9441 177.526L77.9557 177.204L78.1824 175.886L78.177 175.505L78.0803 175.076L76.1568 171.169L75.342 169.954L74.6193 169.105L74.2193 168.722L73.9562 168.286L73.3891 167.134L73.0633 166.733L72.7174 166.475L72.3569 166.406L71.9963 166.412L71.2752 166.502L70.8953 166.473L70.5625 166.371L70.2701 166.198L69.8344 165.853L69.3841 165.577L68.9384 165.007L68.5616 163.871L68.4634 163.232L68.434 162.748L68.5307 162.076L68.6808 161.456L68.8069 160.272L68.7845 158.981L68.6382 158.299L68.3713 157.796L66.9027 156.458L66.3193 155.632L65.5169 153.697L65.3552 153.435L65.4341 153.204L65.6082 152.881L65.8241 152.639L66.3038 152.213L66.5096 151.957L66.7774 151.333L66.8099 150.717L66.6288 150.12L66.2628 149.548L65.6028 148.89L65.4651 148.575L65.4457 148.379L65.4543 147.995L65.4063 147.806L65.3305 147.696L65.127 147.509L65.0488 147.402L64.6093 146.265L64.4592 145.644L64.3818 145.053L64.4948 144.484L64.8523 144.192L65.8202 143.755L66.204 143.319L66.3355 142.817L66.2783 142.282L65.9819 141.261L66.1011 139.39L65.7854 136.973L65.7498 136.589L65.3722 135.197L65.356 134.699L66.1661 131.009L66.4137 130.551L66.7 130.155L66.9677 129.661L67.0559 129.04L66.6396 128.228L66.6667 127.627L67.0226 126.364L67.302 125.733L67.685 125.347L68.184 125.028L68.5423 124.622L69.135 123.622L70.3923 122.009L70.6484 121.48L70.6577 120.874L70.1347 120.068L69.6286 117.228L69.6039 116.148L70.082 115.112L71.3874 113.101L71.8276 112.592L72.8768 111.767L75.3428 108.856L75.4612 108.572L75.5904 107.954L75.7296 107.67L75.9579 107.466L76.5181 107.174L76.7618 106.981L77.9464 104.8L78.4548 104.315L79.0653 104.203L79.5752 104.266L79.9946 104.138L81.4523 100.573L83.1329 93.4308L83.1963 92.6412L83.0601 91.9955L82.5859 90.663L83.3967 89.5595L83.7658 88.9222L83.7859 88.4273L83.5476 87.9486L83.4826 87.5504L83.4439 85.6595L83.5221 85.0494L83.7604 84.4895L84.2092 83.8267L84.4436 83.2328L84.333 82.7162L84.1117 82.195L84.0181 81.5949L84.2417 80.9136L84.6309 80.2485L84.9241 79.5657L84.8552 78.8248L84.6402 78.036L84.6858 77.3694L85.1462 75.9449L85.2847 74.6713L85.1207 73.1192L84.6935 71.6089L84.0428 70.455L83.601 69.9323L83.4176 69.7706L83.3078 69.7931L83.1414 69.8952L82.9449 69.9655L82.7452 69.8936L82.4783 69.3731L82.3444 68.6161L82.4644 67.9912L82.9619 67.876L83.5205 67.9363L84.0683 67.7685L84.5628 67.4445L84.9535 67.0369L85.3025 66.3394L85.157 65.9148L84.7825 65.5606L84.4459 65.0719L84.4413 64.481L84.8529 64.2228L85.4425 64.1941L85.9725 64.2885L86.5505 64.2467L86.9513 63.8585L87.3019 63.3473L87.7259 62.9468L88.2412 62.8114L89.2788 62.8176L89.7763 62.6073L90.1926 62.0149L90.2367 61.3065L90.0239 59.7908L90.2003 59.2131L90.9323 58.3725L91.0275 57.7902L90.9392 57.0114L90.9857 56.2474L91.2905 55.6496L91.9838 55.3658L94.7461 55.1933L96.7973 55.4307L97.5734 55.1632L99.2277 54.1509L101.31 53.9258L102.249 53.6915L102.405 53.0581L102.49 52.4124L104.132 52.0172L104.48 51.4403L104.274 51.0049L103.953 50.7196L103.736 50.3406L103.845 49.6199L104.109 49.1195L105.216 47.7446L105.437 47.1738L105.414 46.6449L105.162 45.5266L105.247 44.8036L105.632 44.6984L106.157 44.8515L106.659 44.8995L107.384 44.2769L107.539 43.2639L107.561 42.1557L107.886 41.2323L108.161 40.8116L108.627 41.1302L109.105 40.8673L109.477 40.2858L109.831 39.0407L110.222 38.3563L110.466 37.7113L110.227 37.2164L109.915 37.1561L109.285 37.4105L108.968 37.4268L108.753 37.2961L108.578 37.0826L108.573 36.8839L109.546 36.5784L110.791 35.5824L111.485 35.3055L112.638 35.5073L113.953 35.9304L115.015 35.9922L115.411 35.1137L115.267 34.5476L114.922 33.9955L114.433 33.5802L113.861 33.4132L113.58 33.1525L113.782 32.581L114.205 32.0103L114.583 31.7513L114.923 31.9291L115.333 32.346L115.679 32.8038L115.825 33.117L116.19 33.26L117.007 33.0783L118.323 32.5896L119.021 32.0552L119.31 31.5347L119.359 30.93L119.337 30.1536L119.19 29.4869L118.981 28.8574L119.059 28.3679L119.769 28.139L120.396 28.2597L121.048 28.5064L121.707 28.5968L122.362 28.2535L122.966 27.6967L123.55 27.269L126.177 25.983L126.4 25.7224L126.601 25.1091L127.072 24.4317L127.622 23.8501L128.054 23.5176L128.55 23.3428L130.14 23.0791H130.161Z" fill="white" stroke="#9E9E9E" stroke-width="0.5" stroke-linecap="round" stroke-linejoin="round"/>
<path d="M81.8815 246.393L85.7757 244.293L86.1402 244.028L86.3607 243.754L86.2787 243.322L86.1038 243.025L85.8222 242.748L85.6349 242.404L85.5103 242.083L86.1023 240.883L85.6481 239.193L85.4129 238.897L85.1892 238.483L85.0546 238.159L85.0345 237.749L85.1358 236.766L84.6871 234.468L84.5037 233.979L84.2948 233.577L83.9087 232.993L83.4537 232.507L83.1257 231.983L81.7283 231.426L81.2625 230.989L81.1162 230.414L81.2036 229.761L81.4443 229.089L81.5944 228.831L82.1229 228.129L82.2451 227.787L82.2567 227.495L82.1755 226.874L82.2389 226.231L82.454 225.678L83.0274 224.599L83.6255 223.719L84.3559 223.362L86.1734 223.131L86.8822 222.888L87.6838 222.458L88.3871 221.9L88.7972 221.274L88.887 220.748L88.8661 220.226L88.6394 218.767L88.6301 218.351L88.6603 215.962L88.3918 215.058L87.4896 213.452L87.1391 212.6L87.0965 211.809L87.5027 210.216L87.6413 206.305L87.4594 205.856L86.8219 205.027L86.5735 204.608L86.4427 204.502L85.4941 204.16L85.4516 203.956L85.5142 203.459L85.4484 202.771L85.1266 202.236L84.2337 201.263L83.7694 200.456L83.2239 199.755L83.1257 199.522L83.0924 199.205L83.3802 196.891L83.3771 196.098L83.268 195.355L83.261 194.989L83.35 194.628L83.5814 194.229L83.8181 193.924L83.9953 193.592L84.0518 193.106L84 192.892L83.8924 192.78L83.7586 192.707L83.6286 192.608L83.5605 192.5L84.4906 191.494L85.5862 190.089L88.1016 187.929L96.602 196.501L96.9208 197.095L97.3774 198.454L97.724 199.391L97.895 199.72L99.6444 202.037L104.6 207.365L105.253 207.909L108.221 209.886L109.735 210.616L112.094 211.402L115.286 212.075L116.788 212.145L117.76 212.055L128.317 209.002L131.221 207.593L131.636 207.042L132.09 206.172L133.738 201.071L133.727 200.097L133.833 199.646L134.78 197.606L136.234 195.092L137.143 194.463L148.679 193.089L151.664 192.443L152.078 192.657L152.468 192.68L152.26 193.372L151.909 193.438L151.065 193.443L151.755 194.073L151.932 194.43L151.91 194.944L151.481 194.739L151.064 194.601L150.656 194.635L150.256 194.943L150.75 195.351L151.187 195.852L151.525 196.436L151.722 197.092L151.735 197.484L151.652 197.707L151.548 197.866L151.497 198.068V199.162L151.63 199.815L152.21 200.614L152.343 201.097L152.211 201.59L151.975 202.12L151.871 202.704L152.136 203.363L151.886 203.997L151.899 204.556L151.974 205.109L151.911 205.73L151.242 206.61L151.19 206.976L151.911 207.02L151.37 207.923L151.292 208.214L151.356 208.473L151.647 208.865L151.724 209.172L151.661 209.614L150.727 211.825L150.672 211.894L150.646 211.977L150.484 212.854L150.211 213.147L149.518 213.627L149.226 213.949L148.966 214.407L148.766 214.906L148.692 215.413L148.812 215.888L149.044 216.118L149.317 216.219L149.544 216.341L149.639 216.643L149.554 216.873L148.464 218.697L148.306 219.404L147.941 219.996L147.923 220.383L148.064 220.694L148.521 221.241L148.696 221.54L148.766 221.827L148.829 222.431L149.485 224.952L149.923 225.715L152.775 228.802L153.494 229.194L154.159 229.42L154.468 229.568L154.768 229.793L156.674 231.84L157.132 232.191L158.911 233.253L159.718 233.51L159.997 233.661L161 234.454L163.589 237.426L164.977 238.558L165.158 238.772L165.297 239.014L165.576 239.831L165.825 240.318L165.949 240.92L165.799 241.508L165.572 242.101L165.084 242.142L164.527 242.215L164.18 242.106L163.914 242.116L163.26 242.28L162.971 242.304L162.376 242.234L162.093 242.25L161.749 242.388L160.611 243.151L160.372 243.379L160.246 243.756L160.229 244.064L160.27 244.794L160.202 245.111L160.092 245.411L155.29 252.562L154.66 253.337L152.159 255.854L151.49 256.415L151.059 256.933L150.862 257.807L151.001 258.426L151.186 258.748L152.558 260.192L152.963 260.812L153.963 262.742L154.535 264.301L154.968 264.781L155.223 265.01L155.623 265.273L155.825 265.51L156.075 265.87L156.489 266.635L157.113 267.458L157.588 268.294L157.915 269.561L158.367 270.401L158.771 270.686L158.921 270.829L159.015 271.027L159.021 271.375L158.97 271.606L158.903 271.819L158.881 271.992L158.944 272.145L159.299 272.466L159.39 272.664L159.35 273.146L159.366 273.387L159.436 273.668L159.656 274.049L159.816 274.262L159.969 274.385L160.091 274.438L160.639 274.617L160.968 274.801L161.398 275.145L161.906 275.664L162.196 275.881L162.878 276.23L163.017 276.329L163.13 276.439L163.224 276.557L163.233 276.575L163.273 276.715L163.31 276.945L163.237 278.213L163.257 278.539L163.299 278.782L163.503 279.28L163.493 279.473L163.377 279.71L162.599 280.615L162.071 281.578L161.778 281.29L161.613 281.045L161.331 280.263L161.17 280.045L160.522 279.818L159.838 280.07L157.782 281.731L157.417 281.875L156.927 281.952L155.393 281.949L154.978 281.89L154.7 281.715L154.22 281.075L153.957 280.802L153.371 280.339L153.111 280.047L152.677 279.109L152.631 278.953L152.253 278.837L151.992 278.541L151.634 277.849L151.084 277.465L149.625 277.483L149.011 277.245L148.816 276.998L148.474 276.447L148.239 276.233L147.669 276.08L146.982 276.151L144.817 276.783L143.174 277.568L142.044 278.353L141.353 279L141.058 279.371L140.84 279.818L140.624 280.741L140.443 281.168L140.081 281.508L139.677 281.543L139.262 281.379L137.883 280.446L137.344 280.195L136.802 280.13L135.639 280.362L135.101 280.28L134.704 279.805L134.623 279.157L134.621 278.289L134.53 277.534L134.188 277.211L133.85 277.084L133.51 276.783L133.221 276.422L133.031 276.121L132.844 275.033L132.523 274.948L132.179 275.035H131.904L131.791 274.695L131.765 274.429L131.695 274.102L131.596 273.822L131.483 273.707L131.187 273.624L130.14 273.053L129.869 272.727L129.726 272.617L129.527 272.552L129.074 272.469L128.9 272.4L127.968 271.423L126.659 269.131L125.574 268.247L125.077 267.976L124.529 267.592L124.085 267.125L123.748 266.202L123.388 265.637L122.663 264.749L121.596 264.101L121.056 263.66L120.824 263.109L118.945 261.471L117.122 260.458L116.583 259.635L115.931 259.626L113.925 260.127L113.649 260.048L113.457 259.266L113.252 258.96L112.96 258.745L112.623 258.667L112.27 258.371L111.823 257.681L111.439 256.88L111.279 256.261L110.653 256.262L110.345 256.172L109.99 256.108L108.955 256.019L107.736 256.087L106.928 256.275L106.539 256.408L104.091 258.139L103.43 258.66L101.685 260.097L101.355 260.28L101.079 260.332H100.729L99.191 260.076L97.3735 260.146L96.2005 260.013L95.9568 259.949L95.6666 259.908L94.9834 259.972L92.9267 260.363L91.2454 256.317L88.9504 252.735L87.3759 250.725L86.8396 250.194L81.8815 246.393Z" fill="white" stroke="#9E9E9E" stroke-width="0.5" stroke-linecap="round" stroke-linejoin="round"/>
</svg>
