<?xml version="1.0" standalone="no"?>
<!DOCTYPE svg PUBLIC "-//W3C//DTD SVG 20010904//EN"
 "http://www.w3.org/TR/2001/REC-SVG-20010904/DTD/svg10.dtd">
<svg version="1.0" xmlns="http://www.w3.org/2000/svg"
 width="700.000000pt" height="700.000000pt" viewBox="0 0 700.000000 700.000000"
 preserveAspectRatio="xMidYMid meet">
<metadata>
Created by potrace 1.11, written by Peter Selinger 2001-2013
</metadata>
<g transform="translate(0.000000,700.000000) scale(0.100000,-0.100000)"
fill="#000000" stroke="none">
<path d="M3285 6994 c-22 -2 -89 -9 -149 -14 -467 -46 -962 -204 -1371 -440
-901 -518 -1524 -1401 -1709 -2420 -41 -227 -50 -342 -51 -610 0 -342 27 -573
105 -880 223 -881 803 -1658 1594 -2133 428 -256 904 -417 1421 -478 145 -18
597 -18 740 -1 839 100 1559 449 2131 1033 213 218 357 403 507 653 304 507
469 1065 494 1674 l6 162 -670 0 -670 0 -33 -92 c-18 -51 -61 -149 -97 -218
-54 -106 -92 -165 -192 -301 -13 -18 0 -19 478 -19 464 0 492 -1 487 -17 -2
-10 -18 -71 -35 -135 -130 -495 -395 -946 -772 -1313 -958 -933 -2423 -1080
-3554 -357 -212 136 -454 349 -630 553 -701 819 -879 1974 -459 2976 259 619
751 1145 1354 1448 945 474 2093 387 2950 -224 243 -174 478 -405 654 -643
l57 -78 359 0 c197 0 361 3 363 8 13 21 -222 385 -360 557 -112 141 -337 371
-478 490 -526 444 -1155 717 -1845 801 -118 14 -539 27 -625 18z"/>
<path d="M1916 5108 c19 -32 398 -585 412 -601 15 -17 58 -18 897 -17 804 2
884 1 930 -15 146 -50 254 -155 306 -301 30 -83 30 -226 0 -308 -53 -147 -148
-241 -305 -304 -36 -15 -112 -18 -603 -22 l-562 -5 486 -710 c267 -390 582
-851 700 -1022 l214 -312 55 24 c137 61 449 267 440 291 -2 6 -171 255 -375
553 -204 298 -371 546 -371 550 0 5 24 12 54 15 75 10 258 74 339 119 276 155
466 402 548 713 21 78 24 111 23 264 0 156 -3 186 -27 273 -112 419 -458 739
-876 812 -115 21 -2297 23 -2285 3z"/>
</g>
</svg>
