<svg width="1151" height="999" viewBox="0 0 1151 999" fill="none" xmlns="http://www.w3.org/2000/svg">
<g filter="url(#filter0_f)">
<path fill-rule="evenodd" clip-rule="evenodd" d="M1048.75 281.053C1101.59 279.465 1144.26 314.234 1188.55 338.077C1230.75 360.789 1281.65 379.247 1301.9 417.321C1321.85 454.83 1295.06 497.017 1294.87 537.981C1294.67 578.745 1324.64 622.417 1300.75 658.093C1276.88 693.739 1218.87 699.991 1174.48 717.755C1133.2 734.268 1092.87 748.571 1048.75 758.918C990.475 772.584 931.803 802.415 873.688 788.296C814.342 773.877 763.477 732.127 741.717 684.32C720.463 637.627 748.677 587.017 759.752 537.981C768.998 497.042 773.394 454.726 801.396 420.086C828.56 386.483 874.249 369.043 914.699 346.307C958.32 321.788 996.011 282.638 1048.75 281.053Z" fill="#82F4F4"/>
<path fill-rule="evenodd" clip-rule="evenodd" d="M1244.9 356.496C1270.01 363.293 1278.75 402.939 1291.75 432.49C1304.13 460.637 1321.92 486.124 1319.18 525.38C1316.47 564.054 1290.51 599.818 1277.32 638.601C1264.2 677.194 1264.18 723.282 1241.65 753.331C1219.14 783.356 1190.14 780.167 1163.79 790.024C1139.3 799.186 1115.95 806.402 1092.1 809.275C1060.6 813.069 1023.75 832.117 1001.21 809.609C978.196 786.624 967.866 739.075 973.022 690.359C978.058 642.778 1007.37 599.258 1028.21 554.536C1045.6 517.198 1061.18 477.794 1085.29 449.372C1108.68 421.8 1135.53 412.454 1161.63 397.265C1189.77 380.887 1219.84 349.713 1244.9 356.496Z" fill="#504FFE"/>
<path fill-rule="evenodd" clip-rule="evenodd" d="M868.993 281.853C884.092 253.548 917.952 241.396 945.81 223.857C969.841 208.727 992.777 193.446 1020.09 186.725C1051.93 178.891 1089.04 165.489 1114.59 182.325C1140.12 199.153 1136.26 236.683 1141.45 266.709C1145.73 291.501 1151.63 316.651 1142.06 341.195C1132.82 364.866 1111.44 381.839 1090.38 397.631C1069.91 412.975 1047.42 433.832 1023.07 430.392C998.713 426.95 998.271 388.76 975.215 381.358C939.685 369.952 889.422 403.73 863.042 379.018C839.327 356.803 852.71 312.379 868.993 281.853Z" fill="#82F4F4"/>
<path fill-rule="evenodd" clip-rule="evenodd" d="M447.109 549.515C590.477 539.088 584.906 457.288 642.825 478.171C700.13 498.833 648.014 549.557 667.557 584.766C686.155 618.272 756.252 641.575 752.882 676.451C749.219 714.373 712.83 755.427 649.359 773.134C586.888 790.562 591.358 722.093 470.569 729.377C416.437 723.528 329.949 776.069 280.28 763.264C218.468 747.328 138.036 714.054 119.127 679.07C100.079 643.828 259.427 700.703 316.774 656.389C371.515 586.008 260.101 535.684 303.374 521.115C344.865 507.146 399.28 555.566 447.109 549.515Z" fill="#F9FBA4"/>
<path fill-rule="evenodd" clip-rule="evenodd" d="M215.606 98.4893C225.557 95.6895 236.233 83.3154 244.689 90.0957C253.055 96.8042 245.446 113.273 248.3 124.705C251.015 135.583 261.249 143.149 260.757 154.472C260.222 166.785 254.909 180.114 245.643 185.863C236.522 191.521 225.708 184.912 215.606 182.484C207.703 180.585 200.58 177.45 193.329 173.292C184.304 168.118 170.991 166.681 168.231 155.323C165.45 143.88 176.065 134.245 181.377 124.118C185.31 116.619 188.812 108.769 195.13 104.039C201.188 99.5031 208.623 100.454 215.606 98.4893Z" fill="#504FFE"/>
<path fill-rule="evenodd" clip-rule="evenodd" d="M476.882 117.725C515.934 115.302 560.643 117.033 584.076 153.77C607.078 189.828 733.285 459.581 718.854 501.317C707.334 534.636 611.086 484.334 584.076 501.317C554.681 519.801 447.109 484.347 424.856 380.849C496.636 382.686 650.431 440.033 434.075 299.272C418.435 236.711 496.636 314.912 444.502 192.397C466.281 158.806 428.862 137.657 476.882 117.725Z" fill="#F19AE8"/>
<path fill-rule="evenodd" clip-rule="evenodd" d="M643.589 28.1038C652.32 27.1785 659.57 18.6943 668.23 20.1456C677.279 21.6621 687.689 27.0911 690.226 35.9199C692.909 45.2612 681.728 53.2379 680.507 62.8808C679.505 70.7953 685.785 78.422 683.865 86.1648C681.751 94.6938 677.439 104.117 669.407 107.658C661.311 111.228 651.978 106.735 643.589 103.924C636.995 101.716 632.651 95.5748 626.129 93.1615C617.745 90.0593 605.416 95.2446 600.299 87.9064C595.362 80.8253 602.805 71.2286 605.015 62.8808C606.716 56.4581 609.099 50.5719 611.792 44.4992C614.796 37.7252 615.204 28.4607 621.785 25.0674C628.422 21.6453 636.165 28.8905 643.589 28.1038Z" fill="#F9FBA4"/>
<path fill-rule="evenodd" clip-rule="evenodd" d="M870.682 682.527C857.934 686.956 863.014 711.681 847.528 711.516C831.972 711.35 810.257 697.817 795.872 681.728C782.522 666.797 793.656 646.507 778.209 633.987C733.218 597.52 657.853 601.903 638.495 554.168C621.58 512.456 719.95 573.22 748.239 560.084C766.788 551.47 742.623 505.774 761.195 497.19C780.978 488.046 814.523 497.519 843.324 516.135C939.774 619.895 1007.35 356.006 1025.8 385.293C1043.39 413.237 954.199 658.767 945.025 677.642C935.269 697.715 892.411 674.977 870.682 682.527Z" fill="#504FFE"/>
</g>
<defs>
<filter id="filter0_f" x="0.556152" y="-97.021" width="1482.98" height="1095.68" filterUnits="userSpaceOnUse" color-interpolation-filters="sRGB">
<feFlood flood-opacity="0" result="BackgroundImageFix"/>
<feBlend mode="normal" in="SourceGraphic" in2="BackgroundImageFix" result="shape"/>
<feGaussianBlur stdDeviation="58.5" result="effect1_foregroundBlur"/>
</filter>
</defs>
</svg>
