<svg width="124" height="32" viewBox="0 0 124 32" fill="none" xmlns="http://www.w3.org/2000/svg">
<path d="M31.9999 16C32.0004 16.9067 31.9241 17.8117 31.7717 18.7054C31.082 22.7583 28.8674 26.2919 25.7391 28.6957C22.9468 30.8426 19.5222 32.0045 16 32.0001C8.08554 32.0001 1.51339 26.2536 0.228175 18.7054C0.0758578 17.8117 -0.000472869 16.9067 2.20391e-06 16C2.20391e-06 15.9419 2.20391e-06 15.8842 2.20391e-06 15.8261C0.0444456 11.6124 1.74991 7.58651 4.74583 4.62314C7.74175 1.65977 11.7861 -0.00160776 16 1.16751e-06C22.1565 1.16751e-06 27.5008 3.47827 30.1763 8.57497H26.8173C24.4521 5.13497 20.49 2.87931 16 2.87931C12.5493 2.87621 9.2366 4.23379 6.7805 6.65754C4.3244 9.08129 2.92301 12.3757 2.88034 15.8261C2.88034 15.8842 2.88034 15.9419 2.88034 16C2.87956 16.909 2.97281 17.8156 3.1586 18.7054C4.40555 24.654 9.68136 29.1208 16 29.1208C19.0102 29.1205 21.9288 28.0855 24.2667 26.1892C26.6046 24.293 28.2197 21.6508 28.8413 18.7054H24.337C25.0456 17.864 25.5693 16.883 25.8744 15.8261H31.9999C31.9999 15.8842 31.9999 15.9419 31.9999 16Z" fill="#010101"/>
<path d="M18.8801 18.673L18.9023 18.7054L20.5945 21.1781L22.3719 23.775C21.673 24.3487 20.8999 24.8254 20.0735 25.1924L17.5305 21.4779L15.6328 18.7054L13.663 15.8261H18.3183C18.8737 15.8257 19.4083 15.6151 19.8146 15.2366C20.221 14.8581 20.4689 14.3397 20.5086 13.7858C20.5483 13.2319 20.3767 12.6835 20.0284 12.2509C19.6801 11.8184 19.181 11.5337 18.6314 11.4543C18.5491 11.4423 18.4661 11.4351 18.383 11.4327C18.3611 11.4327 18.3392 11.4327 18.3169 11.4327C18.2947 11.4327 18.2728 11.4327 18.2508 11.4327C18.1677 11.4351 18.0848 11.4423 18.0025 11.4543H10.6707L8.90718 8.87756L8.69849 8.57495H18.3065C19.6 8.57521 20.8444 9.07033 21.7846 9.95877C22.7247 10.8472 23.2894 12.0617 23.3627 13.3531C23.4361 14.6445 23.0126 15.9151 22.1791 16.9043C21.3456 17.8935 20.1652 18.5263 18.8801 18.673V18.673Z" fill="#010101"/>
<path d="M54.32 23.5V21.82C54.096 22.172 53.784 22.492 53.384 22.78C52.52 23.42 51.512 23.74 50.36 23.74C48.888 23.74 47.616 23.172 46.544 22.036C45.488 20.884 44.96 19.452 44.96 17.74C44.96 16.028 45.488 14.604 46.544 13.468C47.616 12.316 48.888 11.74 50.36 11.74C51.512 11.74 52.52 12.06 53.384 12.7C53.784 12.988 54.096 13.308 54.32 13.66V6.7H56.72V23.5H54.32ZM48.368 20.404C49.04 21.108 49.864 21.46 50.84 21.46C51.816 21.46 52.64 21.108 53.312 20.404C53.984 19.7 54.32 18.812 54.32 17.74C54.32 16.668 53.984 15.78 53.312 15.076C52.64 14.372 51.816 14.02 50.84 14.02C49.864 14.02 49.04 14.372 48.368 15.076C47.696 15.78 47.36 16.668 47.36 17.74C47.36 18.812 47.696 19.7 48.368 20.404ZM69.5713 19.9L71.0113 21.58C70.7073 21.98 70.3073 22.34 69.8113 22.66C68.7233 23.38 67.4833 23.74 66.0913 23.74C64.4113 23.74 62.9873 23.164 61.8193 22.012C60.6673 20.844 60.0913 19.42 60.0913 17.74C60.0913 16.06 60.6593 14.644 61.7953 13.492C62.9473 12.324 64.3393 11.74 65.9713 11.74C67.6033 11.74 68.9473 12.276 70.0033 13.348C71.0753 14.404 71.6113 15.748 71.6113 17.38C71.6113 17.524 71.5873 17.812 71.5393 18.244L71.4913 18.58H62.6113C62.7553 19.396 63.1553 20.084 63.8113 20.644C64.4673 21.188 65.2673 21.46 66.2113 21.46C67.0753 21.46 67.8913 21.204 68.6593 20.692C69.0113 20.468 69.3153 20.204 69.5713 19.9ZM62.6113 16.54H69.0913C68.8993 15.724 68.5393 15.084 68.0113 14.62C67.4833 14.14 66.8033 13.9 65.9713 13.9C64.2753 13.9 63.1553 14.78 62.6113 16.54ZM77.9609 23.5L73.4009 11.98H76.0409L79.2809 20.5L82.5209 11.98H85.1609L80.6009 23.5H77.9609ZM87.6753 23.5V11.98H90.0753V13.54C90.3953 13.156 90.6913 12.86 90.9633 12.652C91.7313 12.044 92.5953 11.74 93.5553 11.74H94.1553V14.26L93.8433 14.212C93.4593 14.164 93.2433 14.14 93.1953 14.14C92.3473 14.14 91.6113 14.476 90.9873 15.148C90.3793 15.804 90.0753 16.628 90.0753 17.62V23.5H87.6753ZM97.6974 22.012C96.5454 20.844 95.9694 19.42 95.9694 17.74C95.9694 16.06 96.5454 14.644 97.6974 13.492C98.8654 12.324 100.289 11.74 101.969 11.74C103.649 11.74 105.065 12.324 106.217 13.492C107.385 14.644 107.969 16.06 107.969 17.74C107.969 19.42 107.385 20.844 106.217 22.012C105.065 23.164 103.649 23.74 101.969 23.74C100.289 23.74 98.8654 23.164 97.6974 22.012ZM99.4014 20.428C100.089 21.116 100.945 21.46 101.969 21.46C102.993 21.46 103.849 21.116 104.537 20.428C105.225 19.724 105.569 18.828 105.569 17.74C105.569 16.652 105.225 15.764 104.537 15.076C103.849 14.372 102.993 14.02 101.969 14.02C100.945 14.02 100.089 14.372 99.4014 15.076C98.7134 15.764 98.3694 16.652 98.3694 17.74C98.3694 18.828 98.7134 19.724 99.4014 20.428ZM110.851 26.14L112.531 24.58C112.819 24.916 113.107 25.196 113.395 25.42C114.067 25.98 114.859 26.26 115.771 26.26C116.875 26.26 117.747 25.924 118.387 25.252C119.043 24.596 119.371 23.692 119.371 22.54V21.46C119.131 21.796 118.827 22.1 118.459 22.372C117.611 22.964 116.675 23.26 115.651 23.26C114.243 23.26 113.027 22.716 112.003 21.628C110.995 20.524 110.491 19.148 110.491 17.5C110.491 15.852 110.995 14.484 112.003 13.396C113.027 12.292 114.243 11.74 115.651 11.74C116.659 11.74 117.595 12.044 118.459 12.652C118.811 12.908 119.115 13.204 119.371 13.54V11.98H121.771V22.54C121.771 24.284 121.203 25.716 120.067 26.836C118.947 27.972 117.515 28.54 115.771 28.54C114.443 28.54 113.219 28.14 112.099 27.34C111.603 26.972 111.187 26.572 110.851 26.14ZM113.827 19.996C114.451 20.652 115.219 20.98 116.131 20.98C117.043 20.98 117.811 20.652 118.435 19.996C119.059 19.34 119.371 18.508 119.371 17.5C119.371 16.492 119.059 15.66 118.435 15.004C117.811 14.348 117.043 14.02 116.131 14.02C115.219 14.02 114.451 14.348 113.827 15.004C113.203 15.66 112.891 16.492 112.891 17.5C112.891 18.508 113.203 19.34 113.827 19.996Z" fill="#010101"/>
</svg>
