<?xml version="1.0" standalone="no"?>
<!DOCTYPE svg PUBLIC "-//W3C//DTD SVG 1.1//EN" "http://www.w3.org/Graphics/SVG/1.1/DTD/svg11.dtd" >
<svg xmlns="http://www.w3.org/2000/svg" xmlns:xlink="http://www.w3.org/1999/xlink" version="1.1">
<metadata>
Created by FontForge 20170731 at Fri Feb  8 13:52:05 2019
 By Aleksey,,,
Copyright (c) 2019 by Adam Ladd. All rights reserved. Desktop use is strictly prohibited.
</metadata>
<defs>
<font id="Konnect-Regular" horiz-adv-x="0" >
  <font-face 
    font-family="Konnect"
    font-weight="400"
    font-stretch="normal"
    units-per-em="2048"
    panose-1="0 0 5 0 0 0 0 0 0 0"
    ascent="1597"
    descent="-451"
    x-height="1044"
    cap-height="1413"
    bbox="-2790 -547 2621 1878"
    underline-thickness="0"
    underline-position="0"
    unicode-range="U+0020-FB02"
  />
<missing-glyph horiz-adv-x="1024" 
d="M190 1597h650v-2048h-650v2048zM682 1393v67h-338v-67h133v-76h-135v-68h340v68h-135v76h135zM547 1053v143h-205v-213h340v70h-135zM410 1126h67v-73h-67v73zM682 860v68h-340v-68h135v-76h-135v-67h205v143h135zM682 600v205h-68v-135h-272v-70h340zM682 324v231h-205
v-115h70v47h67v-96h-204v164h-68v-231h340zM682 -31v232h-340v-232h340zM410 133h204v-96h-204v96zM682 -145v67h-340v-67h143l-143 -97v-67h340v67h-209l143 97h66z" />
    <glyph glyph-name="uniFB01" unicode="fi" horiz-adv-x="1200" 
d="M963 1253q-49 0 -83 34t-34 83q0 51 33.5 84t83.5 33q51 0 84.5 -33t33.5 -84q0 -49 -33.5 -83t-84.5 -34zM436 1044h615v-1044h-177v885h-438v-885h-176v885h-190v159h190v74q0 191 101.5 279t314.5 88v-162q-240 0 -240 -215v-64z" />
    <glyph glyph-name="uniFB02" unicode="fl" horiz-adv-x="1224" 
d="M260 1044v74q0 191 104.5 279t319.5 88v-162q-248 0 -248 -215v-64h248v-159h-248v-885h-176v885h-190v159h190zM901 0v1475h176v-1475h-176z" />
    <glyph glyph-name="f_f.liga" unicode="ff" horiz-adv-x="1396" 
d="M1333 1485v-162q-248 0 -248 -215v-64h248v-159h-248v-885h-176v885h-473v-885h-176v885h-190v159h190v74q0 191 104.5 279t319.5 88v-162q-248 0 -248 -215v-64h473v74q0 191 104.5 279t319.5 88z" />
    <glyph glyph-name="f_f_i.liga" unicode="ffi" horiz-adv-x="1849" 
d="M1612 1253q-49 0 -83 34t-34 83q0 50 34 83.5t83 33.5q51 0 85 -33t34 -84q0 -49 -34 -83t-85 -34zM1085 1044h615v-1044h-176v885h-439v-885h-176v885h-473v-885h-176v885h-190v159h190v74q0 191 104.5 279t319.5 88v-162q-248 0 -248 -215v-64h473v74q0 191 101.5 279
t314.5 88v-162q-240 0 -240 -215v-64z" />
    <glyph glyph-name="f_f_l.liga" unicode="ffl" horiz-adv-x="1878" 
d="M909 1044v74q0 191 104.5 279t319.5 88v-162q-248 0 -248 -215v-64h248v-159h-248v-885h-176v885h-473v-885h-176v885h-190v159h190v74q0 191 104.5 279t319.5 88v-162q-248 0 -248 -215v-64h473zM1554 0v1475h177v-1475h-177z" />
    <glyph glyph-name=".notdef" horiz-adv-x="1024" 
d="M190 1597h650v-2048h-650v2048zM682 1393v67h-338v-67h133v-76h-135v-68h340v68h-135v76h135zM547 1053v143h-205v-213h340v70h-135zM410 1126h67v-73h-67v73zM682 860v68h-340v-68h135v-76h-135v-67h205v143h135zM682 600v205h-68v-135h-272v-70h340zM682 324v231h-205
v-115h70v47h67v-96h-204v164h-68v-231h340zM682 -31v232h-340v-232h340zM410 133h204v-96h-204v96zM682 -145v67h-340v-67h143l-143 -97v-67h340v67h-209l143 97h66z" />
    <glyph glyph-name="glyph1" 
 />
    <glyph glyph-name="glyph2" horiz-adv-x="681" 
 />
    <glyph glyph-name="space" unicode=" " horiz-adv-x="505" 
 />
    <glyph glyph-name="exclam" unicode="!" horiz-adv-x="518" 
d="M342 395h-164l-12 670v348h186v-348zM260 -14q-55 0 -92 36.5t-37 90.5q0 55 37 92t92 37q53 0 90 -37t37 -92q0 -53 -37 -90t-90 -37z" />
    <glyph glyph-name="quotedbl" unicode="&#x22;" horiz-adv-x="823" 
d="M291 920h-154l-10 493h174zM686 920h-154l-10 493h174z" />
    <glyph glyph-name="numbersign" unicode="#" horiz-adv-x="1556" 
d="M1468 1028v-154h-284l-99 -335h277v-154h-322l-114 -385h-164l112 385h-401l-113 -385h-163l112 385h-239v154h284l99 335h-275v154h320l112 385h166l-112 -385h401l113 385h165l-114 -385h239zM518 539h402l100 335h-402z" />
    <glyph glyph-name="dollar" unicode="$" horiz-adv-x="1091" 
d="M995 381q0 -152 -109 -261t-280 -126v-135h-117v133q-173 18 -282 133q-111 115 -111 276h191q0 -89 57 -153q57 -66 145 -84v475q-371 101 -370 408q0 145 105 251q103 105 265 123v135h117v-137q160 -18 264 -126q103 -109 103 -263h-191q0 81 -49 140q-50 59 -127 77
v-450q389 -104 389 -416zM311 1053q0 -141 178 -219v417q-79 -17 -128 -70q-50 -55 -50 -128zM606 602v-440q87 17 142 75t55 134q0 151 -197 231z" />
    <glyph glyph-name="percent" unicode="%" horiz-adv-x="1712" 
d="M430 782q-142 0 -237 95t-95 233q0 139 95 234q94 94 237 94q142 0 236 -94t94 -234q0 -139 -94 -233q-95 -95 -236 -95zM440 0h-190l1024 1413h190zM300 979q53 -53 130 -53t130 53q52 52 52 131t-52 131q-53 53 -130 53t-130 -53q-52 -52 -52 -131t52 -131zM1519 70
q-97 -95 -237 -95q-141 0 -236 95q-96 94 -96 233t96 234q94 94 236 94t237 -94q95 -95 95 -234q0 -138 -95 -233zM1152 172q53 -53 130 -53t130 53q52 52 52 131t-52 131q-53 53 -130 53t-130 -53q-52 -52 -52 -131t52 -131z" />
    <glyph glyph-name="ampersand" unicode="&#x26;" horiz-adv-x="1228" 
d="M1026 266l221 -266h-221l-106 129q-150 -154 -365 -154q-213 0 -346 126t-133 323q0 146 70 243q69 97 190 175q-123 166 -123 299q0 129 90 213t225 84q134 0 225 -84t91 -211q0 -109 -69 -184q-70 -76 -197 -152l329 -397q11 42 13 94v182h165v-182q0 -134 -59 -238z
M528 1292q-63 0 -105 -42.5t-42 -108.5q0 -83 100 -217q105 61 150 108.5t45 110.5t-43 106t-105 43zM561 143q151 0 258 107l-387 471q-180 -123 -180 -291q0 -123 88 -205t221 -82z" />
    <glyph glyph-name="quotesingle" unicode="'" horiz-adv-x="428" 
d="M291 920h-154l-10 493h174z" />
    <glyph glyph-name="parenleft" unicode="(" horiz-adv-x="655" 
d="M625 -389h-179q-130 174 -210 437q-80 264 -80 526q0 261 80 525q80 263 210 437h179q-126 -173 -205 -437q-78 -263 -78 -525q0 -264 78 -526q79 -264 205 -437z" />
    <glyph glyph-name="parenright" unicode=")" horiz-adv-x="655" 
d="M209 -389h-178q126 173 205 437q77 264 77 526q0 261 -77 525q-79 264 -205 437h178q132 -176 211 -437q80 -264 80 -525q0 -262 -80 -526q-79 -261 -211 -437z" />
    <glyph glyph-name="asterisk" unicode="*" horiz-adv-x="772" 
d="M528 1182l-43 -15l43 -18l158 -88l-57 -96l-158 88l-35 28l6 -45v-178h-112v178l8 45l-37 -28l-158 -88l-57 96l158 90l43 16l-43 17l-158 88l57 98l158 -90l37 -29l-8 45v179h112v-179l-6 -45l35 29l158 90l57 -98z" />
    <glyph glyph-name="plus" unicode="+" horiz-adv-x="1093" 
d="M629 684h336v-160h-336v-338h-164v338h-336v160h336v338h164v-338z" />
    <glyph glyph-name="comma" unicode="," horiz-adv-x="491" 
d="M195 -297h-154l143 510h209z" />
    <glyph glyph-name="hyphen" unicode="-" horiz-adv-x="835" 
d="M707 475h-578v170h578v-170z" />
    <glyph glyph-name="period" unicode="." horiz-adv-x="481" 
d="M240 -14q-56 0 -93 38q-38 38 -38 93t38 93t93 38q57 0 95 -38t38 -93q0 -56 -38 -93.5t-95 -37.5z" />
    <glyph glyph-name="slash" unicode="/" horiz-adv-x="1044" 
d="M201 -307h-178l819 1843h178z" />
    <glyph glyph-name="zero" unicode="0" horiz-adv-x="1316" 
d="M659 -25q-241 0 -393 204q-151 203 -151 528q0 322 152 527q152 204 392 204q241 0 392 -204q151 -203 151 -527q0 -325 -151 -528q-151 -204 -392 -204zM659 156q154 0 253 154q98 154 98 397q0 242 -98 397q-99 153 -253 153q-157 0 -254 -153q-98 -155 -98 -397
q0 -243 98 -397q97 -154 254 -154z" />
    <glyph glyph-name="one" unicode="1" horiz-adv-x="753" 
d="M74 1212l370 201h131v-1413h-186v1188l-315 -172v196z" />
    <glyph glyph-name="two" unicode="2" horiz-adv-x="1081" 
d="M774 633l-407 -457h606v-176h-869v150l506 573q154 173 154 297q0 99 -65 166q-67 65 -164 65q-98 0 -163 -65q-65 -67 -65 -166h-192q0 178 120 298q119 120 300 120q179 0 301 -120q120 -120 120 -298q0 -109 -47 -198q-47 -88 -135 -189z" />
    <glyph glyph-name="three" unicode="3" horiz-adv-x="1060" 
d="M743 733q98 -47 157 -139q58 -91 58 -207q0 -175 -123 -294q-124 -118 -309 -118q-187 0 -309 118q-123 119 -123 294h193q0 -98 69 -164q67 -67 171 -67q103 0 171 67q68 66 68 164q0 111 -69 183q-71 71 -179 71h-166v178h166q96 0 159 65q62 65 62 165q0 88 -61 148
q-62 60 -152 60q-91 0 -152 -59q-61 -58 -61 -149h-192q0 165 116 278q115 111 289 111q175 0 290 -112q116 -113 116 -277q0 -102 -51 -186q-52 -85 -138 -130z" />
    <glyph glyph-name="four" unicode="4" horiz-adv-x="1153" 
d="M911 494h185v-177h-185v-317h-186v317h-657v140l641 956h202v-919zM725 1163l-442 -669h442v669z" />
    <glyph glyph-name="five" unicode="5" horiz-adv-x="1146" 
d="M612 897q194 0 325 -131q130 -130 130 -329t-135 -330q-135 -132 -336 -132q-202 0 -335 132q-134 131 -134 329h192q0 -121 79 -200q80 -80 198 -80t198 80q78 79 78 200q0 122 -78 201q-80 80 -198 80q-70 0 -142 -35q-70 -34 -104 -88h-194l65 819h754v-176h-584
l-35 -432q98 92 256 92z" />
    <glyph glyph-name="six" unicode="6" horiz-adv-x="1107" 
d="M578 897q194 0 325 -132q129 -132 129 -328q0 -197 -135 -329q-134 -133 -336 -133q-201 0 -337 133q-136 132 -136 328q0 158 90 293l459 684h227l-352 -522q34 6 66 6zM362 236q80 -80 199 -80t199 81q80 80 80 199q0 118 -80 200q-80 81 -199 81t-199 -80
q-81 -79 -81 -201q0 -120 81 -200z" />
    <glyph glyph-name="seven" unicode="7" horiz-adv-x="1077" 
d="M92 1237v176h922v-145l-596 -1268h-211l584 1237h-699z" />
    <glyph glyph-name="eight" unicode="8" horiz-adv-x="1097" 
d="M774 733q101 -51 163 -144q60 -93 60 -206q0 -174 -128 -291q-127 -117 -320 -117t-320 117t-127 291q0 114 59 206.5t163 143.5q-89 49 -141 135.5t-52 188.5q0 163 120 272q119 109 298 109t298 -109q120 -109 120 -272q0 -104 -51.5 -189.5t-141.5 -134.5zM710 1195
q-65 62 -161 62q-95 0 -160 -62t-65 -156q0 -95 65 -158q64 -64 160 -64q97 0 161 64q64 63 64 158t-64 156zM368 226q71 -70 181 -70q108 0 181 70q73 69 73 174q0 104 -73 174q-73 69 -181 69q-109 0 -181 -69q-73 -70 -73 -174q0 -105 73 -174z" />
    <glyph glyph-name="nine" unicode="9" horiz-adv-x="1118" 
d="M221 1306q135 132 336 132t337 -132t136 -329q0 -151 -90 -293l-448 -684h-222l342 522q-33 -6 -71 -6q-195 0 -325 132q-130 131 -130 329q0 197 135 329zM359 777q79 -81 198 -81q118 0 200 80q81 80 81 201t-81 201q-80 79 -200 79q-118 0 -198 -80q-80 -82 -80 -200
t80 -200z" />
    <glyph glyph-name="colon" unicode=":" horiz-adv-x="501" 
d="M250 711q-55 0 -93 38t-38 93t38 93t93 38q57 0 95 -38t38 -93q0 -56 -38 -93.5t-95 -37.5zM250 -14q-56 0 -93 38q-38 38 -38 93t38 93t93 38q57 0 95 -38t38 -93q0 -56 -38 -93.5t-95 -37.5z" />
    <glyph glyph-name="semicolon" unicode=";" horiz-adv-x="528" 
d="M375 749q-38 -38 -94 -38q-58 0 -96 38t-38 93t38 93t96 38q56 0 94 -38q37 -37 37 -93t-37 -93zM193 -297h-154l141 510h209z" />
    <glyph glyph-name="less" unicode="&#x3c;" horiz-adv-x="950" 
d="M129 686l692 348v-176l-520 -252l520 -252v-176l-692 348v160z" />
    <glyph glyph-name="equal" unicode="=" horiz-adv-x="1093" 
d="M965 705h-836v159h836v-159zM965 348h-836v158h836v-158z" />
    <glyph glyph-name="greater" unicode="&#x3e;" horiz-adv-x="950" 
d="M129 858v176l692 -348v-160l-692 -348v176l520 252z" />
    <glyph glyph-name="question" unicode="?" horiz-adv-x="972" 
d="M567 403h-184v66q0 78 30 144q29 66 60 100q39 42 86 82q73 63 106 116t33 121q0 96 -63 161q-64 64 -160 64t-159 -64q-64 -64 -64 -161h-193q0 174 119 290t297 116q176 0 295 -116t119 -290q0 -77 -30 -145t-62 -103q-30 -33 -86 -84q-74 -63 -108 -110
q-36 -50 -36 -121v-66zM566 23q-36 -37 -91 -37t-92 37q-37 36 -37 90q0 55 37 92t92 37t91 -37t36 -92q0 -53 -36 -90z" />
    <glyph glyph-name="at" unicode="@" horiz-adv-x="1730" 
d="M1061 799v102h166v-489q0 -42 25.5 -69.5t66.5 -27.5q66 0 108 78q41 79 41 199q0 242 -172 404q-173 161 -426 161q-263 0 -435 -172q-173 -173 -173 -432q0 -260 173 -433t435 -173q226 0 381 123h230q-112 -126 -271 -197q-160 -72 -342 -72q-325 0 -542 215
q-217 214 -217 537q0 319 218 535q218 215 543 215q316 0 534 -204q216 -204 216 -509q0 -182 -81 -295t-222 -113q-84 0 -147.5 36t-92.5 99q-84 -139 -262 -139q-156 0 -258 107t-102 266t101 268q101 107 249 107q165 0 256 -127zM842 338q93 0 157 62q62 62 62 153
t-63 152q-64 61 -156 61t-153 -60q-62 -62 -62 -153q0 -94 62 -154q61 -61 153 -61z" />
    <glyph glyph-name="A" unicode="A" horiz-adv-x="1460" 
d="M1417 0h-207l-137 342h-692l-137 -342h-201l575 1413h224zM727 1210l-276 -694h553z" />
    <glyph glyph-name="B" unicode="B" horiz-adv-x="1150" 
d="M825 750q119 -29 193 -131q74 -104 74 -238q0 -164 -112 -272q-112 -109 -278 -109h-536v1413h477q155 0 259 -100q104 -101 104 -254q0 -100 -51 -185q-52 -85 -130 -124zM598 1243h-250v-430h250q88 0 152 63q63 62 63 152q0 93 -61 154t-154 61zM348 170h311
q102 0 171 70q69 69 69 172q0 101 -68 171q-70 68 -172 68h-311v-481z" />
    <glyph glyph-name="C" unicode="C" horiz-adv-x="1642" 
d="M831 -25q-315 0 -527 210t-212 522q0 311 212 521t527 210q282 0 484 -169q203 -170 246 -433h-195q-40 185 -188 304q-148 117 -347 117q-233 0 -389 -157q-157 -157 -157 -393t157 -393q156 -158 389 -158q199 0 347 118t188 304h195q-43 -263 -246 -433t-484 -170z
" />
    <glyph glyph-name="D" unicode="D" horiz-adv-x="1517" 
d="M166 1413h545q307 0 512 -201q204 -202 204 -505q0 -304 -204 -505q-205 -202 -512 -202h-545v1413zM354 176h355q224 0 376 152q150 151 150 379t-150 379q-151 151 -376 151h-355v-1061z" />
    <glyph glyph-name="E" unicode="E" horiz-adv-x="1050" 
d="M354 623v-447h604v-176h-792v1413h782v-176h-594v-438h527v-176h-527z" />
    <glyph glyph-name="F" unicode="F" horiz-adv-x="993" 
d="M918 1413v-176h-564v-451h480v-176h-480v-610h-188v1413h752z" />
    <glyph glyph-name="G" unicode="G" horiz-adv-x="1644" 
d="M858 582v170h705v-62q-6 -306 -215 -511q-208 -204 -517 -204q-315 0 -527 210t-212 522q0 311 212 521t527 210q253 0 444 -136q192 -137 253 -354h-207q-61 141 -192 225q-132 84 -298 84q-233 0 -389 -157q-157 -157 -157 -393t157 -393q156 -158 389 -158
q202 0 351 119q148 119 182 307h-506z" />
    <glyph glyph-name="H" unicode="H" horiz-adv-x="1495" 
d="M1141 799v614h188v-1413h-188v623h-787v-623h-188v1413h188v-614h787z" />
    <glyph glyph-name="I" unicode="I" horiz-adv-x="520" 
d="M354 0h-188v1413h188v-1413z" />
    <glyph glyph-name="J" unicode="J" horiz-adv-x="1105" 
d="M514 -25q-197 0 -328 128t-131 321h193q0 -114 77 -191t191 -77q115 0 192 77q76 76 76 191v989h189v-989q0 -194 -132 -321q-133 -128 -327 -128z" />
    <glyph glyph-name="K" unicode="K" horiz-adv-x="1257" 
d="M530 713l715 -713h-239l-652 637v-637h-188v1413h188v-622l641 622h236z" />
    <glyph glyph-name="L" unicode="L" horiz-adv-x="958" 
d="M354 1413v-1237h543v-176h-731v1413h188z" />
    <glyph glyph-name="M" unicode="M" horiz-adv-x="1835" 
d="M920 281l505 1132h242v-1413h-186v1104l-496 -1104h-137l-494 1104v-1104h-188v1413h248z" />
    <glyph glyph-name="N" unicode="N" horiz-adv-x="1513" 
d="M1159 309v1104h187v-1413h-193l-799 1100v-1100h-188v1413h194z" />
    <glyph glyph-name="O" unicode="O" horiz-adv-x="1662" 
d="M1359 185q-211 -210 -527 -210t-528 210t-212 522q0 311 212 521t528 210t527 -210q212 -210 212 -521q0 -312 -212 -522zM442 314q156 -158 390 -158q232 0 390 158q156 158 156 393t-156 393q-157 157 -390 157q-234 0 -390 -157q-157 -157 -157 -393t157 -393z" />
    <glyph glyph-name="P" unicode="P" horiz-adv-x="1150" 
d="M166 1413h467q196 0 324 -127q128 -128 128 -317q0 -188 -130 -315q-131 -128 -322 -128h-279v-526h-188v1413zM354 702h277q113 0 188 76q74 77 74 191q0 115 -75 191q-75 77 -187 77h-277v-535z" />
    <glyph glyph-name="Q" unicode="Q" horiz-adv-x="1662" 
d="M1571 707q0 -199 -90 -362q-89 -162 -248 -259l162 -260h-197l-119 188q-121 -39 -248 -39q-315 0 -527 210t-212 522q0 311 212 521t528 210t527 -210q212 -210 212 -521zM831 156q77 0 148 18l-180 287h198l138 -219q114 75 178.5 197t64.5 268q0 235 -156 393
q-157 157 -390 157q-234 0 -390 -157q-157 -157 -157 -393t157 -393q156 -158 389 -158z" />
    <glyph glyph-name="R" unicode="R" horiz-adv-x="1155" 
d="M1096 0h-236l-479 561h-27v-561h-188v1413h459q188 0 314 -123t126 -307q0 -179 -125 -301q-124 -121 -311 -121h-17zM621 1237h-267v-512h267q110 0 180 73q71 73 71 183t-71 184q-72 72 -180 72z" />
    <glyph glyph-name="S" unicode="S" horiz-adv-x="1089" 
d="M545 -25q-194 0 -327 122q-132 121 -132 302h190q0 -109 79 -182q80 -74 194 -74q112 0 188 65q74 65 74 161q0 189 -309 266q-393 96 -393 414q0 165 125 278q125 111 311 111t311 -116t125 -290h-190q0 102 -71 170t-177 68q-102 0 -172 -61t-70 -152q0 -183 289 -256
q414 -102 414 -420q0 -174 -131 -290t-328 -116z" />
    <glyph glyph-name="T" unicode="T" horiz-adv-x="1118" 
d="M59 1413h1000v-176h-406v-1237h-188v1237h-406v176z" />
    <glyph glyph-name="U" unicode="U" horiz-adv-x="1419" 
d="M709 -25q-244 0 -409 162t-165 404v872h187v-868q0 -166 111 -277q109 -112 276 -112q168 0 279 112q110 112 110 277v868h186v-872q0 -242 -164 -404q-165 -162 -411 -162z" />
    <glyph glyph-name="V" unicode="V" horiz-adv-x="1447" 
d="M727 244l473 1169h205l-584 -1413h-196l-582 1413h209z" />
    <glyph glyph-name="W" unicode="W" horiz-adv-x="2301" 
d="M1647 246l401 1167h203l-508 -1413h-193l-399 1141l-399 -1141h-193l-508 1413h207l401 -1167l408 1167h172z" />
    <glyph glyph-name="X" unicode="X" horiz-adv-x="1462" 
d="M860 711l551 -711h-233l-449 584l-448 -584h-230l551 711l-543 702h232l442 -579l438 579h232z" />
    <glyph glyph-name="Y" unicode="Y" horiz-adv-x="1386" 
d="M696 707l459 706h209l-578 -891v-522h-186v522l-577 891h213z" />
    <glyph glyph-name="Z" unicode="Z" horiz-adv-x="1257" 
d="M1159 1278l-819 -1102h834v-176h-1090v135l819 1102h-811v176h1067v-135z" />
    <glyph glyph-name="bracketleft" unicode="[" horiz-adv-x="679" 
d="M618 1536v-166h-260v-1593h260v-166h-442v1925h442z" />
    <glyph glyph-name="backslash" unicode="\" horiz-adv-x="1044" 
d="M1020 -307h-178l-819 1843h178z" />
    <glyph glyph-name="bracketright" unicode="]" horiz-adv-x="679" 
d="M61 1370v166h443v-1925h-443v166h261v1593h-261z" />
    <glyph glyph-name="asciicircum" unicode="^" horiz-adv-x="845" 
d="M506 1413l254 -493h-164l-174 348l-174 -348h-162l254 493h166z" />
    <glyph glyph-name="underscore" unicode="_" horiz-adv-x="1060" 
d="M981 -313h-903v149h903v-149z" />
    <glyph glyph-name="grave" unicode="`" horiz-adv-x="438" 
d="M438 1182h-186l-252 264h227z" />
    <glyph glyph-name="a" unicode="a" horiz-adv-x="1339" 
d="M1014 846v198h176v-1044h-176v199q-67 -106 -172.5 -165t-233.5 -59q-224 0 -372 157q-150 158 -150 391t150 390q148 156 372 156q128 0 233.5 -59t172.5 -164zM641 145q161 0 267 108q106 106 106 269t-106 270q-107 107 -267 107q-161 0 -268 -107
q-107 -109 -107 -270q0 -162 107 -269q107 -108 268 -108z" />
    <glyph glyph-name="b" unicode="b" horiz-adv-x="1339" 
d="M731 1069q222 0 374 -156q150 -157 150 -390t-150 -391q-151 -157 -374 -157q-128 0 -233.5 59t-171.5 165v-199h-176v1475h176v-629q67 105 172 164t233 59zM698 145q162 0 269 108q106 106 106 269t-106 270q-107 107 -269 107q-159 0 -266 -107q-106 -107 -106 -270
t106 -269q106 -108 266 -108z" />
    <glyph glyph-name="c" unicode="c" horiz-adv-x="1259" 
d="M639 -25q-239 0 -397 157q-160 157 -160 391q0 233 160 390q159 156 397 156q211 0 363 -126q151 -126 184 -325h-185q-32 126 -130 203q-99 78 -232 78q-161 0 -268 -107q-107 -109 -107 -270q0 -162 107 -269q107 -108 268 -108q132 0 233 78q99 78 129 203h185
q-33 -199 -184 -325q-152 -126 -363 -126z" />
    <glyph glyph-name="d" unicode="d" horiz-adv-x="1339" 
d="M1014 846v629h176v-1475h-176v199q-67 -106 -172.5 -165t-233.5 -59q-224 0 -372 157q-150 158 -150 391t150 390q148 156 372 156q128 0 233.5 -59t172.5 -164zM641 145q161 0 267 108q106 106 106 269t-106 270q-107 107 -267 107q-161 0 -268 -107
q-107 -109 -107 -270q0 -162 107 -269q107 -108 268 -108z" />
    <glyph glyph-name="e" unicode="e" horiz-adv-x="1267" 
d="M1192 522q0 -37 -4 -73h-918q22 -139 125 -225q101 -87 242 -87q117 0 208 55q92 54 132 142h194q-57 -162 -200 -260q-144 -99 -334 -99q-239 0 -396 157q-159 158 -159 391t159 390q157 156 396 156q238 0 396 -157q159 -158 159 -390zM878 823q-102 84 -241 84
q-138 0 -238 -83q-100 -82 -127 -218h732q-25 133 -126 217z" />
    <glyph glyph-name="f" unicode="f" horiz-adv-x="747" 
d="M684 1485v-162q-248 0 -248 -215v-64h248v-159h-248v-885h-176v885h-190v159h190v74q0 191 104.5 279t319.5 88z" />
    <glyph glyph-name="g" unicode="g" horiz-adv-x="1337" 
d="M1016 848v196h176v-931q0 -237 -146 -383q-147 -144 -387 -144q-204 0 -340 103q-137 104 -182 286h182q32 -106 122 -166q91 -61 218 -61q163 0 260 100t97 267v100q-67 -103 -172.5 -161t-235.5 -58q-224 0 -372 153q-150 151 -150 383q0 228 150 383q148 154 372 154
q127 0 234 -59t174 -162zM643 156q161 0 267 108q106 106 106 268q0 161 -106 268q-107 107 -267 107q-161 0 -268 -107q-107 -109 -107 -268q0 -162 107 -269t268 -107z" />
    <glyph glyph-name="h" unicode="h" horiz-adv-x="1261" 
d="M702 1069q191 0 307 -115q117 -116 117 -309v-645h-176v590q0 138 -83 224q-82 85 -222 85q-142 0 -231 -86q-88 -85 -88 -227v-586h-176v1475h176v-605q124 199 376 199z" />
    <glyph glyph-name="i" unicode="i" horiz-adv-x="473" 
d="M238 1253q-51 0 -85 34t-34 83q0 51 33.5 84t85.5 33q49 0 82.5 -33t33.5 -84q0 -49 -33.5 -83t-82.5 -34zM326 0h-176v1044h176v-1044z" />
    <glyph glyph-name="j" unicode="j" horiz-adv-x="485" 
d="M248 1253q-49 0 -83 34t-34 83q0 50 34 83.5t83 33.5q51 0 85 -33t34 -84q0 -49 -34 -83t-85 -34zM-37 -414v162q197 0 197 193v1103h176v-1114q0 -344 -373 -344z" />
    <glyph glyph-name="k" unicode="k" horiz-adv-x="1058" 
d="M492 524l538 -524h-227l-477 455v-455h-176v1475h176v-873l465 442h225z" />
    <glyph glyph-name="l" unicode="l" horiz-adv-x="473" 
d="M326 0h-176v1475h176v-1475z" />
    <glyph glyph-name="m" unicode="m" horiz-adv-x="1925" 
d="M1401 1069q175 0 284 -107q107 -109 107 -288v-674h-176v625q0 124 -74 200q-74 74 -196 74q-128 0 -208 -77q-79 -76 -79 -201v-621h-176v625q0 124 -74 200q-74 74 -197 74q-128 0 -207 -77q-79 -76 -79 -201v-621h-176v1044h176v-149q116 174 342 174q125 0 218 -57
t138 -160q115 217 377 217z" />
    <glyph glyph-name="n" unicode="n" horiz-adv-x="1261" 
d="M702 1069q191 0 307 -115q117 -116 117 -309v-645h-176v590q0 138 -83 224q-82 85 -222 85q-142 0 -231 -86q-88 -85 -88 -227v-586h-176v1044h176v-167q124 192 376 192z" />
    <glyph glyph-name="o" unicode="o" horiz-adv-x="1275" 
d="M1036 132q-158 -157 -397 -157t-397 157q-160 157 -160 391q0 233 160 390q159 156 397 156t397 -156q158 -158 158 -390q0 -233 -158 -391zM639 145q161 0 267 108q106 106 106 269t-106 270q-107 107 -267 107q-161 0 -268 -107q-107 -109 -107 -270q0 -162 107 -269
q107 -108 268 -108z" />
    <glyph glyph-name="p" unicode="p" horiz-adv-x="1339" 
d="M731 1069q222 0 374 -156q150 -157 150 -390t-150 -391q-151 -157 -374 -157q-128 0 -233.5 59t-171.5 165v-588h-176v1433h176v-198q67 105 172 164t233 59zM698 145q162 0 269 108q106 106 106 269t-106 270q-107 107 -269 107q-159 0 -266 -107q-106 -107 -106 -270
t106 -269q106 -108 266 -108z" />
    <glyph glyph-name="q" unicode="q" horiz-adv-x="1339" 
d="M1014 846v198h176v-1433h-176v588q-67 -106 -172.5 -165t-233.5 -59q-224 0 -372 157q-150 158 -150 391t150 390q148 156 372 156q128 0 233.5 -59t172.5 -164zM641 145q161 0 267 108q106 106 106 269t-106 270q-107 107 -267 107q-161 0 -268 -107
q-107 -109 -107 -270q0 -162 107 -269q107 -108 268 -108z" />
    <glyph glyph-name="r" unicode="r" horiz-adv-x="727" 
d="M326 1044v-188q121 205 342 205v-182q-160 0 -251 -96q-91 -97 -91 -259v-524h-176v1044h176z" />
    <glyph glyph-name="s" unicode="s" horiz-adv-x="864" 
d="M684 63q-100 -88 -251 -88q-152 0 -252 94q-101 93 -101 228h182q0 -68 50 -115t122 -47q71 0 118 40q48 41 48 99q0 127 -205 179q-140 38 -220 110q-81 72 -81 205q0 135 98 218t240 83q144 0 241 -90t97 -219h-182q0 62 -45 105q-46 44 -113 44q-63 0 -108 -39
q-46 -39 -46 -92q0 -125 205 -174q303 -79 303 -313q0 -141 -100 -228z" />
    <glyph glyph-name="t" unicode="t" horiz-adv-x="765" 
d="M467 1044h240v-159h-240v-885h-176v885h-225v159h225v273l176 35v-308z" />
    <glyph glyph-name="u" unicode="u" horiz-adv-x="1228" 
d="M903 442v602h176v-1044h-176v164q-121 -188 -360 -189q-182 0 -295 113t-113 299v657h176v-606q0 -134 78 -213q78 -80 209 -80q138 0 221 82q84 83 84 215z" />
    <glyph glyph-name="v" unicode="v" horiz-adv-x="1163" 
d="M584 211l352 833h197l-459 -1044h-185l-458 1044h200z" />
    <glyph glyph-name="w" unicode="w" horiz-adv-x="1849" 
d="M1323 215l295 829h194l-397 -1044h-184l-305 842l-305 -842h-185l-397 1044h199l294 -835l306 835h182z" />
    <glyph glyph-name="x" unicode="x" horiz-adv-x="1163" 
d="M702 524l404 -524h-217l-309 408l-308 -408h-215l404 524l-398 520h216l303 -401l303 401h215z" />
    <glyph glyph-name="y" unicode="y" horiz-adv-x="1163" 
d="M584 211l352 833h197l-629 -1433h-191l174 393l-456 1040h200z" />
    <glyph glyph-name="z" unicode="z" horiz-adv-x="1024" 
d="M920 918l-584 -748h598v-170h-844v127l584 747h-576v170h822v-126z" />
    <glyph glyph-name="braceleft" unicode="{" horiz-adv-x="821" 
d="M508 1237v-508q0 -51 -29.5 -93t-79.5 -61q109 -45 109 -155v-510q0 -57 36 -95t93 -38h123v-166h-189q-109 0 -177 69q-68 71 -68 179v518q0 51 -31 83t-80 32h-80v165h80q49 0 80 32t31 83v516q0 108 69 179q68 69 176 69h189v-166h-123q-57 0 -93 -38t-36 -95z" />
    <glyph glyph-name="bar" unicode="|" horiz-adv-x="577" 
d="M369 -389h-162v1925h162v-1925z" />
    <glyph glyph-name="braceright" unicode="}" horiz-adv-x="821" 
d="M606 657h80v-165h-80q-49 0 -79.5 -32t-30.5 -83v-518q0 -109 -69 -179q-69 -69 -177 -69h-189v166h125q55 0 92 38t37 95v510q0 112 109 155q-49 18 -79 60.5t-30 93.5v508q0 57 -36.5 95t-92.5 38h-125v166h189q109 0 178 -69q68 -71 68 -179v-516q0 -51 30.5 -83
t79.5 -32z" />
    <glyph glyph-name="asciitilde" unicode="~" horiz-adv-x="1132" 
d="M745 455q-68 0 -127 35q-67 40 -109 70q-49 36 -93 36q-53 0 -89 -36t-36 -89h-162q0 134 67 216q66 83 191 83q50 0 100.5 -20.5t85.5 -49.5q88 -71 146 -71q53 0 88 35.5t35 89.5h162q0 -134 -67 -216q-68 -83 -192 -83z" />
    <glyph glyph-name="exclamdown" unicode="&#xa1;" horiz-adv-x="518" 
d="M260 803q-55 0 -92 37t-37 92q0 53 37 90t92 37q53 0 90 -37t37 -90q0 -55 -37 -92t-90 -37zM352 -369h-186v349l12 669h164l10 -669v-349z" />
    <glyph glyph-name="cent" unicode="&#xa2;" horiz-adv-x="1304" 
d="M721 1077v-741q112 17 191 90t108 184h184q-29 -182 -162 -305q-134 -124 -321 -143v-162h-117v160q-220 18 -362 172q-144 153 -144 373q0 221 144 375q142 153 362 171v162h117v-164q187 -19 322 -142q132 -120 161 -304h-184q-28 108 -109 183q-79 73 -190 91z
M283 705q0 -146 91 -250q91 -105 230 -121v745q-139 -16 -230 -121q-91 -106 -91 -253z" />
    <glyph glyph-name="sterling" unicode="&#xa3;" horiz-adv-x="1185" 
d="M422 586v-410h688v-176h-1010v176h133v410h-133v162h133v270q0 180 123 300t306 120q182 0 305 -120t123 -300h-189q0 101 -68 171q-70 68 -171 68q-103 0 -171 -68q-69 -69 -69 -171v-270h434v-162h-434z" />
    <glyph glyph-name="currency" unicode="&#xa4;" horiz-adv-x="1097" 
d="M940 707q0 -119 -66 -213l127 -127l-108 -109l-131 131q-92 -57 -211 -57t-211 57l-133 -131l-111 109l129 129q-63 92 -63 211q0 118 65 213l-129 131l107 108l135 -133q92 57 211 57q114 0 211 -55l131 131l108 -110l-127 -127q66 -94 66 -215zM551 471q100 0 168 68
q67 67 67 168q0 103 -67 171q-68 68 -168 68q-102 0 -170 -68q-68 -70 -68 -171q0 -100 68 -168t170 -68z" />
    <glyph glyph-name="yen" unicode="&#xa5;" horiz-adv-x="1312" 
d="M1059 1413h205l-445 -770h215v-143h-284v-119h284v-145h-284v-236h-187v236h-284v145h284v119h-284v143h215l-445 770h211l399 -704z" />
    <glyph glyph-name="brokenbar" unicode="&#xa6;" horiz-adv-x="577" 
d="M369 696h-162v840h162v-840zM369 -389h-162v840h162v-840z" />
    <glyph glyph-name="section" unicode="&#xa7;" horiz-adv-x="1038" 
d="M731 371q160 -90 160 -256q0 -142 -106 -227t-265 -85t-266 92q-107 93 -107 230h175q0 -81 58 -133q59 -53 142 -53q82 0 138 47q55 46 55 118q0 139 -242 199q-322 76 -321 322q0 83 42.5 151t114.5 105q-152 89 -151 252q0 137 105 221q103 84 255 84q157 0 261 -91
q104 -92 104 -225h-174q0 77 -55 129t-136 52t-133 -46q-53 -47 -53 -114q0 -141 235 -195q330 -74 330 -319q0 -83 -45 -152t-121 -106zM326 639q0 -140 200 -193q85 2 140 51q55 48 55 117q0 143 -209 193q-81 -1 -134 -50q-52 -48 -52 -118z" />
    <glyph glyph-name="dieresis" unicode="&#xa8;" horiz-adv-x="643" 
d="M188 1224q-32 -32 -79 -32q-48 0 -78 31q-31 30 -31 78q0 47 31 78q30 30 78 30t79 -31q31 -32 31 -77.5t-31 -76.5zM532 1192q-46 0 -77 31t-31 78t31 77.5t77 30.5q47 0 79 -31.5t32 -76.5q0 -46 -32 -77.5t-79 -31.5z" />
    <glyph glyph-name="copyright" unicode="&#xa9;" horiz-adv-x="1687" 
d="M1365 185q-210 -210 -521 -210q-312 0 -521 210q-210 210 -210 522q0 311 210 521q209 210 521 210q311 0 521 -210t210 -521q0 -312 -210 -522zM414 272q174 -174 430 -174t429 174q173 175 173 435q0 259 -173 434q-173 174 -429 174t-430 -174t-174 -434
q0 -261 174 -435zM848 299q-174 0 -292 117q-118 115 -118 291q0 174 118 291q119 116 292 116q154 0 265 -90q110 -90 134 -231h-145q-22 81 -91 133q-69 51 -163 51q-114 0 -191 -78q-77 -79 -77 -192q0 -114 77 -193q77 -78 191 -78q92 0 162 52t92 133h145
q-25 -141 -135 -231q-109 -91 -264 -91z" />
    <glyph glyph-name="ordfeminine" unicode="&#xaa;" horiz-adv-x="786" 
d="M569 1325v90h131v-557h-131v90q-79 -106 -204 -106q-120 0 -199 85q-80 86 -80 210t80 210q79 85 199 85q124 0 204 -107zM272 1011q50 -50 124 -50q73 0 123 50t50 126q0 74 -50 126q-50 50 -123 50q-74 0 -124 -50q-51 -51 -51 -126q0 -77 51 -126z" />
    <glyph glyph-name="guillemotleft" unicode="&#xab;" horiz-adv-x="1234" 
d="M428 956h209l-342 -415l342 -416h-209l-340 416zM930 956h209l-340 -415l340 -416h-209l-340 416z" />
    <glyph glyph-name="registered" unicode="&#xae;" horiz-adv-x="915" 
d="M459 1438q158 0 264 -106t106 -267q0 -158 -106 -264q-107 -107 -264 -107q-159 0 -266 107t-107 264q0 160 107 267q106 106 266 106zM246 850q86 -86 213 -86q126 0 212 86q85 85 85 215t-85 216q-85 87 -212 87t-213 -87q-86 -88 -86 -216q0 -129 86 -215zM602 1153
q0 -45 -26 -78t-68 -43l106 -147h-79l-103 145h-12v-145h-68v391h127q53 0 88 -35.5t35 -87.5zM475 1217h-55v-125h55q27 0 44.5 17t17.5 44t-17.5 45.5t-44.5 18.5z" />
    <glyph glyph-name="overscore" unicode="&#xaf;" horiz-adv-x="485" 
d="M485 1212h-485v150h485v-150z" />
    <glyph glyph-name="degree" unicode="&#xb0;" horiz-adv-x="792" 
d="M397 844q-130 0 -215 85q-86 86 -86 214q0 127 86 211t215 84q128 0 213 -85q86 -86 86 -210q0 -128 -86 -214q-85 -85 -213 -85zM397 985q66 0 111 45t45 113q0 66 -45 111q-46 44 -111 44q-67 0 -111 -45q-44 -46 -44 -110q0 -67 44 -113q44 -45 111 -45z" />
    <glyph glyph-name="plusminus" unicode="&#xb1;" horiz-adv-x="1093" 
d="M629 1075v-254h336v-157h-336v-254h-164v254h-336v157h336v254h164zM965 115h-836v159h836v-159z" />
    <glyph glyph-name="uni00B2" unicode="&#xb2;" horiz-adv-x="694" 
d="M506 1122l-238 -250h357v-122h-557v102l319 334q92 97 92 164q0 56 -39 97q-39 40 -96 40t-95 -39t-38 -98h-137q0 113 79 188q79 74 195 74t192 -75t76 -187t-110 -228z" />
    <glyph glyph-name="uni00B3" unicode="&#xb3;" horiz-adv-x="675" 
d="M498 1190q119 -64 118 -199q0 -106 -79 -181q-80 -75 -199 -75t-200 75t-81 187h138q0 -57 42 -97q41 -40 101 -40q62 0 102 39q41 39 41 99q0 59 -41 100t-102 41h-117v98h117q52 0 90 38q37 37 37 93q0 52 -37 86q-38 35 -90 35t-90 -35q-37 -34 -37 -86h-139
q0 102 77 173t189 71t189 -69q75 -71 75 -169q0 -121 -104 -184z" />
    <glyph glyph-name="acute" unicode="&#xb4;" horiz-adv-x="438" 
d="M188 1182h-188l213 264h225z" />
    <glyph glyph-name="paragraph" unicode="&#xb6;" horiz-adv-x="1232" 
d="M483 1413h594v-1802h-151v1651h-172v-1651h-154v969h-117q-177 0 -295 120q-120 118 -120 295q0 178 120 298q118 120 295 120z" />
    <glyph glyph-name="middot" unicode="&#xb7;" horiz-adv-x="522" 
d="M262 430q-57 0 -95 38t-38 93t38 93t95 38q55 0 93 -38t38 -93t-38 -93t-93 -38z" />
    <glyph glyph-name="cedilla" unicode="&#xb8;" horiz-adv-x="421" 
d="M223 -70h10q82 0 136 -55q53 -56 53 -139q0 -84 -60 -142q-62 -57 -151 -57q-90 0 -150 57q-61 58 -61 142h111q0 -41 29.5 -69.5t70.5 -28.5t70.5 28.5t29.5 69.5q0 42 -29 71t-71 29q-44 0 -70 -29l-102 46l115 147v4h127v-4z" />
    <glyph glyph-name="uni00B9" unicode="&#xb9;" horiz-adv-x="460" 
d="M43 1477l221 120h96v-847h-135v688l-182 -103v142z" />
    <glyph glyph-name="ordmasculine" unicode="&#xba;" horiz-adv-x="790" 
d="M616 927q-89 -85 -221 -85q-131 0 -220 84t-89 211t89 211t220 84q132 0 221 -85q89 -86 89 -210t-89 -210zM272 1011q50 -50 124 -50q73 0 123 50t50 126q0 74 -50 126q-50 50 -123 50q-74 0 -124 -50q-51 -51 -51 -126q0 -77 51 -126z" />
    <glyph glyph-name="guillemotright" unicode="&#xbb;" horiz-adv-x="1234" 
d="M102 956h209l340 -415l-340 -416h-209l340 416zM604 956h209l340 -415l-340 -416h-209l342 416z" />
    <glyph glyph-name="onequarter" unicode="&#xbc;" horiz-adv-x="1544" 
d="M360 565h-135v688l-182 -102v141l221 121h96v-848zM172 0l989 1413h166l-989 -1413h-166zM1395 303h106v-123h-106v-180h-135v180h-400v99l371 569h164v-545zM1260 698l-254 -395h254v395z" />
    <glyph glyph-name="onehalf" unicode="&#xbd;" horiz-adv-x="1638" 
d="M360 565h-135v688l-182 -102v141l221 121h96v-848zM172 0l989 1413h166l-989 -1413h-166zM1452 373l-238 -250h357v-123h-557v102l319 334q92 97 92 164q0 56 -38 97q-39 40 -96 40q-58 0 -96 -39t-38 -98h-137q0 113 79 188q80 74 195 74t192 -74q77 -75 77 -188
t-111 -227z" />
    <glyph glyph-name="threequarters" unicode="&#xbe;" horiz-adv-x="1677" 
d="M616 807q0 -106 -79 -181q-80 -75 -199 -75t-200 75q-81 74 -81 187h138q0 -57 42 -97q41 -40 101 -40q62 0 102 39q41 39 41 98t-41 100t-102 41h-117v99h117q52 0 90 38q37 37 37 93q0 52 -37 86q-38 35 -90 35t-90 -35q-37 -34 -37 -86h-139q0 102 77 173
q76 70 189 70q112 0 189 -69q75 -70 75 -168q0 -121 -104 -184q118 -64 118 -199zM305 0l989 1413h166l-989 -1413h-166zM1528 303h106v-123h-106v-180h-135v180h-400v99l371 569h164v-545zM1393 698l-254 -395h254v395z" />
    <glyph glyph-name="questiondown" unicode="&#xbf;" horiz-adv-x="942" 
d="M492 803q-53 0 -90 37t-37 92q0 53 37 90q36 37 90 37q55 0 92 -37t37 -90q0 -55 -37 -92t-92 -37zM492 -393q-177 0 -295 115q-119 116 -119 290q0 111 48 186q49 75 132 146q49 43 73 68q22 22 47 70q21 44 21 93v66h187v-66q0 -79 -30 -143q-31 -68 -61 -100
q-35 -39 -87 -82q-73 -64 -106.5 -117t-33.5 -121q0 -97 64 -161q63 -64 160 -64q96 0 160 64q63 65 63 161h192q0 -175 -118 -290t-297 -115z" />
    <glyph glyph-name="Agrave" unicode="&#xc0;" horiz-adv-x="1460" 
d="M625 1815l211 -265h-187l-252 265h228zM1417 0h-207l-137 342h-692l-137 -342h-201l575 1413h224zM727 1210l-276 -694h553z" />
    <glyph glyph-name="Aacute" unicode="&#xc1;" horiz-adv-x="1460" 
d="M834 1815h225l-250 -265h-188zM1417 0h-207l-137 342h-692l-137 -342h-201l575 1413h224zM727 1210l-276 -694h553z" />
    <glyph glyph-name="Acircumflex" unicode="&#xc2;" horiz-adv-x="1460" 
d="M874 1550l-145 170l-145 -170h-168l205 265h215l206 -265h-168zM1417 0h-207l-137 342h-692l-137 -342h-201l575 1413h224zM727 1210l-276 -694h553z" />
    <glyph glyph-name="Atilde" unicode="&#xc3;" horiz-adv-x="1460" 
d="M610 1675q-43 0 -71.5 -29.5t-28.5 -72.5h-127q0 104 57 173q56 69 150 69q69 0 143 -55q74 -56 115 -56q43 0 71.5 28.5t28.5 73.5h129q0 -106 -56 -174q-55 -69 -153 -69q-68 0 -142 56q-76 56 -116 56zM1417 0h-207l-137 342h-692l-137 -342h-201l575 1413h224z
M727 1210l-276 -694h553z" />
    <glyph glyph-name="Adieresis" unicode="&#xc4;" horiz-adv-x="1460" 
d="M516 1561q-46 0 -77 30.5t-31 77.5t31.5 78t76.5 31q47 0 79 -32t32 -77t-32 -76.5t-79 -31.5zM1019 1593q-32 -32 -79 -32t-78 31q-31 30 -31 77t31 78t78 31t79 -32t32 -77t-32 -76zM1417 0h-207l-137 342h-692l-137 -342h-201l575 1413h224zM727 1210l-276 -694h553z
" />
    <glyph glyph-name="Aring" unicode="&#xc5;" horiz-adv-x="1460" 
d="M856 1572q-52 -50 -127 -50t-127 50q-51 50 -51 126q0 74 51 124q52 50 127 50t127 -50q51 -50 51 -124q0 -76 -51 -126zM787 1757q-22 23 -57.5 23t-57.5 -23q-23 -25 -23 -59q0 -37 22.5 -60.5t57.5 -23.5t57.5 23.5t22.5 60.5q0 36 -22 59zM1417 0h-207l-137 342h-692
l-137 -342h-201l575 1413h224zM727 1210l-276 -694h553z" />
    <glyph glyph-name="AE" unicode="&#xc6;" horiz-adv-x="1785" 
d="M1087 623v-447h607v-176h-793v340h-532l-205 -340h-215l858 1413h876v-176h-596v-438h529v-176h-529zM901 1221l-428 -709h428v709z" />
    <glyph glyph-name="Ccedilla" unicode="&#xc7;" horiz-adv-x="1642" 
d="M831 156q199 0 347 118t188 304h195q-41 -249 -225 -415t-445 -186l-41 -49h10q82 0 136 -55q53 -56 53 -139q0 -84 -60 -142q-62 -57 -151 -57q-90 0 -150 57q-61 58 -61 142h110q0 -41 30 -70t71 -29t70.5 29t29.5 70q0 42 -29 71t-71 29q-44 0 -70 -29l-102 45l98 127
q-290 25 -481 231t-191 499q0 311 212 521t527 210q282 0 484 -169q203 -170 246 -433h-195q-40 185 -188 304q-148 117 -347 117q-233 0 -389 -157q-157 -157 -157 -393t157 -393q156 -158 389 -158z" />
    <glyph glyph-name="Egrave" unicode="&#xc8;" horiz-adv-x="1050" 
d="M453 1815l211 -265h-187l-252 265h228zM354 623v-447h604v-176h-792v1413h782v-176h-594v-438h527v-176h-527z" />
    <glyph glyph-name="Eacute" unicode="&#xc9;" horiz-adv-x="1050" 
d="M662 1815h225l-250 -265h-188zM354 623v-447h604v-176h-792v1413h782v-176h-594v-438h527v-176h-527z" />
    <glyph glyph-name="Ecircumflex" unicode="&#xca;" horiz-adv-x="1050" 
d="M702 1550l-145 170l-145 -170h-168l205 265h215l206 -265h-168zM354 623v-447h604v-176h-792v1413h782v-176h-594v-438h527v-176h-527z" />
    <glyph glyph-name="Edieresis" unicode="&#xcb;" horiz-adv-x="1050" 
d="M344 1561q-46 0 -77 30.5t-31 77.5t31.5 78t76.5 31q47 0 79 -32t32 -77t-32 -76.5t-79 -31.5zM847 1593q-32 -32 -79 -32t-78 31q-31 30 -31 77t31 78t78 31t79 -32t32 -77t-32 -76zM354 623v-447h604v-176h-792v1413h782v-176h-594v-438h527v-176h-527z" />
    <glyph glyph-name="Igrave" unicode="&#xcc;" horiz-adv-x="520" 
d="M369 1550h-187l-252 265h228zM354 0h-188v1413h188v-1413z" />
    <glyph glyph-name="Iacute" unicode="&#xcd;" horiz-adv-x="520" 
d="M342 1550h-188l213 265h225zM354 0h-188v1413h188v-1413z" />
    <glyph glyph-name="Icircumflex" unicode="&#xce;" horiz-adv-x="520" 
d="M154 1815h215l206 -265h-167l-146 170l-145 -170h-168zM354 0h-188v1413h188v-1413z" />
    <glyph glyph-name="Idieresis" unicode="&#xcf;" horiz-adv-x="520" 
d="M49 1561q-46 0 -77 30.5t-31 77.5t31.5 78t76.5 31q47 0 79 -32t32 -77t-32 -76.5t-79 -31.5zM552 1593q-32 -32 -79 -32t-77 31q-31 30 -31 77t31 78q30 31 77 31t79 -32t32 -77t-32 -76zM354 0h-188v1413h188v-1413z" />
    <glyph glyph-name="Eth" unicode="&#xd0;" horiz-adv-x="1517" 
d="M166 1413h545q307 0 512 -201q204 -202 204 -505q0 -304 -204 -505q-205 -202 -512 -202h-545v643h-143v129h143v641zM354 176h355q224 0 376 152q150 151 150 379t-150 379q-151 151 -376 151h-355v-465h262v-129h-262v-467z" />
    <glyph glyph-name="Ntilde" unicode="&#xd1;" horiz-adv-x="1513" 
d="M641 1675q-43 0 -71.5 -29.5t-28.5 -72.5h-127q0 103 56 173q55 69 151 69q69 0 143 -55q74 -56 115 -56q43 0 71.5 28.5t28.5 73.5h129q0 -106 -56 -174q-57 -69 -153 -69q-68 0 -142 56q-76 56 -116 56zM1159 309v1104h187v-1413h-193l-799 1100v-1100h-188v1413h194z
" />
    <glyph glyph-name="Ograve" unicode="&#xd2;" horiz-adv-x="1662" 
d="M940 1550h-186l-252 265h227zM1359 185q-211 -210 -527 -210t-528 210t-212 522q0 311 212 521t528 210t527 -210q212 -210 212 -521q0 -312 -212 -522zM442 314q156 -158 390 -158q232 0 390 158q156 158 156 393t-156 393q-157 157 -390 157q-234 0 -390 -157
q-157 -157 -157 -393t157 -393z" />
    <glyph glyph-name="Oacute" unicode="&#xd3;" horiz-adv-x="1662" 
d="M911 1550h-188l213 265h225zM1359 185q-211 -210 -527 -210t-528 210t-212 522q0 311 212 521t528 210t527 -210q212 -210 212 -521q0 -312 -212 -522zM442 314q156 -158 390 -158q232 0 390 158q156 158 156 393t-156 393q-157 157 -390 157q-234 0 -390 -157
q-157 -157 -157 -393t157 -393z" />
    <glyph glyph-name="Ocircumflex" unicode="&#xd4;" horiz-adv-x="1662" 
d="M977 1550l-146 170l-145 -170h-168l205 265h215l207 -265h-168zM304 1228q212 210 528 210t527 -210q212 -210 212 -521q0 -312 -212 -522q-211 -210 -527 -210t-528 210t-212 522q0 311 212 521zM442 314q156 -158 390 -158q232 0 390 158q156 158 156 393t-156 393
q-157 157 -390 157q-234 0 -390 -157q-157 -157 -157 -393t157 -393z" />
    <glyph glyph-name="Otilde" unicode="&#xd5;" horiz-adv-x="1662" 
d="M971 1563q-68 0 -142 56q-76 56 -116 56q-43 0 -72 -29.5t-29 -72.5h-127q0 104 57 173q56 69 150 69q69 0 143 -55q74 -56 115 -56q43 0 72 28.5t29 73.5h129q0 -106 -56 -174q-57 -69 -153 -69zM1359 185q-211 -210 -527 -210t-528 210t-212 522q0 311 212 521t528 210
t527 -210q212 -210 212 -521q0 -312 -212 -522zM442 314q156 -158 390 -158q232 0 390 158q156 158 156 393t-156 393q-157 157 -390 157q-234 0 -390 -157q-157 -157 -157 -393t157 -393z" />
    <glyph glyph-name="Odieresis" unicode="&#xd6;" horiz-adv-x="1662" 
d="M618 1561q-46 0 -77 30.5t-31 77.5t31.5 78t76.5 31q47 0 79 -32t32 -77t-32 -76.5t-79 -31.5zM1122 1593q-32 -32 -79 -32q-48 0 -78 31q-31 30 -31 77t31 78q30 31 78 31q47 0 79 -32t32 -77t-32 -76zM1359 185q-211 -210 -527 -210t-528 210t-212 522q0 311 212 521
t528 210t527 -210q212 -210 212 -521q0 -312 -212 -522zM442 314q156 -158 390 -158q232 0 390 158q156 158 156 393t-156 393q-157 157 -390 157q-234 0 -390 -157q-157 -157 -157 -393t157 -393z" />
    <glyph glyph-name="multiply" unicode="&#xd7;" horiz-adv-x="966" 
d="M719 956l117 -114l-238 -238l238 -237l-117 -115l-236 237l-237 -237l-117 115l238 237l-238 238l117 114l237 -235z" />
    <glyph glyph-name="Oslash" unicode="&#xd8;" horiz-adv-x="1662" 
d="M1532 1413l-168 -190q207 -211 207 -516q0 -311 -212 -521q-211 -211 -528 -211q-253 0 -440 138l-98 -113h-162l168 190q-207 212 -207 517q0 311 212 521t527 210q252 0 441 -138l98 113h162zM285 707q0 -222 139 -373l725 827q-137 96 -318 96q-233 0 -389 -157
q-157 -157 -157 -393zM831 156q232 0 390 158q157 157 157 393q0 221 -139 372l-725 -827q137 -96 317 -96z" />
    <glyph glyph-name="Ugrave" unicode="&#xd9;" horiz-adv-x="1419" 
d="M817 1550h-186l-252 265h227zM709 -25q-244 0 -409 162t-165 404v872h187v-868q0 -166 111 -277q109 -112 276 -112q168 0 279 112q110 112 110 277v868h186v-872q0 -242 -164 -404q-165 -162 -411 -162z" />
    <glyph glyph-name="Uacute" unicode="&#xda;" horiz-adv-x="1419" 
d="M788 1550h-188l213 265h225zM709 -25q-244 0 -409 162t-165 404v872h187v-868q0 -166 111 -277q109 -112 276 -112q168 0 279 112q110 112 110 277v868h186v-872q0 -242 -164 -404q-165 -162 -411 -162z" />
    <glyph glyph-name="Ucircumflex" unicode="&#xdb;" horiz-adv-x="1419" 
d="M856 1550l-145 170l-146 -170h-168l205 265h215l207 -265h-168zM1098 545v868h186v-872q0 -242 -165 -404t-410 -162q-244 0 -409 162t-165 404v872h187v-868q0 -166 111 -277q109 -112 276 -112q168 0 279 112q110 112 110 277z" />
    <glyph glyph-name="Udieresis" unicode="&#xdc;" horiz-adv-x="1419" 
d="M577 1593q-32 -32 -79 -32t-78 31q-31 30 -31 77t31 78t78 31t79 -32q31 -32 31 -77t-31 -76zM922 1561q-46 0 -77.5 30.5t-31.5 77.5t31.5 78t77.5 31q47 0 78.5 -32t31.5 -77t-31.5 -76.5t-78.5 -31.5zM709 -25q-244 0 -409 162t-165 404v872h187v-868q0 -166 111 -277
q109 -112 276 -112q168 0 279 112q110 112 110 277v868h186v-872q0 -242 -164 -404q-165 -162 -411 -162z" />
    <glyph glyph-name="Yacute" unicode="&#xdd;" horiz-adv-x="1386" 
d="M799 1815h225l-250 -265h-188zM696 707l459 706h209l-578 -891v-522h-186v522l-577 891h213z" />
    <glyph glyph-name="Thorn" unicode="&#xde;" horiz-adv-x="1144" 
d="M354 1153h279q196 0 324 -127q128 -128 128 -317t-130 -316q-131 -129 -322 -129h-279v-264h-188v1413h188v-260zM354 440h277q113 0 188 77q74 77 74 192q0 114 -75 191t-187 77h-277v-537z" />
    <glyph glyph-name="germandbls" unicode="&#xdf;" horiz-adv-x="1087" 
d="M766 782q117 -38 189 -141q71 -104 71 -244q0 -180 -127 -301t-315 -121q-81 0 -144 25v172q57 -27 125 -27q121 0 201 78t80 195q0 121 -77 201q-76 79 -191 79h-99v168h86q96 0 160 67q63 66 63 165q0 100 -66 166q-68 65 -169 65q-99 0 -167 -65q-67 -66 -67 -166
v-1098h-176v1112q0 166 117 277q118 110 293 110q178 0 298 -111q120 -112 120 -274q0 -110 -56 -201q-57 -90 -149 -131z" />
    <glyph glyph-name="agrave" unicode="&#xe0;" horiz-adv-x="1339" 
d="M571 1446l211 -264h-186l-252 264h227zM1014 846v198h176v-1044h-176v199q-67 -106 -172.5 -165t-233.5 -59q-224 0 -372 157q-150 158 -150 391t150 390q148 156 372 156q128 0 233.5 -59t172.5 -164zM641 145q161 0 267 108q106 106 106 269t-106 270
q-107 107 -267 107q-161 0 -268 -107q-107 -109 -107 -270q0 -162 107 -269q107 -108 268 -108z" />
    <glyph glyph-name="aacute" unicode="&#xe1;" horiz-adv-x="1339" 
d="M780 1446h226l-250 -264h-189zM1014 846v198h176v-1044h-176v199q-67 -106 -172.5 -165t-233.5 -59q-224 0 -372 157q-150 158 -150 391t150 390q148 156 372 156q128 0 233.5 -59t172.5 -164zM641 145q161 0 267 108q106 106 106 269t-106 270q-107 107 -267 107
q-161 0 -268 -107q-107 -109 -107 -270q0 -162 107 -269q107 -108 268 -108z" />
    <glyph glyph-name="acircumflex" unicode="&#xe2;" horiz-adv-x="1339" 
d="M821 1182l-145 170l-146 -170h-168l205 264h215l207 -264h-168zM1014 846v198h176v-1044h-176v199q-67 -106 -172.5 -165t-233.5 -59q-224 0 -372 157q-150 158 -150 391t150 390q148 156 372 156q128 0 233.5 -59t172.5 -164zM641 145q161 0 267 108q106 106 106 269
t-106 270q-107 107 -267 107q-161 0 -268 -107q-107 -109 -107 -270q0 -162 107 -269q107 -108 268 -108z" />
    <glyph glyph-name="atilde" unicode="&#xe3;" horiz-adv-x="1339" 
d="M555 1307q-42 0 -71 -30t-29 -73h-127q0 103 56 173q56 69 151 69q69 0 143 -55q74 -56 115 -56q43 0 71.5 29t28.5 74h129q0 -105 -56 -175q-57 -69 -153 -69q-68 0 -142 57q-76 56 -116 56zM1014 846v198h176v-1044h-176v199q-67 -106 -172.5 -165t-233.5 -59
q-224 0 -372 157q-150 158 -150 391t150 390q148 156 372 156q128 0 233.5 -59t172.5 -164zM641 145q161 0 267 108q106 106 106 269t-106 270q-107 107 -267 107q-161 0 -268 -107q-107 -109 -107 -270q0 -162 107 -269q107 -108 268 -108z" />
    <glyph glyph-name="adieresis" unicode="&#xe4;" horiz-adv-x="1339" 
d="M463 1192q-46 0 -77.5 31t-31.5 78t31.5 77.5t77.5 30.5q47 0 78.5 -31.5t31.5 -76.5q0 -46 -31.5 -77.5t-78.5 -31.5zM966 1224q-32 -32 -79 -32t-78 31q-31 30 -31 78q0 47 31 78q31 30 78 30q48 0 79 -31q31 -32 31 -77.5t-31 -76.5zM1014 846v198h176v-1044h-176v199
q-67 -106 -172.5 -165t-233.5 -59q-224 0 -372 157q-150 158 -150 391t150 390q148 156 372 156q128 0 233.5 -59t172.5 -164zM641 145q161 0 267 108q106 106 106 269t-106 270q-107 107 -267 107q-161 0 -268 -107q-107 -109 -107 -270q0 -162 107 -269q107 -108 268 -108
z" />
    <glyph glyph-name="aring" unicode="&#xe5;" horiz-adv-x="1339" 
d="M801 1203q-52 -50 -127 -50t-127 50q-51 49 -51 126q0 75 51 124q52 50 127 50t127 -50q51 -49 51 -124q0 -77 -51 -126zM732 1388q-22 23 -57 23t-58 -23q-23 -25 -23 -59q0 -37 22.5 -60.5t57.5 -23.5t57.5 23.5t22.5 60.5q0 36 -22 59zM1014 846v198h176v-1044h-176
v199q-67 -106 -172.5 -165t-233.5 -59q-224 0 -372 157q-150 158 -150 391t150 390q148 156 372 156q128 0 233.5 -59t172.5 -164zM641 145q161 0 267 108q106 106 106 269t-106 270q-107 107 -267 107q-161 0 -268 -107q-107 -109 -107 -270q0 -162 107 -269
q107 -108 268 -108z" />
    <glyph glyph-name="ae" unicode="&#xe6;" horiz-adv-x="1949" 
d="M1874 528q0 -43 -4 -79h-920q22 -139 126 -225q102 -87 243 -87q117 0 208 55q92 54 132 142h194q-59 -163 -201 -260q-142 -99 -331 -99q-251 0 -412 177q-69 -82 -177.5 -129.5t-233.5 -47.5q-186 0 -301 100q-115 99 -115 249q0 154 116 253t291 99q164 0 281 -84v92
q0 102 -65 164q-65 61 -175 61q-93 0 -156 -46.5t-77 -123.5h-180q23 147 134 239q110 91 279 91q126 0 220 -51t143 -144q162 195 428 195q235 0 395 -158q158 -158 158 -383zM1561 823q-103 84 -242 84q-138 0 -239 -83t-128 -218h734q-22 132 -125 217zM526 131
q107 0 186 46q80 47 105 118q-24 56 -37 119q-31 48 -100 77t-154 29q-113 0 -187 -56q-75 -56 -75 -140q0 -82 75 -137q74 -56 187 -56z" />
    <glyph glyph-name="ccedilla" unicode="&#xe7;" horiz-adv-x="1259" 
d="M639 145q132 0 233 78q99 78 129 203h185q-28 -180 -163 -306q-132 -123 -325 -143l-41 -49h11q83 0 135 -55q53 -56 53 -139q0 -84 -60 -142q-62 -57 -151 -57q-90 0 -150 57q-61 58 -61 142h111q0 -41 29.5 -70t70.5 -29t70.5 29t29.5 70q0 42 -29 71t-71 29
q-44 0 -70 -29l-102 45l100 130q-214 22 -353 175q-138 151 -138 367q0 233 160 390q158 157 397 157q211 0 363 -126q151 -126 184 -325h-185q-32 126 -130 203q-99 78 -232 78q-161 0 -268 -107q-107 -109 -107 -270q0 -162 107 -269q107 -108 268 -108z" />
    <glyph glyph-name="egrave" unicode="&#xe8;" horiz-adv-x="1267" 
d="M535 1446l210 -264h-186l-252 264h228zM1192 522q0 -37 -4 -73h-918q22 -139 125 -225q101 -87 242 -87q117 0 208 55q92 54 132 142h194q-57 -162 -200 -260q-144 -99 -334 -99q-239 0 -396 157q-159 158 -159 391t159 390q157 156 396 156q238 0 396 -157
q159 -158 159 -390zM878 823q-102 84 -241 84q-138 0 -238 -83q-100 -82 -127 -218h732q-25 133 -126 217z" />
    <glyph glyph-name="eacute" unicode="&#xe9;" horiz-adv-x="1267" 
d="M741 1446h226l-250 -264h-189zM1192 522q0 -37 -4 -73h-918q22 -139 125 -225q101 -87 242 -87q117 0 208 55q92 54 132 142h194q-57 -162 -200 -260q-144 -99 -334 -99q-239 0 -396 157q-159 158 -159 391t159 390q157 156 396 156q238 0 396 -157q159 -158 159 -390z
M878 823q-102 84 -241 84q-138 0 -238 -83q-100 -82 -127 -218h732q-25 133 -126 217z" />
    <glyph glyph-name="ecircumflex" unicode="&#xea;" horiz-adv-x="1267" 
d="M782 1182l-145 170l-145 -170h-168l204 264h215l207 -264h-168zM1192 522q0 -37 -4 -73h-918q22 -139 125 -225q101 -87 242 -87q117 0 208 55q92 54 132 142h194q-57 -162 -200 -260q-144 -99 -334 -99q-239 0 -396 157q-159 158 -159 391t159 390q157 156 396 156
q238 0 396 -157q159 -158 159 -390zM878 823q-102 84 -241 84q-138 0 -238 -83q-100 -82 -127 -218h732q-25 133 -126 217z" />
    <glyph glyph-name="edieresis" unicode="&#xeb;" horiz-adv-x="1267" 
d="M503 1224q-32 -32 -79 -32t-78 31q-31 30 -31 78q0 47 31 78q32 30 78 30q48 0 79 -31q31 -32 31 -77.5t-31 -76.5zM848 1192q-46 0 -77.5 31t-31.5 78t31.5 77.5t77.5 30.5q47 0 78.5 -31.5t31.5 -76.5q0 -46 -31.5 -77.5t-78.5 -31.5zM1192 522q0 -37 -4 -73h-918
q22 -139 125 -225q101 -87 242 -87q117 0 208 55q92 54 132 142h194q-57 -162 -200 -260q-144 -99 -334 -99q-239 0 -396 157q-159 158 -159 391t159 390q157 156 396 156q238 0 396 -157q159 -158 159 -390zM878 823q-102 84 -241 84q-138 0 -238 -83q-100 -82 -127 -218
h732q-25 133 -126 217z" />
    <glyph glyph-name="igrave" unicode="&#xec;" horiz-adv-x="473" 
d="M344 1182h-186l-252 264h227zM326 0h-176v1044h176v-1044z" />
    <glyph glyph-name="iacute" unicode="&#xed;" horiz-adv-x="473" 
d="M317 1182h-188l213 264h225zM326 0h-176v1044h176v-1044z" />
    <glyph glyph-name="icircumflex" unicode="&#xee;" horiz-adv-x="473" 
d="M129 1446h215l207 -264h-168l-145 170l-146 -170h-168zM326 0h-176v1044h176v-1044z" />
    <glyph glyph-name="idieresis" unicode="&#xef;" horiz-adv-x="473" 
d="M25 1192q-46 0 -77.5 31t-31.5 78t31.5 77.5t77.5 30.5q47 0 78.5 -31.5t31.5 -76.5q0 -46 -31.5 -77.5t-78.5 -31.5zM528 1224q-32 -32 -79 -32q-48 0 -78 31q-31 30 -31 78q0 47 31 78q30 30 78 30t79 -31q31 -32 31 -77.5t-31 -76.5zM326 0h-176v1044h176v-1044z" />
    <glyph glyph-name="eth" unicode="&#xf0;" horiz-adv-x="1239" 
d="M844 1485l-144 -142q211 -130 334 -349q121 -217 121 -464q0 -251 -151 -402q-152 -153 -383 -153q-232 0 -387 152q-154 151 -154 379q0 225 149 377q148 151 363 151q174 0 311 -116q-118 198 -321 307l-97 -95h-141l141 138q-89 35 -194 51v166q173 -19 321 -92l93 92
h139zM618 145q151 0 255 104q102 103 102 255q0 154 -102 256q-103 102 -255 102q-154 0 -255 -102q-101 -104 -101 -256q0 -153 101 -256q100 -103 255 -103z" />
    <glyph glyph-name="ntilde" unicode="&#xf1;" horiz-adv-x="1261" 
d="M518 1307q-42 0 -71 -30t-29 -73h-127q0 103 56 173q55 69 151 69q69 0 143 -55q74 -56 115 -56q43 0 71.5 29t28.5 74h129q0 -105 -56 -175q-57 -69 -153 -69q-68 0 -142 57q-76 56 -116 56zM702 1069q191 0 307 -115q117 -116 117 -309v-645h-176v590q0 138 -83 224
q-82 85 -222 85q-142 0 -231 -86q-88 -85 -88 -227v-586h-176v1044h176v-167q124 192 376 192z" />
    <glyph glyph-name="ograve" unicode="&#xf2;" horiz-adv-x="1275" 
d="M745 1182h-186l-252 264h228zM1036 132q-158 -157 -397 -157t-397 157q-160 157 -160 391q0 233 160 390q159 156 397 156t397 -156q158 -158 158 -390q0 -233 -158 -391zM639 145q161 0 267 108q106 106 106 269t-106 270q-107 107 -267 107q-161 0 -268 -107
q-107 -109 -107 -270q0 -162 107 -269q107 -108 268 -108z" />
    <glyph glyph-name="oacute" unicode="&#xf3;" horiz-adv-x="1275" 
d="M719 1182h-189l213 264h226zM1036 132q-158 -157 -397 -157t-397 157q-160 157 -160 391q0 233 160 390q159 156 397 156t397 -156q158 -158 158 -390q0 -233 -158 -391zM639 145q161 0 267 108q106 106 106 269t-106 270q-107 107 -267 107q-161 0 -268 -107
q-107 -109 -107 -270q0 -162 107 -269q107 -108 268 -108z" />
    <glyph glyph-name="ocircumflex" unicode="&#xf4;" horiz-adv-x="1275" 
d="M784 1182l-145 170l-145 -170h-168l204 264h215l207 -264h-168zM242 913q159 156 397 156t397 -156q158 -158 158 -390q0 -233 -158 -391q-158 -157 -397 -157t-397 157q-160 157 -160 391q0 233 160 390zM639 145q161 0 267 108q106 106 106 269t-106 270
q-107 107 -267 107q-161 0 -268 -107q-107 -109 -107 -270q0 -162 107 -269q107 -108 268 -108z" />
    <glyph glyph-name="otilde" unicode="&#xf5;" horiz-adv-x="1275" 
d="M776 1194q-68 0 -142 57q-76 56 -116 56q-42 0 -71 -30t-29 -73h-127q0 103 56 173q55 69 151 69q69 0 143 -55q74 -56 115 -56q43 0 71.5 29t28.5 74h129q0 -105 -56 -175q-57 -69 -153 -69zM1036 132q-158 -157 -397 -157t-397 157q-160 157 -160 391q0 233 160 390
q159 156 397 156t397 -156q158 -158 158 -390q0 -233 -158 -391zM639 145q161 0 267 108q106 106 106 269t-106 270q-107 107 -267 107q-161 0 -268 -107q-107 -109 -107 -270q0 -162 107 -269q107 -108 268 -108z" />
    <glyph glyph-name="odieresis" unicode="&#xf6;" horiz-adv-x="1275" 
d="M426 1192q-46 0 -77.5 31t-31.5 78t31.5 77.5t77.5 30.5q47 0 79 -31.5t32 -76.5q0 -46 -32 -77.5t-79 -31.5zM929 1224q-32 -32 -79 -32t-78 31q-31 30 -31 78q0 47 31 78q32 30 78 30q48 0 79 -31q31 -32 31 -77.5t-31 -76.5zM1036 132q-158 -157 -397 -157t-397 157
q-160 157 -160 391q0 233 160 390q159 156 397 156t397 -156q158 -158 158 -390q0 -233 -158 -391zM639 145q161 0 267 108q106 106 106 269t-106 270q-107 107 -267 107q-161 0 -268 -107q-107 -109 -107 -270q0 -162 107 -269q107 -108 268 -108z" />
    <glyph glyph-name="divide" unicode="&#xf7;" horiz-adv-x="1093" 
d="M623 861q-31 -30 -76 -30t-76 30t-31 75t31 75q32 29 76 29t76 -29q30 -30 30 -75t-30 -75zM965 532h-836v146h836v-146zM623 200q-31 -30 -76 -30t-76 30q-31 28 -31 74q0 45 31 75t76 30t76 -30q30 -30 30 -75q0 -46 -30 -74z" />
    <glyph glyph-name="oslash" unicode="&#xf8;" horiz-adv-x="1275" 
d="M1171 1044l-127 -141q150 -156 150 -381q0 -232 -158 -390q-158 -157 -397 -157q-189 0 -332 103l-69 -78h-134l127 141q-150 157 -149 381q0 233 160 390q158 157 397 157q187 0 330 -102l69 77h133zM264 522q0 -141 86 -248l502 562q-92 63 -213 63q-161 0 -268 -107
q-107 -109 -107 -270zM639 145q161 0 267 108q106 106 106 269q0 141 -86 248l-502 -561q91 -64 215 -64z" />
    <glyph glyph-name="ugrave" unicode="&#xf9;" horiz-adv-x="1228" 
d="M504 1446l211 -264h-187l-252 264h228zM903 442v602h176v-1044h-176v164q-121 -188 -360 -189q-182 0 -295 113t-113 299v657h176v-606q0 -134 78 -213q78 -80 209 -80q138 0 221 82q84 83 84 215z" />
    <glyph glyph-name="uacute" unicode="&#xfa;" horiz-adv-x="1228" 
d="M713 1446h225l-250 -264h-188zM903 442v602h176v-1044h-176v164q-121 -188 -360 -189q-182 0 -295 113t-113 299v657h176v-606q0 -134 78 -213q78 -80 209 -80q138 0 221 82q84 83 84 215z" />
    <glyph glyph-name="ucircumflex" unicode="&#xfb;" horiz-adv-x="1228" 
d="M754 1182l-146 170l-145 -170h-168l205 264h215l207 -264h-168zM903 442v602h176v-1044h-176v164q-121 -188 -360 -189q-182 0 -295 113t-113 299v657h176v-606q0 -134 78 -213q78 -80 209 -80q138 0 221 82q84 83 84 215z" />
    <glyph glyph-name="udieresis" unicode="&#xfc;" horiz-adv-x="1228" 
d="M474 1224q-32 -32 -79 -32t-77 31q-31 30 -31 78q0 47 31 78q30 30 77 30q48 0 79 -31q32 -32 32 -77.5t-32 -76.5zM819 1192q-46 0 -77 31t-31 78t31 77.5t77 30.5q47 0 79 -31.5t32 -76.5q0 -46 -32 -77.5t-79 -31.5zM903 442v602h176v-1044h-176v164
q-121 -188 -360 -189q-182 0 -295 113t-113 299v657h176v-606q0 -134 78 -213q78 -80 209 -80q138 0 221 82q84 83 84 215z" />
    <glyph glyph-name="yacute" unicode="&#xfd;" horiz-adv-x="1163" 
d="M690 1446h225l-249 -264h-189zM584 211l352 833h197l-629 -1433h-191l174 393l-456 1040h200z" />
    <glyph glyph-name="thorn" unicode="&#xfe;" horiz-adv-x="1339" 
d="M731 1069q222 0 374 -156q150 -157 150 -390t-150 -391q-151 -157 -374 -157q-128 0 -233.5 59t-171.5 165v-588h-176v1864h176v-629q67 105 172 164t233 59zM698 145q162 0 269 108q106 106 106 269t-106 270q-107 107 -269 107q-159 0 -266 -107q-106 -107 -106 -270
t106 -269q106 -108 266 -108z" />
    <glyph glyph-name="ydieresis" unicode="&#xff;" horiz-adv-x="1163" 
d="M373 1192q-46 0 -77.5 31t-31.5 78t31.5 77.5t77.5 30.5q47 0 78.5 -31.5t31.5 -76.5q0 -46 -31.5 -77.5t-78.5 -31.5zM876 1224q-32 -32 -79 -32t-78 31q-31 30 -31 78q0 47 31 78q31 30 78 30q48 0 79 -31q31 -32 31 -77.5t-31 -76.5zM584 211l352 833h197l-629 -1433
h-191l174 393l-456 1040h200z" />
    <glyph glyph-name="Amacron" unicode="&#x100;" horiz-adv-x="1460" 
d="M485 1731h486v-150h-486v150zM1417 0h-207l-137 342h-692l-137 -342h-201l575 1413h224zM727 1210l-276 -694h553z" />
    <glyph glyph-name="amacron" unicode="&#x101;" horiz-adv-x="1339" 
d="M432 1362h486v-150h-486v150zM1014 846v198h176v-1044h-176v199q-67 -106 -172.5 -165t-233.5 -59q-224 0 -372 157q-150 158 -150 391t150 390q148 156 372 156q128 0 233.5 -59t172.5 -164zM641 145q161 0 267 108q106 106 106 269t-106 270q-107 107 -267 107
q-161 0 -268 -107q-107 -109 -107 -270q0 -162 107 -269q107 -108 268 -108z" />
    <glyph glyph-name="Abreve" unicode="&#x102;" horiz-adv-x="1460" 
d="M931 1608q-81 -78 -202 -78t-202 78t-81 194h140q0 -60 41 -103q41 -42 103 -42t102 42q40 41 40 103h140q0 -118 -81 -194zM1417 0h-207l-137 342h-692l-137 -342h-201l575 1413h224zM727 1210l-276 -694h553z" />
    <glyph glyph-name="abreve" unicode="&#x103;" horiz-adv-x="1339" 
d="M876 1239q-81 -78 -202 -78t-202 78t-81 195h139q0 -60 41 -103q40 -43 103 -43q62 0 102 42q41 43 41 104h139q0 -117 -80 -195zM1014 846v198h176v-1044h-176v199q-67 -106 -172.5 -165t-233.5 -59q-224 0 -372 157q-150 158 -150 391t150 390q148 156 372 156
q128 0 233.5 -59t172.5 -164zM641 145q161 0 267 108q106 106 106 269t-106 270q-107 107 -267 107q-161 0 -268 -107q-107 -109 -107 -270q0 -162 107 -269q107 -108 268 -108z" />
    <glyph glyph-name="Aogonek" unicode="&#x104;" horiz-adv-x="1460" 
d="M1309 -328q71 0 129 47v-131q-70 -45 -164 -45q-92 0 -154 57q-63 59 -63 142q0 80 55.5 148t151.5 110h-54l-137 342h-692l-137 -342h-201l575 1413h224l575 -1413h-2q-217 -96 -217 -221q0 -47 31.5 -77t79.5 -30zM727 1210l-276 -694h553z" />
    <glyph glyph-name="aogonek" unicode="&#x105;" horiz-adv-x="1339" 
d="M1083 -328q71 0 129 47v-131q-70 -45 -163 -45q-92 0 -155 57q-63 58 -63 142q0 79 56 147.5t151 110.5h-24v199q-67 -106 -172.5 -165t-233.5 -59q-224 0 -372 157q-150 158 -150 391t150 390q148 156 372 156q128 0 233.5 -59t172.5 -164v198h176v-1044
q-217 -96 -217 -221q0 -47 31 -77t79 -30zM641 145q161 0 267 108q106 106 106 269t-106 270q-107 107 -267 107q-161 0 -268 -107q-107 -109 -107 -270q0 -162 107 -269q107 -108 268 -108z" />
    <glyph glyph-name="Cacute" unicode="&#x106;" horiz-adv-x="1642" 
d="M911 1550h-188l213 265h225zM831 -25q-315 0 -527 210t-212 522q0 311 212 521t527 210q282 0 484 -169q203 -170 246 -433h-195q-40 185 -188 304q-148 117 -347 117q-233 0 -389 -157q-157 -157 -157 -393t157 -393q156 -158 389 -158q199 0 347 118t188 304h195
q-43 -263 -246 -433t-484 -170z" />
    <glyph glyph-name="cacute" unicode="&#x107;" horiz-adv-x="1259" 
d="M719 1182h-189l213 264h226zM639 -25q-239 0 -397 157q-160 157 -160 391q0 233 160 390q159 156 397 156q211 0 363 -126q151 -126 184 -325h-185q-32 126 -130 203q-99 78 -232 78q-161 0 -268 -107q-107 -109 -107 -270q0 -162 107 -269q107 -108 268 -108
q132 0 233 78q99 78 129 203h185q-33 -199 -184 -325q-152 -126 -363 -126z" />
    <glyph glyph-name="Ccircumflex" unicode="&#x108;" horiz-adv-x="1642" 
d="M977 1550l-146 170l-145 -170h-168l205 265h215l207 -265h-168zM831 156q199 0 347 118t188 304h195q-43 -263 -246 -433t-484 -170q-315 0 -527 210t-212 522q0 311 212 521t527 210q282 0 484 -169q203 -170 246 -433h-195q-40 185 -188 304q-148 117 -347 117
q-233 0 -389 -157q-157 -157 -157 -393t157 -393q156 -158 389 -158z" />
    <glyph glyph-name="ccircumflex" unicode="&#x109;" horiz-adv-x="1259" 
d="M784 1182l-145 170l-145 -170h-168l204 264h215l207 -264h-168zM639 145q132 0 233 78q99 78 129 203h185q-33 -199 -184 -325q-152 -126 -363 -126q-239 0 -397 157q-160 157 -160 391q0 233 160 390q159 156 397 156q211 0 363 -126q151 -126 184 -325h-185
q-32 126 -130 203q-99 78 -232 78q-161 0 -268 -107q-107 -109 -107 -270q0 -162 107 -269q107 -108 268 -108z" />
    <glyph glyph-name="Cdotaccent" unicode="&#x10a;" horiz-adv-x="1642" 
d="M834 1561q-49 0 -82 32.5t-33 79.5q0 48 32.5 80.5t82.5 32.5q47 0 79.5 -33t32.5 -80t-32.5 -79.5t-79.5 -32.5zM831 -25q-315 0 -527 210t-212 522q0 311 212 521t527 210q282 0 484 -169q203 -170 246 -433h-195q-40 185 -188 304q-148 117 -347 117q-233 0 -389 -157
q-157 -157 -157 -393t157 -393q156 -158 389 -158q199 0 347 118t188 304h195q-43 -263 -246 -433t-484 -170z" />
    <glyph glyph-name="cdotaccent" unicode="&#x10b;" horiz-adv-x="1259" 
d="M639 1192q-49 0 -82 32.5t-33 80.5q0 47 33 79.5t82 32.5q47 0 80 -32.5t33 -79.5q0 -48 -33 -80.5t-80 -32.5zM639 -25q-239 0 -397 157q-160 157 -160 391q0 233 160 390q159 156 397 156q211 0 363 -126q151 -126 184 -325h-185q-32 126 -130 203q-99 78 -232 78
q-161 0 -268 -107q-107 -109 -107 -270q0 -162 107 -269q107 -108 268 -108q132 0 233 78q99 78 129 203h185q-33 -199 -184 -325q-152 -126 -363 -126z" />
    <glyph glyph-name="Ccaron" unicode="&#x10c;" horiz-adv-x="1642" 
d="M1145 1815l-207 -265h-215l-205 265h168l145 -170l146 170h168zM831 156q199 0 347 118t188 304h195q-43 -263 -246 -433t-484 -170q-315 0 -527 210t-212 522q0 311 212 521t527 210q282 0 484 -169q203 -170 246 -433h-195q-40 185 -188 304q-148 117 -347 117
q-233 0 -389 -157q-157 -157 -157 -393t157 -393q156 -158 389 -158z" />
    <glyph glyph-name="ccaron" unicode="&#x10d;" horiz-adv-x="1259" 
d="M952 1446l-207 -264h-215l-204 264h168l145 -170l145 170h168zM639 145q132 0 233 78q99 78 129 203h185q-33 -199 -184 -325q-152 -126 -363 -126q-239 0 -397 157q-160 157 -160 391q0 233 160 390q159 156 397 156q211 0 363 -126q151 -126 184 -325h-185
q-32 126 -130 203q-99 78 -232 78q-161 0 -268 -107q-107 -109 -107 -270q0 -162 107 -269q107 -108 268 -108z" />
    <glyph glyph-name="Dcaron" unicode="&#x10e;" horiz-adv-x="1517" 
d="M1055 1815l-207 -265h-215l-205 265h168l145 -170l146 170h168zM166 1413h545q307 0 512 -201q204 -202 204 -505q0 -304 -204 -505q-205 -202 -512 -202h-545v1413zM354 176h355q224 0 376 152q150 151 150 379t-150 379q-151 151 -376 151h-355v-1061z" />
    <glyph glyph-name="dcaron" unicode="&#x10f;" horiz-adv-x="1484" 
d="M1012 844v631h176v-1475h-176v201q-67 -107 -172.5 -166.5t-235.5 -59.5q-224 0 -372 157q-150 158 -150 391t150 390q148 156 372 156q130 0 235.5 -59t172.5 -166zM1319 1063l43 412h164l-74 -412h-133zM639 145q161 0 267 108q106 106 106 269t-106 270
q-107 107 -267 107q-161 0 -268 -107q-107 -109 -107 -270q0 -162 107 -269q107 -108 268 -108z" />
    <glyph glyph-name="Dcroat" unicode="&#x110;" horiz-adv-x="1517" 
d="M166 1413h545q307 0 512 -201q204 -202 204 -505q0 -304 -204 -505q-205 -202 -512 -202h-545v643h-143v129h143v641zM354 176h355q224 0 376 152q150 151 150 379t-150 379q-151 151 -376 151h-355v-465h262v-129h-262v-467z" />
    <glyph glyph-name="dslash" unicode="&#x111;" horiz-adv-x="1339" 
d="M1190 1311h149v-129h-149v-1182h-176v199q-67 -106 -172.5 -165t-233.5 -59q-224 0 -372 157q-150 158 -150 391t150 390q148 156 372 156q128 0 233.5 -59t172.5 -164v336h-269v129h269v164h176v-164zM641 145q161 0 267 108q106 106 106 269t-106 270
q-107 107 -267 107q-161 0 -268 -107q-107 -109 -107 -270q0 -162 107 -269q107 -108 268 -108z" />
    <glyph glyph-name="Emacron" unicode="&#x112;" horiz-adv-x="1050" 
d="M313 1731h486v-150h-486v150zM354 623v-447h604v-176h-792v1413h782v-176h-594v-438h527v-176h-527z" />
    <glyph glyph-name="emacron" unicode="&#x113;" horiz-adv-x="1267" 
d="M393 1362h486v-150h-486v150zM1192 522q0 -37 -4 -73h-918q22 -139 125 -225q101 -87 242 -87q117 0 208 55q92 54 132 142h194q-57 -162 -200 -260q-144 -99 -334 -99q-239 0 -396 157q-159 158 -159 391t159 390q157 156 396 156q238 0 396 -157q159 -158 159 -390z
M878 823q-102 84 -241 84q-138 0 -238 -83q-100 -82 -127 -218h732q-25 133 -126 217z" />
    <glyph glyph-name="Ebreve" unicode="&#x114;" horiz-adv-x="1050" 
d="M759 1608q-81 -78 -202 -78t-202 78t-81 194h140q0 -60 41 -103q41 -42 102 -42t102 42q41 43 41 103h140q0 -118 -81 -194zM354 623v-447h604v-176h-792v1413h782v-176h-594v-438h527v-176h-527z" />
    <glyph glyph-name="ebreve" unicode="&#x115;" horiz-adv-x="1267" 
d="M839 1239q-81 -78 -202 -78t-202 78t-81 195h140q0 -60 41 -103q40 -43 102 -43q61 0 102 42q41 43 41 104h140q0 -117 -81 -195zM1192 522q0 -37 -4 -73h-918q22 -139 125 -225q101 -87 242 -87q117 0 208 55q92 54 132 142h194q-57 -162 -200 -260q-144 -99 -334 -99
q-239 0 -396 157q-159 158 -159 391t159 390q157 156 396 156q238 0 396 -157q159 -158 159 -390zM878 823q-102 84 -241 84q-138 0 -238 -83q-100 -82 -127 -218h732q-25 133 -126 217z" />
    <glyph glyph-name="Edotaccent" unicode="&#x116;" horiz-adv-x="1050" 
d="M557 1561q-49 0 -82 32.5t-33 79.5t33 80t82 33q47 0 80 -33t33 -80t-33 -79.5t-80 -32.5zM354 623v-447h604v-176h-792v1413h782v-176h-594v-438h527v-176h-527z" />
    <glyph glyph-name="edotaccent" unicode="&#x117;" horiz-adv-x="1267" 
d="M639 1192q-49 0 -82 32.5t-33 80.5q0 47 33 79.5t82 32.5q47 0 80 -32.5t33 -79.5q0 -48 -33 -80.5t-80 -32.5zM1192 522q0 -37 -4 -73h-918q22 -139 125 -225q101 -87 242 -87q117 0 208 55q92 54 132 142h194q-57 -162 -200 -260q-144 -99 -334 -99q-239 0 -396 157
q-159 158 -159 391t159 390q157 156 396 156q238 0 396 -157q159 -158 159 -390zM878 823q-102 84 -241 84q-138 0 -238 -83q-100 -82 -127 -218h732q-25 133 -126 217z" />
    <glyph glyph-name="Eogonek" unicode="&#x118;" horiz-adv-x="1050" 
d="M831 -328q71 0 130 47v-131q-71 -45 -164 -45t-154 57q-63 58 -63 142q0 79 55.5 147.5t150.5 110.5h-620v1413h782v-176h-594v-438h527v-176h-527v-447h604v-176h-20q-217 -96 -217 -221q0 -47 31 -77t79 -30z" />
    <glyph glyph-name="eogonek" unicode="&#x119;" horiz-adv-x="1267" 
d="M1192 522q0 -37 -4 -73h-918q22 -139 125 -225q101 -87 242 -87q117 0 208 55q92 54 132 142h194q-82 -231 -319 -322q-145 -111 -145 -223q0 -51 33.5 -84t82.5 -33q79 0 135 62v-135q-60 -54 -174 -56q-94 0 -158 60q-65 62 -65 151q0 120 105 221h-29q-239 0 -396 157
q-159 158 -159 391t159 390q157 156 396 156q238 0 396 -157q159 -158 159 -390zM878 823q-102 84 -241 84q-138 0 -238 -83q-100 -82 -127 -218h732q-25 133 -126 217z" />
    <glyph glyph-name="Ecaron" unicode="&#x11a;" horiz-adv-x="1050" 
d="M870 1815l-206 -265h-215l-205 265h168l145 -170l145 170h168zM354 623v-447h604v-176h-792v1413h782v-176h-594v-438h527v-176h-527z" />
    <glyph glyph-name="ecaron" unicode="&#x11b;" horiz-adv-x="1267" 
d="M950 1446l-207 -264h-215l-204 264h168l145 -170l145 170h168zM1192 522q0 -37 -4 -73h-918q22 -139 125 -225q101 -87 242 -87q117 0 208 55q92 54 132 142h194q-57 -162 -200 -260q-144 -99 -334 -99q-239 0 -396 157q-159 158 -159 391t159 390q157 156 396 156
q238 0 396 -157q159 -158 159 -390zM878 823q-102 84 -241 84q-138 0 -238 -83q-100 -82 -127 -218h732q-25 133 -126 217z" />
    <glyph glyph-name="Gcircumflex" unicode="&#x11c;" horiz-adv-x="1644" 
d="M977 1550l-146 170l-145 -170h-168l205 265h215l207 -265h-168zM858 582v170h705v-62q-6 -306 -215 -511q-208 -204 -517 -204q-315 0 -527 210t-212 522q0 311 212 521t527 210q253 0 444 -136q192 -137 253 -354h-207q-61 141 -192 225q-132 84 -298 84
q-233 0 -389 -157q-157 -157 -157 -393t157 -393q156 -158 389 -158q202 0 351 119q148 119 182 307h-506z" />
    <glyph glyph-name="gcircumflex" unicode="&#x11d;" horiz-adv-x="1337" 
d="M817 1182l-145 170l-146 -170h-168l205 264h215l207 -264h-168zM1016 848v196h176v-931q0 -237 -146 -383q-147 -144 -387 -144q-204 0 -340 103q-137 104 -182 286h182q32 -106 122 -166q91 -61 218 -61q163 0 260 100t97 267v100q-67 -103 -172.5 -161t-235.5 -58
q-224 0 -372 153q-150 151 -150 383q0 228 150 383q148 154 372 154q127 0 234 -59t174 -162zM643 156q161 0 267 108q106 106 106 268q0 161 -106 268q-107 107 -267 107q-161 0 -268 -107q-107 -109 -107 -268q0 -162 107 -269t268 -107z" />
    <glyph glyph-name="Gbreve" unicode="&#x11e;" horiz-adv-x="1644" 
d="M1033 1608q-81 -78 -201 -78q-121 0 -202 78t-81 194h139q0 -60 41 -103q41 -42 103 -42t102 42q41 43 41 103h139q0 -118 -81 -194zM858 582v170h705v-62q-6 -306 -215 -511q-208 -204 -517 -204q-315 0 -527 210t-212 522q0 311 212 521t527 210q253 0 444 -136
q192 -137 253 -354h-207q-61 141 -192 225q-132 84 -298 84q-233 0 -389 -157q-157 -157 -157 -393t157 -393q156 -158 389 -158q202 0 351 119q148 119 182 307h-506z" />
    <glyph glyph-name="gbreve" unicode="&#x11f;" horiz-adv-x="1337" 
d="M874 1239q-81 -78 -202 -78t-202 78t-81 195h139q0 -60 41 -103q40 -43 103 -43q62 0 102 42q41 43 41 104h139q0 -117 -80 -195zM1016 848v196h176v-931q0 -237 -146 -383q-147 -144 -387 -144q-204 0 -340 103q-137 104 -182 286h182q32 -106 122 -166q91 -61 218 -61
q163 0 260 100t97 267v100q-67 -103 -172.5 -161t-235.5 -58q-224 0 -372 153q-150 151 -150 383q0 228 150 383q148 154 372 154q127 0 234 -59t174 -162zM643 156q161 0 267 108q106 106 106 268q0 161 -106 268q-107 107 -267 107q-161 0 -268 -107q-107 -109 -107 -268
q0 -162 107 -269t268 -107z" />
    <glyph glyph-name="Gdotaccent" unicode="&#x120;" horiz-adv-x="1644" 
d="M834 1561q-49 0 -82 32.5t-33 79.5q0 48 32.5 80.5t82.5 32.5q47 0 79.5 -33t32.5 -80t-32.5 -79.5t-79.5 -32.5zM858 582v170h705v-62q-6 -306 -215 -511q-208 -204 -517 -204q-315 0 -527 210t-212 522q0 311 212 521t527 210q253 0 444 -136q192 -137 253 -354h-207
q-61 141 -192 225q-132 84 -298 84q-233 0 -389 -157q-157 -157 -157 -393t157 -393q156 -158 389 -158q202 0 351 119q148 119 182 307h-506z" />
    <glyph glyph-name="gdotaccent" unicode="&#x121;" horiz-adv-x="1337" 
d="M672 1192q-49 0 -82 32.5t-33 80.5q0 47 33 79.5t82 32.5q47 0 79.5 -32.5t32.5 -79.5q0 -48 -32.5 -80.5t-79.5 -32.5zM1016 848v196h176v-931q0 -237 -146 -383q-147 -144 -387 -144q-204 0 -340 103q-137 104 -182 286h182q32 -106 122 -166q91 -61 218 -61
q163 0 260 100t97 267v100q-67 -103 -172.5 -161t-235.5 -58q-224 0 -372 153q-150 151 -150 383q0 228 150 383q148 154 372 154q127 0 234 -59t174 -162zM643 156q161 0 267 108q106 106 106 268q0 161 -106 268q-107 107 -267 107q-161 0 -268 -107q-107 -109 -107 -268
q0 -162 107 -269t268 -107z" />
    <glyph glyph-name="uni0122" unicode="&#x122;" horiz-adv-x="1644" 
d="M858 582v170h705v-62q-6 -306 -215 -511q-208 -204 -517 -204q-315 0 -527 210t-212 522q0 311 212 521t527 210q253 0 444 -136q192 -137 253 -354h-207q-61 141 -192 225q-132 84 -298 84q-233 0 -389 -157q-157 -157 -157 -393t157 -393q156 -158 389 -158
q202 0 351 119q148 119 182 307h-506zM838 -451h-146l72 316h184z" />
    <glyph glyph-name="uni0123" unicode="&#x123;" horiz-adv-x="1337" 
d="M653 1485h146l-72 -316h-184zM1016 848v196h176v-931q0 -237 -146 -383q-147 -144 -387 -144q-204 0 -340 103q-137 104 -182 286h182q32 -106 122 -166q91 -61 218 -61q163 0 260 100t97 267v100q-67 -103 -172.5 -161t-235.5 -58q-224 0 -372 153q-150 151 -150 383
q0 228 150 383q148 154 372 154q127 0 234 -59t174 -162zM643 156q161 0 267 108q106 106 106 268q0 161 -106 268q-107 107 -267 107q-161 0 -268 -107q-107 -109 -107 -268q0 -162 107 -269t268 -107z" />
    <glyph glyph-name="Hcircumflex" unicode="&#x124;" horiz-adv-x="1495" 
d="M895 1550l-145 170l-146 -170h-168l205 265h215l207 -265h-168zM1141 799v614h188v-1413h-188v623h-787v-623h-188v1413h188v-614h787z" />
    <glyph glyph-name="hcircumflex" unicode="&#x125;" horiz-adv-x="1261" 
d="M551 1569h-168l-145 170l-146 -170h-168l205 264h215zM702 1069q191 0 307 -115q117 -116 117 -309v-645h-176v590q0 138 -83 224q-82 85 -222 85q-142 0 -231 -86q-88 -85 -88 -227v-586h-176v1475h176v-605q124 199 376 199z" />
    <glyph glyph-name="Hbar" unicode="&#x126;" horiz-adv-x="1495" 
d="M1329 1174h117v-132h-117v-1042h-188v623h-787v-623h-188v1042h-115v132h115v239h188v-239h787v239h188v-239zM354 799h787v243h-787v-243z" />
    <glyph glyph-name="hbar" unicode="&#x127;" horiz-adv-x="1261" 
d="M702 1069q191 0 307 -115q117 -116 117 -309v-645h-176v590q0 138 -83 224q-82 85 -222 85q-142 0 -231 -86q-88 -85 -88 -227v-586h-176v1182h-150v129h150v164h176v-164h268v-129h-268v-312q124 199 376 199z" />
    <glyph glyph-name="Itilde" unicode="&#x128;" horiz-adv-x="520" 
d="M399 1563q-68 0 -142 56q-76 56 -116 56q-43 0 -71.5 -29.5t-28.5 -72.5h-127q0 103 56 173q57 69 151 69q69 0 143 -55q74 -56 115 -56q43 0 71.5 28.5t28.5 73.5h129q0 -106 -56 -174q-57 -69 -153 -69zM354 0h-188v1413h188v-1413z" />
    <glyph glyph-name="itilde" unicode="&#x129;" horiz-adv-x="473" 
d="M375 1194q-69 0 -142 57q-76 56 -116 56q-43 0 -72 -30t-29 -73h-127q0 103 56 173q57 69 151 69q69 0 143 -55q74 -56 115 -56q43 0 72 29t29 74h129q0 -105 -56 -175q-57 -69 -153 -69zM326 0h-176v1044h176v-1044z" />
    <glyph glyph-name="Imacron" unicode="&#x12a;" horiz-adv-x="520" 
d="M504 1581h-486v150h486v-150zM354 0h-188v1413h188v-1413z" />
    <glyph glyph-name="imacron" unicode="&#x12b;" horiz-adv-x="473" 
d="M479 1212h-485v150h485v-150zM326 0h-176v1044h176v-1044z" />
    <glyph glyph-name="Ibreve" unicode="&#x12c;" horiz-adv-x="520" 
d="M462 1608q-81 -78 -202 -78t-202 78t-81 194h140q0 -60 41 -103q40 -42 103 -42q61 0 102 42q40 41 40 103h140q0 -118 -81 -194zM354 0h-188v1413h188v-1413z" />
    <glyph glyph-name="ibreve" unicode="&#x12d;" horiz-adv-x="473" 
d="M439 1239q-81 -78 -201 -78q-121 0 -202 78t-81 195h139q0 -60 41 -103q40 -43 103 -43q62 0 102 42q41 43 41 104h139q0 -117 -81 -195zM326 0h-176v1044h176v-1044z" />
    <glyph glyph-name="Iogonek" unicode="&#x12e;" horiz-adv-x="520" 
d="M246 -328q71 0 129 47v-131q-71 -45 -164 -45q-92 0 -154 57q-63 58 -63 142q0 80 55.5 148t151.5 110h-35v1413h188v-1413h-2q-217 -96 -217 -221q0 -47 31.5 -77t79.5 -30z" />
    <glyph glyph-name="iogonek" unicode="&#x12f;" horiz-adv-x="473" 
d="M238 1192q-49 0 -82 32.5t-33 80.5t32.5 80t82.5 32q47 0 79.5 -32.5t32.5 -79.5q0 -48 -32.5 -80.5t-79.5 -32.5zM106 -221q0 -47 31.5 -77t79.5 -30q71 0 129 47v-131q-71 -45 -164 -45q-92 0 -154 57q-63 58 -63 142q0 79 56 147.5t151 110.5h-22v1044h176v-1044h-2
q-218 -96 -218 -221z" />
    <glyph glyph-name="Idot" unicode="&#x130;" horiz-adv-x="520" 
d="M262 1561q-49 0 -82 32.5t-33 79.5t33 80t82 33q47 0 80 -33t33 -80t-33 -79.5t-80 -32.5zM354 0h-188v1413h188v-1413z" />
    <glyph glyph-name="dotlessi" unicode="&#x131;" horiz-adv-x="473" 
d="M326 0h-176v1044h176v-1044z" />
    <glyph glyph-name="IJ" unicode="&#x132;" horiz-adv-x="1626" 
d="M354 0h-188v1413h188v-1413zM1034 -25q-197 0 -328 128t-131 321h193q0 -114 77 -191t192 -77q114 0 191 77t77 191v989h188v-989q0 -194 -132 -321q-133 -128 -327 -128z" />
    <glyph glyph-name="ij" unicode="&#x133;" horiz-adv-x="958" 
d="M238 1253q-51 0 -85 34t-34 83q0 51 33.5 84t85.5 33q49 0 82.5 -33t33.5 -84q0 -49 -33.5 -83t-82.5 -34zM721 1253q-49 0 -83 34t-34 83q0 50 34 83.5t83 33.5q51 0 85 -33t34 -84q0 -49 -34 -83t-85 -34zM326 0h-176v1044h176v-1044zM436 -414v162q197 0 197 193v1103
h176v-1114q0 -344 -373 -344z" />
    <glyph glyph-name="Jcircumflex" unicode="&#x134;" horiz-adv-x="1105" 
d="M770 1815h215l207 -265h-168l-145 170l-146 -170h-168zM784 424v989h189v-989q0 -194 -132 -321q-133 -128 -327 -128q-197 0 -328 128t-131 321h193q0 -114 77 -191t191 -77q115 0 192 77q76 76 76 191z" />
    <glyph glyph-name="jcircumflex" unicode="&#x135;" horiz-adv-x="485" 
d="M141 1446h215l207 -264h-168l-145 170l-146 -170h-167zM160 -59v1103h176v-1114q0 -344 -373 -344v162q197 0 197 193z" />
    <glyph glyph-name="uni0136" unicode="&#x136;" horiz-adv-x="1257" 
d="M1231 1413l-701 -700l715 -713h-239l-652 637v-637h-188v1413h188v-622l641 622h236zM664 -451h-146l72 316h184z" />
    <glyph glyph-name="uni0137" unicode="&#x137;" horiz-adv-x="1058" 
d="M1016 1044l-524 -520l538 -524h-227l-477 455v-455h-176v1475h176v-873l465 442h225zM567 -451h-145l72 316h184z" />
    <glyph glyph-name="Lacute" unicode="&#x139;" horiz-adv-x="958" 
d="M367 1815h225l-250 -265h-188zM354 1413v-1237h543v-176h-731v1413h188z" />
    <glyph glyph-name="lacute" unicode="&#x13a;" horiz-adv-x="473" 
d="M317 1569h-188l213 264h225zM326 0h-176v1475h176v-1475z" />
    <glyph glyph-name="uni013B" unicode="&#x13b;" horiz-adv-x="958" 
d="M354 1413v-1237h543v-176h-731v1413h188zM532 -451h-145l72 316h184z" />
    <glyph glyph-name="uni013C" unicode="&#x13c;" horiz-adv-x="473" 
d="M326 0h-176v1475h176v-1475zM244 -451h-146l72 316h184z" />
    <glyph glyph-name="Lcaron" unicode="&#x13d;" horiz-adv-x="985" 
d="M354 1413v-1237h543v-176h-731v1413h188zM598 1413h164l-74 -412h-133z" />
    <glyph glyph-name="lcaron" unicode="&#x13e;" horiz-adv-x="620" 
d="M326 0h-176v1475h176v-1475zM588 1063h-133l43 412h164z" />
    <glyph glyph-name="Ldot" unicode="&#x13f;" horiz-adv-x="997" 
d="M354 1413v-1237h543v-176h-731v1413h188zM657 606q-49 0 -82.5 34t-33.5 85q0 49 33.5 83t82.5 34q51 0 85 -34t34 -83q0 -51 -34 -85t-85 -34z" />
    <glyph glyph-name="ldot" unicode="&#x140;" horiz-adv-x="745" 
d="M326 0h-176v1475h176v-1475zM559 618q-49 0 -83 34t-34 85t34 85t83 34q51 0 85 -34t34 -85t-34 -85t-85 -34z" />
    <glyph glyph-name="Lslash" unicode="&#x141;" horiz-adv-x="958" 
d="M354 647v-471h543v-176h-731v528l-131 -82v175l131 81v711h188v-592l246 156v-174z" />
    <glyph glyph-name="lslash" unicode="&#x142;" horiz-adv-x="622" 
d="M399 874l146 93v-164l-146 -92v-711h-176v600l-145 -92v164l145 92v711h176v-601z" />
    <glyph glyph-name="Nacute" unicode="&#x143;" horiz-adv-x="1513" 
d="M866 1815h226l-250 -265h-189zM1159 309v1104h187v-1413h-193l-799 1100v-1100h-188v1413h194z" />
    <glyph glyph-name="nacute" unicode="&#x144;" horiz-adv-x="1261" 
d="M741 1446h226l-250 -264h-189zM702 1069q191 0 307 -115q117 -116 117 -309v-645h-176v590q0 138 -83 224q-82 85 -222 85q-142 0 -231 -86q-88 -85 -88 -227v-586h-176v1044h176v-167q124 192 376 192z" />
    <glyph glyph-name="uni0145" unicode="&#x145;" horiz-adv-x="1513" 
d="M1159 309v1104h187v-1413h-193l-799 1100v-1100h-188v1413h194zM762 -451h-146l72 316h184z" />
    <glyph glyph-name="uni0146" unicode="&#x146;" horiz-adv-x="1261" 
d="M702 1069q191 0 307 -115q117 -116 117 -309v-645h-176v590q0 138 -83 224q-82 85 -222 85q-142 0 -231 -86q-88 -85 -88 -227v-586h-176v1044h176v-167q124 192 376 192zM643 -451h-145l71 316h185z" />
    <glyph glyph-name="Ncaron" unicode="&#x147;" horiz-adv-x="1513" 
d="M1075 1815l-207 -265h-215l-204 265h167l146 -170l145 170h168zM1159 309v1104h187v-1413h-193l-799 1100v-1100h-188v1413h194z" />
    <glyph glyph-name="ncaron" unicode="&#x148;" horiz-adv-x="1261" 
d="M950 1446l-207 -264h-215l-204 264h168l145 -170l145 170h168zM702 1069q191 0 307 -115q117 -116 117 -309v-645h-176v590q0 138 -83 224q-82 85 -222 85q-142 0 -231 -86q-88 -85 -88 -227v-586h-176v1044h176v-167q124 192 376 192z" />
    <glyph glyph-name="Eng" unicode="&#x14a;" horiz-adv-x="1513" 
d="M1346 1413v-1403h2v-88q0 -334 -363 -334v172q174 0 174 168v72h-6l-799 1100v-1100h-188v1413h194l799 -1104v1104h187z" />
    <glyph glyph-name="eng" unicode="&#x14b;" horiz-adv-x="1261" 
d="M702 1069q191 0 307 -115q117 -116 117 -309v-723q0 -334 -356 -334v172q180 0 180 168v662q0 138 -83 224q-82 85 -222 85q-142 0 -231 -86q-88 -85 -88 -227v-586h-176v1044h176v-167q124 192 376 192z" />
    <glyph glyph-name="Omacron" unicode="&#x14c;" horiz-adv-x="1662" 
d="M1073 1581h-485v150h485v-150zM1359 185q-211 -210 -527 -210t-528 210t-212 522q0 311 212 521t528 210t527 -210q212 -210 212 -521q0 -312 -212 -522zM442 314q156 -158 390 -158q232 0 390 158q156 158 156 393t-156 393q-157 157 -390 157q-234 0 -390 -157
q-157 -157 -157 -393t157 -393z" />
    <glyph glyph-name="omacron" unicode="&#x14d;" horiz-adv-x="1275" 
d="M881 1212h-486v150h486v-150zM1036 132q-158 -157 -397 -157t-397 157q-160 157 -160 391q0 233 160 390q159 156 397 156t397 -156q158 -158 158 -390q0 -233 -158 -391zM639 145q161 0 267 108q106 106 106 269t-106 270q-107 107 -267 107q-161 0 -268 -107
q-107 -109 -107 -270q0 -162 107 -269q107 -108 268 -108z" />
    <glyph glyph-name="Obreve" unicode="&#x14e;" horiz-adv-x="1662" 
d="M1033 1608q-81 -78 -201 -78q-121 0 -202 78t-81 194h139q0 -60 41 -103q41 -42 103 -42t102 42q41 43 41 103h139q0 -118 -81 -194zM1359 185q-211 -210 -527 -210t-528 210t-212 522q0 311 212 521t528 210t527 -210q212 -210 212 -521q0 -312 -212 -522zM442 314
q156 -158 390 -158q232 0 390 158q156 158 156 393t-156 393q-157 157 -390 157q-234 0 -390 -157q-157 -157 -157 -393t157 -393z" />
    <glyph glyph-name="obreve" unicode="&#x14f;" horiz-adv-x="1275" 
d="M839 1239q-81 -78 -202 -78t-202 78t-81 195h140q0 -60 41 -103q40 -43 102 -43q61 0 102 42q41 43 41 104h140q0 -117 -81 -195zM1036 132q-158 -157 -397 -157t-397 157q-160 157 -160 391q0 233 160 390q159 156 397 156t397 -156q158 -158 158 -390q0 -233 -158 -391
zM639 145q161 0 267 108q106 106 106 269t-106 270q-107 107 -267 107q-161 0 -268 -107q-107 -109 -107 -270q0 -162 107 -269q107 -108 268 -108z" />
    <glyph glyph-name="Ohungarumlaut" unicode="&#x150;" horiz-adv-x="1662" 
d="M713 1550h-172l168 265h196zM1110 1550h-170l168 265h197zM1359 185q-211 -210 -527 -210t-528 210t-212 522q0 311 212 521t528 210t527 -210q212 -210 212 -521q0 -312 -212 -522zM442 314q156 -158 390 -158q232 0 390 158q156 158 156 393t-156 393
q-157 157 -390 157q-234 0 -390 -157q-157 -157 -157 -393t157 -393z" />
    <glyph glyph-name="ohungarumlaut" unicode="&#x151;" horiz-adv-x="1275" 
d="M518 1182h-172l168 264h197zM915 1182h-170l168 264h197zM1036 132q-158 -157 -397 -157t-397 157q-160 157 -160 391q0 233 160 390q159 156 397 156t397 -156q158 -158 158 -390q0 -233 -158 -391zM639 145q161 0 267 108q106 106 106 269t-106 270q-107 107 -267 107
q-161 0 -268 -107q-107 -109 -107 -270q0 -162 107 -269q107 -108 268 -108z" />
    <glyph glyph-name="OE" unicode="&#x152;" horiz-adv-x="1841" 
d="M1145 623v-447h606v-176h-944q-305 0 -510 202q-205 201 -205 505q0 303 205 505q205 201 510 201h934v-176h-596v-438h528v-176h-528zM811 176h147v1061h-147q-225 0 -375 -151q-151 -151 -151 -379t151 -379q150 -152 375 -152z" />
    <glyph glyph-name="oe" unicode="&#x153;" horiz-adv-x="2199" 
d="M2124 522q0 -43 -6 -73h-918q22 -136 124 -222q101 -86 245 -86q116 0 208 53t132 140h194q-59 -162 -200 -260q-143 -99 -330 -99q-156 0 -280 76q-125 77 -189 205q-67 -128 -192 -205q-124 -76 -279 -76q-236 0 -393 157q-158 158 -158 391q0 232 158 390
q158 156 393 156q155 0 280 -75q124 -77 191 -206q66 129 190 205q122 76 279 76q237 0 394 -157t157 -390zM1810 820q-103 83 -241 83q-139 0 -239 -82q-101 -83 -128 -215h733q-23 131 -125 214zM370 253q105 -108 267 -108q163 0 269 108q106 106 106 269t-106 270
q-107 107 -269 107t-267 -107q-106 -107 -106 -270t106 -269z" />
    <glyph glyph-name="Racute" unicode="&#x154;" horiz-adv-x="1155" 
d="M684 1815h225l-250 -265h-188zM1096 0h-236l-479 561h-27v-561h-188v1413h459q188 0 314 -123t126 -307q0 -179 -125 -301q-124 -121 -311 -121h-17zM621 1237h-267v-512h267q110 0 180 73q71 73 71 183t-71 184q-72 72 -180 72z" />
    <glyph glyph-name="racute" unicode="&#x155;" horiz-adv-x="727" 
d="M510 1446h225l-250 -264h-188zM326 1044v-188q121 205 342 205v-182q-160 0 -251 -96q-91 -97 -91 -259v-524h-176v1044h176z" />
    <glyph glyph-name="uni0156" unicode="&#x156;" horiz-adv-x="1155" 
d="M629 561h-17l484 -561h-236l-479 561h-27v-561h-188v1413h459q188 0 314 -123t126 -307q0 -179 -125 -301q-124 -121 -311 -121zM621 1237h-267v-512h267q110 0 180 73q71 73 71 183t-71 184q-72 72 -180 72zM604 -451h-145l71 316h185z" />
    <glyph glyph-name="uni0157" unicode="&#x157;" horiz-adv-x="727" 
d="M326 1044v-188q121 205 342 205v-182q-160 0 -251 -96q-91 -97 -91 -259v-524h-176v1044h176zM244 -451h-146l72 316h184z" />
    <glyph glyph-name="Rcaron" unicode="&#x158;" horiz-adv-x="1155" 
d="M893 1815l-207 -265h-215l-205 265h168l146 -170l145 170h168zM1096 0h-236l-479 561h-27v-561h-188v1413h459q188 0 314 -123t126 -307q0 -179 -125 -301q-124 -121 -311 -121h-17zM621 1237h-267v-512h267q110 0 180 73q71 73 71 183t-71 184q-72 72 -180 72z" />
    <glyph glyph-name="rcaron" unicode="&#x159;" horiz-adv-x="727" 
d="M719 1446l-207 -264h-215l-205 264h168l146 -170l145 170h168zM326 1044v-188q121 205 342 205v-182q-160 0 -251 -96q-91 -97 -91 -259v-524h-176v1044h176z" />
    <glyph glyph-name="Sacute" unicode="&#x15a;" horiz-adv-x="1089" 
d="M627 1550h-189l213 265h226zM545 -25q-194 0 -327 122q-132 121 -132 302h190q0 -109 79 -182q80 -74 194 -74q112 0 188 65q74 65 74 161q0 189 -309 266q-393 96 -393 414q0 165 125 278q125 111 311 111t311 -116t125 -290h-190q0 102 -71 170t-177 68
q-102 0 -172 -61t-70 -152q0 -183 289 -256q414 -102 414 -420q0 -174 -131 -290t-328 -116z" />
    <glyph glyph-name="sacute" unicode="&#x15b;" horiz-adv-x="864" 
d="M512 1182h-188l213 264h225zM684 63q-100 -88 -251 -88q-152 0 -252 94q-101 93 -101 228h182q0 -68 50 -115t122 -47q71 0 118 40q48 41 48 99q0 127 -205 179q-140 38 -220 110q-81 72 -81 205q0 135 98 218t240 83q144 0 241 -90t97 -219h-182q0 62 -45 105
q-46 44 -113 44q-63 0 -108 -39q-46 -39 -46 -92q0 -125 205 -174q303 -79 303 -313q0 -141 -100 -228z" />
    <glyph glyph-name="Scircumflex" unicode="&#x15c;" horiz-adv-x="1089" 
d="M692 1550l-145 170l-146 -170h-168l205 265h215l207 -265h-168zM590 801q414 -102 414 -420q0 -174 -131 -290q-133 -116 -328 -116q-194 0 -327 122q-132 121 -132 302h190q0 -109 79 -182q80 -74 194 -74q112 0 188 65q74 65 74 161q0 189 -309 266q-393 96 -393 414
q0 165 125 278q125 111 311 111t311 -116t125 -290h-190q0 102 -71 170t-177 68q-102 0 -172 -61t-70 -152q0 -183 289 -256z" />
    <glyph glyph-name="scircumflex" unicode="&#x15d;" horiz-adv-x="864" 
d="M578 1182l-146 170l-145 -170h-168l205 264h215l206 -264h-167zM481 604q303 -79 303 -313q0 -141 -100 -228q-100 -88 -251 -88q-152 0 -252 94q-101 93 -101 228h182q0 -68 50 -115t122 -47q71 0 118 40q48 41 48 99q0 127 -205 179q-140 38 -220 110q-81 72 -81 205
q0 135 98 218t240 83q144 0 241 -90t97 -219h-182q0 62 -45 105q-46 44 -113 44q-63 0 -108 -39q-46 -39 -46 -92q0 -125 205 -174z" />
    <glyph glyph-name="Scedilla" unicode="&#x15e;" horiz-adv-x="1089" 
d="M1004 381q0 -160 -112 -271q-112 -112 -286 -130l-41 -52h10q82 0 136 -55q53 -56 53 -139q0 -84 -60 -142q-62 -57 -151 -57q-90 0 -150 57q-61 58 -61 142h111q0 -41 29.5 -70t70.5 -29t70.5 29t29.5 70q0 42 -29 71t-71 29q-44 0 -70 -29l-102 45l100 130
q-171 19 -283 137q-112 115 -112 282h190q0 -109 79 -182q80 -74 194 -74q112 0 188 65q74 65 74 161q0 189 -309 266q-393 96 -393 414q0 165 125 278q125 111 311 111t311 -116t125 -290h-190q0 102 -71 170t-177 68q-102 0 -172 -61t-70 -152q0 -183 289 -256
q414 -103 414 -420z" />
    <glyph glyph-name="scedilla" unicode="&#x15f;" horiz-adv-x="864" 
d="M784 291q0 -126 -80 -211q-80 -83 -210 -100l-43 -52h10q83 0 135 -55q53 -56 53 -139q0 -84 -60 -142q-61 -57 -151 -57t-150 57q-61 58 -61 142h111q0 -41 29.5 -70t70.5 -29t71 29t30 70q0 42 -29.5 71t-71.5 29q-45 0 -69 -29l-103 45l101 130q-126 19 -207 109
q-80 89 -80 208h182q0 -68 50 -115t122 -47q71 0 118 40q48 41 48 99q0 127 -205 179q-140 38 -220 110q-81 72 -81 205q0 135 98 218t240 83q144 0 241 -90t97 -219h-182q0 62 -45 105q-46 44 -113 44q-63 0 -108 -39q-46 -39 -46 -92q0 -125 205 -174q303 -79 303 -313z
" />
    <glyph glyph-name="Scaron" unicode="&#x160;" horiz-adv-x="1089" 
d="M860 1815l-207 -265h-215l-205 265h168l146 -170l145 170h168zM590 801q414 -102 414 -420q0 -174 -131 -290q-133 -116 -328 -116q-194 0 -327 122q-132 121 -132 302h190q0 -109 79 -182q80 -74 194 -74q112 0 188 65q74 65 74 161q0 189 -309 266q-393 96 -393 414
q0 165 125 278q125 111 311 111t311 -116t125 -290h-190q0 102 -71 170t-177 68q-102 0 -172 -61t-70 -152q0 -183 289 -256z" />
    <glyph glyph-name="scaron" unicode="&#x161;" horiz-adv-x="864" 
d="M745 1446l-206 -264h-215l-205 264h168l145 -170l146 170h167zM481 604q303 -79 303 -313q0 -141 -100 -228q-100 -88 -251 -88q-152 0 -252 94q-101 93 -101 228h182q0 -68 50 -115t122 -47q71 0 118 40q48 41 48 99q0 127 -205 179q-140 38 -220 110q-81 72 -81 205
q0 135 98 218t240 83q144 0 241 -90t97 -219h-182q0 62 -45 105q-46 44 -113 44q-63 0 -108 -39q-46 -39 -46 -92q0 -125 205 -174z" />
    <glyph glyph-name="uni0162" unicode="&#x162;" horiz-adv-x="1118" 
d="M653 1237v-1237h-28l-58 -70h11q83 0 135 -55q53 -56 53 -139q0 -84 -60 -142q-61 -57 -151 -57t-150 57q-61 58 -61 142h111q0 -41 29.5 -69.5t70.5 -28.5t70.5 28.5t29.5 69.5q0 42 -29 71t-71 29q-44 0 -70 -29l-102 46l115 147h-33v1237h-406v176h1000v-176h-406z
" />
    <glyph glyph-name="uni0163" unicode="&#x163;" horiz-adv-x="765" 
d="M467 885v-885h-21l-57 -70h10q82 0 136 -55q53 -56 53 -139q0 -84 -60 -142q-62 -57 -151 -57q-90 0 -150 57q-61 58 -61 142h110q0 -41 29.5 -69.5t71.5 -28.5q41 0 70.5 28.5t29.5 69.5q0 42 -29 71t-71 29q-44 0 -70 -29l-102 46l114 147h-28v885h-225v159h225v273
l176 35v-308h240v-159h-240z" />
    <glyph glyph-name="Tcaron" unicode="&#x164;" horiz-adv-x="1118" 
d="M874 1815l-206 -265h-215l-205 265h168l145 -170l146 170h167zM59 1413h1000v-176h-406v-1237h-188v1237h-406v176z" />
    <glyph glyph-name="tcaron" unicode="&#x165;" horiz-adv-x="765" 
d="M588 1161l43 412h164l-74 -412h-133zM291 1317l176 35v-308h240v-159h-240v-885h-176v885h-225v159h225v273z" />
    <glyph glyph-name="Tbar" unicode="&#x166;" horiz-adv-x="1118" 
d="M1059 1413v-176h-406v-502h203v-129h-203v-606h-188v606h-203v129h203v502h-406v176h1000z" />
    <glyph glyph-name="tbar" unicode="&#x167;" horiz-adv-x="765" 
d="M707 1044v-159h-240v-330h215v-129h-215v-426h-176v426h-203v129h203v330h-225v159h225v273l176 35v-308h240z" />
    <glyph glyph-name="Utilde" unicode="&#x168;" horiz-adv-x="1419" 
d="M848 1563q-68 0 -142 56q-76 56 -116 56q-43 0 -72 -29.5t-29 -72.5h-127q0 104 57 173q55 69 150 69q69 0 143 -55q74 -56 115 -56q43 0 72 28.5t29 73.5h129q0 -106 -56 -174q-57 -69 -153 -69zM709 -25q-244 0 -409 162t-165 404v872h187v-868q0 -166 111 -277
q109 -112 276 -112q168 0 279 112q110 112 110 277v868h186v-872q0 -242 -164 -404q-165 -162 -411 -162z" />
    <glyph glyph-name="utilde" unicode="&#x169;" horiz-adv-x="1228" 
d="M487 1307q-42 0 -71 -30t-29 -73h-127q0 104 57 173q55 69 150 69q69 0 143 -55q74 -56 115 -56q43 0 71.5 29t28.5 74h129q0 -105 -56 -175q-56 -69 -153 -69q-69 0 -142 57q-76 56 -116 56zM903 442v602h176v-1044h-176v164q-121 -188 -360 -189q-182 0 -295 113
t-113 299v657h176v-606q0 -134 78 -213q78 -80 209 -80q138 0 221 82q84 83 84 215z" />
    <glyph glyph-name="Umacron" unicode="&#x16a;" horiz-adv-x="1419" 
d="M952 1581h-485v150h485v-150zM709 -25q-244 0 -409 162t-165 404v872h187v-868q0 -166 111 -277q109 -112 276 -112q168 0 279 112q110 112 110 277v868h186v-872q0 -242 -164 -404q-165 -162 -411 -162z" />
    <glyph glyph-name="umacron" unicode="&#x16b;" horiz-adv-x="1228" 
d="M365 1362h485v-150h-485v150zM903 442v602h176v-1044h-176v164q-121 -188 -360 -189q-182 0 -295 113t-113 299v657h176v-606q0 -134 78 -213q78 -80 209 -80q138 0 221 82q84 83 84 215z" />
    <glyph glyph-name="Ubreve" unicode="&#x16c;" horiz-adv-x="1419" 
d="M910 1608q-81 -78 -201 -78q-121 0 -202 78t-81 194h139q0 -60 41 -103q40 -42 103 -42q61 0 102 42q41 43 41 103h139q0 -118 -81 -194zM709 -25q-244 0 -409 162t-165 404v872h187v-868q0 -166 111 -277q109 -112 276 -112q168 0 279 112q110 112 110 277v868h186v-872
q0 -242 -164 -404q-165 -162 -411 -162z" />
    <glyph glyph-name="ubreve" unicode="&#x16d;" horiz-adv-x="1228" 
d="M808 1239q-81 -78 -202 -78q-122 0 -201 78q-81 78 -81 195h139q0 -60 41 -103q40 -43 103 -43q61 0 102 42q41 43 41 104h139q0 -117 -81 -195zM903 442v602h176v-1044h-176v164q-121 -188 -360 -189q-182 0 -295 113t-113 299v657h176v-606q0 -134 78 -213
q78 -80 209 -80q138 0 221 82q84 83 84 215z" />
    <glyph glyph-name="Uring" unicode="&#x16e;" horiz-adv-x="1419" 
d="M836 1572q-53 -50 -127 -50q-75 0 -127 50q-52 49 -52 126q0 75 52 124q52 50 127 50q74 0 127 -50q51 -50 51 -124q0 -76 -51 -126zM652 1638q25 -23 56.5 -24t57 23.5t22.5 60.5q0 35 -22.5 58.5t-56.5 23.5t-57 -23.5t-23 -58.5q0 -37 23 -60zM709 -25
q-244 0 -409 162t-165 404v872h187v-868q0 -166 111 -277q109 -112 276 -112q168 0 279 112q110 112 110 277v868h186v-872q0 -242 -164 -404q-165 -162 -411 -162z" />
    <glyph glyph-name="uring" unicode="&#x16f;" horiz-adv-x="1228" 
d="M733 1203q-52 -50 -127 -50t-127 50q-51 49 -51 126q0 75 51 124q52 50 127 50t127 -50q51 -49 51 -124q0 -77 -51 -126zM664 1388q-23 23 -57.5 23t-57.5 -23q-23 -25 -23 -59q0 -37 22.5 -60.5t57.5 -23.5t57.5 23.5t22.5 60.5q0 36 -22 59zM903 442v602h176v-1044
h-176v164q-121 -188 -360 -189q-182 0 -295 113t-113 299v657h176v-606q0 -134 78 -213q78 -80 209 -80q138 0 221 82q84 83 84 215z" />
    <glyph glyph-name="Uhungarumlaut" unicode="&#x170;" horiz-adv-x="1419" 
d="M590 1550h-172l168 265h196zM987 1550h-170l168 265h197zM709 -25q-244 0 -409 162t-165 404v872h187v-868q0 -166 111 -277q109 -112 276 -112q168 0 279 112q110 112 110 277v868h186v-872q0 -242 -164 -404q-165 -162 -411 -162z" />
    <glyph glyph-name="uhungarumlaut" unicode="&#x171;" horiz-adv-x="1228" 
d="M483 1446h197l-193 -264h-172zM883 1446h196l-194 -264h-170zM903 442v602h176v-1044h-176v164q-121 -188 -360 -189q-182 0 -295 113t-113 299v657h176v-606q0 -134 78 -213q78 -80 209 -80q138 0 221 82q84 83 84 215z" />
    <glyph glyph-name="Uogonek" unicode="&#x172;" horiz-adv-x="1419" 
d="M1098 545v868h186v-872q0 -191 -106 -336t-281 -201q-186 -94 -186 -207q0 -47 31 -76.5t79 -29.5q71 0 129 47v-131q-70 -45 -164 -45q-92 0 -154 57q-63 57 -63 141q0 124 129 215q-242 5 -402 166q-161 163 -161 400v872h187v-868q0 -166 111 -277q109 -112 276 -112
q168 0 279 112q110 112 110 277z" />
    <glyph glyph-name="uogonek" unicode="&#x173;" horiz-adv-x="1228" 
d="M971 -328q71 0 129 47v-131q-71 -45 -164 -45q-92 0 -154 57q-63 58 -63 142q0 80 55.5 148t151.5 110h-23v164q-121 -188 -360 -189q-182 0 -295 113t-113 299v657h176v-606q0 -134 78 -213q78 -80 209 -80q138 0 221 82q84 83 84 215v602h176v-1044h-2
q-217 -96 -217 -221q0 -47 31.5 -77t79.5 -30z" />
    <glyph glyph-name="Wcircumflex" unicode="&#x174;" horiz-adv-x="2301" 
d="M1296 1550l-145 170l-145 -170h-168l204 265h215l207 -265h-168zM1647 246l401 1167h203l-508 -1413h-193l-399 1141l-399 -1141h-193l-508 1413h207l401 -1167l408 1167h172z" />
    <glyph glyph-name="wcircumflex" unicode="&#x175;" horiz-adv-x="1849" 
d="M1081 1182l-145 170l-145 -170h-168l204 264h215l207 -264h-168zM1323 215l295 829h194l-397 -1044h-184l-305 842l-305 -842h-185l-397 1044h199l294 -835l306 835h182z" />
    <glyph glyph-name="Ycircumflex" unicode="&#x176;" horiz-adv-x="1386" 
d="M840 1550l-146 170l-145 -170h-168l205 265h215l207 -265h-168zM696 707l459 706h209l-578 -891v-522h-186v522l-577 891h213z" />
    <glyph glyph-name="ycircumflex" unicode="&#x177;" horiz-adv-x="1163" 
d="M731 1182l-145 170l-146 -170h-168l205 264h215l207 -264h-168zM584 211l352 833h197l-629 -1433h-191l174 393l-456 1040h200z" />
    <glyph glyph-name="Ydieresis" unicode="&#x178;" horiz-adv-x="1386" 
d="M560 1593q-32 -32 -79 -32t-77 31q-31 30 -31 77t31 78q30 31 77 31t79 -32t32 -77t-32 -76zM905 1561q-46 0 -77 30.5t-31 77.5t31.5 78t76.5 31q47 0 79 -32t32 -77t-32 -76.5t-79 -31.5zM696 707l459 706h209l-578 -891v-522h-186v522l-577 891h213z" />
    <glyph glyph-name="Zacute" unicode="&#x179;" horiz-adv-x="1257" 
d="M731 1815h225l-249 -265h-189zM1159 1278l-819 -1102h834v-176h-1090v135l819 1102h-811v176h1067v-135z" />
    <glyph glyph-name="zacute" unicode="&#x17a;" horiz-adv-x="1024" 
d="M616 1446h226l-250 -264h-189zM920 918l-584 -748h598v-170h-844v127l584 747h-576v170h822v-126z" />
    <glyph glyph-name="Zdotaccent" unicode="&#x17b;" horiz-adv-x="1257" 
d="M627 1561q-49 0 -82 32.5t-33 79.5t33 80t82 33q47 0 79.5 -33t32.5 -80t-32.5 -79.5t-79.5 -32.5zM1159 1278l-819 -1102h834v-176h-1090v135l819 1102h-811v176h1067v-135z" />
    <glyph glyph-name="zdotaccent" unicode="&#x17c;" horiz-adv-x="1024" 
d="M512 1192q-49 0 -82 32.5t-33 80.5q0 47 33 79.5t82 32.5q47 0 80 -32.5t33 -79.5q0 -48 -33 -80.5t-80 -32.5zM920 918l-584 -748h598v-170h-844v127l584 747h-576v170h822v-126z" />
    <glyph glyph-name="Zcaron" unicode="&#x17d;" horiz-adv-x="1257" 
d="M940 1815l-207 -265h-215l-205 265h168l146 -170l145 170h168zM1159 1278l-819 -1102h834v-176h-1090v135l819 1102h-811v176h1067v-135z" />
    <glyph glyph-name="zcaron" unicode="&#x17e;" horiz-adv-x="1024" 
d="M825 1446l-207 -264h-215l-204 264h168l145 -170l145 170h168zM920 918l-584 -748h598v-170h-844v127l584 747h-576v170h822v-126z" />
    <glyph glyph-name="florin" unicode="&#x192;" horiz-adv-x="919" 
d="M868 1413v-180q-113 0 -174 -52.5t-82 -168.5l-37 -219h228v-164h-256l-117 -672q-33 -180 -139.5 -263t-302.5 -83v180q113 0 174 52.5t82 168.5l108 617h-217v164h246l47 274q31 179 137.5 262.5t302.5 83.5z" />
    <glyph glyph-name="uni01C4" unicode="&#x1c4;" horiz-adv-x="2705" 
d="M2388 1815l-205 -265h-217l-205 265h168l146 -170l145 170h168zM166 1413h545q307 0 512 -201q204 -202 204 -505q0 -304 -204 -505q-205 -202 -512 -202h-545v1413zM2607 1278l-819 -1102h833v-176h-1089v135l819 1102h-811v176h1067v-135zM354 176h355q224 0 376 152
q150 151 150 379t-150 379q-151 151 -376 151h-355v-1061z" />
    <glyph glyph-name="uni01C5" unicode="&#x1c5;" horiz-adv-x="2541" 
d="M2343 1446l-207 -264h-215l-205 264h168l146 -170l145 170h168zM166 1413h545q307 0 512 -201q204 -202 204 -505q0 -304 -204 -505q-205 -202 -512 -202h-545v1413zM354 176h355q224 0 376 152q150 151 150 379t-150 379q-151 151 -376 151h-355v-1061zM2437 918
l-584 -748h598v-170h-843v127l583 747h-575v170h821v-126z" />
    <glyph glyph-name="uni01C6" unicode="&#x1c6;" horiz-adv-x="2363" 
d="M1014 846v629h176v-1475h-176v199q-67 -106 -172.5 -165t-233.5 -59q-224 0 -372 157q-150 158 -150 391t150 390q148 156 372 156q128 0 233.5 -59t172.5 -164zM2165 1446l-207 -264h-215l-205 264h168l145 -170l146 170h168zM2259 918l-584 -748h598v-170h-843v127
l583 747h-575v170h821v-126zM641 145q161 0 267 108q106 106 106 269t-106 270q-107 107 -267 107q-161 0 -268 -107q-107 -109 -107 -270q0 -162 107 -269q107 -108 268 -108z" />
    <glyph glyph-name="uni01C7" unicode="&#x1c7;" horiz-adv-x="2041" 
d="M166 1413h188v-1237h543v-176h-731v1413zM1718 424v989h189v-989q0 -194 -132 -321q-134 -128 -327 -128q-197 0 -328 128t-131 321h193q0 -114 77 -191t191 -77q115 0 192 77q76 76 76 191z" />
    <glyph glyph-name="uni01C8" unicode="&#x1c8;" horiz-adv-x="1443" 
d="M1206 1253q-49 0 -82.5 34t-33.5 83q0 51 33.5 84t82.5 33q51 0 85 -33t34 -84q0 -49 -34 -83t-85 -34zM166 1413h188v-1237h543v-176h-731v1413zM1118 -59v1103h176v-1114q0 -344 -372 -344v162q196 0 196 193z" />
    <glyph glyph-name="uni01C9" unicode="&#x1c9;" horiz-adv-x="958" 
d="M721 1253q-49 0 -83 34t-34 83q0 50 34 83.5t83 33.5q51 0 85 -33t34 -84q0 -49 -34 -83t-85 -34zM326 0h-176v1475h176v-1475zM436 -414v162q197 0 197 193v1103h176v-1114q0 -344 -373 -344z" />
    <glyph glyph-name="uni01CA" unicode="&#x1ca;" horiz-adv-x="2619" 
d="M360 1413l799 -1104v1104h187v-1413h-193l-799 1100v-1100h-188v1413h194zM2298 424v989h188v-989q0 -194 -132 -321q-133 -128 -326 -128q-197 0 -328 128t-131 321h192q0 -114 77 -191t192 -77q114 0 191 77t77 191z" />
    <glyph glyph-name="uni01CB" unicode="&#x1cb;" horiz-adv-x="1998" 
d="M1761 1253q-49 0 -82.5 34t-33.5 83q0 51 33.5 84t82.5 33q51 0 85 -33t34 -84q0 -49 -34 -83t-85 -34zM360 1413l799 -1104v1104h187v-1413h-193l-799 1100v-1100h-188v1413h194zM1673 -59v1103h176v-1114q0 -344 -372 -344v162q196 0 196 193z" />
    <glyph glyph-name="uni01CC" unicode="&#x1cc;" horiz-adv-x="1746" 
d="M1509 1253q-49 0 -82.5 34t-33.5 83q0 51 33.5 84t82.5 33q51 0 85 -33t34 -84q0 -49 -34 -83t-85 -34zM702 1069q191 0 307 -115q117 -116 117 -309v-645h-176v590q0 138 -83 224q-82 85 -222 85q-142 0 -231 -86q-88 -85 -88 -227v-586h-176v1044h176v-167
q124 192 376 192zM1421 -59v1103h176v-1114q0 -344 -372 -344v162q196 0 196 193z" />
    <glyph glyph-name="uni01CD" unicode="&#x1cd;" horiz-adv-x="1460" 
d="M1042 1815l-206 -265h-215l-205 265h168l145 -170l145 170h168zM1417 0h-207l-137 342h-692l-137 -342h-201l575 1413h224zM727 1210l-276 -694h553z" />
    <glyph glyph-name="uni01CE" unicode="&#x1ce;" horiz-adv-x="1339" 
d="M989 1446l-207 -264h-215l-205 264h168l146 -170l145 170h168zM1014 846v198h176v-1044h-176v199q-67 -106 -172.5 -165t-233.5 -59q-224 0 -372 157q-150 158 -150 391t150 390q148 156 372 156q128 0 233.5 -59t172.5 -164zM641 145q161 0 267 108q106 106 106 269
t-106 270q-107 107 -267 107q-161 0 -268 -107q-107 -109 -107 -270q0 -162 107 -269q107 -108 268 -108z" />
    <glyph glyph-name="Gcaron" unicode="&#x1e6;" horiz-adv-x="1644" 
d="M1145 1815l-207 -265h-215l-205 265h168l145 -170l146 170h168zM858 582v170h705v-62q-6 -306 -215 -511q-208 -204 -517 -204q-315 0 -527 210t-212 522q0 311 212 521t527 210q253 0 444 -136q192 -137 253 -354h-207q-61 141 -192 225q-132 84 -298 84
q-233 0 -389 -157q-157 -157 -157 -393t157 -393q156 -158 389 -158q202 0 351 119q148 119 182 307h-506z" />
    <glyph glyph-name="gcaron" unicode="&#x1e7;" horiz-adv-x="1337" 
d="M985 1446l-207 -264h-215l-205 264h168l146 -170l145 170h168zM1016 848v196h176v-931q0 -237 -146 -383q-147 -144 -387 -144q-204 0 -340 103q-137 104 -182 286h182q32 -106 122 -166q91 -61 218 -61q163 0 260 100t97 267v100q-67 -103 -172.5 -161t-235.5 -58
q-224 0 -372 153q-150 151 -150 383q0 228 150 383q148 154 372 154q127 0 234 -59t174 -162zM643 156q161 0 267 108q106 106 106 268q0 161 -106 268q-107 107 -267 107q-161 0 -268 -107q-107 -109 -107 -268q0 -162 107 -269t268 -107z" />
    <glyph glyph-name="uni01EA" unicode="&#x1ea;" horiz-adv-x="1662" 
d="M1053 6q-190 -94 -191 -209q0 -47 31.5 -76.5t79.5 -29.5q71 0 129 47v-131q-71 -45 -164 -45q-92 0 -154 57q-63 57 -63 141q0 124 129 215h-19q-315 0 -527 210t-212 522q0 311 212 521t528 210t527 -210q212 -210 212 -521q0 -252 -142 -442q-143 -191 -376 -259z
M442 1100q-157 -157 -157 -393t157 -393q156 -158 390 -158q232 0 390 158q156 158 156 393t-156 393q-157 157 -390 157q-234 0 -390 -157z" />
    <glyph glyph-name="uni01EB" unicode="&#x1eb;" horiz-adv-x="1275" 
d="M817 2q-182 -90 -182 -205q0 -47 31 -76.5t79 -29.5q71 0 129 47v-131q-71 -45 -163 -45q-93 0 -154 57q-63 57 -63 141q0 126 129 215q-232 6 -386 162q-155 157 -155 385q0 233 160 390q158 157 397 157q238 0 397 -156q158 -158 158 -391q0 -185 -103 -324
q-103 -140 -274 -196zM371 792q-107 -109 -107 -270q0 -162 107 -269q107 -108 268 -108t267 108q106 106 106 269t-106 270q-107 107 -267 107q-161 0 -268 -107z" />
    <glyph glyph-name="uni01F1" unicode="&#x1f1;" horiz-adv-x="2705" 
d="M166 1413h545q307 0 512 -201q204 -202 204 -505q0 -304 -204 -505q-205 -202 -512 -202h-545v1413zM2607 1278l-819 -1102h833v-176h-1089v135l819 1102h-811v176h1067v-135zM354 176h355q224 0 376 152q150 151 150 379t-150 379q-151 151 -376 151h-355v-1061z" />
    <glyph glyph-name="uni01F2" unicode="&#x1f2;" horiz-adv-x="2541" 
d="M166 1413h545q307 0 512 -201q204 -202 204 -505q0 -304 -204 -505q-205 -202 -512 -202h-545v1413zM354 176h355q224 0 376 152q150 151 150 379t-150 379q-151 151 -376 151h-355v-1061zM2437 918l-584 -748h598v-170h-843v127l583 747h-575v170h821v-126z" />
    <glyph glyph-name="uni01F3" unicode="&#x1f3;" horiz-adv-x="2363" 
d="M1014 846v629h176v-1475h-176v199q-67 -106 -172.5 -165t-233.5 -59q-224 0 -372 157q-150 158 -150 391t150 390q148 156 372 156q128 0 233.5 -59t172.5 -164zM2259 918l-584 -748h598v-170h-843v127l583 747h-575v170h821v-126zM641 145q161 0 267 108
q106 106 106 269t-106 270q-107 107 -267 107q-161 0 -268 -107q-107 -109 -107 -270q0 -162 107 -269q107 -108 268 -108z" />
    <glyph glyph-name="uni01F4" unicode="&#x1f4;" horiz-adv-x="1644" 
d="M936 1815h225l-250 -265h-188zM858 582v170h705v-62q-6 -306 -215 -511q-208 -204 -517 -204q-315 0 -527 210t-212 522q0 311 212 521t527 210q253 0 444 -136q192 -137 253 -354h-207q-61 141 -192 225q-132 84 -298 84q-233 0 -389 -157q-157 -157 -157 -393t157 -393
q156 -158 389 -158q202 0 351 119q148 119 182 307h-506z" />
    <glyph glyph-name="uni01F5" unicode="&#x1f5;" horiz-adv-x="1337" 
d="M776 1446h225l-249 -264h-189zM1016 848v196h176v-931q0 -237 -146 -383q-147 -144 -387 -144q-204 0 -340 103q-137 104 -182 286h182q32 -106 122 -166q91 -61 218 -61q163 0 260 100t97 267v100q-67 -103 -172.5 -161t-235.5 -58q-224 0 -372 153q-150 151 -150 383
q0 228 150 383q148 154 372 154q127 0 234 -59t174 -162zM643 156q161 0 267 108q106 106 106 268q0 161 -106 268q-107 107 -267 107q-161 0 -268 -107q-107 -109 -107 -268q0 -162 107 -269t268 -107z" />
    <glyph glyph-name="AEacute" unicode="&#x1fc;" horiz-adv-x="1785" 
d="M1110 1815h225l-250 -265h-188zM1087 623v-447h607v-176h-793v340h-532l-205 -340h-215l858 1413h876v-176h-596v-438h529v-176h-529zM901 1221l-428 -709h428v709z" />
    <glyph glyph-name="aeacute" unicode="&#x1fd;" horiz-adv-x="1949" 
d="M1040 1446h226l-250 -264h-189zM1874 528q0 -43 -4 -79h-920q22 -139 126 -225q102 -87 243 -87q117 0 208 55q92 54 132 142h194q-59 -163 -201 -260q-142 -99 -331 -99q-251 0 -412 177q-69 -82 -177.5 -129.5t-233.5 -47.5q-186 0 -301 100q-115 99 -115 249
q0 154 116 253t291 99q164 0 281 -84v92q0 102 -65 164q-65 61 -175 61q-93 0 -156 -46.5t-77 -123.5h-180q23 147 134 239q110 91 279 91q126 0 220 -51t143 -144q162 195 428 195q235 0 395 -158q158 -158 158 -383zM1561 823q-103 84 -242 84q-138 0 -239 -83t-128 -218
h734q-22 132 -125 217zM526 131q107 0 186 46q80 47 105 118q-24 56 -37 119q-31 48 -100 77t-154 29q-113 0 -187 -56q-75 -56 -75 -140q0 -82 75 -137q74 -56 187 -56z" />
    <glyph glyph-name="Oslashacute" unicode="&#x1fe;" horiz-adv-x="1662" 
d="M958 1815h226l-250 -265h-189zM1532 1413l-168 -190q207 -211 207 -516q0 -311 -212 -521q-211 -211 -528 -211q-253 0 -440 138l-98 -113h-162l168 190q-207 212 -207 517q0 311 212 521t527 210q252 0 441 -138l98 113h162zM285 707q0 -222 139 -373l725 827
q-137 96 -318 96q-233 0 -389 -157q-157 -157 -157 -393zM831 156q232 0 390 158q157 157 157 393q0 221 -139 372l-725 -827q137 -96 317 -96z" />
    <glyph glyph-name="oslashacute" unicode="&#x1ff;" horiz-adv-x="1275" 
d="M756 1446h225l-250 -264h-188zM1171 1044l-127 -141q150 -156 150 -381q0 -232 -158 -390q-158 -157 -397 -157q-189 0 -332 103l-69 -78h-134l127 141q-150 157 -149 381q0 233 160 390q158 157 397 157q187 0 330 -102l69 77h133zM264 522q0 -141 86 -248l502 562
q-92 63 -213 63q-161 0 -268 -107q-107 -109 -107 -270zM639 145q161 0 267 108q106 106 106 269q0 141 -86 248l-502 -561q91 -64 215 -64z" />
    <glyph glyph-name="uni0200" unicode="&#x200;" horiz-adv-x="1460" 
d="M453 1815l168 -265h-170l-195 265h197zM852 1815l168 -265h-170l-195 265h197zM1417 0h-207l-137 342h-692l-137 -342h-201l575 1413h224zM727 1210l-276 -694h553z" />
    <glyph glyph-name="uni0201" unicode="&#x201;" horiz-adv-x="1339" 
d="M397 1446l168 -264h-170l-194 264h196zM797 1446l168 -264h-170l-195 264h197zM1014 846v198h176v-1044h-176v199q-67 -106 -172.5 -165t-233.5 -59q-224 0 -372 157q-150 158 -150 391t150 390q148 156 372 156q128 0 233.5 -59t172.5 -164zM641 145q161 0 267 108
q106 106 106 269t-106 270q-107 107 -267 107q-161 0 -268 -107q-107 -109 -107 -270q0 -162 107 -269q107 -108 268 -108z" />
    <glyph glyph-name="uni0202" unicode="&#x202;" horiz-adv-x="1460" 
d="M832 1642q-41 41 -102 41q-63 0 -103 -40q-41 -41 -41 -105h-140q0 116 81 196q81 78 202 78t202 -78q81 -80 81 -196h-140q0 64 -40 104zM1417 0h-207l-137 342h-692l-137 -342h-201l575 1413h224zM727 1210l-276 -694h553z" />
    <glyph glyph-name="uni0203" unicode="&#x203;" horiz-adv-x="1339" 
d="M776 1274q-41 41 -102 41q-62 0 -103 -41t-41 -105h-139q0 117 81 196q80 79 202 79t202 -79q80 -80 80 -196h-139q0 62 -41 105zM1014 846v198h176v-1044h-176v199q-67 -106 -172.5 -165t-233.5 -59q-224 0 -372 157q-150 158 -150 391t150 390q148 156 372 156
q128 0 233.5 -59t172.5 -164zM641 145q161 0 267 108q106 106 106 269t-106 270q-107 107 -267 107q-161 0 -268 -107q-107 -109 -107 -270q0 -162 107 -269q107 -108 268 -108z" />
    <glyph glyph-name="uni0204" unicode="&#x204;" horiz-adv-x="1050" 
d="M281 1815l168 -265h-170l-195 265h197zM680 1815l168 -265h-170l-195 265h197zM354 623v-447h604v-176h-792v1413h782v-176h-594v-438h527v-176h-527z" />
    <glyph glyph-name="uni0205" unicode="&#x205;" horiz-adv-x="1267" 
d="M360 1446l168 -264h-170l-194 264h196zM760 1446l168 -264h-170l-195 264h197zM1192 522q0 -37 -4 -73h-918q22 -139 125 -225q101 -87 242 -87q117 0 208 55q92 54 132 142h194q-57 -162 -200 -260q-144 -99 -334 -99q-239 0 -396 157q-159 158 -159 391t159 390
q157 156 396 156q238 0 396 -157q159 -158 159 -390zM878 823q-102 84 -241 84q-138 0 -238 -83q-100 -82 -127 -218h732q-25 133 -126 217z" />
    <glyph glyph-name="uni0206" unicode="&#x206;" horiz-adv-x="1050" 
d="M659 1642q-41 41 -102 41q-62 0 -102 -40q-41 -41 -41 -105h-140q0 116 81 196q81 78 202 78t202 -78q81 -80 81 -196h-140q0 63 -41 104zM354 623v-447h604v-176h-792v1413h782v-176h-594v-438h527v-176h-527z" />
    <glyph glyph-name="uni0207" unicode="&#x207;" horiz-adv-x="1267" 
d="M739 1274q-41 41 -102 41t-102 -41t-41 -105h-140q0 117 81 196q80 79 202 79t202 -79q81 -79 81 -196h-140q0 62 -41 105zM1192 522q0 -37 -4 -73h-918q22 -139 125 -225q101 -87 242 -87q117 0 208 55q92 54 132 142h194q-57 -162 -200 -260q-144 -99 -334 -99
q-239 0 -396 157q-159 158 -159 391t159 390q157 156 396 156q238 0 396 -157q159 -158 159 -390zM878 823q-102 84 -241 84q-138 0 -238 -83q-100 -82 -127 -218h732q-25 133 -126 217z" />
    <glyph glyph-name="uni0208" unicode="&#x208;" horiz-adv-x="520" 
d="M152 1550h-170l-195 265h197zM551 1550h-170l-195 265h197zM354 0h-188v1413h188v-1413z" />
    <glyph glyph-name="uni0209" unicode="&#x209;" horiz-adv-x="473" 
d="M127 1182h-170l-195 264h197zM526 1182h-170l-194 264h196zM326 0h-176v1044h176v-1044z" />
    <glyph glyph-name="uni020A" unicode="&#x20a;" horiz-adv-x="520" 
d="M117 1538h-140q0 116 81 196q81 78 202 78t202 -78q81 -80 81 -196h-140q0 63 -40 104t-102 41t-103 -41t-41 -104zM354 0h-188v1413h188v-1413z" />
    <glyph glyph-name="uni020B" unicode="&#x20b;" horiz-adv-x="473" 
d="M94 1169h-139q0 117 81 196q80 79 202 79q121 0 201 -79q81 -79 81 -196h-139q0 62 -41 105q-41 41 -102 41q-62 0 -103 -41.5t-41 -104.5zM326 0h-176v1044h176v-1044z" />
    <glyph glyph-name="uni020C" unicode="&#x20c;" horiz-adv-x="1662" 
d="M723 1550h-170l-195 265h197zM1122 1550h-170l-194 265h196zM1359 185q-211 -210 -527 -210t-528 210t-212 522q0 311 212 521t528 210t527 -210q212 -210 212 -521q0 -312 -212 -522zM442 314q156 -158 390 -158q232 0 390 158q156 158 156 393t-156 393
q-157 157 -390 157q-234 0 -390 -157q-157 -157 -157 -393t157 -393z" />
    <glyph glyph-name="uni020D" unicode="&#x20d;" horiz-adv-x="1275" 
d="M528 1182h-170l-194 264h196zM928 1182h-170l-195 264h197zM1036 132q-158 -157 -397 -157t-397 157q-160 157 -160 391q0 233 160 390q159 156 397 156t397 -156q158 -158 158 -390q0 -233 -158 -391zM639 145q161 0 267 108q106 106 106 269t-106 270
q-107 107 -267 107q-161 0 -268 -107q-107 -109 -107 -270q0 -162 107 -269q107 -108 268 -108z" />
    <glyph glyph-name="uni020E" unicode="&#x20e;" horiz-adv-x="1662" 
d="M688 1538h-139q0 116 81 196q81 78 202 78q120 0 201 -78q81 -80 81 -196h-139q0 63 -41 104t-102 41q-62 0 -103 -41t-41 -104zM1359 185q-211 -210 -527 -210t-528 210t-212 522q0 311 212 521t528 210t527 -210q212 -210 212 -521q0 -312 -212 -522zM442 314
q156 -158 390 -158q232 0 390 158q156 158 156 393t-156 393q-157 157 -390 157q-234 0 -390 -157q-157 -157 -157 -393t157 -393z" />
    <glyph glyph-name="uni020F" unicode="&#x20f;" horiz-adv-x="1275" 
d="M494 1169h-140q0 117 81 196q80 79 202 79t202 -79q81 -79 81 -196h-140q0 62 -41 105q-41 41 -102 41q-62 0 -102.5 -41t-40.5 -105zM1036 132q-158 -157 -397 -157t-397 157q-160 157 -160 391q0 233 160 390q159 156 397 156t397 -156q158 -158 158 -390
q0 -233 -158 -391zM639 145q161 0 267 108q106 106 106 269t-106 270q-107 107 -267 107q-161 0 -268 -107q-107 -109 -107 -270q0 -162 107 -269q107 -108 268 -108z" />
    <glyph glyph-name="uni0210" unicode="&#x210;" horiz-adv-x="1155" 
d="M301 1815l168 -265h-170l-195 265h197zM700 1815l168 -265h-170l-194 265h196zM1096 0h-236l-479 561h-27v-561h-188v1413h459q188 0 314 -123t126 -307q0 -179 -125 -301q-124 -121 -311 -121h-17zM621 1237h-267v-512h267q110 0 180 73q71 73 71 183t-71 184
q-72 72 -180 72z" />
    <glyph glyph-name="uni0211" unicode="&#x211;" horiz-adv-x="727" 
d="M-70 1446h197l168 -264h-170zM526 1446l168 -264h-170l-194 264h196zM326 1044v-188q121 205 342 205v-182q-160 0 -251 -96q-91 -97 -91 -259v-524h-176v1044h176z" />
    <glyph glyph-name="uni0212" unicode="&#x212;" horiz-adv-x="1155" 
d="M680 1642q-41 41 -102 41q-63 0 -103 -40q-41 -41 -41 -105h-139q0 116 81 196q81 78 202 78q120 0 201 -78q81 -80 81 -196h-139q0 63 -41 104zM1096 0h-236l-479 561h-27v-561h-188v1413h459q188 0 314 -123t126 -307q0 -179 -125 -301q-124 -121 -311 -121h-17z
M621 1237h-267v-512h267q110 0 180 73q71 73 71 183t-71 184q-72 72 -180 72z" />
    <glyph glyph-name="uni0213" unicode="&#x213;" horiz-adv-x="727" 
d="M508 1274q-41 41 -102 41q-62 0 -103 -41t-41 -105h-139q0 117 81 196q80 79 202 79q121 0 201 -79q81 -79 81 -196h-139q0 62 -41 105zM326 1044v-188q121 205 342 205v-182q-160 0 -251 -96q-91 -97 -91 -259v-524h-176v1044h176z" />
    <glyph glyph-name="uni0214" unicode="&#x214;" horiz-adv-x="1419" 
d="M600 1550h-170l-194 265h196zM999 1550h-170l-194 265h196zM709 -25q-244 0 -409 162t-165 404v872h187v-868q0 -166 111 -277q109 -112 276 -112q168 0 279 112q110 112 110 277v868h186v-872q0 -242 -164 -404q-165 -162 -411 -162z" />
    <glyph glyph-name="uni0215" unicode="&#x215;" horiz-adv-x="1228" 
d="M330 1446l168 -264h-170l-195 264h197zM729 1446l168 -264h-170l-195 264h197zM903 442v602h176v-1044h-176v164q-121 -188 -360 -189q-182 0 -295 113t-113 299v657h176v-606q0 -134 78 -213q78 -80 209 -80q138 0 221 82q84 83 84 215z" />
    <glyph glyph-name="uni0216" unicode="&#x216;" horiz-adv-x="1419" 
d="M565 1538h-139q0 116 81 196q81 78 202 78q120 0 201 -78q81 -80 81 -196h-139q0 63 -41 104t-102 41q-62 0 -103 -41t-41 -104zM709 -25q-244 0 -409 162t-165 404v872h187v-868q0 -166 111 -277q109 -112 276 -112q168 0 279 112q110 112 110 277v868h186v-872
q0 -242 -164 -404q-165 -162 -411 -162z" />
    <glyph glyph-name="uni0217" unicode="&#x217;" horiz-adv-x="1228" 
d="M709 1274q-41 41 -102 41q-62 0 -103 -41t-41 -105h-139q0 117 81 196q79 79 201 79t202 -79q81 -79 81 -196h-139q0 62 -41 105zM903 442v602h176v-1044h-176v164q-121 -188 -360 -189q-182 0 -295 113t-113 299v657h176v-606q0 -134 78 -213q78 -80 209 -80
q138 0 221 82q84 83 84 215z" />
    <glyph glyph-name="uni0218" unicode="&#x218;" horiz-adv-x="1089" 
d="M545 -25q-194 0 -327 122q-132 121 -132 302h190q0 -109 79 -182q80 -74 194 -74q112 0 188 65q74 65 74 161q0 189 -309 266q-393 96 -393 414q0 165 125 278q125 111 311 111t311 -116t125 -290h-190q0 102 -71 170t-177 68q-102 0 -172 -61t-70 -152q0 -183 289 -256
q414 -102 414 -420q0 -174 -131 -290t-328 -116zM551 -451h-145l71 316h185z" />
    <glyph glyph-name="uni0219" unicode="&#x219;" horiz-adv-x="864" 
d="M684 63q-100 -88 -251 -88q-152 0 -252 94q-101 93 -101 228h182q0 -68 50 -115t122 -47q71 0 118 40q48 41 48 99q0 127 -205 179q-140 38 -220 110q-81 72 -81 205q0 135 98 218t240 83q144 0 241 -90t97 -219h-182q0 62 -45 105q-46 44 -113 44q-63 0 -108 -39
q-46 -39 -46 -92q0 -125 205 -174q303 -79 303 -313q0 -141 -100 -228zM436 -451h-145l71 316h185z" />
    <glyph glyph-name="uni021A" unicode="&#x21a;" horiz-adv-x="1118" 
d="M59 1237v176h1000v-176h-406v-1237h-188v1237h-406zM565 -451h-145l72 316h184z" />
    <glyph glyph-name="uni021B" unicode="&#x21b;" horiz-adv-x="765" 
d="M467 1352v-308h240v-159h-240v-885h-176v885h-225v159h225v273zM385 -451h-145l71 316h185z" />
    <glyph glyph-name="uni0232" unicode="&#x232;" horiz-adv-x="1386" 
d="M451 1731h485v-150h-485v150zM696 707l459 706h209l-578 -891v-522h-186v522l-577 891h213z" />
    <glyph glyph-name="uni0233" unicode="&#x233;" horiz-adv-x="1163" 
d="M342 1362h485v-150h-485v150zM584 211l352 833h197l-629 -1433h-191l174 393l-456 1040h200z" />
    <glyph glyph-name="uni0237" unicode="&#x237;" horiz-adv-x="485" 
d="M-37 -414v162q197 0 197 193v1103h176v-1114q0 -344 -373 -344z" />
    <glyph glyph-name="uni02BC" unicode="&#x2bc;" horiz-adv-x="206" 
d="M133 1063h-133l43 412h164z" />
    <glyph glyph-name="circumflex" unicode="&#x2c6;" horiz-adv-x="626" 
d="M420 1446l207 -264h-168l-146 170l-145 -170h-168l205 264h215z" />
    <glyph glyph-name="caron" unicode="&#x2c7;" horiz-adv-x="626" 
d="M313 1276l146 170h168l-207 -264h-215l-205 264h168z" />
    <glyph glyph-name="breve" unicode="&#x2d8;" horiz-adv-x="565" 
d="M484 1239q-81 -78 -201 -78q-121 0 -202 78t-81 195h139q0 -60 41 -103q40 -43 103 -43q61 0 102 42q41 43 41 104h139q0 -117 -81 -195z" />
    <glyph glyph-name="dotaccent" unicode="&#x2d9;" horiz-adv-x="227" 
d="M115 1192q-49 0 -82 32.5t-33 80.5q0 47 33 79.5t82 32.5q47 0 79.5 -32.5t32.5 -79.5q0 -48 -32.5 -80.5t-79.5 -32.5z" />
    <glyph glyph-name="ring" unicode="&#x2da;" horiz-adv-x="356" 
d="M305 1203q-52 -50 -127 -50t-127 50q-51 49 -51 126q0 75 51 124q52 50 127 50t127 -50q51 -49 51 -124q0 -77 -51 -126zM121 1269q25 -23 57 -24t57.5 23.5t22.5 60.5q0 35 -22.5 58.5t-57.5 23.5t-57.5 -23.5t-22.5 -58.5q0 -37 23 -60z" />
    <glyph glyph-name="ogonek" unicode="&#x2db;" horiz-adv-x="399" 
d="M217 -457q-93 0 -154 57q-63 58 -63 142q0 83 60 154t161 110h133l4 -6q-217 -96 -217 -221q0 -47 31.5 -77t79.5 -30q71 0 129 47v-131q-71 -45 -164 -45z" />
    <glyph glyph-name="tilde" unicode="&#x2dc;" horiz-adv-x="694" 
d="M485 1194q-69 0 -142 57q-76 56 -116 56q-42 0 -71 -30t-29 -73h-127q0 104 57 173q55 69 150 69q69 0 143 -55q74 -56 115 -56q43 0 71.5 29t28.5 74h129q0 -105 -56 -175q-57 -69 -153 -69z" />
    <glyph glyph-name="hungarumlaut" unicode="&#x2dd;" horiz-adv-x="763" 
d="M172 1182h-172l168 264h197zM569 1182h-170l168 264h197z" />
    <glyph glyph-name="gravecomb" unicode="&#x300;" 
d="M-438 1182h-186l-252 264h227z" />
    <glyph glyph-name="acutecomb" unicode="&#x301;" 
d="M-250 1182h-188l213 264h225z" />
    <glyph glyph-name="uni0302" unicode="&#x302;" 
d="M-207 1446l207 -264h-168l-145 170l-146 -170h-168l205 264h215z" />
    <glyph glyph-name="tildecomb" unicode="&#x303;" 
d="M-209 1194q-68 0 -143 57q-74 56 -115 56q-42 0 -71 -30t-29 -73h-127q0 103 56 173q56 69 151 69q69 0 142 -55q76 -56 116 -56q43 0 71.5 29t28.5 74h129q0 -106 -57 -175q-55 -69 -152 -69z" />
    <glyph glyph-name="uni0304" unicode="&#x304;" 
d="M-485 1212h-485v150h485v-150z" />
    <glyph glyph-name="uni0306" unicode="&#x306;" 
d="M-81 1239q-81 -78 -202 -78q-120 0 -201 78t-81 195h139q0 -60 41 -103q40 -43 102 -43q63 0 103 42q41 43 41 104h139q0 -117 -81 -195z" />
    <glyph glyph-name="uni0307" unicode="&#x307;" 
d="M-113 1192q-49 0 -81.5 32.5t-32.5 80.5q0 47 32.5 79.5t81.5 32.5q47 0 80 -32.5t33 -79.5q0 -48 -33 -80.5t-80 -32.5z" />
    <glyph glyph-name="uni0308" unicode="&#x308;" 
d="M-456 1224q-32 -32 -79 -32t-78 31q-30 30 -30 78q0 47 30 78q31 30 78 30q48 0 79 -31q32 -32 32 -77.5t-32 -76.5zM-111 1192q-46 0 -77 31t-31 78t31 77.5t77 30.5q47 0 79 -31.5t32 -76.5q0 -46 -32 -77.5t-79 -31.5z" />
    <glyph glyph-name="uni030A" unicode="&#x30a;" 
d="M-51 1203q-52 -50 -127 -50t-127 50q-51 49 -51 126q0 75 51 124q52 50 127 50t127 -50q51 -49 51 -124q0 -77 -51 -126zM-236 1269q17 -18 42 -22.5t47 4.5t37 30t12 48q0 35 -22.5 58.5t-57.5 23.5t-57.5 -23.5t-22.5 -58.5q0 -38 22 -60z" />
    <glyph glyph-name="uni030B" unicode="&#x30b;" 
d="M-592 1182h-172l168 264h197zM-195 1182h-170l168 264h197z" />
    <glyph glyph-name="uni030C" unicode="&#x30c;" 
d="M-313 1276l145 170h168l-207 -264h-215l-205 264h168z" />
    <glyph glyph-name="uni030F" unicode="&#x30f;" 
d="M-399 1182h-170l-195 264h197zM0 1182h-170l-195 264h197z" />
    <glyph glyph-name="uni0311" unicode="&#x311;" 
d="M-426 1169h-139q0 117 81 196q80 79 201 79q122 0 202 -79q81 -79 81 -196h-139q0 62 -41 105q-41 41 -103 41t-102.5 -41t-40.5 -105z" />
    <glyph glyph-name="uni0312" unicode="&#x312;" 
d="M-72 1169h-184l111 316h145z" />
    <glyph glyph-name="dotbelowcomb" unicode="&#x323;" 
d="M-113 -373q-49 0 -81.5 32.5t-32.5 80.5t32.5 80.5t81.5 32.5q47 0 80 -33t33 -80t-33 -80t-80 -33z" />
    <glyph glyph-name="uni0326" unicode="&#x326;" 
d="M-111 -451h-145l72 316h184z" />
    <glyph glyph-name="uni0327" unicode="&#x327;" 
d="M-199 -70h11q83 0 135 -55q53 -56 53 -139q0 -84 -61 -142q-60 -57 -150 -57q-89 0 -151 57q-60 58 -60 142h111q0 -41 29.5 -69.5t70.5 -28.5t70.5 28.5t29.5 69.5q0 42 -29 71t-71 29q-44 0 -70 -29l-102 46l115 147v4h127v-4z" />
    <glyph glyph-name="uni0328" unicode="&#x328;" 
d="M-164 -457q-92 0 -155 57q-62 59 -62 142t60 154t161 110h133l4 -6q-217 -96 -217 -221q0 -47 31.5 -77t79.5 -30q71 0 129 47v-131q-70 -45 -164 -45z" />
    <glyph glyph-name="uni0335" unicode="&#x335;" 
d="M-594 498h-594v129h594v-129z" />
    <glyph glyph-name="uni0336" unicode="&#x336;" 
d="M-1395 496h-1395v131h1395v-131z" />
    <glyph glyph-name="uni0337" unicode="&#x337;" 
d="M-934 0h-133l934 1044h133z" />
    <glyph glyph-name="uni0338" unicode="&#x338;" 
d="M-1239 0h-162l1239 1413h162z" />
    <glyph glyph-name="uni1E0C" unicode="&#x1e0c;" horiz-adv-x="1517" 
d="M166 1413h545q307 0 512 -201q204 -202 204 -505q0 -304 -204 -505q-205 -202 -512 -202h-545v1413zM354 176h355q224 0 376 152q150 151 150 379t-150 379q-151 151 -376 151h-355v-1061zM741 -147q47 0 80 -33t33 -80t-33 -80t-80 -33q-49 0 -81.5 32.5t-32.5 80.5
t32.5 80.5t81.5 32.5z" />
    <glyph glyph-name="uni1E0D" unicode="&#x1e0d;" horiz-adv-x="1339" 
d="M1014 846v629h176v-1475h-176v199q-67 -106 -172.5 -165t-233.5 -59q-224 0 -372 157q-150 158 -150 391t150 390q148 156 372 156q128 0 233.5 -59t172.5 -164zM641 145q161 0 267 108q106 106 106 269t-106 270q-107 107 -267 107q-161 0 -268 -107
q-107 -109 -107 -270q0 -162 107 -269q107 -108 268 -108zM668 -147q47 0 79.5 -33t32.5 -80t-32.5 -80t-79.5 -33q-49 0 -82 33t-33 80t33 80t82 33z" />
    <glyph glyph-name="uni1E24" unicode="&#x1e24;" horiz-adv-x="1495" 
d="M1141 799v614h188v-1413h-188v623h-787v-623h-188v1413h188v-614h787zM750 -147q47 0 79.5 -33t32.5 -80t-32.5 -80t-79.5 -33q-49 0 -82 33t-33 80t33 80t82 33z" />
    <glyph glyph-name="uni1E25" unicode="&#x1e25;" horiz-adv-x="1261" 
d="M702 1069q191 0 307 -115q117 -116 117 -309v-645h-176v590q0 138 -83 224q-82 85 -222 85q-142 0 -231 -86q-88 -85 -88 -227v-586h-176v1475h176v-605q124 199 376 199zM639 -147q47 0 80 -33t33 -80t-33 -80t-80 -33q-49 0 -82 33t-33 80t33 80t82 33z" />
    <glyph glyph-name="uni1E44" unicode="&#x1e44;" horiz-adv-x="1513" 
d="M762 1561q-49 0 -82 32.5t-33 79.5t33 80t82 33q47 0 79.5 -33t32.5 -80t-32.5 -79.5t-79.5 -32.5zM1159 309v1104h187v-1413h-193l-799 1100v-1100h-188v1413h194z" />
    <glyph glyph-name="uni1E45" unicode="&#x1e45;" horiz-adv-x="1261" 
d="M639 1192q-49 0 -82 32.5t-33 80.5q0 47 33 79.5t82 32.5q47 0 80 -32.5t33 -79.5q0 -48 -33 -80.5t-80 -32.5zM702 1069q191 0 307 -115q117 -116 117 -309v-645h-176v590q0 138 -83 224q-82 85 -222 85q-142 0 -231 -86q-88 -85 -88 -227v-586h-176v1044h176v-167
q124 192 376 192z" />
    <glyph glyph-name="uni1E5A" unicode="&#x1e5a;" horiz-adv-x="1155" 
d="M629 561h-17l484 -561h-236l-479 561h-27v-561h-188v1413h459q188 0 314 -123t126 -307q0 -179 -125 -301q-124 -121 -311 -121zM621 1237h-267v-512h267q110 0 180 73q71 73 71 183t-71 184q-72 72 -180 72zM600 -147q47 0 80 -33t33 -80t-33 -80t-80 -33q-49 0 -82 33
t-33 80t33 80t82 33z" />
    <glyph glyph-name="uni1E5B" unicode="&#x1e5b;" horiz-adv-x="727" 
d="M326 1044v-188q121 205 342 205v-182q-160 0 -251 -96q-91 -97 -91 -259v-524h-176v1044h176zM238 -147q47 0 79.5 -33t32.5 -80t-32.5 -80t-79.5 -33q-49 0 -82 33t-33 80t33 80t82 33z" />
    <glyph glyph-name="uni1E62" unicode="&#x1e62;" horiz-adv-x="1089" 
d="M545 -25q-194 0 -327 122q-132 121 -132 302h190q0 -109 79 -182q80 -74 194 -74q112 0 188 65q74 65 74 161q0 189 -309 266q-393 96 -393 414q0 165 125 278q125 111 311 111t311 -116t125 -290h-190q0 102 -71 170t-177 68q-102 0 -172 -61t-70 -152q0 -183 289 -256
q414 -102 414 -420q0 -174 -131 -290t-328 -116zM547 -373q-49 0 -82 33t-33 80t33 80t82 33q47 0 79.5 -33t32.5 -80t-32.5 -80t-79.5 -33z" />
    <glyph glyph-name="uni1E63" unicode="&#x1e63;" horiz-adv-x="864" 
d="M684 63q-100 -88 -251 -88q-152 0 -252 94q-101 93 -101 228h182q0 -68 50 -115t122 -47q71 0 118 40q48 41 48 99q0 127 -205 179q-140 38 -220 110q-81 72 -81 205q0 135 98 218t240 83q144 0 241 -90t97 -219h-182q0 62 -45 105q-46 44 -113 44q-63 0 -108 -39
q-46 -39 -46 -92q0 -125 205 -174q303 -79 303 -313q0 -141 -100 -228zM432 -373q-49 0 -82 33t-33 80t33 80t82 33q47 0 80 -33t33 -80t-33 -80t-80 -33z" />
    <glyph glyph-name="uni1E6C" unicode="&#x1e6c;" horiz-adv-x="1118" 
d="M59 1237v176h1000v-176h-406v-1237h-188v1237h-406zM561 -147q47 0 80 -33t33 -80t-33 -80t-80 -33q-49 0 -82 33t-33 80t33 80t82 33z" />
    <glyph glyph-name="uni1E6D" unicode="&#x1e6d;" horiz-adv-x="765" 
d="M467 1352v-308h240v-159h-240v-885h-176v885h-225v159h225v273zM381 -147q47 0 80 -33t33 -80t-33 -80t-80 -33q-49 0 -82 33t-33 80t33 80t82 33z" />
    <glyph glyph-name="Wgrave" unicode="&#x1e80;" horiz-adv-x="2301" 
d="M1049 1815l211 -265h-187l-252 265h228zM1647 246l401 1167h203l-508 -1413h-193l-399 1141l-399 -1141h-193l-508 1413h207l401 -1167l408 1167h172z" />
    <glyph glyph-name="wgrave" unicode="&#x1e81;" horiz-adv-x="1849" 
d="M831 1446l211 -264h-186l-252 264h227zM1323 215l295 829h194l-397 -1044h-184l-305 842l-305 -842h-185l-397 1044h199l294 -835l306 835h182z" />
    <glyph glyph-name="Wacute" unicode="&#x1e82;" horiz-adv-x="2301" 
d="M1255 1815h226l-250 -265h-189zM1647 246l401 1167h203l-508 -1413h-193l-399 1141l-399 -1141h-193l-508 1413h207l401 -1167l408 1167h172z" />
    <glyph glyph-name="wacute" unicode="&#x1e83;" horiz-adv-x="1849" 
d="M1040 1446h226l-250 -264h-189zM1323 215l295 829h194l-397 -1044h-184l-305 842l-305 -842h-185l-397 1044h199l294 -835l306 835h182z" />
    <glyph glyph-name="Wdieresis" unicode="&#x1e84;" horiz-adv-x="2301" 
d="M938 1561q-46 0 -77.5 30.5t-31.5 77.5t31.5 78t77.5 31q47 0 79 -32t32 -77t-32 -76.5t-79 -31.5zM1441 1593q-32 -32 -79 -32t-78 31q-31 30 -31 77t31 78t78 31t79 -32t32 -77t-32 -76zM1647 246l401 1167h203l-508 -1413h-193l-399 1141l-399 -1141h-193l-508 1413
h207l401 -1167l408 1167h172z" />
    <glyph glyph-name="wdieresis" unicode="&#x1e85;" horiz-adv-x="1849" 
d="M802 1224q-32 -32 -79 -32t-78 31q-31 30 -31 78q0 47 31 78q31 30 78 30q48 0 79 -31q32 -32 32 -77.5t-32 -76.5zM1147 1192q-46 0 -77.5 31t-31.5 78t31.5 77.5t77.5 30.5q47 0 78.5 -31.5t31.5 -76.5q0 -46 -31.5 -77.5t-78.5 -31.5zM1323 215l295 829h194
l-397 -1044h-184l-305 842l-305 -842h-185l-397 1044h199l294 -835l306 835h182z" />
    <glyph glyph-name="uni1E92" unicode="&#x1e92;" horiz-adv-x="1257" 
d="M1159 1278l-819 -1102h834v-176h-1090v135l819 1102h-811v176h1067v-135zM627 -147q47 0 79.5 -33t32.5 -80t-32.5 -80t-79.5 -33q-49 0 -82 33t-33 80t33 80t82 33z" />
    <glyph glyph-name="uni1E93" unicode="&#x1e93;" horiz-adv-x="1024" 
d="M920 918l-584 -748h598v-170h-844v127l584 747h-576v170h822v-126zM512 -147q47 0 80 -33t33 -80t-33 -80t-80 -33q-49 0 -82 33t-33 80t33 80t82 33z" />
    <glyph glyph-name="uni1E9E" unicode="&#x1e9e;" horiz-adv-x="1255" 
d="M1090 1260l-289 -398q176 -18 290 -143q113 -125 113 -301q0 -190 -129 -316q-128 -127 -321 -127q-144 0 -242 68v190q32 -33 94 -55q59 -22 119 -22q122 0 205 77q82 76 82 193q0 113 -77 190q-76 76 -190 76h-147v137l287 408h-387q-68 0 -110 -42.5t-42 -109.5v-1085
h-188v1104q0 137 89 223t230 86h613v-153z" />
    <glyph glyph-name="uni1EA0" unicode="&#x1ea0;" horiz-adv-x="1460" 
d="M842 1413l575 -1413h-207l-137 342h-692l-137 -342h-201l575 1413h224zM727 1210l-276 -694h553zM729 -147q47 0 80 -33t33 -80t-33 -80t-80 -33q-49 0 -82 33t-33 80t33 80t82 33z" />
    <glyph glyph-name="uni1EA1" unicode="&#x1ea1;" horiz-adv-x="1339" 
d="M1014 846v198h176v-1044h-176v199q-67 -106 -172.5 -165t-233.5 -59q-224 0 -372 157q-150 158 -150 391t150 390q148 156 372 156q128 0 233.5 -59t172.5 -164zM641 145q161 0 267 108q106 106 106 269t-106 270q-107 107 -267 107q-161 0 -268 -107
q-107 -109 -107 -270q0 -162 107 -269q107 -108 268 -108zM676 -147q47 0 79.5 -33t32.5 -80t-32.5 -80t-79.5 -33q-49 0 -82 33t-33 80t33 80t82 33z" />
    <glyph glyph-name="uni1EB8" unicode="&#x1eb8;" horiz-adv-x="1050" 
d="M354 623v-447h604v-176h-792v1413h782v-176h-594v-438h527v-176h-527zM557 -147q47 0 80 -33t33 -80t-33 -80t-80 -33q-49 0 -82 33t-33 80t33 80t82 33z" />
    <glyph glyph-name="uni1EB9" unicode="&#x1eb9;" horiz-adv-x="1267" 
d="M1192 522q0 -37 -4 -73h-918q22 -139 125 -225q101 -87 242 -87q117 0 208 55q92 54 132 142h194q-57 -162 -200 -260q-144 -99 -334 -99q-239 0 -396 157q-159 158 -159 391t159 390q157 156 396 156q238 0 396 -157q159 -158 159 -390zM878 823q-102 84 -241 84
q-138 0 -238 -83q-100 -82 -127 -218h732q-25 133 -126 217zM639 -147q47 0 80 -33t33 -80t-33 -80t-80 -33q-49 0 -82 33t-33 80t33 80t82 33z" />
    <glyph glyph-name="uni1EBC" unicode="&#x1ebc;" horiz-adv-x="1050" 
d="M436 1675q-43 0 -71.5 -29.5t-28.5 -72.5h-127q0 104 57 173q56 69 150 69q69 0 143 -55q74 -56 115 -56q43 0 71.5 28.5t28.5 73.5h129q0 -106 -56 -174q-55 -69 -153 -69q-68 0 -142 56q-76 56 -116 56zM354 623v-447h604v-176h-792v1413h782v-176h-594v-438h527v-176
h-527z" />
    <glyph glyph-name="uni1EBD" unicode="&#x1ebd;" horiz-adv-x="1267" 
d="M518 1307q-42 0 -71 -30t-29 -73h-127q0 103 56 173q55 69 151 69q69 0 143 -55q74 -56 115 -56q43 0 71.5 29t28.5 74h129q0 -105 -56 -175q-57 -69 -153 -69q-68 0 -142 57q-76 56 -116 56zM1192 522q0 -37 -4 -73h-918q22 -139 125 -225q101 -87 242 -87q117 0 208 55
q92 54 132 142h194q-57 -162 -200 -260q-144 -99 -334 -99q-239 0 -396 157q-159 158 -159 391t159 390q157 156 396 156q238 0 396 -157q159 -158 159 -390zM878 823q-102 84 -241 84q-138 0 -238 -83q-100 -82 -127 -218h732q-25 133 -126 217z" />
    <glyph glyph-name="uni1ECA" unicode="&#x1eca;" horiz-adv-x="520" 
d="M354 0h-188v1413h188v-1413zM262 -373q-49 0 -82 33t-33 80t33 80t82 33q47 0 80 -33t33 -80t-33 -80t-80 -33z" />
    <glyph glyph-name="uni1ECB" unicode="&#x1ecb;" horiz-adv-x="473" 
d="M238 1253q-51 0 -85 34t-34 83q0 51 33.5 84t85.5 33q49 0 82.5 -33t33.5 -84q0 -49 -33.5 -83t-82.5 -34zM326 0h-176v1044h176v-1044zM238 -373q-49 0 -82 33t-33 80q0 48 32.5 80.5t82.5 32.5q47 0 79.5 -33t32.5 -80t-32.5 -80t-79.5 -33z" />
    <glyph glyph-name="uni1ECC" unicode="&#x1ecc;" horiz-adv-x="1662" 
d="M1359 185q-211 -210 -527 -210t-528 210t-212 522q0 311 212 521t528 210t527 -210q212 -210 212 -521q0 -312 -212 -522zM442 314q156 -158 390 -158q232 0 390 158q156 158 156 393t-156 393q-157 157 -390 157q-234 0 -390 -157q-157 -157 -157 -393t157 -393z
M834 -373q-49 0 -82 33t-33 80q0 48 32.5 80.5t82.5 32.5q47 0 79.5 -33t32.5 -80t-32.5 -80t-79.5 -33z" />
    <glyph glyph-name="uni1ECD" unicode="&#x1ecd;" horiz-adv-x="1275" 
d="M1036 132q-158 -157 -397 -157t-397 157q-160 157 -160 391q0 233 160 390q159 156 397 156t397 -156q158 -158 158 -390q0 -233 -158 -391zM639 145q161 0 267 108q106 106 106 269t-106 270q-107 107 -267 107q-161 0 -268 -107q-107 -109 -107 -270q0 -162 107 -269
q107 -108 268 -108zM639 -373q-49 0 -82 33t-33 80t33 80t82 33q47 0 80 -33t33 -80t-33 -80t-80 -33z" />
    <glyph glyph-name="uni1EE4" unicode="&#x1ee4;" horiz-adv-x="1419" 
d="M709 -25q-244 0 -409 162t-165 404v872h187v-868q0 -166 111 -277q109 -112 276 -112q168 0 279 112q110 112 110 277v868h186v-872q0 -242 -164 -404q-165 -162 -411 -162zM711 -373q-49 0 -82 33t-33 80t33 80t82 33q47 0 79.5 -33t32.5 -80t-32.5 -80t-79.5 -33z" />
    <glyph glyph-name="uni1EE5" unicode="&#x1ee5;" horiz-adv-x="1228" 
d="M903 442v602h176v-1044h-176v164q-121 -188 -360 -189q-182 0 -295 113t-113 299v657h176v-606q0 -134 78 -213q78 -80 209 -80q138 0 221 82q84 83 84 215zM608 -147q47 0 80 -33t33 -80t-33 -80t-80 -33q-48 0 -81 32.5t-33 80.5t33 80.5t81 32.5z" />
    <glyph glyph-name="Ygrave" unicode="&#x1ef2;" horiz-adv-x="1386" 
d="M590 1815l211 -265h-187l-252 265h228zM696 707l459 706h209l-578 -891v-522h-186v522l-577 891h213z" />
    <glyph glyph-name="ygrave" unicode="&#x1ef3;" horiz-adv-x="1163" 
d="M481 1446l211 -264h-186l-252 264h227zM584 211l352 833h197l-629 -1433h-191l174 393l-456 1040h200z" />
    <glyph glyph-name="uni1EF8" unicode="&#x1ef8;" horiz-adv-x="1386" 
d="M575 1675q-43 0 -71.5 -29.5t-28.5 -72.5h-127q0 104 57 173q55 69 150 69q69 0 143 -55q74 -56 115 -56q43 0 71.5 28.5t28.5 73.5h129q0 -106 -56 -174q-56 -69 -152 -69q-67 0 -143 56t-116 56zM696 707l459 706h209l-578 -891v-522h-186v522l-577 891h213z" />
    <glyph glyph-name="uni1EF9" unicode="&#x1ef9;" horiz-adv-x="1163" 
d="M465 1307q-42 0 -71 -30t-29 -73h-127q0 103 56 173q56 69 150 69q69 0 143 -55q76 -56 115 -56q43 0 72 29t29 74h129q0 -105 -56 -175q-57 -69 -153 -69q-69 0 -142 57q-76 56 -116 56zM584 211l352 833h197l-629 -1433h-191l174 393l-456 1040h200z" />
    <glyph glyph-name="endash" unicode="&#x2013;" horiz-adv-x="1245" 
d="M1116 481h-987v160h987v-160z" />
    <glyph glyph-name="emdash" unicode="&#x2014;" horiz-adv-x="2187" 
d="M2058 481h-1929v160h1929v-160z" />
    <glyph glyph-name="quoteleft" unicode="&#x2018;" horiz-adv-x="503" 
d="M311 911h-209l199 502h154z" />
    <glyph glyph-name="quoteright" unicode="&#x2019;" horiz-adv-x="503" 
d="M256 911h-154l144 502h209z" />
    <glyph glyph-name="quotesinglbase" unicode="&#x201a;" horiz-adv-x="491" 
d="M195 -289h-154l143 502h209z" />
    <glyph glyph-name="quotedblleft" unicode="&#x201c;" horiz-adv-x="931" 
d="M311 911h-209l199 502h154zM739 911h-207l197 502h154z" />
    <glyph glyph-name="quotedblright" unicode="&#x201d;" horiz-adv-x="931" 
d="M256 911h-154l144 502h209zM684 911h-152l142 502h209z" />
    <glyph glyph-name="quotedblbase" unicode="&#x201e;" horiz-adv-x="919" 
d="M195 -289h-154l143 502h209zM623 -289h-154l143 502h209z" />
    <glyph glyph-name="dagger" unicode="&#x2020;" horiz-adv-x="1011" 
d="M588 1044h295v-159h-295v-1274h-164v1274h-295v159h295v369h164v-369z" />
    <glyph glyph-name="daggerdbl" unicode="&#x2021;" horiz-adv-x="1011" 
d="M883 1044v-159h-295v-705h295v-160h-295v-409h-164v409h-295v160h295v705h-295v159h295v369h164v-369h295z" />
    <glyph glyph-name="bullet" unicode="&#x2022;" horiz-adv-x="651" 
d="M466 422q-55 -55 -140 -55t-140 55q-57 56 -57 139q0 85 57 140q55 55 140 55t140 -55q56 -56 56 -140q0 -83 -56 -139z" />
    <glyph glyph-name="ellipsis" unicode="&#x2026;" horiz-adv-x="1478" 
d="M240 -14q-56 0 -93 38q-38 38 -38 93t38 93t93 38q57 0 95 -38t38 -93q0 -56 -38 -93.5t-95 -37.5zM834 24q-37 -38 -94 -38q-59 0 -96 38q-38 38 -38 93t38 93t96 38q56 0 94 -38q36 -38 36 -93t-36 -93zM1237 -14q-56 0 -93 38q-38 38 -38 93t38 93t93 38q57 0 95 -38
t38 -93q0 -56 -38 -93.5t-95 -37.5z" />
    <glyph glyph-name="perthousand" unicode="&#x2030;" horiz-adv-x="2476" 
d="M430 782q-142 0 -237 95t-95 233q0 139 95 234q94 94 237 94q142 0 236 -94t94 -234q0 -139 -94 -233q-95 -95 -236 -95zM440 0h-190l1024 1413h190zM300 979q53 -53 130 -53t130 53q52 52 52 131t-52 131q-53 53 -130 53t-130 -53q-52 -52 -52 -131t52 -131zM1519 70
q-97 -95 -237 -95q-141 0 -236 95q-96 94 -96 233t96 234q94 94 236 94t237 -94q95 -95 95 -234q0 -138 -95 -233zM2283 70q-97 -95 -237 -95q-141 0 -236 95q-96 94 -96 233t96 234q94 94 236 94t237 -94q95 -95 95 -234q0 -138 -95 -233zM1152 172q53 -53 130 -53t130 53
q52 52 52 131t-52 131q-53 53 -130 53t-130 -53q-52 -52 -52 -131t52 -131zM1916 172q53 -53 130 -53t130 53q52 52 52 131t-52 131q-53 53 -130 53t-130 -53q-52 -52 -52 -131t52 -131z" />
    <glyph glyph-name="guilsinglleft" unicode="&#x2039;" horiz-adv-x="733" 
d="M428 956h209l-342 -415l342 -416h-209l-340 416z" />
    <glyph glyph-name="guilsinglright" unicode="&#x203a;" horiz-adv-x="733" 
d="M102 956h209l340 -415l-340 -416h-209l340 416z" />
    <glyph glyph-name="fraction" unicode="&#x2044;" horiz-adv-x="372" 
d="M-225 0h-166l989 1413h166z" />
    <glyph glyph-name="uni2070" unicode="&#x2070;" horiz-adv-x="811" 
d="M643 858q-91 -123 -237 -123t-238 123q-92 124 -92 316q0 191 92 315q91 123 238 123q146 0 237 -123q92 -124 92 -315q0 -192 -92 -316zM269 951q52 -85 137 -85q83 0 137 84q53 85 53 224q0 138 -53 223q-54 84 -137 84q-85 0 -137 -85q-54 -86 -54 -222
q0 -138 54 -223z" />
    <glyph glyph-name="uni2074" unicode="&#x2074;" horiz-adv-x="731" 
d="M582 1053h106v-123h-106v-180h-136v180h-399v98l371 569h164v-544zM446 1448l-253 -395h253v395z" />
    <glyph glyph-name="uni2075" unicode="&#x2075;" horiz-adv-x="718" 
d="M385 1288q122 0 202 -79q81 -79 81 -197t-84 -198q-83 -79 -211 -79q-126 0 -209 79q-84 80 -84 198h137q0 -68 45 -112q46 -44 111 -44q68 0 113 45q44 46 44 111q0 68 -45 114q-45 45 -112 45q-40 0 -80.5 -20.5t-59.5 -48.5h-137l41 495h475v-120h-352l-22 -238
q62 49 147 49z" />
    <glyph glyph-name="uni2076" unicode="&#x2076;" horiz-adv-x="700" 
d="M367 1292q119 0 200 -78q80 -80 80 -196q0 -121 -84 -202t-209 -81t-210 82t-85 201q0 89 56 174l270 405h160l-205 -307q12 2 27 2zM244 906q46 -44 111 -44q64 0 110 44q45 44 45 112q0 66 -45 111t-110 45q-66 0 -111 -45q-45 -47 -45 -111q0 -68 45 -112z" />
    <glyph glyph-name="uni2077" unicode="&#x2077;" horiz-adv-x="667" 
d="M66 1470v127h559v-104l-346 -743h-150l334 720h-397z" />
    <glyph glyph-name="uni2078" unicode="&#x2078;" horiz-adv-x="686" 
d="M496 1188q131 -68 131 -207q0 -105 -81 -175q-82 -71 -202 -71t-202 71q-81 70 -81 175q0 139 129 207q-113 67 -112 190q0 100 76 167q74 67 190 67q115 0 191 -66q75 -68 75 -168q2 -122 -114 -190zM436 1446q-38 35 -92 35t-92 -35q-37 -34 -37 -86q0 -53 37 -88
t92 -35t92 35t37 88q0 52 -37 86zM242 904q41 -38 103 -38q61 0 102 38q40 37 40 96q0 57 -40.5 95t-102.5 38q-58 0 -101 -38q-42 -37 -42 -95t41 -96z" />
    <glyph glyph-name="uni2079" unicode="&#x2079;" horiz-adv-x="700" 
d="M144 1531q86 81 210 81q125 0 209 -81t84 -202q0 -89 -57 -174l-266 -405h-160l205 307q-14 -2 -29 -2q-120 0 -200 79q-81 78 -81 195q0 121 85 202zM354 1174q66 0 111 45t45 110q0 68 -45 113t-111 45q-68 0 -112 -45q-45 -45 -45 -113q0 -67 45 -110q44 -45 112 -45z
" />
    <glyph glyph-name="franc" unicode="&#x20a3;" horiz-adv-x="1040" 
d="M963 1413v-176h-566v-428h480v-176h-480v-234h312v-161h-312v-238h-186v238h-135v161h135v1014h752z" />
    <glyph glyph-name="lira" unicode="&#x20a4;" horiz-adv-x="1183" 
d="M422 453v-277h690v-176h-1014v176h133v277h-133v145h133v113h-133v145h133v162q0 180 124 300q125 120 307 120t306 -120t124 -300h-191q0 102 -68 170q-68 67 -171 67q-104 0 -171 -67q-69 -68 -69 -170v-162h434v-145h-434v-113h434v-145h-434z" />
    <glyph glyph-name="peseta" unicode="&#x20a7;" horiz-adv-x="1304" 
d="M1143 1012h100v-123h-100q-22 -178 -153 -292q-130 -114 -318 -114h-256v-481h-189v887h-133v123h133v403h445q186 0 317 -113q132 -115 154 -290zM670 1239h-254v-227h532q-19 98 -97 164q-77 63 -181 63zM416 659h254q105 0 181 64q78 64 97 166h-532v-230z" />
    <glyph glyph-name="uni20A8" unicode="&#x20a8;" horiz-adv-x="2019" 
d="M629 561h-17l484 -561h-236l-479 561h-27v-561h-188v1413h459q188 0 314 -123t126 -307q0 -179 -125 -301q-124 -121 -311 -121zM621 1237h-267v-512h267q110 0 180 73q71 73 71 183t-71 184q-72 72 -180 72zM1636 604q303 -79 303 -313q0 -141 -100 -228
q-100 -88 -251 -88q-152 0 -252 94q-101 93 -101 228h182q0 -69 51 -115q50 -47 121 -47t118 40q48 41 48 99q0 127 -205 179q-140 38 -220 110q-81 72 -81 205q0 135 98 218t241 83q142 0 240 -90q97 -90 97 -219h-182q0 62 -45 105q-46 44 -113 44q-63 0 -108 -39t-45 -92
q-2 -124 204 -174z" />
    <glyph glyph-name="Euro" unicode="&#x20ac;" horiz-adv-x="1554" 
d="M981 1255q-188 0 -330 -94q-144 -95 -202 -252h821l-45 -145h-811q-2 -24 -2 -57q0 -32 2 -58h772l-43 -145h-694q58 -157 202 -252q142 -94 330 -94q280 0 471 194v-207q-212 -170 -494 -170q-258 0 -452 147q-195 146 -260 382h-178l45 145h108q-2 24 -2 57q0 32 2 58
h-153l45 145h133q66 236 260 383q194 146 452 146q282 0 494 -170v-207q-191 194 -471 194z" />
    <glyph glyph-name="uni20B1" unicode="&#x20b1;" horiz-adv-x="1304" 
d="M1118 1118h127v-127h-98q1 -11 1 -45t-1 -45h98v-125h-127q-51 -132 -170 -214q-118 -81 -274 -81h-260v-481h-187v776h-133v125h133v90h-133v127h133v295h447q156 0 275 -81q118 -81 169 -214zM653 1243h-239v-125h489q-89 125 -250 125zM414 901h536q6 46 0 90h-536
v-90zM414 651h239q161 0 250 125h-489v-125z" />
    <glyph glyph-name="uni20B5" unicode="&#x20b5;" horiz-adv-x="1671" 
d="M936 1237v-1061q163 27 278 136q115 108 150 266h195q-41 -233 -211 -394q-171 -162 -412 -190v-137h-176v135q-280 28 -464 229q-183 199 -183 486t183 486t464 228v135h176v-137q243 -29 412 -189q170 -161 211 -394h-195q-35 158 -150 266t-278 135zM433 1063
q-128 -149 -128 -356q0 -208 128 -356q127 -149 327 -177v1065q-199 -28 -327 -176z" />
    <glyph glyph-name="uni20B9" unicode="&#x20b9;" horiz-adv-x="1148" 
d="M1036 1268h-213q57 -66 84 -148h185l-56 -145h-106q-1 -185 -128 -310q-125 -124 -313 -124h-79l553 -541h-250l-566 551v160h330q111 0 186 76q74 76 74 188h-590v145h553q-72 125 -223 125h-330v168h945z" />
    <glyph glyph-name="uni2116" unicode="&#x2116;" horiz-adv-x="2367" 
d="M2167 794q-109 -108 -270 -108q-162 0 -270 108q-109 106 -109 267q0 162 109 270q109 107 270 107q160 0 270 -107q108 -108 108 -270q0 -161 -108 -267zM360 1413l799 -1104v1104h187v-1413h-193l-799 1100v-1100h-188v1413h194zM1896 1288q-95 0 -160 -65
q-65 -67 -65 -162t66 -159q65 -66 160 -66q94 0 159 65q64 64 64 160q0 95 -65 162q-65 65 -159 65zM2247 371h-703v159h703v-159z" />
    <glyph glyph-name="trademark" unicode="&#x2122;" horiz-adv-x="1374" 
d="M219 1319h-176v94h453v-94h-177v-508h-100v508zM932 956l184 457h131v-602h-100v440l-178 -440h-76l-180 442v-442h-101v602h136z" />
    <glyph glyph-name="uni2150" unicode="&#x2150;" horiz-adv-x="1718" 
d="M360 565h-135v688l-182 -102v141l221 121h96v-848zM172 0l989 1413h166l-989 -1413h-166zM1116 721v127h559v-105l-346 -743h-149l333 721h-397z" />
    <glyph glyph-name="uni2151" unicode="&#x2151;" horiz-adv-x="1636" 
d="M360 565h-135v688l-182 -102v141l221 121h96v-848zM172 0l989 1413h166l-989 -1413h-166zM1080 782q86 80 210 80q125 0 209 -81t84 -201q0 -88 -57 -174l-266 -406h-160l205 307q-14 -2 -29 -2q-120 0 -200 79q-81 80 -81 196q0 121 85 202zM1290 424q66 0 111 45
t45 111q0 68 -45 113q-46 44 -111 44q-68 0 -112 -45q-45 -45 -45 -112q0 -66 45 -111q44 -45 112 -45z" />
    <glyph glyph-name="uni2152" unicode="&#x2152;" horiz-adv-x="2267" 
d="M360 565h-135v688l-182 -102v141l221 121h96v-848zM172 0l989 1413h166l-989 -1413h-166zM1626 739q92 123 238 123t237 -123q92 -124 92 -315q0 -193 -92 -315q-91 -123 -237 -123t-238 123q-92 122 -92 315q0 191 92 315zM1040 586v141l222 121h96v-848h-135v688z
M1727 202q52 -85 137 -85t137 84q53 85 53 223t-53 223q-52 84 -137 84t-137 -85q-54 -86 -54 -222t54 -222z" />
    <glyph glyph-name="onethird" unicode="&#x2153;" horiz-adv-x="1622" 
d="M360 565h-135v688l-182 -102v141l221 121h96v-848zM172 0l989 1413h166l-989 -1413h-166zM1444 440q119 -63 119 -198q0 -106 -80 -181t-199 -75q-120 0 -199 75q-81 73 -81 187h137q0 -56 42 -97q41 -40 101 -40q61 0 102 38.5t41 98.5t-40 100q-41 41 -103 41h-117v98
h117q52 0 90 38q37 37 37 93q0 52 -37 86q-38 35 -90 35q-53 0 -90 -34.5t-37 -86.5h-139q0 102 77 173t189 71t189 -69q75 -71 75 -168q0 -122 -104 -185z" />
    <glyph glyph-name="twothirds" unicode="&#x2154;" horiz-adv-x="1835" 
d="M268 688h357v-123h-557v103l319 333q92 97 92 164q0 57 -39 98q-39 40 -96 40t-95 -39t-38 -99h-137q0 113 79 188q79 74 195 74q115 0 192 -74q76 -75 76 -187t-110 -228zM385 0l989 1413h166l-989 -1413h-166zM1657 440q119 -63 119 -198q0 -106 -80 -181t-199 -75
t-199 75q-81 73 -81 187h137q0 -56 42 -97q41 -40 101 -40q61 0 102 38.5t41 98.5t-40 100q-41 41 -103 41h-117v98h117q52 0 90 38q37 37 37 93q0 52 -37 86q-38 35 -90 35q-53 0 -90 -34.5t-37 -86.5h-139q0 102 77 173t189 71q113 0 189 -69q75 -71 75 -168
q0 -122 -104 -185z" />
    <glyph glyph-name="uni2155" unicode="&#x2155;" horiz-adv-x="1677" 
d="M360 565h-135v688l-182 -102v141l221 121h96v-848zM172 0l989 1413h166l-989 -1413h-166zM1346 539q122 0 202 -79q80 -80 80 -198q0 -119 -84 -197q-83 -79 -211 -79q-126 0 -209 79q-84 78 -84 197h138q0 -68 45 -112q46 -44 110 -44q68 0 113 46q45 45 45 110
q0 68 -45 114t-113 46q-38 0 -80 -20q-41 -21 -59 -50h-137l41 496h475v-121h-352l-23 -238q65 50 148 50z" />
    <glyph glyph-name="uni2156" unicode="&#x2156;" horiz-adv-x="1890" 
d="M268 688h357v-123h-557v103l319 333q92 97 92 164q0 57 -39 98q-39 40 -96 40t-95 -39t-38 -99h-137q0 113 79 188q79 74 195 74q115 0 192 -74q76 -75 76 -187t-110 -228zM385 0l989 1413h166l-989 -1413h-166zM1559 539q122 0 202 -79q80 -80 80 -198q0 -119 -84 -197
q-83 -79 -211 -79q-126 0 -209 79q-84 78 -84 197h138q0 -68 45 -112q46 -44 110 -44q68 0 113 46q45 45 45 110q0 68 -45 114t-113 46q-38 0 -80 -20q-41 -21 -59 -50h-137l41 496h475v-121h-352l-23 -238q65 50 148 50z" />
    <glyph glyph-name="uni2157" unicode="&#x2157;" horiz-adv-x="1810" 
d="M616 807q0 -106 -79 -181q-80 -75 -199 -75t-200 75q-81 74 -81 187h138q0 -57 42 -97q41 -40 101 -40q62 0 102 39q41 39 41 98t-41 100t-102 41h-117v99h117q52 0 90 38q37 37 37 93q0 52 -37 86q-38 35 -90 35t-90 -35q-37 -34 -37 -86h-139q0 102 77 173
q76 70 189 70q112 0 189 -69q75 -70 75 -168q0 -121 -104 -184q118 -64 118 -199zM305 0l989 1413h166l-989 -1413h-166zM1479 539q122 0 202 -79q80 -80 80 -198q0 -119 -84 -197q-83 -79 -211 -79q-126 0 -208 79q-84 78 -84 197h137q0 -68 45 -112q46 -44 110 -44
q68 0 113 46q45 45 45 110q0 68 -45 114t-113 46q-41 0 -80.5 -20t-58.5 -50h-137l41 496h475v-121h-352l-23 -238q65 50 148 50z" />
    <glyph glyph-name="uni2158" unicode="&#x2158;" horiz-adv-x="1863" 
d="M582 565h-136v180h-399v99l371 569h164v-545h106v-123h-106v-180zM358 0l990 1413h165l-989 -1413h-166zM446 1264l-253 -396h253v396zM1532 539q122 0 202 -79q81 -80 81 -198q0 -119 -84 -197q-83 -79 -211 -79q-126 0 -209 79q-84 78 -84 197h137q0 -68 45 -112
q46 -44 111 -44q68 0 113 46q44 46 44 110q0 68 -45 114t-112 46q-41 0 -81 -20t-59 -50h-137l41 496h475v-121h-352l-23 -238q65 50 148 50z" />
    <glyph glyph-name="uni2159" unicode="&#x2159;" horiz-adv-x="1544" 
d="M360 565h-135v688l-182 -102v141l221 121h96v-848zM172 0l989 1413h166l-989 -1413h-166zM1210 543q120 0 200 -79q81 -79 81 -196q0 -122 -84 -201q-84 -81 -209 -81t-210 82t-85 200q0 91 55 174l271 406h160l-205 -307q10 2 26 2zM1088 157q46 -44 111 -44
q64 0 110 44q45 43 45 111q0 66 -45 111t-110 45q-66 0 -111 -45q-46 -45 -46 -111q0 -68 46 -111z" />
    <glyph glyph-name="uni215A" unicode="&#x215a;" horiz-adv-x="1699" 
d="M587 1025q81 -80 81 -197q0 -118 -84 -198q-83 -79 -211 -79q-126 0 -209 79q-84 80 -84 197h137q0 -67 45 -111q46 -44 111 -44q68 0 113 45q44 46 44 110q0 67 -45 114q-45 46 -112 46q-40 0 -80.5 -20.5t-59.5 -48.5h-137l41 495h475v-121h-352l-22 -237q62 49 147 49
q122 0 202 -79zM328 0l989 1413h166l-989 -1413h-166zM1366 543q120 0 200 -79q81 -79 81 -196q0 -122 -84 -201q-84 -81 -209 -81t-210 82t-85 200q0 91 55 174l270 406h160l-205 -307q12 2 27 2zM1243 157q46 -44 111 -44q64 0 110 44q45 43 45 111q0 66 -45 111t-110 45
q-66 0 -111 -45t-45 -111q0 -68 45 -111z" />
    <glyph glyph-name="oneeighth" unicode="&#x215b;" horiz-adv-x="1632" 
d="M360 565h-135v688l-182 -102v141l221 121h96v-848zM172 0l989 1413h166l-989 -1413h-166zM1442 438q131 -68 131 -207q0 -103 -81 -174q-82 -71 -202 -71q-121 0 -201 71q-81 71 -81 174q0 139 129 207q-113 66 -113 191q0 100 76 167q76 66 191 66q113 0 190 -66
q75 -68 75 -167q2 -123 -114 -191zM1383 696q-38 35 -92 35q-56 0 -93 -34t-37 -87t37 -88t93 -35q55 0 91.5 35t36.5 88q0 52 -36 86zM1188 155q41 -38 103 -38q61 0 102 38t41 95t-41 95t-103 38q-58 0 -101 -38q-42 -37 -42 -95q0 -57 41 -95z" />
    <glyph glyph-name="threeeighths" unicode="&#x215c;" horiz-adv-x="1765" 
d="M616 807q0 -106 -79 -181q-80 -75 -199 -75t-200 75q-81 74 -81 187h138q0 -57 42 -97q41 -40 101 -40q62 0 102 39q41 39 41 98t-41 100t-102 41h-117v99h117q52 0 90 38q37 37 37 93q0 52 -37 86q-38 35 -90 35t-90 -35q-37 -34 -37 -86h-139q0 102 77 173
q76 70 189 70q112 0 189 -69q75 -70 75 -168q0 -121 -104 -184q118 -64 118 -199zM305 0l989 1413h166l-989 -1413h-166zM1575 438q131 -68 131 -207q0 -103 -81 -174q-82 -71 -201 -71q-120 0 -202 71q-81 71 -81 174q0 139 129 207q-113 66 -113 191q0 100 76 167
q77 66 191 66t190 -66q76 -67 76 -167q0 -124 -115 -191zM1516 696q-38 35 -92 35q-56 0 -93 -34t-37 -87t37 -88t93 -35q55 0 91.5 35t36.5 88q0 52 -36 86zM1321 155q41 -38 103 -38q61 0 102 38t41 95t-41 95t-103 38q-58 0 -101 -38q-42 -37 -42 -95q0 -57 41 -95z" />
    <glyph glyph-name="fiveeighths" unicode="&#x215d;" horiz-adv-x="1787" 
d="M587 1025q81 -80 81 -197q0 -118 -84 -198q-83 -79 -211 -79q-126 0 -209 79q-84 80 -84 197h137q0 -67 45 -111q46 -44 111 -44q68 0 113 45q44 46 44 110q0 67 -45 114q-45 46 -112 46q-40 0 -80.5 -20.5t-59.5 -48.5h-137l41 495h475v-121h-352l-22 -237q62 49 147 49
q122 0 202 -79zM328 0l989 1413h166l-989 -1413h-166zM1597 438q131 -68 132 -207q0 -103 -81 -174q-82 -71 -202 -71t-202 71q-81 71 -81 174q0 139 129 207q-113 67 -112 191q0 100 76 167q75 66 190 66t191 -66q75 -68 75 -167q0 -124 -115 -191zM1538 696q-38 35 -92 35
q-55 0 -92 -34t-37 -87t37 -88t92 -35t92 35t37 88q0 52 -37 86zM1344 155q41 -38 102 -38t102 38t41 95t-41 95t-102 38q-58 0 -101 -38q-42 -37 -42 -95q0 -57 41 -95z" />
    <glyph glyph-name="seveneighths" unicode="&#x215e;" horiz-adv-x="1634" 
d="M625 1309l-346 -744h-150l334 721h-397v127h559v-104zM174 0l989 1413h166l-989 -1413h-166zM1444 438q131 -68 131 -207q0 -103 -81 -174q-82 -71 -202 -71q-121 0 -201 71q-81 71 -81 174q0 139 129 207q-113 66 -113 191q0 100 76 167q76 66 191 66q113 0 190 -66
q76 -67 76 -167q0 -124 -115 -191zM1385 696q-38 35 -92 35q-56 0 -93 -34t-37 -87t37 -88t93 -35q55 0 91.5 35t36.5 88q0 52 -36 86zM1190 155q41 -38 103 -38q61 0 102 38t41 95t-41 95t-103 38q-58 0 -101 -38q-42 -37 -42 -95q0 -57 41 -95z" />
    <glyph glyph-name="uni215F" unicode="&#x215f;" horiz-adv-x="935" 
d="M360 565h-135v688l-182 -102v141l221 121h96v-848zM172 0l989 1413h166l-989 -1413h-166z" />
    <glyph glyph-name="uni2189" unicode="&#x2189;" horiz-adv-x="1861" 
d="M643 1305q92 -124 92 -315q0 -192 -92 -316q-91 -123 -237 -123t-238 123q-92 124 -92 316q0 191 92 315q92 122 238 122q145 0 237 -122zM412 0l989 1413h166l-989 -1413h-166zM269 767q52 -85 137 -85q83 0 137 84q53 85 53 223t-53 223q-54 84 -137 84q-85 0 -137 -85
q-54 -85 -54 -222t54 -222zM1683 440q119 -63 119 -198q0 -106 -80 -181t-198 -75q-119 0 -200 75q-81 73 -81 187h137q0 -56 42 -97q41 -40 102 -40t102 38.5t41 98.5q0 59 -41 100t-102 41h-117v98h117q52 0 90 38q37 37 37 93q0 52 -37 86q-38 35 -90 35
q-54 0 -90.5 -34.5t-36.5 -86.5h-140q0 102 77 173t190 71q112 0 188 -69q76 -70 76 -168q-2 -122 -105 -185z" />
    <glyph glyph-name="arrowleft" unicode="&#x2190;" horiz-adv-x="1361" 
d="M434 786h778v-159h-778l352 -348h-211l-425 428l425 428h211z" />
    <glyph glyph-name="arrowup" unicode="&#x2191;" horiz-adv-x="1361" 
d="M682 1239l410 -410v-211l-332 336v-780h-160v776l-330 -332v211z" />
    <glyph glyph-name="arrowright" unicode="&#x2192;" horiz-adv-x="1361" 
d="M575 1135h209l428 -428l-428 -428h-209l351 348h-776v159h776z" />
    <glyph glyph-name="arrowdown" unicode="&#x2193;" horiz-adv-x="1361" 
d="M760 1239v-778l348 350v-209l-428 -428l-426 428v209l346 -350v778h160z" />
    <glyph glyph-name="uni2196" unicode="&#x2196;" horiz-adv-x="1361" 
d="M528 950l551 -551l-112 -112l-551 551l2 -471l-148 131v598h596l133 -150z" />
    <glyph glyph-name="uni2197" unicode="&#x2197;" horiz-adv-x="1361" 
d="M375 946l131 150h579v-580l-147 -131l2 453l-549 -551l-115 112l551 551z" />
    <glyph glyph-name="uni2198" unicode="&#x2198;" horiz-adv-x="1361" 
d="M944 565l-2 469l148 -131v-598h-596l-132 150l469 -4l-548 550l112 113z" />
    <glyph glyph-name="uni2199" unicode="&#x2199;" horiz-adv-x="1361" 
d="M967 1114l112 -113l-551 -550l471 4l-133 -150h-596v598l148 131l-2 -471z" />
    <glyph glyph-name="minus" unicode="&#x2212;" horiz-adv-x="1093" 
d="M965 524h-836v160h836v-160z" />
    <glyph glyph-name="approxequal" unicode="&#x2248;" horiz-adv-x="1132" 
d="M745 672q-46 -2 -97 20t-87 49t-76.5 49.5t-68.5 20.5q-53 0 -89 -36t-36 -89h-162q0 134 67 216q66 83 191 83q46 2 97.5 -20.5t88.5 -49.5t77.5 -49t68.5 -20q53 0 88 34.5t35 88.5h162q0 -132 -67 -214q-68 -83 -192 -83zM745 240q-46 -2 -97 20t-87 49t-76.5 49.5
t-68.5 20.5q-53 0 -89 -35t-36 -88h-162q0 133 67 215q66 82 191 82q46 2 97.5 -20.5t88.5 -49.5t77.5 -49t68.5 -20q53 0 88 35.5t35 89.5h162q0 -134 -67 -216q-68 -83 -192 -83z" />
    <glyph glyph-name="notequal" unicode="&#x2260;" horiz-adv-x="1093" 
d="M965 864v-159h-293l-92 -199h385v-158h-459l-86 -188h-156l86 188h-221v158h295l92 199h-387v159h461l84 185h155l-84 -185h220z" />
    <glyph glyph-name="lessequal" unicode="&#x2264;" horiz-adv-x="950" 
d="M129 844l692 276v-176l-532 -190l532 -191v-176l-692 279v178zM821 121h-692v160h692v-160z" />
    <glyph glyph-name="greaterequal" unicode="&#x2265;" horiz-adv-x="950" 
d="M129 944v176l692 -276v-178l-692 -279v176l533 191zM821 121h-692v160h692v-160z" />
    <glyph glyph-name="uni2639" unicode="&#x2639;" horiz-adv-x="1687" 
d="M1365 185q-210 -210 -521 -210q-312 0 -521 210q-210 210 -210 522q0 311 210 521q209 210 521 210q311 0 521 -210t210 -521q0 -312 -210 -522zM844 76q266 0 446 181t180 450q0 268 -180 449t-446 181q-269 0 -447 -181q-180 -181 -180 -449q0 -269 180 -450
q178 -181 447 -181zM644 912q-32 -34 -80 -15t-44 66q0 29 21 50t51 21t51 -21.5t21 -49.5q0 -31 -20 -51zM1094 891q-30 0 -51 21t-21 51q0 29 21.5 50t50.5 21q30 0 51.5 -21.5t21.5 -49.5q0 -31 -21 -51.5t-52 -20.5zM506 338h-103q0 188 126 315t315 127q188 0 314 -127
t126 -315h-104q0 147 -95 245q-96 97 -241 97q-146 0 -242 -97t-96 -245z" />
    <glyph glyph-name="smileface" unicode="&#x263a;" horiz-adv-x="1687" 
d="M1365 185q-210 -210 -521 -210q-312 0 -521 210q-210 210 -210 522q0 311 210 521q209 210 521 210q311 0 521 -210t210 -521q0 -312 -210 -522zM844 76q266 0 446 181t180 450q0 268 -180 449t-446 181q-269 0 -447 -181q-180 -181 -180 -449q0 -269 180 -450
q178 -181 447 -181zM644 912q-32 -34 -80 -15t-44 66q0 29 21 50t51 21t51 -21.5t21 -49.5q0 -31 -20 -51zM1094 891q-30 0 -51 21t-21 51q0 29 21.5 50t50.5 21q30 0 51.5 -21.5t21.5 -49.5q0 -31 -21 -51.5t-52 -20.5zM1178 374q-134 -134 -334 -134q-201 0 -335 134
t-134 333h104q0 -159 105 -262q103 -105 260 -105q156 0 259 105q103 103 103 262h105q0 -200 -133 -333z" />
    <glyph glyph-name="uni279D" unicode="&#x279d;" horiz-adv-x="2215" 
d="M1622 1135l428 -428l-428 -428v348h-1456v159h1456v349z" />
    <glyph glyph-name="uni27F5" unicode="&#x27f5;" horiz-adv-x="2215" 
d="M453 786h1597v-159h-1597l350 -348h-209l-428 428l428 428h209z" />
    <glyph glyph-name="uni27F6" unicode="&#x27f6;" horiz-adv-x="2215" 
d="M1413 1135h209l428 -428l-428 -428h-209l350 348h-1597v159h1597z" />
    <glyph glyph-name="uniE000" unicode="&#xe000;" horiz-adv-x="1460" 
d="M842 1413l602 -1481q61 -150 182 -220t316 -70v-181q-528 0 -705 469l-164 412h-692l-137 -342h-201l575 1413h224zM727 1210l-276 -694h553z" />
    <glyph glyph-name="uniE001" unicode="&#xe001;" horiz-adv-x="1495" 
d="M1329 1413v-1444q0 -146 94 -241q93 -95 236 -95v-180q-227 0 -372 144q-146 146 -146 372v654h-787v-623h-188v1413h188v-614h787v614h188z" />
    <glyph glyph-name="uniE002" unicode="&#xe002;" horiz-adv-x="1257" 
d="M530 713l756 -754q204 -184 352 -250q149 -67 353 -67v-181q-262 0 -466 105q-203 106 -478 393l-693 678v-637h-188v1413h188v-622l641 622h236z" />
    <glyph glyph-name="uniE003" unicode="&#xe003;" horiz-adv-x="1835" 
d="M1667 1413v-1444q0 -145 93 -241q93 -95 237 -95v-180q-225 0 -370 144q-146 146 -146 372v1135l-496 -1104h-137l-494 1104v-1104h-188v1413h248l506 -1132l505 1132h242z" />
    <glyph glyph-name="uniE004" unicode="&#xe004;" horiz-adv-x="1155" 
d="M612 561l531 -612q161 -179 311 -243q149 -64 373 -64v-181q-291 0 -504 101q-211 102 -420 387l-522 612h-27v-561h-188v1413h459q188 0 314 -123t126 -307q0 -179 -125 -301q-124 -121 -311 -121h-17zM621 1237h-267v-512h267q110 0 180 73q71 73 71 183t-71 184
q-72 72 -180 72z" />
    <glyph glyph-name="uniE005" unicode="&#xe005;" horiz-adv-x="1495" 
d="M1265 1755q125 123 317 123t316 -124q123 -124 123 -316h-186q0 114 -72 187q-73 73 -181 73q-109 0 -181 -74t-72 -186v-1438h-188v623h-787v-623h-188v1413h188v-614h787v639q0 193 124 317z" />
    <glyph glyph-name="uniE006" unicode="&#xe006;" horiz-adv-x="1513" 
d="M1282 1755q123 123 318 123q194 0 317 -124t123 -316h-189q0 113 -71 187q-72 73 -180 73q-109 0 -181 -74q-73 -73 -73 -186v-1438h-193l-799 1100v-1100h-188v1413h194l799 -1104v1129q0 192 123 317z" />
    <glyph glyph-name="uniE007" unicode="&#xe007;" horiz-adv-x="1419" 
d="M709 -25q-244 0 -409 162t-165 404v872h187v-868q0 -166 111 -277q109 -112 276 -112q168 0 279 112q110 112 110 277v893q0 192 123 317q121 123 317 123q195 0 318 -124q122 -125 122 -316h-188q0 113 -71 187q-72 73 -181 73q-111 0 -182 -74q-72 -74 -72 -186v-897
q0 -242 -164 -404q-165 -162 -411 -162z" />
    <glyph glyph-name="uniE008" unicode="&#xe008;" horiz-adv-x="1460" 
d="M1417 0h-207l-137 342h-692l-137 -342h-201l504 1237h-588q-128 0 -213 -85q-86 -86 -86 -212q0 -124 86 -210q85 -85 213 -85v-176q-205 0 -343 135t-138 336q0 203 137 338t344 135h883zM727 1210l-276 -694h553z" />
    <glyph glyph-name="uniE009" unicode="&#xe009;" horiz-adv-x="1150" 
d="M825 750q119 -29 193 -131q74 -104 74 -238q0 -164 -112 -272q-112 -109 -278 -109h-536v1237h-346q-128 0 -213 -85q-86 -86 -86 -212q0 -124 86 -210q85 -85 213 -85v-176q-204 0 -344 135q-138 135 -138 336q0 203 137 338q138 135 345 135h823q155 0 259 -100
q104 -101 104 -254q0 -100 -51 -185q-52 -85 -130 -124zM598 1243h-250v-430h250q88 0 152 63q63 62 63 152q0 93 -61 154t-154 61zM348 170h311q102 0 171 70q69 69 69 172q0 101 -68 171q-70 68 -172 68h-311v-481z" />
    <glyph glyph-name="uniE00A" unicode="&#xe00a;" horiz-adv-x="1517" 
d="M-180 1413h891q307 0 512 -201q204 -202 204 -505q0 -304 -204 -505q-205 -202 -512 -202h-545v1237h-346q-128 0 -213 -85q-86 -86 -86 -212q0 -124 86 -210q85 -85 213 -85v-176q-204 0 -344 135q-138 135 -138 336q0 203 137 338q138 135 345 135zM354 176h355
q224 0 376 152q150 151 150 379t-150 379q-151 151 -376 151h-355v-1061z" />
    <glyph glyph-name="uniE00B" unicode="&#xe00b;" horiz-adv-x="1050" 
d="M354 623v-447h604v-176h-792v1237h-346q-128 0 -213 -85q-86 -86 -86 -212q0 -124 86 -210q85 -85 213 -85v-176q-204 0 -344 135q-138 135 -138 336q0 203 137 338q138 135 345 135h1128v-176h-594v-438h527v-176h-527z" />
    <glyph glyph-name="uniE00C" unicode="&#xe00c;" horiz-adv-x="993" 
d="M918 1413v-176h-564v-451h480v-176h-480v-610h-188v1237h-346q-128 0 -213 -85q-86 -86 -86 -212q0 -124 86 -210q85 -85 213 -85v-176q-204 0 -344 135q-138 135 -138 336q0 203 137 338q138 135 345 135h1098z" />
    <glyph glyph-name="uniE00D" unicode="&#xe00d;" horiz-adv-x="1495" 
d="M1141 799v614h188v-1413h-188v623h-787v-623h-188v1237h-346q-128 0 -213 -85q-86 -86 -86 -212q0 -124 86 -210q85 -85 213 -85v-176q-204 0 -344 135q-138 135 -138 336q0 203 137 338q138 135 345 135h534v-614h787z" />
    <glyph glyph-name="uniE00E" unicode="&#xe00e;" horiz-adv-x="520" 
d="M-180 1413h534v-1413h-188v1237h-346q-128 0 -213 -85q-86 -86 -86 -212q0 -124 86 -210q85 -85 213 -85v-176q-204 0 -344 135q-138 135 -138 336q0 203 137 338q138 135 345 135z" />
    <glyph glyph-name="uniE00F" unicode="&#xe00f;" horiz-adv-x="1257" 
d="M530 713l715 -713h-239l-652 637v-637h-188v1237h-346q-128 0 -213 -85q-86 -86 -86 -212q0 -124 86 -210q85 -85 213 -85v-176q-204 0 -344 135q-138 135 -138 336q0 203 137 338q138 135 345 135h534v-622l641 622h236z" />
    <glyph glyph-name="uniE010" unicode="&#xe010;" horiz-adv-x="958" 
d="M354 1413v-1237h543v-176h-731v1237h-346q-128 0 -213 -85q-86 -86 -86 -212q0 -124 86 -210q85 -85 213 -85v-176q-204 0 -344 135q-138 135 -138 336q0 203 137 338q138 135 345 135h534z" />
    <glyph glyph-name="uniE011" unicode="&#xe011;" horiz-adv-x="1835" 
d="M920 281l505 1132h242v-1413h-186v1104l-496 -1104h-137l-494 1104v-1104h-188v1237h-346q-128 0 -213 -85q-86 -86 -86 -212q0 -124 86 -210q85 -85 213 -85v-176q-204 0 -344 135q-138 135 -138 336q0 203 137 338q138 135 345 135h594z" />
    <glyph glyph-name="uniE012" unicode="&#xe012;" horiz-adv-x="1513" 
d="M1159 309v1104h187v-1413h-193l-799 1100v-1100h-188v1237h-346q-128 0 -213 -85q-86 -86 -86 -212q0 -124 86 -210q85 -85 213 -85v-176q-204 0 -344 135q-138 135 -138 336q0 203 137 338q138 135 345 135h540z" />
    <glyph glyph-name="uniE013" unicode="&#xe013;" horiz-adv-x="1150" 
d="M-180 1413h813q196 0 324 -127q128 -128 128 -317q0 -188 -130 -315q-131 -128 -322 -128h-279v-526h-188v1237h-346q-128 0 -213 -85q-86 -86 -86 -212q0 -124 86 -210q85 -85 213 -85v-176q-204 0 -344 135q-138 135 -138 336q0 203 137 338q138 135 345 135zM354 702
h277q113 0 188 76q74 77 74 191q0 115 -75 191q-75 77 -187 77h-277v-535z" />
    <glyph glyph-name="uniE014" unicode="&#xe014;" horiz-adv-x="1155" 
d="M1096 0h-236l-479 561h-27v-561h-188v1237h-346q-128 0 -213 -85q-86 -86 -86 -212q0 -124 86 -210q85 -85 213 -85v-176q-204 0 -344 135q-138 135 -138 336q0 203 137 338q138 135 345 135h805q188 0 314 -123t126 -307q0 -179 -125 -301q-124 -121 -311 -121h-17z
M621 1237h-267v-512h267q110 0 180 73q71 73 71 183t-71 184q-72 72 -180 72z" />
    <glyph glyph-name="uniE015" unicode="&#xe015;" horiz-adv-x="1118" 
d="M-76 1413h1135v-176h-406v-1237h-188v1237h-541q-128 0 -213 -85q-86 -86 -86 -212q0 -124 86 -210q85 -85 213 -85v-176q-205 0 -343 135t-138 336q0 203 137 338q136 135 344 135z" />
    <glyph glyph-name="uniE016" unicode="&#xe016;" horiz-adv-x="1419" 
d="M1098 545v868h186v-872q0 -242 -165 -404t-410 -162q-244 0 -409 162t-165 404v696h-336q-128 0 -213 -85q-86 -86 -86 -212q0 -124 86 -210q85 -85 213 -85v-176q-205 0 -343 135t-138 336q0 203 137 338q136 135 344 135h523v-868q0 -166 111 -277q109 -112 276 -112
q168 0 279 112q110 112 110 277z" />
    <glyph glyph-name="uniE017" unicode="&#xe017;" horiz-adv-x="1447" 
d="M727 244l473 1169h205l-584 -1413h-196l-510 1237h-197q-128 0 -213 -85q-86 -86 -86 -212q0 -124 86 -210q85 -85 213 -85v-176q-205 0 -343 135t-138 336q0 203 137 338t344 135h334z" />
    <glyph glyph-name="uniE018" unicode="&#xe018;" horiz-adv-x="2301" 
d="M1647 246l401 1167h203l-508 -1413h-193l-399 1141l-399 -1141h-193l-444 1237h-189q-128 0 -213 -85q-86 -86 -86 -212q0 -124 86 -210q85 -85 213 -85v-176q-205 0 -343 135t-138 336q0 203 137 338q136 135 344 135h332l401 -1167l408 1167h172z" />
    <glyph glyph-name="uniE019" unicode="&#xe019;" horiz-adv-x="1386" 
d="M696 707l459 706h209l-578 -891v-522h-186v522l-463 715h-221q-128 0 -213 -85q-86 -86 -86 -212q0 -124 86 -210q85 -85 213 -85v-176q-205 0 -343 135t-138 336q0 203 137 338q136 135 344 135h320z" />
    <glyph glyph-name="uniE01A" unicode="&#xe01a;" horiz-adv-x="747" 
d="M684 1485v-162q-248 0 -248 -215v-64h248v-159h-248v-903q0 -213 -145 -358q-145 -144 -363 -144v170q140 0 237 95q95 95 95 237v903h-190v159h190v74q0 191 104.5 279t319.5 88z" />
    <glyph glyph-name="uniE01B" unicode="&#xe01b;" horiz-adv-x="1261" 
d="M1126 645v-663q0 -141 96 -237q95 -95 236 -95v-170q-216 0 -362 144q-146 146 -146 358v608q0 138 -83 224q-82 85 -222 85q-142 0 -231 -86q-88 -85 -88 -227v-586h-176v1475h176v-605q124 199 376 199q191 0 307 -115q117 -116 117 -309z" />
    <glyph glyph-name="uniE01C" unicode="&#xe01c;" horiz-adv-x="1058" 
d="M494 524l587 -573q164 -143 288 -200q121 -54 286 -54v-170q-219 0 -393 93q-174 92 -410 331l-526 504v-455h-176v1475h176v-873l465 442h225z" />
    <glyph glyph-name="uniE01D" unicode="&#xe01d;" horiz-adv-x="473" 
d="M655 -350v-170q-217 0 -361 144q-144 145 -144 358v1493h176v-1493q0 -142 94 -237q95 -95 235 -95z" />
    <glyph glyph-name="uniE01E" unicode="&#xe01e;" horiz-adv-x="1925" 
d="M1792 674v-692q0 -142 94 -237q95 -95 238 -95v-170q-216 0 -362 144q-146 146 -146 358v643q0 124 -74 200q-74 74 -196 74q-128 0 -208 -77q-79 -76 -79 -201v-621h-176v625q0 124 -74 200q-74 74 -197 74q-128 0 -207 -77q-79 -76 -79 -201v-621h-176v1044h176v-149
q116 174 342 174q125 0 218 -57t138 -160q115 217 377 217q175 0 284 -107q107 -109 107 -288z" />
    <glyph glyph-name="uniE01F" unicode="&#xe01f;" horiz-adv-x="1261" 
d="M1126 645v-663q0 -141 96 -237q95 -95 236 -95v-170q-216 0 -362 144q-146 146 -146 358v608q0 138 -83 224q-82 85 -222 85q-142 0 -231 -86q-88 -85 -88 -227v-586h-176v1044h176v-167q125 194 376 192q191 0 307 -115q117 -116 117 -309z" />
    <glyph glyph-name="uniE020" unicode="&#xe020;" horiz-adv-x="1228" 
d="M903 442v602h176v-1044h-176v164q-121 -188 -360 -189q-182 0 -295 113t-113 299v891q0 114 -72 187q-73 73 -184 73q-109 0 -182 -73q-72 -73 -72 -187h-176q0 184 123 307t307 123q183 0 308 -123q124 -123 124 -307v-840q0 -134 78 -213q78 -80 209 -80q138 0 221 82
q84 83 84 215z" />
    <glyph glyph-name="uniE021" unicode="&#xe021;" horiz-adv-x="473" 
d="M238 1206q-80 0 -132 54q-53 53 -53 131q0 76 53 131q53 53 132 53q77 0 130 -53q52 -53 52 -131q0 -79 -52 -131q-52 -54 -130 -54zM326 0h-176v1044h176v-1044z" />
    <glyph glyph-name="uniE022" unicode="&#xe022;" horiz-adv-x="485" 
d="M248 1206q-78 0 -130 54q-52 52 -52 131q0 78 52 131q53 53 130 53q79 0 132 -53q52 -53 52 -131q0 -79 -52 -131q-52 -54 -132 -54zM-37 -414v162q197 0 197 193v1103h176v-1114q0 -344 -373 -344z" />
    <glyph glyph-name="K.ss02" horiz-adv-x="1284" 
d="M1268 0h-236l-510 584l-168 -191v-393h-188v1413h188v-735l668 735h231l-610 -692z" />
    <glyph glyph-name="uni0136.aalt" horiz-adv-x="1284" 
d="M1253 1413l-610 -692l625 -721h-236l-510 584l-168 -191v-393h-188v1413h188v-735l668 735h231zM670 -451h-146l72 316h184z" />
    <glyph glyph-name="M.ss02" horiz-adv-x="1769" 
d="M887 573l485 840h232v-1413h-187v1128l-479 -831h-104l-480 831v-1128h-188v1413h237z" />
    <glyph glyph-name="R.ss02" horiz-adv-x="1157" 
d="M1094 0h-228l-358 561h-154v-561h-188v1413h459q188 0 314 -123t126 -307q0 -159 -96 -271q-98 -115 -248 -143zM621 1237h-267v-512h267q110 0 180 73q71 73 71 183t-71 184q-72 72 -180 72z" />
    <glyph glyph-name="Racute.ss02" horiz-adv-x="1157" 
d="M684 1815h225l-250 -265h-188zM1094 0h-228l-358 561h-154v-561h-188v1413h459q188 0 314 -123t126 -307q0 -159 -96 -271q-98 -115 -248 -143zM621 1237h-267v-512h267q110 0 180 73q71 73 71 183t-71 184q-72 72 -180 72z" />
    <glyph glyph-name="Rcaron.ss02" horiz-adv-x="1157" 
d="M893 1815l-207 -265h-215l-205 265h168l146 -170l145 170h168zM1094 0h-228l-358 561h-154v-561h-188v1413h459q188 0 314 -123t126 -307q0 -159 -96 -271q-98 -115 -248 -143zM621 1237h-267v-512h267q110 0 180 73q71 73 71 183t-71 184q-72 72 -180 72z" />
    <glyph glyph-name="uni0156.ss02" horiz-adv-x="1157" 
d="M721 569l373 -569h-228l-358 561h-154v-561h-188v1413h459q188 0 314 -123t126 -307q0 -159 -96 -271q-96 -114 -248 -143zM621 1237h-267v-512h267q110 0 180 73q71 73 71 183t-71 184q-72 72 -180 72zM604 -451h-145l71 316h185z" />
    <glyph glyph-name="uni0210.ss02" horiz-adv-x="1157" 
d="M301 1815l168 -265h-170l-195 265h197zM700 1815l168 -265h-170l-194 265h196zM1094 0h-228l-358 561h-154v-561h-188v1413h459q188 0 314 -123t126 -307q0 -159 -96 -271q-98 -115 -248 -143zM621 1237h-267v-512h267q110 0 180 73q71 73 71 183t-71 184q-72 72 -180 72
z" />
    <glyph glyph-name="uni1E5A.ss02" horiz-adv-x="1157" 
d="M721 569l373 -569h-228l-358 561h-154v-561h-188v1413h459q188 0 314 -123t126 -307q0 -159 -96 -271q-96 -114 -248 -143zM621 1237h-267v-512h267q110 0 180 73q71 73 71 183t-71 184q-72 72 -180 72zM600 -147q47 0 80 -33t33 -80t-33 -80t-80 -33q-49 0 -82 33
t-33 80t33 80t82 33z" />
    <glyph glyph-name="uni0212.ss02" horiz-adv-x="1157" 
d="M680 1642q-41 41 -102 41q-63 0 -103 -40q-41 -41 -41 -105h-139q0 116 81 196q81 78 202 78q120 0 201 -78q81 -80 81 -196h-139q0 63 -41 104zM1094 0h-228l-358 561h-154v-561h-188v1413h459q188 0 314 -123t126 -307q0 -159 -96 -271q-98 -115 -248 -143zM621 1237
h-267v-512h267q110 0 180 73q71 73 71 183t-71 184q-72 72 -180 72z" />
    <glyph glyph-name="G.aalt" horiz-adv-x="1689" 
d="M858 582v170h705v-752h-164v272q-82 -142 -229 -219.5t-339 -77.5q-315 0 -527 210t-212 522q0 311 212 521t527 210q253 0 444 -136q192 -137 253 -354h-207q-61 141 -192 225q-132 84 -298 84q-233 0 -389 -157q-157 -157 -157 -393t157 -393q156 -158 389 -158
q202 0 351 119q148 119 182 307h-506z" />
    <glyph glyph-name="uni01F4.aalt" horiz-adv-x="1689" 
d="M936 1815h225l-250 -265h-188zM858 582v170h705v-752h-164v272q-82 -142 -229 -219.5t-339 -77.5q-315 0 -527 210t-212 522q0 311 212 521t527 210q253 0 444 -136q192 -137 253 -354h-207q-61 141 -192 225q-132 84 -298 84q-233 0 -389 -157q-157 -157 -157 -393
t157 -393q156 -158 389 -158q202 0 351 119q148 119 182 307h-506z" />
    <glyph glyph-name="Gbreve.aalt" horiz-adv-x="1689" 
d="M1033 1608q-81 -78 -201 -78q-121 0 -202 78t-81 194h139q0 -60 41 -103q41 -42 103 -42t102 42q41 43 41 103h139q0 -118 -81 -194zM858 582v170h705v-752h-164v272q-82 -142 -229 -219.5t-339 -77.5q-315 0 -527 210t-212 522q0 311 212 521t527 210q253 0 444 -136
q192 -137 253 -354h-207q-61 141 -192 225q-132 84 -298 84q-233 0 -389 -157q-157 -157 -157 -393t157 -393q156 -158 389 -158q202 0 351 119q148 119 182 307h-506z" />
    <glyph glyph-name="Gcaron.aalt" horiz-adv-x="1689" 
d="M1145 1815l-207 -265h-215l-205 265h168l145 -170l146 170h168zM858 582v170h705v-752h-164v272q-82 -142 -229 -219.5t-339 -77.5q-315 0 -527 210t-212 522q0 311 212 521t527 210q253 0 444 -136q192 -137 253 -354h-207q-61 141 -192 225q-132 84 -298 84
q-233 0 -389 -157q-157 -157 -157 -393t157 -393q156 -158 389 -158q202 0 351 119q148 119 182 307h-506z" />
    <glyph glyph-name="Gcircumflex.aalt" horiz-adv-x="1689" 
d="M977 1550l-146 170l-145 -170h-168l205 265h215l207 -265h-168zM858 582v170h705v-752h-164v272q-82 -142 -229 -219.5t-339 -77.5q-315 0 -527 210t-212 522q0 311 212 521t527 210q253 0 444 -136q192 -137 253 -354h-207q-61 141 -192 225q-132 84 -298 84
q-233 0 -389 -157q-157 -157 -157 -393t157 -393q156 -158 389 -158q202 0 351 119q148 119 182 307h-506z" />
    <glyph glyph-name="uni0122.aalt" horiz-adv-x="1689" 
d="M858 582v170h705v-752h-164v272q-82 -142 -229 -219.5t-339 -77.5q-315 0 -527 210t-212 522q0 311 212 521t527 210q253 0 444 -136q192 -137 253 -354h-207q-61 141 -192 225q-132 84 -298 84q-233 0 -389 -157q-157 -157 -157 -393t157 -393q156 -158 389 -158
q202 0 351 119q148 119 182 307h-506zM838 -451h-146l72 316h184z" />
    <glyph glyph-name="Gdotaccent.aalt" horiz-adv-x="1689" 
d="M834 1561q-49 0 -82 32.5t-33 79.5q0 48 32.5 80.5t82.5 32.5q47 0 79.5 -33t32.5 -80t-32.5 -79.5t-79.5 -32.5zM858 582v170h705v-752h-164v272q-82 -142 -229 -219.5t-339 -77.5q-315 0 -527 210t-212 522q0 311 212 521t527 210q253 0 444 -136q192 -137 253 -354
h-207q-61 141 -192 225q-132 84 -298 84q-233 0 -389 -157q-157 -157 -157 -393t157 -393q156 -158 389 -158q202 0 351 119q148 119 182 307h-506z" />
    <glyph glyph-name="J.aalt" horiz-adv-x="1105" 
d="M348 1413h625v-989q0 -194 -132 -321q-133 -128 -327 -128q-197 0 -328 128t-131 321h193q0 -114 77 -191t191 -77q115 0 192 77q76 76 76 191v813h-436v176z" />
    <glyph glyph-name="Jcircumflex.aalt" horiz-adv-x="1105" 
d="M799 1550l-146 170l-145 -170h-168l205 265h215l207 -265h-168zM348 1413h625v-989q0 -194 -132 -321q-133 -128 -327 -128q-197 0 -328 128t-131 321h193q0 -114 77 -191t191 -77q115 0 192 77q76 76 76 191v813h-436v176z" />
    <glyph glyph-name="B.ss05" horiz-adv-x="1150" 
d="M825 750q119 -29 193 -131q74 -104 74 -238q0 -164 -112 -272q-112 -109 -278 -109h-536v1413h477q155 0 259 -100q104 -101 104 -254q0 -100 -51 -185q-52 -85 -130 -124zM348 170h311q102 0 171 70q69 69 69 172q0 101 -68 171q-70 68 -172 68h-227v162h166
q88 0 152 63q63 62 63 152q0 93 -61 154t-154 61h-250v-1073z" />
    <glyph glyph-name="P.ss05" horiz-adv-x="1150" 
d="M166 1413h467q196 0 324 -127q128 -128 128 -317q0 -188 -130 -315q-131 -128 -322 -128h-195v176h193q113 0 188 76q74 77 74 191q0 115 -75 191q-75 77 -187 77h-277v-1237h-188v1413z" />
    <glyph glyph-name="R.ss05" horiz-adv-x="1155" 
d="M768 602l-98 -14l426 -588h-234l-428 575v150h187q110 0 180 73q71 73 71 183t-71 184q-72 72 -180 72h-267v-1237h-188v1413h459q188 0 314 -123t126 -307q0 -142 -83 -248q-82 -106 -214 -133z" />
    <glyph glyph-name="Racute.ss05" horiz-adv-x="1155" 
d="M684 1815h225l-250 -265h-188zM768 602l-98 -14l426 -588h-234l-428 575v150h187q110 0 180 73q71 73 71 183t-71 184q-72 72 -180 72h-267v-1237h-188v1413h459q188 0 314 -123t126 -307q0 -142 -83 -248q-82 -106 -214 -133z" />
    <glyph glyph-name="Rcaron.ss05" horiz-adv-x="1155" 
d="M893 1815l-207 -265h-215l-205 265h168l146 -170l145 170h168zM768 602l-98 -14l426 -588h-234l-428 575v150h187q110 0 180 73q71 73 71 183t-71 184q-72 72 -180 72h-267v-1237h-188v1413h459q188 0 314 -123t126 -307q0 -142 -83 -248q-82 -106 -214 -133z" />
    <glyph glyph-name="uni0156.ss05" horiz-adv-x="1155" 
d="M768 602l-98 -14l426 -588h-234l-428 575v150h187q110 0 180 73q71 73 71 183t-71 184q-72 72 -180 72h-267v-1237h-188v1413h459q188 0 314 -123t126 -307q0 -142 -83 -248q-82 -106 -214 -133zM604 -451h-145l71 316h185z" />
    <glyph glyph-name="uni0210.ss05" horiz-adv-x="1155" 
d="M301 1815l168 -265h-170l-195 265h197zM700 1815l168 -265h-170l-194 265h196zM768 602l-98 -14l426 -588h-234l-428 575v150h187q110 0 180 73q71 73 71 183t-71 184q-72 72 -180 72h-267v-1237h-188v1413h459q188 0 314 -123t126 -307q0 -142 -83 -248
q-82 -106 -214 -133z" />
    <glyph glyph-name="uni1E5A.ss05" horiz-adv-x="1155" 
d="M768 602l-98 -14l426 -588h-234l-428 575v150h187q110 0 180 73q71 73 71 183t-71 184q-72 72 -180 72h-267v-1237h-188v1413h459q188 0 314 -123t126 -307q0 -142 -83 -248q-82 -106 -214 -133zM600 -147q47 0 80 -33t33 -80t-33 -80t-80 -33q-49 0 -82 33t-33 80t33 80
t82 33z" />
    <glyph glyph-name="uni0212.ss05" horiz-adv-x="1155" 
d="M680 1642q-41 41 -102 41q-63 0 -103 -40q-41 -41 -41 -105h-139q0 116 81 196q81 78 202 78q120 0 201 -78q81 -80 81 -196h-139q0 63 -41 104zM768 602l-98 -14l426 -588h-234l-428 575v150h187q110 0 180 73q71 73 71 183t-71 184q-72 72 -180 72h-267v-1237h-188
v1413h459q188 0 314 -123t126 -307q0 -142 -83 -248q-82 -106 -214 -133z" />
    <glyph glyph-name="i.locl" horiz-adv-x="473" 
d="M238 1192q-49 0 -82 32.5t-33 80.5t32.5 80t82.5 32q47 0 79.5 -32.5t32.5 -79.5q0 -48 -32.5 -80.5t-79.5 -32.5zM326 0h-176v1044h176v-1044z" />
    <glyph glyph-name="a.salt" horiz-adv-x="1046" 
d="M514 1069q176 0 287 -105q110 -107 110 -278v-686h-168v82q-110 -105 -276 -107q-164 0 -274 101q-111 100 -111 250q0 149 111 251q110 101 274 101q159 0 268 -100v106q0 103 -61 164t-162 61q-88 0 -147.5 -47t-69.5 -123h-180q22 147 130 239q106 91 269 91zM332 188
q68 -57 168 -57t168 57q67 55 67 138q0 85 -67 140q-68 56 -168 56t-168 -56t-68 -140q0 -82 68 -138z" />
    <glyph glyph-name="aacute.aalt" horiz-adv-x="1046" 
d="M623 1446h225l-250 -264h-188zM514 1069q176 0 287 -105q110 -107 110 -278v-686h-168v82q-110 -105 -276 -107q-164 0 -274 101q-111 100 -111 250q0 149 111 251q110 101 274 101q159 0 268 -100v106q0 103 -61 164t-162 61q-88 0 -147.5 -47t-69.5 -123h-180
q22 147 130 239q106 91 269 91zM332 188q68 -57 168 -57t168 57q67 55 67 138q0 85 -67 140q-68 56 -168 56t-168 -56t-68 -140q0 -82 68 -138z" />
    <glyph glyph-name="abreve.aalt" horiz-adv-x="1046" 
d="M720 1239q-81 -78 -202 -78q-122 0 -201 78q-81 78 -81 195h139q0 -60 41 -103q40 -43 103 -43q61 0 102 42q41 43 41 104h139q0 -117 -81 -195zM514 1069q176 0 287 -105q110 -107 110 -278v-686h-168v82q-110 -105 -276 -107q-164 0 -274 101q-111 100 -111 250
q0 149 111 251q110 101 274 101q159 0 268 -100v106q0 103 -61 164t-162 61q-88 0 -147.5 -47t-69.5 -123h-180q22 147 130 239q106 91 269 91zM332 188q68 -57 168 -57t168 57q67 55 67 138q0 85 -67 140q-68 56 -168 56t-168 -56t-68 -140q0 -82 68 -138z" />
    <glyph glyph-name="uni01CE.aalt" horiz-adv-x="1046" 
d="M831 1446l-206 -264h-215l-205 264h168l145 -170l146 170h167zM514 1069q176 0 287 -105q110 -107 110 -278v-686h-168v82q-110 -105 -276 -107q-164 0 -274 101q-111 100 -111 250q0 149 111 251q110 101 274 101q159 0 268 -100v106q0 103 -61 164t-162 61
q-88 0 -147.5 -47t-69.5 -123h-180q22 147 130 239q106 91 269 91zM332 188q68 -57 168 -57t168 57q67 55 67 138q0 85 -67 140q-68 56 -168 56t-168 -56t-68 -140q0 -82 68 -138z" />
    <glyph glyph-name="acircumflex.aalt" horiz-adv-x="1046" 
d="M664 1182l-146 170l-145 -170h-168l205 264h215l206 -264h-167zM514 1069q176 0 287 -105q110 -107 110 -278v-686h-168v82q-110 -105 -276 -107q-164 0 -274 101q-111 100 -111 250q0 149 111 251q110 101 274 101q159 0 268 -100v106q0 103 -61 164t-162 61
q-88 0 -147.5 -47t-69.5 -123h-180q22 147 130 239q106 91 269 91zM332 188q68 -57 168 -57t168 57q67 55 67 138q0 85 -67 140q-68 56 -168 56t-168 -56t-68 -140q0 -82 68 -138z" />
    <glyph glyph-name="uni0201.aalt" horiz-adv-x="1046" 
d="M242 1446l168 -264h-170l-195 264h197zM641 1446l168 -264h-170l-195 264h197zM514 1069q176 0 287 -105q110 -107 110 -278v-686h-168v82q-110 -105 -276 -107q-164 0 -274 101q-111 100 -111 250q0 149 111 251q110 101 274 101q159 0 268 -100v106q0 103 -61 164
t-162 61q-88 0 -147.5 -47t-69.5 -123h-180q22 147 130 239q106 91 269 91zM332 188q68 -57 168 -57t168 57q67 55 67 138q0 85 -67 140q-68 56 -168 56t-168 -56t-68 -140q0 -82 68 -138z" />
    <glyph glyph-name="adieresis.aalt" horiz-adv-x="1046" 
d="M384 1224q-32 -32 -79 -32t-77 31q-31 30 -31 78q0 47 31 78q30 30 77 30q48 0 79 -31q32 -32 32 -77.5t-32 -76.5zM729 1192q-46 0 -77 31t-31 78t31 77.5t77 30.5q47 0 79 -31.5t32 -76.5q0 -46 -32 -77.5t-79 -31.5zM514 1069q176 0 287 -105q110 -107 110 -278v-686
h-168v82q-110 -105 -276 -107q-164 0 -274 101q-111 100 -111 250q0 149 111 251q110 101 274 101q159 0 268 -100v106q0 103 -61 164t-162 61q-88 0 -147.5 -47t-69.5 -123h-180q22 147 130 239q106 91 269 91zM332 188q68 -57 168 -57t168 57q67 55 67 138q0 85 -67 140
q-68 56 -168 56t-168 -56t-68 -140q0 -82 68 -138z" />
    <glyph glyph-name="uni1EA1.aalt" horiz-adv-x="1046" 
d="M514 1069q176 0 287 -105q110 -107 110 -278v-686h-168v82q-110 -105 -276 -107q-164 0 -274 101q-111 100 -111 250q0 149 111 251q110 101 274 101q159 0 268 -100v106q0 103 -61 164t-162 61q-88 0 -147.5 -47t-69.5 -123h-180q22 147 130 239q106 91 269 91zM332 188
q68 -57 168 -57t168 57q67 55 67 138q0 85 -67 140q-68 56 -168 56t-168 -56t-68 -140q0 -82 68 -138zM520 -147q47 0 80 -33t33 -80t-33 -80t-80 -33q-48 0 -81 32.5t-33 80.5t33 80.5t81 32.5z" />
    <glyph glyph-name="agrave.aalt" horiz-adv-x="1046" 
d="M416 1446l211 -264h-187l-252 264h228zM514 1069q176 0 287 -105q110 -107 110 -278v-686h-168v82q-110 -105 -276 -107q-164 0 -274 101q-111 100 -111 250q0 149 111 251q110 101 274 101q159 0 268 -100v106q0 103 -61 164t-162 61q-88 0 -147.5 -47t-69.5 -123h-180
q22 147 130 239q106 91 269 91zM332 188q68 -57 168 -57t168 57q67 55 67 138q0 85 -67 140q-68 56 -168 56t-168 -56t-68 -140q0 -82 68 -138z" />
    <glyph glyph-name="uni0203.aalt" horiz-adv-x="1046" 
d="M621 1274q-41 41 -102 41q-62 0 -103 -41t-41 -105h-139q0 117 81 196q79 79 201 79t202 -79q81 -79 81 -196h-139q0 62 -41 105zM514 1069q176 0 287 -105q110 -107 110 -278v-686h-168v82q-110 -105 -276 -107q-164 0 -274 101q-111 100 -111 250q0 149 111 251
q110 101 274 101q159 0 268 -100v106q0 103 -61 164t-162 61q-88 0 -147.5 -47t-69.5 -123h-180q22 147 130 239q106 91 269 91zM332 188q68 -57 168 -57t168 57q67 55 67 138q0 85 -67 140q-68 56 -168 56t-168 -56t-68 -140q0 -82 68 -138z" />
    <glyph glyph-name="amacron.aalt" horiz-adv-x="1046" 
d="M274 1362h486v-150h-486v150zM514 1069q176 0 287 -105q110 -107 110 -278v-686h-168v82q-110 -105 -276 -107q-164 0 -274 101q-111 100 -111 250q0 149 111 251q110 101 274 101q159 0 268 -100v106q0 103 -61 164t-162 61q-88 0 -147.5 -47t-69.5 -123h-180
q22 147 130 239q106 91 269 91zM332 188q68 -57 168 -57t168 57q67 55 67 138q0 85 -67 140q-68 56 -168 56t-168 -56t-68 -140q0 -82 68 -138z" />
    <glyph glyph-name="aogonek.aalt" horiz-adv-x="1046" 
d="M803 -328q71 0 129 47v-131q-70 -45 -164 -45q-92 0 -154 57q-63 58 -63 142q0 79 56 147.5t151 110.5h-15v82q-110 -105 -276 -107q-164 0 -274 101q-111 100 -111 250q0 149 111 251q110 101 274 101q159 0 268 -100v106q0 103 -61 164t-162 61q-88 0 -147.5 -47
t-69.5 -123h-180q22 147 130 239q106 91 269 91q176 0 287 -105q110 -107 110 -278v-686h-2q-217 -96 -217 -221q0 -47 31.5 -77t79.5 -30zM332 188q68 -57 168 -57t168 57q67 55 67 138q0 85 -67 140q-68 56 -168 56t-168 -56t-68 -140q0 -82 68 -138z" />
    <glyph glyph-name="aring.aalt" horiz-adv-x="1046" 
d="M645 1203q-52 -50 -127 -50t-127 50q-51 49 -51 126q0 75 51 124q52 50 127 50t127 -50q51 -49 51 -124q0 -77 -51 -126zM576 1388q-22 23 -57 23t-58 -23q-23 -25 -23 -59q0 -37 22.5 -60.5t57.5 -23.5t57.5 23.5t22.5 60.5q0 36 -22 59zM514 1069q176 0 287 -105
q110 -107 110 -278v-686h-168v82q-110 -105 -276 -107q-164 0 -274 101q-111 100 -111 250q0 149 111 251q110 101 274 101q159 0 268 -100v106q0 103 -61 164t-162 61q-88 0 -147.5 -47t-69.5 -123h-180q22 147 130 239q106 91 269 91zM332 188q68 -57 168 -57t168 57
q67 55 67 138q0 85 -67 140q-68 56 -168 56t-168 -56t-68 -140q0 -82 68 -138z" />
    <glyph glyph-name="atilde.aalt" horiz-adv-x="1046" 
d="M399 1307q-42 0 -71 -30t-29 -73h-127q0 104 57 173q55 69 150 69q69 0 143 -55q74 -56 115 -56q43 0 71.5 29t28.5 74h129q0 -105 -56 -175q-56 -69 -153 -69q-69 0 -142 57q-76 56 -116 56zM514 1069q176 0 287 -105q110 -107 110 -278v-686h-168v82
q-110 -105 -276 -107q-164 0 -274 101q-111 100 -111 250q0 149 111 251q110 101 274 101q159 0 268 -100v106q0 103 -61 164t-162 61q-88 0 -147.5 -47t-69.5 -123h-180q22 147 130 239q106 91 269 91zM332 188q68 -57 168 -57t168 57q67 55 67 138q0 85 -67 140
q-68 56 -168 56t-168 -56t-68 -140q0 -82 68 -138z" />
    <glyph glyph-name="k.ss02" horiz-adv-x="1099" 
d="M1069 0h-233l-375 420l-135 -144v-276h-176v1475h176v-961l499 530h230l-469 -493z" />
    <glyph glyph-name="uni0137.aalt" horiz-adv-x="1099" 
d="M1055 1044l-469 -493l483 -551h-233l-375 420l-135 -144v-276h-176v1475h176v-961l499 530h230zM580 -451h-146l72 316h184z" />
    <glyph glyph-name="t.aalt" horiz-adv-x="765" 
d="M467 1044h240v-159h-240v-885h-176v885h-225v159h225v308h176v-308z" />
    <glyph glyph-name="tbar.aalt" horiz-adv-x="765" 
d="M707 1044v-159h-240v-330h215v-129h-215v-426h-176v426h-203v129h203v330h-225v159h225v308h176v-308h240z" />
    <glyph glyph-name="tcaron.aalt" horiz-adv-x="765" 
d="M588 1161l43 412h164l-74 -412h-133zM291 1352h176v-308h240v-159h-240v-885h-176v885h-225v159h225v308z" />
    <glyph glyph-name="uni0163.ss09" horiz-adv-x="765" 
d="M467 885v-885h-21l-57 -70h10q82 0 136 -55q53 -56 53 -139q0 -84 -60 -142q-62 -57 -151 -57q-90 0 -150 57q-61 58 -61 142h110q0 -41 29.5 -69.5t71.5 -28.5q41 0 70.5 28.5t29.5 69.5q0 42 -29 71t-71 29q-44 0 -70 -29l-102 46l114 147h-28v885h-225v159h225v308
h176v-308h240v-159h-240z" />
    <glyph glyph-name="uni021B.aalt" horiz-adv-x="765" 
d="M467 1352v-308h240v-159h-240v-885h-176v885h-225v159h225v308h176zM385 -451h-145l71 316h185z" />
    <glyph glyph-name="uni1E6D.aalt" horiz-adv-x="765" 
d="M467 1352v-308h240v-159h-240v-885h-176v885h-225v159h225v308h176zM381 -147q47 0 80 -33t33 -80t-33 -80t-80 -33q-49 0 -82 33t-33 80t33 80t82 33z" />
    <glyph glyph-name="f_t.dlig" horiz-adv-x="1427" 
d="M1130 1044h238v-159h-238v-885h-176v885h-518v-885h-176v885h-190v159h190v74q0 191 104.5 279t319.5 88v-162q-248 0 -248 -215v-64h518v273l176 35v-308z" />
    <glyph glyph-name="t_t.dlig" horiz-adv-x="1423" 
d="M1126 1044h240v-159h-240v-885h-176v885h-483v-885h-176v885h-225v159h225v273l176 35v-308h483v273l176 35v-308z" />
    <glyph glyph-name="zero.inferior" horiz-adv-x="811" 
d="M643 -125q-91 -123 -237 -123t-238 123q-92 124 -92 316q0 191 92 315q92 123 238 123t237 -123q92 -124 92 -315q0 -192 -92 -316zM269 -32q52 -85 137 -85q83 0 137 84q53 85 53 224q0 138 -53 223q-54 84 -137 84q-85 0 -137 -85q-54 -85 -54 -222t54 -223z" />
    <glyph glyph-name="one.inferior" horiz-adv-x="460" 
d="M43 494l221 120h96v-847h-135v688l-182 -103v142z" />
    <glyph glyph-name="two.inferior" horiz-adv-x="694" 
d="M506 139l-238 -250h357v-122h-557v102l319 334q92 97 92 164q0 57 -39 97t-96 40t-95 -39t-38 -98h-137q0 113 79 188q79 74 195 74t192 -75t76 -187t-110 -228z" />
    <glyph glyph-name="three.inferior" horiz-adv-x="675" 
d="M498 207q119 -64 118 -199q0 -106 -79 -181q-80 -75 -199 -75t-200 75t-81 187h138q0 -57 42 -97q41 -40 101 -40q62 0 102 39q41 39 41 99q0 59 -41 100t-102 41h-117v98h117q52 0 90 38q37 37 37 93q0 52 -37 86q-38 35 -90 35t-90 -35q-37 -34 -37 -86h-139
q0 102 77 173t189 71q113 0 189 -70q75 -71 75 -168q0 -121 -104 -184z" />
    <glyph glyph-name="four.inferior" horiz-adv-x="731" 
d="M582 70h106v-123h-106v-180h-136v180h-399v98l371 569h164v-544zM446 465l-253 -395h253v395z" />
    <glyph glyph-name="five.inferior" horiz-adv-x="718" 
d="M385 305q122 0 202 -79q81 -80 81 -197q0 -119 -84 -198q-83 -79 -211 -79q-126 0 -209 79q-84 79 -84 198h137q0 -69 45 -112q46 -44 111 -44q68 0 113 45q44 46 44 111q0 67 -45 114q-45 45 -112 45q-40 0 -80.5 -20.5t-59.5 -48.5h-137l41 495h475v-120h-352l-22 -238
q62 49 147 49z" />
    <glyph glyph-name="six.inferior" horiz-adv-x="700" 
d="M367 309q119 0 200 -78q80 -80 80 -196q0 -121 -84 -202t-209 -81t-210 82t-85 201q0 89 56 174l270 405h160l-205 -307q12 2 27 2zM244 -77q46 -44 111 -44q64 0 110 44q45 43 45 112q0 66 -45 111q-46 44 -110 44q-66 0 -111 -45t-45 -110q0 -69 45 -112z" />
    <glyph glyph-name="seven.inferior" horiz-adv-x="667" 
d="M66 487v127h559v-104l-346 -743h-150l334 720h-397z" />
    <glyph glyph-name="eight.inferior" horiz-adv-x="686" 
d="M496 205q131 -68 131 -207q0 -104 -81 -175q-82 -71 -202 -71t-202 71q-81 71 -81 175q0 140 129 207q-113 67 -112 190q0 100 76 167q74 67 190 67q115 0 191 -66q75 -67 75 -168q2 -122 -114 -190zM436 463q-38 35 -92 35t-92 -35q-37 -34 -37 -86q0 -53 37 -88t92 -35
t92 35t37 88q0 52 -37 86zM242 -79q41 -38 103 -38q61 0 102 38q40 37 40 96q0 57 -40.5 95t-102.5 38q-58 0 -101 -38q-42 -38 -42 -95q0 -58 41 -96z" />
    <glyph glyph-name="nine.inferior" horiz-adv-x="700" 
d="M144 548q86 81 210 81q125 0 209 -81t84 -202q0 -88 -57 -174l-266 -405h-160l205 307q-14 -2 -29 -2q-120 0 -200 79q-81 78 -81 195q0 121 85 202zM354 190q66 0 111 46q45 45 45 110q0 68 -45 113t-111 45q-68 0 -112 -45q-45 -45 -45 -113q0 -66 45 -111
q44 -45 112 -45z" />
    <glyph glyph-name="zero.dnom" horiz-adv-x="811" 
d="M643 109q-91 -123 -237 -123t-238 123q-92 122 -92 315q0 191 92 315q92 123 238 123t237 -123q92 -124 92 -315q0 -193 -92 -315zM269 202q52 -85 137 -85q83 0 137 84q53 85 53 223t-53 223q-54 84 -137 84q-85 0 -137 -85q-54 -86 -54 -222t54 -222z" />
    <glyph glyph-name="one.dnom" horiz-adv-x="460" 
d="M43 727l221 121h96v-848h-135v688l-182 -102v141z" />
    <glyph glyph-name="two.dnom" horiz-adv-x="694" 
d="M506 373l-238 -250h357v-123h-557v102l319 334q92 97 92 164q0 56 -39 97q-39 40 -96 40t-95 -39t-38 -98h-137q0 113 79 188q79 74 195 74q115 0 192 -74q76 -75 76 -188q0 -112 -110 -227z" />
    <glyph glyph-name="three.dnom" horiz-adv-x="675" 
d="M498 440q119 -64 118 -198q0 -106 -79 -181q-80 -75 -199 -75t-200 75q-81 74 -81 187h138q0 -56 42 -97q41 -40 101 -40q61 0 102 38.5t41 98.5q0 59 -41 100t-102 41h-117v98h117q52 0 90 38q37 37 37 93q0 52 -37 86q-38 35 -90 35q-53 0 -90 -34.5t-37 -86.5h-139
q0 102 77 173t189 71t189 -69q75 -71 75 -168q0 -122 -104 -185z" />
    <glyph glyph-name="four.dnom" horiz-adv-x="731" 
d="M582 303h106v-123h-106v-180h-136v180h-399v99l371 569h164v-545zM446 698l-253 -395h253v395z" />
    <glyph glyph-name="five.dnom" horiz-adv-x="718" 
d="M385 539q122 0 202 -79q81 -80 81 -198q0 -119 -84 -197q-83 -79 -211 -79q-126 0 -209 79q-84 78 -84 197h137q0 -68 45 -112q46 -44 111 -44q68 0 113 46q44 46 44 110q0 68 -45 114t-112 46q-41 0 -81 -20t-59 -50h-137l41 496h475v-121h-352l-22 -238q64 50 147 50z
" />
    <glyph glyph-name="six.dnom" horiz-adv-x="700" 
d="M367 543q120 0 200 -79q80 -80 80 -196q0 -122 -84 -201q-84 -81 -209 -81t-210 82t-85 200q0 89 56 174l270 406h160l-205 -307q12 2 27 2zM244 157q46 -44 111 -44q64 0 110 44q45 43 45 111q0 66 -45 111t-110 45q-66 0 -111 -45t-45 -111q0 -68 45 -111z" />
    <glyph glyph-name="seven.dnom" horiz-adv-x="667" 
d="M66 721v127h559v-105l-346 -743h-150l334 721h-397z" />
    <glyph glyph-name="eight.dnom" horiz-adv-x="686" 
d="M496 438q131 -68 131 -207q0 -103 -81 -174q-82 -71 -202 -71t-202 71q-81 71 -81 174q0 139 129 207q-113 67 -112 191q0 100 76 167q75 66 190 66t191 -66q75 -68 75 -167q2 -123 -114 -191zM436 696q-38 35 -92 35q-55 0 -92 -34t-37 -87t37 -88t92 -35t92 35t37 88
q0 52 -37 86zM242 155q41 -38 103 -38q61 0 102 38q40 37 40 95q0 57 -40.5 95t-102.5 38q-58 0 -101 -38q-42 -37 -42 -95q0 -57 41 -95z" />
    <glyph glyph-name="nine.dnom" horiz-adv-x="700" 
d="M144 782q86 80 210 80q125 0 209 -81t84 -201q0 -88 -57 -174l-266 -406h-160l205 307q-14 -2 -29 -2q-120 0 -200 79q-81 80 -81 196q0 121 85 202zM354 424q66 0 111 45t45 111q0 68 -45 113q-46 44 -111 44q-68 0 -112 -45q-45 -45 -45 -112q0 -66 45 -111
q44 -45 112 -45z" />
    <glyph glyph-name="zero.numr" horiz-adv-x="811" 
d="M643 674q-91 -123 -237 -123t-238 123q-92 124 -92 316q0 191 92 315q92 122 238 122q145 0 237 -122q92 -124 92 -315q0 -192 -92 -316zM269 767q52 -85 137 -85q83 0 137 84q53 85 53 223t-53 223q-54 84 -137 84q-85 0 -137 -85q-54 -85 -54 -222t54 -222z" />
    <glyph glyph-name="one.numr" horiz-adv-x="460" 
d="M43 1292l221 121h96v-848h-135v688l-182 -102v141z" />
    <glyph glyph-name="two.numr" horiz-adv-x="694" 
d="M506 938l-238 -250h357v-123h-557v103l319 333q92 97 92 164q0 57 -39 98q-39 40 -96 40t-95 -39t-38 -99h-137q0 113 79 188q79 74 195 74q115 0 192 -74q76 -75 76 -187t-110 -228z" />
    <glyph glyph-name="three.numr" horiz-adv-x="675" 
d="M498 1006q119 -64 118 -199q0 -106 -79 -181q-80 -75 -199 -75t-200 75q-81 74 -81 187h138q0 -57 42 -97q41 -40 101 -40q62 0 102 39q41 39 41 98t-41 100t-102 41h-117v99h117q52 0 90 38q37 37 37 93q0 52 -37 86q-38 35 -90 35t-90 -35q-37 -34 -37 -86h-139
q0 102 77 173q76 70 189 70q112 0 189 -69q75 -70 75 -168q0 -121 -104 -184z" />
    <glyph glyph-name="four.numr" horiz-adv-x="731" 
d="M582 868h106v-123h-106v-180h-136v180h-399v99l371 569h164v-545zM446 1264l-253 -396h253v396z" />
    <glyph glyph-name="five.numr" horiz-adv-x="718" 
d="M385 1104q122 0 202 -79q81 -80 81 -197q0 -118 -84 -198q-83 -79 -211 -79q-126 0 -209 79q-84 80 -84 197h137q0 -67 45 -111q46 -44 111 -44q68 0 113 45q44 46 44 110q0 67 -45 114q-45 46 -112 46q-40 0 -80.5 -20.5t-59.5 -48.5h-137l41 495h475v-121h-352
l-22 -237q62 49 147 49z" />
    <glyph glyph-name="six.numr" horiz-adv-x="700" 
d="M367 1108q120 0 200 -79q80 -80 80 -195q0 -121 -84 -202t-209 -81t-210 82t-85 201q0 89 56 174l270 405h160l-205 -307q12 2 27 2zM244 722q46 -44 111 -44q64 0 110 44q45 44 45 112q0 66 -45 111q-46 44 -110 44q-66 0 -111 -45t-45 -110q0 -68 45 -112z" />
    <glyph glyph-name="seven.numr" horiz-adv-x="667" 
d="M66 1286v127h559v-104l-346 -744h-150l334 721h-397z" />
    <glyph glyph-name="eight.numr" horiz-adv-x="686" 
d="M496 1004q131 -68 131 -207q0 -105 -81 -175q-82 -71 -202 -71t-202 71q-81 70 -81 175q0 139 129 207q-113 67 -112 190q0 100 76 167q75 66 190 66t191 -66q75 -67 75 -167q2 -122 -114 -190zM436 1262q-37 34 -92 34t-92 -34t-37 -86q0 -53 37 -88t92 -35t92 34.5
t37 88.5q0 52 -37 86zM242 720q41 -38 103 -38q61 0 102 38q40 37 40 95q0 57 -40.5 95t-102.5 38q-58 0 -101 -38q-42 -38 -42 -95t41 -95z" />
    <glyph glyph-name="nine.numr" horiz-adv-x="700" 
d="M144 1347q86 80 210 80t209 -80q84 -81 84 -202q0 -89 -57 -174l-266 -406h-160l205 307q-14 -2 -29 -2q-120 0 -200 79q-81 79 -81 196q0 121 85 202zM354 989q66 0 111 45t45 111q0 68 -45 113t-111 45q-68 0 -112 -45q-45 -46 -45 -113q0 -66 45 -111q44 -45 112 -45z
" />
    <glyph glyph-name="exclamdown.aalt" horiz-adv-x="518" 
d="M260 1171q-55 0 -92 37t-37 92q0 53 37 90t92 37q52 0 90 -36q37 -37 37 -91q0 -55 -37 -92t-90 -37zM352 0h-186v348l12 670h164l10 -670v-348z" />
    <glyph glyph-name="questiondown.aalt" horiz-adv-x="1024" 
d="M532 1171q-53 0 -89.5 37t-36.5 92q0 53 37 90q36 37 89 37q55 0 92.5 -36.5t37.5 -90.5q0 -55 -37.5 -92t-92.5 -37zM532 -25q-175 0 -294 116t-119 290q0 111 48 186q49 75 132 146q49 43 73 68q22 22 47 70q21 43 21 93v66h187v-66q0 -78 -30 -143q-30 -66 -61 -100
q-34 -37 -87 -83q-74 -64 -107 -116.5t-33 -120.5q0 -96 64 -160q63 -65 160 -65q95 0 160 65q63 65 63 160h192q0 -174 -119 -290t-297 -116z" />
    <glyph glyph-name="periodcentered.aalt" horiz-adv-x="522" 
d="M262 575q-57 0 -95 38t-38 94q0 55 38 93t95 38q55 0 93 -38t38 -93q0 -56 -38 -94t-93 -38z" />
    <glyph glyph-name="bullet.aalt" horiz-adv-x="651" 
d="M466 568q-56 -56 -140 -56t-140 56q-57 56 -57 139t57 139q55 55 140 55t140 -55q56 -56 56 -139t-56 -139z" />
    <glyph glyph-name="asterisk.aalt" horiz-adv-x="813" 
d="M549 1120l-43 -14l43 -19l158 -88l-58 -96l-157 88l-35 29l6 -45v-178h-113v178l8 45l-36 -29l-158 -88l-58 96l158 91l43 16l-43 16l-158 88l58 99l158 -90l36 -29l-8 45v178h113v-178l-6 -45l35 29l157 90l58 -99z" />
    <glyph glyph-name="slash.case" horiz-adv-x="1058" 
d="M209 -215h-178l819 1843h178z" />
    <glyph glyph-name="backslash.aalt" horiz-adv-x="1058" 
d="M1028 -215h-178l-819 1843h178z" />
    <glyph glyph-name="parenleft.aalt" horiz-adv-x="696" 
d="M645 -256h-178q-132 176 -211 437q-80 264 -80 526q0 261 80 525q79 261 211 437h178q-126 -173 -205 -437q-78 -262 -78 -525t78 -526q79 -264 205 -437z" />
    <glyph glyph-name="parenright.aalt" horiz-adv-x="696" 
d="M229 -256h-178q126 173 205 437q78 263 78 526t-78 525q-79 264 -205 437h178q132 -176 211 -437q80 -264 80 -525q0 -262 -80 -526q-79 -261 -211 -437z" />
    <glyph glyph-name="braceleft.aalt" horiz-adv-x="837" 
d="M508 1370v-508q0 -51 -29.5 -93t-79.5 -60q109 -45 109 -156v-510q0 -57 36 -95t93 -38h123v-166h-189q-109 0 -177 69q-68 71 -68 179v518q0 51 -31 83t-80 32h-80v166h80q49 0 80 31.5t31 82.5v516q0 109 69 179q68 69 176 69h189v-166h-123q-57 0 -93 -38t-36 -95z
" />
    <glyph glyph-name="braceright.aalt" horiz-adv-x="837" 
d="M623 791h79v-166h-79q-49 0 -80 -32t-31 -83v-518q0 -108 -68 -179q-69 -69 -178 -69h-188v166h123q57 0 93 38t36 95v510q0 111 108 156q-49 18 -78.5 60t-29.5 93v508q0 57 -36 95t-93 38h-123v166h188q109 0 178 -69q68 -71 68 -179v-516q0 -51 31 -82.5t80 -31.5z
" />
    <glyph glyph-name="bracketleft.aalt" horiz-adv-x="716" 
d="M639 1669v-166h-260v-1593h260v-166h-442v1925h442z" />
    <glyph glyph-name="bracketright.aalt" horiz-adv-x="716" 
d="M78 1503v166h442v-1925h-442v166h260v1593h-260z" />
    <glyph glyph-name="hyphen.aalt" horiz-adv-x="835" 
d="M707 623h-578v170h578v-170z" />
    <glyph glyph-name="endash.aalt" horiz-adv-x="1245" 
d="M1116 629h-987v159h987v-159z" />
    <glyph glyph-name="emdash.aalt" horiz-adv-x="2187" 
d="M2058 629h-1929v159h1929v-159z" />
    <glyph glyph-name="guillemotleft.aalt" horiz-adv-x="1275" 
d="M449 1122h208l-342 -415l342 -416h-208l-340 416zM950 1122h209l-340 -415l340 -416h-209l-340 416z" />
    <glyph glyph-name="guillemotright.aalt" horiz-adv-x="1275" 
d="M123 1122h209l340 -415l-340 -416h-209l340 416zM625 1122h209l340 -415l-340 -416h-209l342 416z" />
    <glyph glyph-name="guilsinglleft.aalt" horiz-adv-x="774" 
d="M449 1122h208l-342 -415l342 -416h-208l-340 416z" />
    <glyph glyph-name="guilsinglright.aalt" horiz-adv-x="774" 
d="M123 1122h209l340 -415l-340 -416h-209l340 416z" />
    <glyph glyph-name="plus.aalt" horiz-adv-x="1093" 
d="M629 786h336v-159h-336v-338h-164v338h-336v159h336v338h164v-338z" />
    <glyph glyph-name="at.aalt" horiz-adv-x="1722" 
d="M1061 952v103h166v-490q0 -42 25.5 -69t66.5 -27q66 0 108 78q41 79 41 198q0 242 -172 404t-426 162q-263 0 -435 -172q-173 -173 -173 -432q0 -261 173 -434t435 -173q226 0 381 123h230q-113 -127 -271 -196q-160 -72 -342 -72q-325 0 -542 215q-217 214 -217 537
q0 319 218 534t543 215q316 0 534 -203q216 -204 216 -510q0 -181 -81 -294t-222 -113q-84 0 -147.5 36t-92.5 99q-84 -139 -262 -139q-156 0 -258 107t-102 266q0 158 101 267q101 107 249 107q165 0 256 -127zM842 492q95 0 157 61q62 62 62 154q0 91 -63 152
q-64 61 -156 61t-153 -60q-62 -62 -62 -153q0 -94 62 -154q61 -61 153 -61z" />
    <glyph glyph-name="glyph652" 
d="M-74 1063h-133l43 412h164z" />
    <glyph glyph-name="glyph653" horiz-adv-x="206" 
d="M133 1063h-133l43 412h164z" />
    </font>
</defs>
</svg>
