<svg width="32" height="32" viewBox="0 0 32 32" fill="none" xmlns="http://www.w3.org/2000/svg">
<mask id="mask0" mask-type="alpha" maskUnits="userSpaceOnUse" x="2" y="2" width="28" height="28">
<circle cx="16" cy="16" r="13.8438" fill="#C4C4C4" fill-opacity="0.89"/>
</mask>
<g mask="url(#mask0)">
<path d="M-0.416992 1.29443H34.3085V22.4856H-0.416992V1.29443Z" fill="#F64942"/>
<path d="M8.47225 24.4877C6.71042 21.0343 8.40992 16.8532 13.005 15.7295C26.3539 13.5493 24.3522 9.41461 28.4409 7.9408C36.048 5.19868 34.1244 14.7428 32.5943 17.4112C31.0642 20.0795 34.688 25.1417 29.4942 25.5098C26.2248 25.7415 25.2718 23.8994 19.5095 26.278C16.5461 27.5012 16.3726 27.2306 13.2963 26.2384L10.662 24.9076L8.47244 24.4877H8.47225Z" fill="#F4CE45"/>
<path d="M15.433 -0.636021C11.8844 -0.162655 -6.27738 3.65875 -7.57227 4.25036L-4.41343 22.1772C-2.5174 21.9946 1.00095 23.8821 1.00095 21.2232C1.00095 18.6435 1.52455 17.5429 3.30435 14.451C5.91978 9.90821 11.7085 9.98411 13.7254 9.88548C18.4968 9.65228 23.7163 8.12511 26.3833 4.25201C35.5224 -9.02077 26.8504 -3.78422 15.4328 -0.636204L15.433 -0.636021Z" fill="#5B95BF"/>
<path d="M11.6021 20.1838C7.90222 20.1948 4.00162 21.3355 0.439453 22.6735L1.83774 37.8201C11.533 36.6068 28.959 33.7067 30.0428 31.869C31.2992 29.7383 29.5293 28.3171 33.18 26.3757C36.1005 24.8227 39.3344 18.6822 32.4473 18.613C28.6334 18.6442 27.6573 19.4346 24.6825 20.5507C19.7798 22.3903 14.437 20.1754 11.6021 20.1838Z" fill="#EF90A4"/>
<path fill-rule="evenodd" clip-rule="evenodd" d="M16.1028 6.69037C16.3265 6.69041 16.5452 6.75572 16.7323 6.8783C16.9194 7.00088 17.0667 7.17539 17.156 7.38044C17.1643 7.39916 17.1778 7.41507 17.195 7.42621C17.2121 7.43735 17.2322 7.44323 17.2527 7.44314C17.2673 7.44323 17.2818 7.44008 17.2952 7.4339C17.3085 7.42772 17.3203 7.41866 17.3296 7.40739C17.4375 7.27849 17.5723 7.17476 17.7245 7.10347C17.8767 7.03218 18.0427 6.99505 18.2107 6.9947C18.4864 6.99467 18.7529 7.09371 18.9616 7.27375C19.1703 7.4538 19.3074 7.70287 19.3478 7.97554C19.3506 7.99272 19.3578 8.0089 19.3686 8.02258C19.3793 8.03627 19.3934 8.04701 19.4094 8.05383C19.4254 8.06065 19.4429 8.06331 19.4603 8.06158C19.4776 8.05985 19.4942 8.05377 19.5086 8.04392C19.7026 7.90799 19.9338 7.83502 20.1708 7.83492C20.3326 7.8352 20.4925 7.86966 20.6401 7.93603C20.7877 8.0024 20.9196 8.09919 21.0271 8.22006C21.1347 8.34093 21.2156 8.48316 21.2644 8.63744C21.3132 8.79172 21.3289 8.95456 21.3104 9.11532C21.3088 9.13264 21.3116 9.15007 21.3185 9.16602C21.3254 9.18198 21.3362 9.19596 21.3499 9.20667C21.3636 9.21739 21.3797 9.22451 21.3969 9.22739C21.414 9.23026 21.4316 9.22879 21.4481 9.22312C21.5747 9.17703 21.7085 9.15346 21.8433 9.15345C22.1372 9.15345 22.4309 9.26529 22.6551 9.48969C22.8135 9.64815 22.9221 9.84944 22.9676 10.0688C23.0131 10.2882 22.9935 10.5161 22.9112 10.7244C22.9052 10.7407 22.9034 10.7583 22.9059 10.7755C22.9084 10.7927 22.9152 10.809 22.9256 10.8229C22.936 10.8367 22.9498 10.8478 22.9656 10.855C22.9814 10.8622 22.9988 10.8654 23.0161 10.8641C23.2343 10.8445 23.4535 10.8878 23.6479 10.9888C23.8423 11.0898 24.0038 11.2443 24.1132 11.4341C24.2251 11.6281 24.2779 11.8507 24.2651 12.0743C24.2523 12.2979 24.1744 12.5129 24.0409 12.6929C24.0309 12.7071 24.0245 12.7236 24.0225 12.7409C24.0204 12.7582 24.0228 12.7757 24.0293 12.7918C24.0358 12.808 24.0462 12.8222 24.0597 12.8333C24.0731 12.8444 24.0891 12.8519 24.1062 12.8551C24.3244 12.8933 24.5269 12.9937 24.6894 13.1443C24.8519 13.2949 24.9674 13.4892 25.0219 13.7039C25.0765 13.9186 25.0679 14.1445 24.9971 14.3544C24.9263 14.5643 24.7963 14.7493 24.6228 14.887C24.6094 14.8981 24.5989 14.9124 24.5925 14.9286C24.586 14.9448 24.5837 14.9623 24.5858 14.9796C24.5879 14.9969 24.5943 15.0134 24.6045 15.0276C24.6147 15.0417 24.6282 15.0531 24.6439 15.0606C24.8446 15.1539 25.0141 15.3031 25.132 15.4903C25.25 15.6776 25.3113 15.8949 25.3087 16.1162C25.3061 16.3375 25.2396 16.5533 25.1173 16.7377C24.995 16.9221 24.822 17.0673 24.6192 17.1558C24.5495 17.1862 24.5339 17.2808 24.592 17.3296C24.762 17.4716 24.8874 17.6599 24.9529 17.8715C25.0184 18.0832 25.0213 18.3093 24.9612 18.5225C24.9012 18.7358 24.7808 18.9272 24.6144 19.0736C24.4481 19.22 24.2431 19.3152 24.0239 19.3477C24.0067 19.3506 23.9906 19.3578 23.9769 19.3686C23.9633 19.3794 23.9526 19.3935 23.9457 19.4095C23.9389 19.4255 23.9363 19.443 23.938 19.4603C23.9397 19.4777 23.9457 19.4943 23.9555 19.5087C24.0835 19.6907 24.1559 19.9061 24.1639 20.1285C24.1719 20.3509 24.1151 20.5709 24.0004 20.7616C23.8858 20.9524 23.7182 21.1058 23.518 21.2031C23.3179 21.3004 23.0938 21.3375 22.8729 21.3099C22.8565 21.3102 22.8403 21.3144 22.8258 21.3222C22.8113 21.3299 22.7989 21.341 22.7895 21.3545C22.7801 21.3679 22.774 21.3835 22.7717 21.3997C22.7695 21.416 22.7711 21.4326 22.7765 21.4482C22.8527 21.6562 22.8671 21.8818 22.818 22.0979C22.7689 22.3139 22.6583 22.5112 22.4997 22.6658C22.341 22.8205 22.141 22.926 21.9238 22.9696C21.7066 23.0132 21.4814 22.993 21.2754 22.9115C21.2638 22.9069 21.2515 22.9046 21.239 22.9046C21.2248 22.9047 21.2107 22.9077 21.1976 22.9135C21.1845 22.9193 21.1728 22.9277 21.1631 22.9382C21.1534 22.9487 21.146 22.961 21.1412 22.9745C21.1365 22.988 21.1346 23.0023 21.1357 23.0166C21.1498 23.1753 21.1307 23.3352 21.0797 23.4861C21.0288 23.637 20.947 23.7757 20.8395 23.8934C20.7321 24.011 20.6014 24.105 20.4557 24.1695C20.3099 24.2339 20.1524 24.2673 19.9931 24.2676C19.7461 24.2676 19.5056 24.1883 19.3069 24.0414C19.2898 24.0287 19.269 24.0219 19.2477 24.022C19.2234 24.0219 19.1998 24.0303 19.181 24.0458C19.1622 24.0612 19.1494 24.0828 19.1448 24.1067C19.1069 24.325 19.0065 24.5276 18.856 24.6902C18.7054 24.8528 18.5111 24.9684 18.2963 25.023C18.0816 25.0776 17.8556 25.0689 17.6457 24.998C17.4357 24.9271 17.2508 24.797 17.1131 24.6233C17.1036 24.6114 17.0916 24.6019 17.0779 24.5954C17.0641 24.5889 17.0491 24.5856 17.0339 24.5857C17.0143 24.5854 16.9949 24.5908 16.9782 24.6012C16.9615 24.6116 16.9481 24.6266 16.9397 24.6444C16.8474 24.843 16.7003 25.0112 16.5157 25.1291C16.3311 25.2469 16.1167 25.3096 15.8976 25.3097C15.674 25.3097 15.4552 25.2444 15.2681 25.1218C15.0811 24.9992 14.9339 24.8247 14.8446 24.6196C14.8363 24.6009 14.8227 24.585 14.8055 24.5738C14.7883 24.5627 14.7683 24.5568 14.7478 24.5569C14.7331 24.5568 14.7186 24.56 14.7053 24.5661C14.692 24.5723 14.6802 24.5813 14.6708 24.5925C14.5629 24.7215 14.4282 24.8252 14.276 24.8966C14.1237 24.9679 13.9578 25.005 13.7897 25.0054C13.514 25.0054 13.2476 24.9063 13.0389 24.7263C12.8301 24.5462 12.6931 24.2972 12.6526 24.0245C12.6498 24.0074 12.6426 23.9912 12.6318 23.9775C12.6211 23.9638 12.607 23.9531 12.591 23.9462C12.575 23.9394 12.5575 23.9368 12.5402 23.9385C12.5228 23.9402 12.5062 23.9463 12.4918 23.9562C12.2978 24.0921 12.0666 24.165 11.8296 24.1652C11.6678 24.1648 11.5079 24.1304 11.3603 24.064C11.2127 23.9976 11.0808 23.9008 10.9733 23.7799C10.8657 23.659 10.7849 23.5168 10.736 23.3625C10.6872 23.2082 10.6716 23.0453 10.69 22.8846C10.6916 22.8673 10.6888 22.8499 10.6819 22.8339C10.675 22.818 10.6643 22.804 10.6506 22.7933C10.6369 22.7826 10.6208 22.7755 10.6037 22.7727C10.5865 22.7698 10.569 22.7713 10.5525 22.777C10.4259 22.823 10.2921 22.8466 10.1573 22.8466C10.0065 22.8468 9.85714 22.8172 9.71782 22.7595C9.5785 22.7018 9.45197 22.6172 9.34548 22.5104C9.1871 22.3519 9.07847 22.1506 9.03297 21.9312C8.98747 21.7118 9.00707 21.4839 9.08937 21.2755C9.09539 21.2591 9.09723 21.2416 9.09471 21.2244C9.09219 21.2072 9.08539 21.1909 9.07494 21.177C9.06449 21.1631 9.05071 21.152 9.03488 21.1448C9.01905 21.1376 9.00166 21.1345 8.98432 21.1358C8.76614 21.1554 8.54692 21.1121 8.35252 21.0112C8.15813 20.9102 7.99668 20.7557 7.88725 20.566C7.77528 20.3719 7.72248 20.1493 7.73534 19.9257C7.74821 19.702 7.82618 19.4869 7.95967 19.307C7.96974 19.2928 7.97608 19.2763 7.97811 19.259C7.98013 19.2417 7.97778 19.2242 7.97127 19.208C7.96475 19.1918 7.95428 19.1776 7.94082 19.1665C7.92735 19.1555 7.91133 19.148 7.89422 19.1448C7.67602 19.1066 7.47349 19.0062 7.31104 18.8556C7.14858 18.705 7.03311 18.5107 6.97854 18.296C6.92397 18.0813 6.93262 17.8555 7.00345 17.6456C7.07428 17.4357 7.20427 17.2508 7.37777 17.1131C7.39117 17.1019 7.40157 17.0876 7.40801 17.0715C7.41445 17.0553 7.41672 17.0378 7.41462 17.0205C7.41253 17.0032 7.40612 16.9867 7.396 16.9726C7.38587 16.9584 7.37236 16.947 7.35668 16.9394C7.15588 16.8462 6.98628 16.697 6.86827 16.5097C6.75026 16.3224 6.68887 16.105 6.69149 15.8837C6.6941 15.6623 6.76061 15.4464 6.88301 15.262C7.00541 15.0775 7.17849 14.9324 7.38143 14.8439C7.4511 14.8137 7.46668 14.7193 7.40857 14.6705C7.24035 14.53 7.11582 14.3444 7.04965 14.1354C6.98348 13.9265 6.97844 13.703 7.03512 13.4913C7.09316 13.2749 7.2132 13.0802 7.38046 12.9311C7.54772 12.782 7.7549 12.6851 7.97653 12.6522C7.99366 12.6492 8.00978 12.642 8.02341 12.6312C8.03703 12.6205 8.04774 12.6064 8.05454 12.5904C8.06134 12.5744 8.06403 12.557 8.06235 12.5397C8.06066 12.5224 8.05467 12.5058 8.04492 12.4914C7.91747 12.3102 7.84515 12.0959 7.83668 11.8745C7.82821 11.6531 7.88395 11.434 7.99719 11.2435C8.11042 11.0531 8.27632 10.8994 8.47488 10.8011C8.67345 10.7028 8.89621 10.664 9.11632 10.6894C9.13361 10.691 9.15102 10.6882 9.16696 10.6813C9.18289 10.6744 9.19685 10.6636 9.20757 10.65C9.21828 10.6363 9.2254 10.6202 9.2283 10.603C9.23119 10.5859 9.22975 10.5683 9.22412 10.5519C9.14881 10.3462 9.13387 10.1232 9.18107 9.90932C9.22826 9.6954 9.33563 9.49942 9.4905 9.34449C9.59698 9.2377 9.72351 9.15302 9.86283 9.09532C10.0022 9.03762 10.1515 9.00803 10.3023 9.00825C10.4458 9.00825 10.5896 9.03502 10.7253 9.08855C10.7368 9.09308 10.7491 9.09538 10.7615 9.09534C10.7758 9.09522 10.7899 9.09218 10.803 9.08641C10.816 9.08064 10.8277 9.07226 10.8374 9.06178C10.8471 9.0513 10.8546 9.03895 10.8593 9.02549C10.864 9.01203 10.866 8.99774 10.8649 8.9835C10.8508 8.82479 10.8698 8.66487 10.9207 8.51389C10.9717 8.36292 11.0535 8.22419 11.1609 8.10653C11.2684 7.98886 11.3991 7.89482 11.5449 7.83039C11.6906 7.76596 11.8481 7.73254 12.0075 7.73225C12.2531 7.73225 12.4946 7.81109 12.6935 7.95867C12.7078 7.96864 12.7243 7.9749 12.7415 7.97688C12.7588 7.97886 12.7763 7.97648 12.7924 7.96998C12.8085 7.96348 12.8228 7.95305 12.8338 7.93964C12.8449 7.92624 12.8524 7.91028 12.8558 7.89322C12.9022 7.62669 13.0412 7.3851 13.2483 7.21101C13.4554 7.03692 13.7173 6.94149 13.9879 6.94154C14.3402 6.94154 14.6713 7.10507 14.8875 7.37659C14.9076 7.40225 14.937 7.41435 14.9667 7.41435C14.9863 7.41457 15.0056 7.40916 15.0223 7.39876C15.039 7.38837 15.0524 7.37343 15.0609 7.35569C15.153 7.15697 15.3001 6.98874 15.4847 6.87083C15.6693 6.75292 15.8837 6.69024 16.1028 6.69019" fill="white"/>
<path fill-rule="evenodd" clip-rule="evenodd" d="M20.4461 20.2854C19.4102 20.2854 19.4916 18.8232 20.4461 18.8232C21.4005 18.8232 21.4819 20.2854 20.4461 20.2854ZM11.887 20.2854C10.8511 20.2854 10.9325 18.8232 11.887 18.8232C12.8414 18.8232 12.9228 20.2854 11.887 20.2854ZM23.5754 14.883H23.2245C22.926 14.8829 22.6339 14.7964 22.3834 14.634C22.133 14.4716 21.9349 14.2402 21.813 13.9678C21.6911 14.2402 21.4929 14.4716 21.2424 14.634C20.992 14.7964 20.6998 14.8829 20.4013 14.883C20.1028 14.8829 19.8107 14.7964 19.5603 14.634C19.3098 14.4716 19.1117 14.2402 18.9898 13.9678C18.8679 14.2403 18.6698 14.4717 18.4193 14.6341C18.1688 14.7964 17.8767 14.8829 17.5782 14.883C17.2797 14.8829 16.9876 14.7964 16.7371 14.634C16.4867 14.4716 16.2886 14.2402 16.1667 13.9678C16.0448 14.2402 15.8467 14.4716 15.5962 14.634C15.3458 14.7964 15.0537 14.8829 14.7552 14.883C14.4567 14.8829 14.1646 14.7964 13.9141 14.634C13.6636 14.4716 13.4655 14.2402 13.3435 13.9678C13.2217 14.2402 13.0235 14.4716 12.7731 14.634C12.5226 14.7964 12.2306 14.8829 11.9321 14.883C11.6336 14.8829 11.3415 14.7964 11.091 14.634C10.8406 14.4716 10.6425 14.2402 10.5206 13.9678C10.3987 14.2403 10.2005 14.4717 9.95003 14.6341C9.69955 14.7964 9.40743 14.8829 9.10891 14.883H8.76204C8.23569 15.4493 8.56954 15.9276 9.86938 15.9276V18.8356C9.86938 21.5686 13.0163 22.9352 16.1632 22.9352C19.3103 22.9352 22.4572 21.5686 22.4572 18.8358V15.9274C23.7582 15.9274 24.0977 15.4489 23.5754 14.8828" fill="black"/>
<path fill-rule="evenodd" clip-rule="evenodd" d="M16.266 5.52734C15.8051 5.52734 15.364 5.67163 14.9977 5.92573C14.5552 5.75343 14.0693 5.72703 13.6108 5.85038C13.1723 5.96846 12.7803 6.21774 12.4875 6.56483C12.4059 6.55559 12.3239 6.55094 12.2418 6.55089C11.8526 6.55089 11.4681 6.65411 11.1299 6.84936C10.7371 7.07686 10.4231 7.41895 10.2301 7.82983C9.76078 7.90045 9.32668 8.1203 8.99204 8.45683C8.67104 8.7785 8.45615 9.19069 8.37622 9.63804C7.9423 9.82859 7.58037 10.1524 7.34296 10.5626C7.11646 10.956 7.01564 11.4093 7.05402 11.8617C6.68364 12.1581 6.41769 12.5651 6.29502 13.0233C6.17811 13.4621 6.19807 13.9261 6.35222 14.3532C6.07128 14.7353 5.91981 15.1972 5.91992 15.6715C5.91992 16.1332 6.06476 16.5746 6.31922 16.9413C6.14672 17.3831 6.11993 17.8685 6.24277 18.3266C6.36095 18.765 6.61022 19.1568 6.95722 19.4497C6.90499 19.9211 7.00481 20.3969 7.24212 20.8076C7.46967 21.2007 7.81189 21.5148 8.22295 21.708C8.2946 22.1767 8.51408 22.6104 8.84941 22.9457C9.17018 23.2681 9.58261 23.4837 10.0304 23.5631C10.2211 23.9965 10.545 24.3578 10.9552 24.5944C11.3488 24.8219 11.8027 24.9233 12.2557 24.8851C12.552 25.2546 12.9585 25.5199 13.4161 25.6423C13.8553 25.7605 14.3203 25.7411 14.7482 25.5868C15.1299 25.8667 15.5909 26.0175 16.0643 26.0174C16.525 26.0174 16.9663 25.8731 17.3324 25.619C17.5869 25.7184 17.8606 25.7706 18.1424 25.7706C18.4662 25.7704 18.7861 25.6995 19.0797 25.563C19.3733 25.4264 19.6336 25.2274 19.8424 24.9799C19.924 24.9891 20.0062 24.9939 20.0885 24.9939C20.4777 24.9939 20.8621 24.8905 21.2002 24.6954C21.593 24.4679 21.907 24.1259 22.1 23.7151C22.5693 23.6445 23.0034 23.4246 23.3381 23.0881C23.659 22.7663 23.8739 22.3541 23.9539 21.9067C24.3878 21.7162 24.7497 21.3924 24.9871 20.9823C25.2137 20.5889 25.3145 20.1355 25.2761 19.6831C25.6385 19.393 25.901 18.9968 26.0269 18.55C26.1528 18.1031 26.1356 17.6281 25.9779 17.1916C26.2588 16.8094 26.4102 16.3475 26.4102 15.8732C26.4102 15.4118 26.2653 14.9701 26.0109 14.6036C26.1833 14.1617 26.21 13.6762 26.0871 13.218C25.9691 12.7796 25.7199 12.3878 25.3729 12.0951C25.4241 11.6337 25.3296 11.1678 25.1026 10.7628C24.8756 10.3578 24.5276 10.034 24.1073 9.83678C24.0357 9.36803 23.8161 8.93444 23.4807 8.59928C23.16 8.27672 22.7475 8.06102 22.2997 7.98163C22.1126 7.55698 21.7976 7.20135 21.3987 6.96437C20.9997 6.7274 20.5367 6.62092 20.0744 6.65979C19.7781 6.29036 19.3717 6.0251 18.9142 5.90263C18.475 5.78445 18.01 5.80383 17.5821 5.95818C17.2004 5.67816 16.7392 5.52723 16.2658 5.52734H16.266ZM16.2662 6.62551C16.4859 6.62552 16.7009 6.68968 16.8848 6.81011C17.0686 6.93054 17.2133 7.102 17.3011 7.30348C17.3092 7.32188 17.3225 7.33751 17.3394 7.34846C17.3562 7.3594 17.3759 7.36518 17.396 7.36508C17.4105 7.36517 17.4248 7.36206 17.4378 7.35597C17.4509 7.34989 17.4625 7.34097 17.4718 7.32988C17.5777 7.20322 17.7101 7.10129 17.8597 7.03123C18.0092 6.96118 18.1723 6.92469 18.3375 6.92434C18.6083 6.92432 18.8701 7.02164 19.0752 7.19856C19.2803 7.37547 19.415 7.6202 19.4547 7.88813C19.4575 7.90503 19.4645 7.92095 19.4751 7.93442C19.4857 7.94789 19.4995 7.95847 19.5152 7.96518C19.531 7.97189 19.5482 7.97451 19.5652 7.9728C19.5823 7.9711 19.5986 7.96511 19.6127 7.95541C19.8035 7.82183 20.0307 7.75015 20.2636 7.75008C20.4226 7.7503 20.5797 7.78411 20.7248 7.8493C20.8698 7.91449 20.9994 8.00958 21.1051 8.12836C21.2109 8.24713 21.2903 8.3869 21.3382 8.53851C21.3862 8.69012 21.4016 8.85015 21.3834 9.00811C21.3818 9.0251 21.3846 9.04219 21.3914 9.05783C21.3982 9.07347 21.4088 9.08718 21.4222 9.09769C21.4356 9.1082 21.4515 9.11519 21.4683 9.11802C21.4851 9.12085 21.5023 9.11943 21.5185 9.11389C21.6429 9.06858 21.7743 9.04538 21.9068 9.04533C22.0908 9.04552 22.2719 9.09066 22.4345 9.17683C22.5971 9.263 22.7361 9.38758 22.8395 9.53975C22.943 9.69191 23.0077 9.86704 23.028 10.0499C23.0483 10.2328 23.0237 10.4178 22.9562 10.589C22.9502 10.605 22.9483 10.6223 22.9508 10.6392C22.9532 10.6561 22.9599 10.6722 22.9701 10.6858C22.9804 10.6995 22.9939 10.7104 23.0095 10.7175C23.0251 10.7245 23.0422 10.7276 23.0592 10.7263C23.2736 10.707 23.489 10.7495 23.68 10.8487C23.8711 10.9479 24.0297 11.0997 24.1372 11.2862C24.2472 11.4768 24.2992 11.6955 24.2865 11.9152C24.2739 12.1349 24.1974 12.3462 24.0663 12.523C24.0563 12.5369 24.0501 12.5532 24.0481 12.5702C24.0461 12.5872 24.0483 12.6044 24.0547 12.6203C24.0611 12.6361 24.0714 12.6502 24.0846 12.661C24.0979 12.6719 24.1136 12.6793 24.1304 12.6825C24.3448 12.72 24.5438 12.8186 24.7034 12.9666C24.863 13.1145 24.9765 13.3055 25.0301 13.5164C25.0837 13.7274 25.0752 13.9493 25.0057 14.1555C24.9361 14.3618 24.8084 14.5435 24.6379 14.6788C24.6247 14.6897 24.6145 14.7038 24.6082 14.7196C24.6019 14.7355 24.5997 14.7527 24.6017 14.7697C24.6038 14.7867 24.6101 14.8028 24.62 14.8168C24.6299 14.8307 24.6432 14.8418 24.6586 14.8493C24.8559 14.9408 25.0225 15.0874 25.1384 15.2714C25.2543 15.4554 25.3147 15.669 25.3121 15.8864C25.3095 16.1039 25.2442 16.316 25.124 16.4972C25.0038 16.6784 24.8338 16.8211 24.6344 16.9079C24.566 16.9378 24.5506 17.0308 24.6078 17.0784C24.775 17.218 24.8982 17.4029 24.9626 17.611C25.0271 17.819 25.0299 18.0412 24.9709 18.2508C24.9119 18.4604 24.7936 18.6485 24.6301 18.7923C24.4666 18.9362 24.265 19.0297 24.0496 19.0616C24.0327 19.0644 24.0168 19.0714 24.0034 19.082C23.9899 19.0926 23.9794 19.1064 23.9727 19.1222C23.966 19.1379 23.9633 19.1551 23.965 19.1721C23.9667 19.1891 23.9726 19.2055 23.9823 19.2196C24.1075 19.3977 24.1786 19.6082 24.187 19.8257C24.1953 20.0433 24.1405 20.2586 24.0293 20.4457C23.918 20.6328 23.755 20.7838 23.5599 20.8804C23.3647 20.977 23.1459 21.015 22.9296 20.99C22.9126 20.9886 22.8955 20.9914 22.8799 20.9982C22.8642 21.005 22.8505 21.0156 22.84 21.029C22.8295 21.0425 22.8225 21.0583 22.8197 21.0751C22.8169 21.0919 22.8183 21.1092 22.8238 21.1253C22.8978 21.3274 22.9124 21.5465 22.866 21.7566C22.8196 21.9667 22.714 22.1592 22.5618 22.3113C22.4573 22.4163 22.333 22.4995 22.1961 22.5563C22.0592 22.613 21.9125 22.6421 21.7643 22.6419C21.6232 22.6419 21.482 22.6155 21.3487 22.563C21.3374 22.5584 21.3252 22.5561 21.313 22.5561C21.2989 22.5562 21.285 22.5592 21.2722 22.5649C21.2593 22.5706 21.2478 22.5788 21.2383 22.5892C21.2288 22.5995 21.2215 22.6117 21.2168 22.6249C21.2122 22.6382 21.2104 22.6523 21.2114 22.6663C21.2305 22.8806 21.188 23.096 21.0888 23.2869C20.9896 23.4779 20.8379 23.6365 20.6515 23.7441C20.4805 23.8433 20.2863 23.8955 20.0887 23.8955C19.8459 23.8954 19.6097 23.8174 19.4145 23.6731C19.3977 23.6606 19.3774 23.6539 19.3564 23.6539C19.3325 23.6538 19.3092 23.6621 19.2908 23.6773C19.2723 23.6926 19.2597 23.7138 19.2552 23.7373C19.2179 23.9518 19.1193 24.1509 18.9713 24.3106C18.8234 24.4703 18.6324 24.5839 18.4214 24.6375C18.2104 24.6911 17.9884 24.6826 17.7821 24.6129C17.5759 24.5432 17.3941 24.4154 17.2589 24.2448C17.2496 24.2331 17.2377 24.2237 17.2242 24.2174C17.2107 24.211 17.1959 24.2077 17.181 24.2079C17.1617 24.2077 17.1427 24.2129 17.1264 24.2232C17.11 24.2334 17.0969 24.248 17.0886 24.2655C16.9971 24.4628 16.8505 24.6295 16.6665 24.7454C16.4824 24.8614 16.2688 24.9217 16.0513 24.9192C15.8338 24.9166 15.6217 24.8513 15.4405 24.731C15.2593 24.6108 15.1166 24.4407 15.0298 24.2413C15.0216 24.2229 15.0083 24.2072 14.9915 24.1963C14.9746 24.1854 14.9549 24.1796 14.9348 24.1797C14.9204 24.1795 14.9061 24.1826 14.893 24.1886C14.8799 24.1947 14.8683 24.2036 14.8591 24.2147C14.7531 24.3413 14.6207 24.4432 14.4711 24.5133C14.3216 24.5833 14.1585 24.6198 13.9934 24.6202C13.7225 24.6203 13.4607 24.523 13.2557 24.3461C13.0506 24.1692 12.9159 23.9245 12.8761 23.6566C12.8734 23.6397 12.8664 23.6237 12.8558 23.6102C12.8453 23.5967 12.8314 23.5861 12.8157 23.5794C12.7999 23.5727 12.7827 23.5701 12.7656 23.5718C12.7485 23.5736 12.7322 23.5796 12.7181 23.5893C12.5274 23.7229 12.3001 23.7946 12.0673 23.7947C11.9083 23.7944 11.7511 23.7605 11.6061 23.6953C11.4611 23.63 11.3315 23.5349 11.2258 23.4162C11.1201 23.2974 11.0407 23.1576 10.9927 23.006C10.9447 22.8544 10.9293 22.6944 10.9475 22.5365C10.949 22.5195 10.9463 22.5023 10.9395 22.4867C10.9328 22.471 10.9222 22.4573 10.9087 22.4468C10.8953 22.4362 10.8794 22.4293 10.8626 22.4264C10.8458 22.4236 10.8285 22.4251 10.8124 22.4307C10.6879 22.476 10.5565 22.4992 10.4241 22.4992C10.1351 22.4992 9.84655 22.3892 9.62637 22.1689C9.47072 22.0132 9.36397 21.8154 9.31925 21.5998C9.27453 21.3843 9.29378 21.1603 9.37465 20.9556C9.38059 20.9396 9.3824 20.9223 9.37994 20.9054C9.37748 20.8885 9.37082 20.8725 9.36057 20.8588C9.35032 20.8452 9.33681 20.8343 9.32127 20.8272C9.30573 20.8201 9.28866 20.817 9.27162 20.8183C9.05724 20.8375 8.84182 20.795 8.65081 20.6958C8.45979 20.5966 8.30115 20.4448 8.19362 20.2584C8.08357 20.0677 8.03165 19.8491 8.04425 19.6293C8.05686 19.4095 8.13344 19.1982 8.26457 19.0214C8.27445 19.0075 8.28067 18.9913 8.28266 18.9743C8.28465 18.9573 8.28234 18.9401 8.27596 18.9242C8.26957 18.9084 8.25931 18.8944 8.24611 18.8835C8.23291 18.8727 8.21719 18.8653 8.20041 18.8621C7.98605 18.8246 7.78711 18.7259 7.62753 18.578C7.46794 18.43 7.35452 18.2391 7.3009 18.0282C7.24728 17.8173 7.25576 17.5954 7.32531 17.3892C7.39487 17.183 7.52253 17.0013 7.69294 16.866C7.70609 16.855 7.7163 16.841 7.72261 16.8251C7.72893 16.8092 7.73116 16.792 7.7291 16.7751C7.72704 16.7581 7.72075 16.7419 7.71081 16.728C7.70088 16.7141 7.68761 16.7029 7.67222 16.6955C7.47498 16.6039 7.30839 16.4572 7.19249 16.2732C7.07658 16.0892 7.0163 15.8756 7.01887 15.6582C7.02145 15.4407 7.08678 15.2286 7.20701 15.0474C7.32724 14.8662 7.49725 14.7235 7.6966 14.6366C7.7648 14.6067 7.78021 14.5138 7.72301 14.4661C7.55592 14.3265 7.43277 14.1416 7.36839 13.9336C7.30401 13.7256 7.30114 13.5034 7.36014 13.2938C7.41914 13.0843 7.53748 12.8962 7.70091 12.7524C7.86434 12.6085 8.06588 12.515 8.28126 12.483C8.2981 12.4801 8.31396 12.4731 8.32737 12.4625C8.34079 12.4519 8.35132 12.4381 8.35802 12.4224C8.36471 12.4066 8.36736 12.3895 8.3657 12.3725C8.36404 12.3554 8.35814 12.3391 8.34854 12.325C8.22328 12.1469 8.15221 11.9364 8.14387 11.7189C8.13554 11.5013 8.19031 11.286 8.30157 11.0989C8.41284 10.9117 8.57586 10.7608 8.77097 10.6642C8.96608 10.5676 9.18497 10.5295 9.40124 10.5545C9.41824 10.556 9.43536 10.5533 9.45102 10.5465C9.46669 10.5397 9.4804 10.5291 9.49092 10.5156C9.50144 10.5022 9.50842 10.4863 9.51123 10.4695C9.51404 10.4526 9.5126 10.4354 9.50702 10.4192C9.43306 10.2171 9.41841 9.99809 9.4648 9.78793C9.51118 9.57778 9.61666 9.38526 9.76882 9.23306C9.87346 9.12817 9.9978 9.045 10.1347 8.98833C10.2716 8.93167 10.4183 8.90262 10.5665 8.90288C10.7077 8.90288 10.8488 8.92909 10.9821 8.98171C10.9939 8.98629 11.006 8.98849 11.0177 8.98849C11.0317 8.9884 11.0456 8.98543 11.0585 8.97977C11.0713 8.9741 11.0829 8.96586 11.0924 8.95554C11.1019 8.94523 11.1093 8.93308 11.1139 8.91982C11.1186 8.90657 11.1204 8.8925 11.1194 8.87849C11.1002 8.66173 11.144 8.44402 11.2455 8.25157C11.3471 8.05911 11.5021 7.90011 11.692 7.79371C11.8818 7.68731 12.0983 7.63804 12.3155 7.65183C12.5327 7.66562 12.7413 7.74189 12.9161 7.87144C12.933 7.88387 12.9534 7.89055 12.9744 7.89051C12.9983 7.89064 13.0216 7.88238 13.04 7.86718C13.0585 7.85198 13.0711 7.83078 13.0756 7.80728C13.1131 7.59288 13.2118 7.39389 13.3597 7.23427C13.5077 7.07465 13.6986 6.9612 13.9096 6.90758C14.1205 6.85396 14.3424 6.86245 14.5487 6.93204C14.7549 7.00163 14.9366 7.12935 15.0719 7.29981C15.0812 7.31149 15.093 7.3209 15.1065 7.32731C15.12 7.33373 15.1347 7.33699 15.1497 7.33684C15.1874 7.33684 15.2248 7.31668 15.2424 7.27891C15.333 7.08372 15.4775 6.91849 15.6589 6.80269C15.8403 6.68689 16.051 6.62536 16.2662 6.62533" fill="black"/>
</g>
</svg>
