<svg width="32" height="32" viewBox="0 0 32 32" fill="none" xmlns="http://www.w3.org/2000/svg">
<path d="M2 11.9556C2 8.47078 2 6.7284 2.67818 5.39739C3.27473 4.22661 4.22661 3.27473 5.39739 2.67818C6.7284 2 8.47078 2 11.9556 2H20.0444C23.5292 2 25.2716 2 26.6026 2.67818C27.7734 3.27473 28.7253 4.22661 29.3218 5.39739C30 6.7284 30 8.47078 30 11.9556V20.0444C30 23.5292 30 25.2716 29.3218 26.6026C28.7253 27.7734 27.7734 28.7253 26.6026 29.3218C25.2716 30 23.5292 30 20.0444 30H11.9556C8.47078 30 6.7284 30 5.39739 29.3218C4.22661 28.7253 3.27473 27.7734 2.67818 26.6026C2 25.2716 2 23.5292 2 20.0444V11.9556Z" fill="white"/>
<path d="M10 8L6 12H10V8Z" fill="#E54635"/>
<path d="M18 16L24.8933 10.1792C25.3371 9.75745 26 10.1274 26 10.7967V21.2033C26 21.8727 25.3371 22.2425 24.8933 21.8208L18 16Z" fill="#34A851"/>
<path d="M22 16H18V20H10V24H20C21.1046 24 22 23.1046 22 22V16Z" fill="#02AA49"/>
<path d="M22 10C22 8.89543 21.1046 8 20 8H10V12H18V16H22V10Z" fill="#FCB900"/>
<rect x="6" y="12" width="4" height="8" fill="#2785FC"/>
<path d="M6 20H10V24H8C6.89543 24 6 23.1046 6 22V20Z" fill="#0364D7"/>
<path d="M22 12.6223L18 15.9999L22 19.3776V12.6223Z" fill="#01832C"/>
</svg>
