<svg width="32" height="32" viewBox="0 0 32 32" fill="none" xmlns="http://www.w3.org/2000/svg">
<path d="M2 11.9556C2 8.47078 2 6.7284 2.67818 5.39739C3.27473 4.22661 4.22661 3.27473 5.39739 2.67818C6.7284 2 8.47078 2 11.9556 2H20.0444C23.5292 2 25.2716 2 26.6026 2.67818C27.7734 3.27473 28.7253 4.22661 29.3218 5.39739C30 6.7284 30 8.47078 30 11.9556V20.0444C30 23.5292 30 25.2716 29.3218 26.6026C28.7253 27.7734 27.7734 28.7253 26.6026 29.3218C25.2716 30 23.5292 30 20.0444 30H11.9556C8.47078 30 6.7284 30 5.39739 29.3218C4.22661 28.7253 3.27473 27.7734 2.67818 26.6026C2 25.2716 2 23.5292 2 20.0444V11.9556Z" fill="white"/>
<path d="M23.1174 24.4307L12.8761 7.18049C13.1279 7.0634 13.4052 7 13.6913 7H18.3086C19.0071 7 19.6529 7.37782 20.0049 7.99226L25.7325 17.9923C26.0891 18.615 26.0891 19.385 25.7325 20.0077L23.4414 24.0077C23.3513 24.165 23.242 24.3068 23.1174 24.4307Z" fill="#FCB900"/>
<path d="M8.88553 24.4307L19.1269 7.18049C18.875 7.0634 18.5977 7 18.3116 7H13.6943C12.9959 7 12.35 7.37782 11.9981 7.99226L6.27046 17.9923C5.91379 18.615 5.91379 19.385 6.27046 20.0077L8.56151 24.0077C8.6516 24.165 8.76096 24.3068 8.88553 24.4307Z" fill="#02AA49"/>
<path d="M12.8767 7.18157L16.0014 12.4448L19.1262 7.18157C18.8737 7.06379 18.5956 7 18.3086 7H13.6943C13.4073 7 13.1292 7.06379 12.8767 7.18157Z" fill="#01832C"/>
<path d="M26 19H6C6 19.3482 6.08917 19.6964 6.2675 20.0077L8.55855 24.0077C8.91047 24.6222 9.55635 25 10.2548 25H21.7452C22.4436 25 23.0895 24.6222 23.4415 24.0077L25.7325 20.0077C25.9108 19.6964 26 19.3482 26 19Z" fill="#2785FC"/>
<path d="M12.1097 19L8.88556 24.4307C8.76099 24.3068 8.65163 24.165 8.56154 24.0077L6.27049 20.0077C6.09216 19.6964 6.00299 19.3482 6.00299 19H12.1097Z" fill="#0364D7"/>
<path d="M19.8932 19L23.1174 24.4307C23.242 24.3068 23.3513 24.165 23.4414 24.0077L25.7325 20.0077C25.9108 19.6964 26 19.3482 26 19H19.8932Z" fill="#E54635"/>
</svg>
